<?xml version="1.0" encoding="UTF-8"?>
<svg id="Ebene_1" data-name="Ebene 1" xmlns="http://www.w3.org/2000/svg" viewBox="0 0 33.5 67">
  <defs>
    <style>
      .cls-1 {
        fill: #4a3c27;
      }

      .cls-1, .cls-2 {
        stroke-width: 0px;
      }

      .cls-2 {
        fill: #8a724f;
      }
    </style>
  </defs>
  <path class="cls-1" d="M33.5,67v-4.95s-.01,0-.02,0c-15.77,0-28.55-12.78-28.55-28.55S17.72,4.95,33.48,4.95c0,0,.01,0,.02,0V0H0v67h33.5Z"/>
  <path class="cls-2" d="M4,63h29.5v-2c-15.16,0-27.5-12.34-27.5-27.5S18.34,6,33.5,6v-2H4v59ZM22.84,6c-2.9,1.13-5.59,2.7-7.96,4.64.08-.37.12-.75.12-1.14,0-1.33-.47-2.55-1.26-3.5h9.1ZM9.5,6c1.93,0,3.5,1.57,3.5,3.5,0,.6-.17,1.16-.43,1.65l-4.72-4.72c.49-.27,1.05-.43,1.65-.43ZM6.43,7.85l4.72,4.72c-.49.27-1.05.43-1.65.43-1.93,0-3.5-1.57-3.5-3.5,0-.6.17-1.16.43-1.65ZM6,13.74c.95.79,2.17,1.26,3.5,1.26.39,0,.78-.04,1.15-.12-1.94,2.38-3.52,5.06-4.65,7.96v-9.1ZM15,57.5c0-.39-.04-.77-.12-1.14,2.38,1.94,5.06,3.51,7.96,4.64h-9.1c.79-.95,1.26-2.17,1.26-3.5ZM13,57.5c0,1.93-1.57,3.5-3.5,3.5-.49,0-.95-.1-1.37-.28l4.59-4.59c.18.42.28.89.28,1.37ZM6,44.16c1.13,2.9,2.7,5.59,4.64,7.96-.37-.08-.75-.12-1.14-.12-1.33,0-2.55.47-3.5,1.26v-9.1ZM9.5,54c.71,0,1.38.22,1.93.59l-4.85,4.85c-.37-.55-.59-1.22-.59-1.93,0-1.93,1.57-3.5,3.5-3.5Z"/>
</svg>