<?xml version="1.0" encoding="UTF-8"?>
<svg id="Ebene_1" data-name="Ebene 1" xmlns="http://www.w3.org/2000/svg" viewBox="0 0 33.5 67">
  <defs>
    <style>
      .cls-1 {
        fill: #4a3c27;
      }

      .cls-1, .cls-2 {
        stroke-width: 0px;
      }

      .cls-2 {
        fill: #8a724f;
      }
    </style>
  </defs>
  <path class="cls-1" d="M0,0v4.95s.01,0,.02,0c15.77,0,28.55,12.78,28.55,28.55S15.78,62.05.02,62.05c0,0-.01,0-.02,0v4.95h33.5V0H0Z"/>
  <path class="cls-2" d="M29.5,4H0v2c15.16,0,27.5,12.34,27.5,27.5S15.16,61,0,61v2h29.5V4ZM10.66,61c2.9-1.13,5.59-2.7,7.96-4.64-.08.37-.12.75-.12,1.14,0,1.33.47,2.55,1.26,3.5h-9.1ZM24,61c-1.93,0-3.5-1.57-3.5-3.5,0-.6.17-1.16.43-1.65l4.72,4.72c-.49.27-1.05.43-1.65.43ZM27.07,59.15l-4.72-4.72c.49-.27,1.05-.43,1.65-.43,1.93,0,3.5,1.57,3.5,3.5,0,.6-.17,1.16-.43,1.65ZM27.5,53.26c-.95-.79-2.17-1.26-3.5-1.26-.39,0-.78.04-1.15.12,1.94-2.38,3.52-5.06,4.65-7.96v9.1ZM18.5,9.5c0,.39.04.77.12,1.14-2.38-1.94-5.06-3.51-7.96-4.64h9.1c-.79.95-1.26,2.17-1.26,3.5ZM20.5,9.5c0-1.93,1.57-3.5,3.5-3.5.49,0,.95.1,1.37.28l-4.59,4.59c-.18-.42-.28-.89-.28-1.37ZM27.5,22.84c-1.13-2.9-2.7-5.59-4.64-7.96.37.08.75.12,1.14.12,1.33,0,2.55-.47,3.5-1.26v9.1ZM24,13c-.71,0-1.38-.22-1.93-.59l4.85-4.85c.37.55.59,1.22.59,1.93,0,1.93-1.57,3.5-3.5,3.5Z"/>
</svg>