<svg version="1.2" xmlns="http://www.w3.org/2000/svg" viewBox="0 0 721 103" width="721" height="103">
	<title>Ornament 01</title>
	<defs>
		<clipPath clipPathUnits="userSpaceOnUse" id="cp1">
			<path d="m2440.81 2427.81h-2463.88v-2455.74h2463.88z"/>
		</clipPath>
	</defs>
	<style>
		.s0 { fill: #eace78 } 
	</style>
	<g id="g8">
		<g id="g12">
			<g id="Clip-Path: g14" clip-path="url(#cp1)">
				<g id="g14">
					<path id="path778" fill-rule="evenodd" class="s0" d="m716.4 23.4h-714v-2.6h714z"/>
					<g id="g780">
						<path id="path782" class="s0" d="m358.5 62.4c0-2 0.4-4 1.1-5.9 1.5-4.1 6.1-11.3 19.5-13.4 25.8-4.1 51.4 8.2 57.4 11.3 12.4-30 61.4-33.4 63.5-33.6l0.1 2.6c-0.5 0-50.9 3.5-61.8 33.3l-0.5 1.4-1.3-0.7c-0.3-0.2-28.5-16.3-57-11.7-9 1.4-15.2 5.6-17.5 11.7-1.8 4.7-0.9 10.1 2.2 13.9 3.4 4.1 8.8 5.9 14.8 4.9 6.3-1 10.5-3.7 12-7.6 1.2-3.3 0.4-7.1-2-10.1-2.4-3-6-4.4-9.5-3.8l-0.5-2.6c4.5-0.7 9 1 12 4.7 3 3.7 3.9 8.6 2.4 12.7-1.8 4.8-6.8 8.1-13.9 9.3-7 1.1-13.3-1-17.3-5.8-2.4-3-3.7-6.8-3.7-10.6z"/>
					</g>
					<path id="path784" fill-rule="evenodd" class="s0" d="m433.6 34.5h-54.3v-2.6h54.3z"/>
					<g id="g786">
						<path id="path788" class="s0" d="m208.7 23.4l0.2-2.6c2.1 0.2 51 3.6 63.5 33.6 6-3.1 31.5-15.4 57.4-11.3 13.3 2.1 17.9 9.3 19.4 13.4 2.2 5.6 1.2 11.9-2.6 16.5-4 4.8-10.2 6.9-17.2 5.8-7.2-1.2-12.2-4.5-14-9.3-1.5-4.1-0.6-9 2.5-12.7 3-3.7 7.4-5.4 11.9-4.7l-0.4 2.6c-3.6-0.6-7.1 0.8-9.5 3.8-2.5 3-3.3 6.8-2.1 10.1 1.5 3.9 5.8 6.6 12 7.6 6 1 11.5-0.8 14.8-4.9 3.2-3.8 4-9.2 2.2-13.9-2.3-6.1-8.5-10.3-17.4-11.7-28.6-4.6-56.8 11.5-57 11.7l-1.4 0.7-0.5-1.4c-10.9-29.8-61.3-33.3-61.8-33.3z"/>
					</g>
					<path id="path790" fill-rule="evenodd" class="s0" d="m329.6 34.5h-54.3v-2.6h54.3z"/>
					<g id="g792">
						<path id="path794" fill-rule="evenodd" class="s0" d="m349.1 36.2c0-3.6 2.9-6.6 6.6-6.6 3.7 0 6.6 3 6.6 6.6 0 3.7-2.9 6.7-6.6 6.7-3.7 0-6.6-3-6.6-6.7z"/>
					</g>
					<g id="g796">
						<path id="path798" fill-rule="evenodd" class="s0" d="m349.1 90.2c0-3.7 2.9-6.6 6.6-6.6 3.7 0 6.6 2.9 6.6 6.6 0 3.7-2.9 6.6-6.6 6.6-3.7 0-6.6-2.9-6.6-6.6z"/>
					</g>
					<g id="g800">
						<path id="path802" fill-rule="evenodd" class="s0" d="m373.3 58.9c0-3.6 2.9-6.6 6.6-6.6 3.7 0 6.6 3 6.6 6.6 0 3.7-2.9 6.7-6.6 6.7-3.7 0-6.6-3-6.6-6.7z"/>
					</g>
					<g id="g804">
						<path id="path806" fill-rule="evenodd" class="s0" d="m321.5 58.7c0-3.6 3-6.6 6.7-6.6 3.6 0 6.6 3 6.6 6.6 0 3.7-3 6.7-6.6 6.7-3.7 0-6.7-3-6.7-6.7z"/>
					</g>
					<g id="g808">
						<path id="path810" fill-rule="evenodd" class="s0" d="m588.1 22.1c0-7 5.7-12.8 12.8-12.8 7.1 0 12.8 5.8 12.8 12.8 0 7.1-5.7 12.8-12.8 12.8-7.1 0-12.8-5.7-12.8-12.8z"/>
					</g>
					<g id="g812">
						<path id="path814" fill-rule="evenodd" class="s0" d="m629.4 22.1c0-5.9 4.8-10.7 10.7-10.7 5.9 0 10.7 4.8 10.7 10.7 0 5.9-4.8 10.7-10.7 10.7-5.9 0-10.7-4.8-10.7-10.7z"/>
					</g>
					<g id="g816">
						<path id="path818" fill-rule="evenodd" class="s0" d="m665.3 22.1c0-4.2 3.4-7.6 7.6-7.6 4.2 0 7.7 3.4 7.7 7.6 0 4.3-3.5 7.7-7.7 7.7-4.2 0-7.6-3.4-7.6-7.7z"/>
					</g>
					<g id="g820">
						<path id="path822" fill-rule="evenodd" class="s0" d="m111.6 22.1c0-7 5.8-12.8 12.8-12.8 7.1 0 12.8 5.8 12.8 12.8 0 7.1-5.7 12.8-12.8 12.8-7 0-12.8-5.7-12.8-12.8z"/>
					</g>
					<g id="g824">
						<path id="path826" fill-rule="evenodd" class="s0" d="m74.6 22.1c0-5.9 4.7-10.7 10.6-10.7 6 0 10.7 4.8 10.7 10.7 0 5.9-4.7 10.7-10.7 10.7-5.9 0-10.6-4.8-10.6-10.7z"/>
					</g>
					<g id="g828">
						<path id="path830" fill-rule="evenodd" class="s0" d="m44.8 22.1c0-4.2 3.4-7.6 7.6-7.6 4.2 0 7.7 3.4 7.7 7.6 0 4.3-3.5 7.7-7.7 7.7-4.2 0-7.6-3.4-7.6-7.7z"/>
					</g>
					<g id="g832">
						<path id="path834" class="s0" d="m506 35c74.4-12.6 118.3 29.3 126.3 37.7 22.6-45.4 76.9-51.8 77.4-51.9l0.3 2.6c-0.5 0.1-54.7 6.5-76.2 52.2l-0.9 1.8-1.3-1.6c-0.4-0.5-44.5-52-125.2-38.3z"/>
					</g>
					<g id="g836">
						<path id="path838" class="s0" d="m14.5 23.4l0.3-2.6c0.5 0.1 54.8 6.5 77.4 51.9 8-8.4 51.9-50.3 126.3-37.7l-0.4 2.5c-80.7-13.7-124.8 37.8-125.2 38.3l-1.3 1.6-0.9-1.8c-21.5-45.8-75.7-52.1-76.2-52.2z"/>
					</g>
					<path id="path840" fill-rule="evenodd" class="s0" d="m575.8 12.7h-424.2v-2.5h424.2z"/>
					<path id="path842" fill-rule="evenodd" class="s0" d="m500 4h-298.8v-2.6h298.8z"/>
				</g>
			</g>
		</g>
	</g>
</svg>