<svg id="svg" version="1.1" xmlns="http://www.w3.org/2000/svg" xmlns:xlink="http://www.w3.org/1999/xlink" width="400" height="400" viewBox="0, 0, 400,400"><g id="svgg"><path id="path1" d="M233.523 19.856 C 233.439 20.077,233.095 21.441,232.760 22.886 C 229.699 36.061,231.604 43.944,242.065 61.401 C 245.497 67.130,245.430 67.003,245.141 67.186 C 243.975 67.925,232.186 65.618,224.640 63.174 C 221.267 62.083,221.348 62.049,222.639 64.020 C 225.338 68.143,230.131 73.005,236.636 78.221 C 237.707 79.079,238.958 80.125,239.417 80.543 L 240.250 81.304 239.500 81.624 C 238.537 82.034,235.632 82.822,232.250 83.591 L 229.583 84.196 222.917 84.102 C 219.250 84.050,215.875 83.967,215.417 83.916 L 214.583 83.823 215.833 85.011 C 220.369 89.323,225.513 92.375,232.568 94.941 C 233.659 95.338,234.742 95.787,234.973 95.938 L 235.394 96.214 234.989 96.549 C 232.789 98.366,222.421 101.570,213.596 103.161 C 210.347 103.746,210.436 103.709,211.276 104.137 C 215.882 106.486,224.213 109.261,231.117 110.746 C 236.175 111.834,235.658 111.550,238.875 115.003 C 243.504 119.972,243.812 120.227,258.917 131.584 C 271.368 140.945,271.547 141.155,277.429 153.269 L 279.299 157.121 280.691 158.281 C 281.457 158.918,283.208 160.327,284.583 161.413 C 285.958 162.498,287.707 164.019,288.469 164.793 C 289.231 165.567,289.877 166.174,289.903 166.142 C 289.929 166.110,290.762 164.583,291.755 162.750 C 294.430 157.809,294.639 157.469,296.645 154.750 C 297.661 153.375,298.493 152.205,298.496 152.151 C 298.498 152.096,297.769 151.350,296.875 150.492 C 295.981 149.634,292.063 145.819,288.167 142.014 C 284.271 138.209,279.771 133.818,278.168 132.256 C 276.564 130.694,273.639 127.839,271.668 125.910 C 269.696 123.982,267.231 121.582,266.190 120.577 C 264.250 118.706,262.951 116.960,260.264 112.611 C 256.448 106.439,255.504 102.078,256.592 95.667 C 256.954 93.535,257.111 86.833,256.842 84.994 C 256.305 81.315,250.036 66.916,244.840 57.422 C 242.928 53.930,239.500 47.165,239.500 46.886 C 239.500 46.301,240.227 47.011,241.749 49.083 C 247.421 56.809,257.617 66.852,266.667 73.630 C 272.189 77.766,274.063 79.283,276.917 81.929 C 278.292 83.204,282.043 86.685,285.252 89.665 C 288.462 92.645,293.000 96.803,295.336 98.906 C 302.631 105.471,304.321 107.406,305.364 110.385 C 306.151 112.632,305.624 120.178,304.400 124.208 C 304.325 124.455,304.423 124.500,305.030 124.502 C 306.580 124.508,307.002 125.090,307.505 127.917 C 307.925 130.281,307.933 130.293,308.808 129.846 C 309.668 129.407,311.216 129.000,312.023 129.000 C 312.744 129.000,313.085 128.290,314.243 124.381 C 314.572 123.267,315.251 121.235,315.750 119.863 C 317.528 114.978,317.575 114.579,316.600 112.577 C 315.531 110.378,313.499 108.402,309.500 105.671 C 306.809 103.834,306.355 103.464,302.667 100.106 C 292.004 90.398,286.926 84.681,280.687 75.362 C 275.024 66.904,270.057 55.473,266.745 43.275 C 265.646 39.229,265.582 39.397,265.588 46.300 C 265.595 53.715,266.010 57.257,267.755 64.808 C 268.165 66.581,268.500 68.063,268.500 68.100 C 268.500 68.645,265.347 66.450,260.833 62.762 C 248.262 52.490,238.584 37.447,234.330 21.566 C 233.725 19.307,233.729 19.315,233.523 19.856 M202.367 46.208 C 199.806 50.841,198.635 54.692,198.656 58.417 C 198.672 61.439,198.723 61.575,199.839 61.620 C 204.420 61.807,210.452 62.475,215.924 63.401 C 217.753 63.711,219.274 63.942,219.304 63.914 C 219.334 63.887,218.304 63.324,217.016 62.663 C 208.774 58.436,206.604 55.689,203.821 45.958 C 203.362 44.353,203.396 44.347,202.367 46.208 M175.853 46.542 C 173.854 52.824,173.627 57.047,175.027 61.917 C 175.507 63.587,175.428 63.549,177.655 63.161 C 181.917 62.420,187.468 61.845,192.917 61.583 C 196.462 61.412,196.454 61.356,192.751 60.333 C 184.340 58.012,181.449 55.719,177.258 48.042 C 175.995 45.728,176.083 45.822,175.853 46.542 M227.241 48.917 C 224.627 52.949,223.005 57.520,223.001 60.859 L 223.000 62.136 225.125 62.819 C 229.789 64.319,240.904 66.818,241.272 66.450 C 241.309 66.413,239.693 65.286,237.682 63.946 C 231.223 59.641,229.422 56.850,228.089 49.083 L 227.889 47.917 227.241 48.917 M241.678 50.083 C 241.678 50.269,242.303 51.474,245.868 58.167 C 249.798 65.543,255.180 77.480,256.873 82.576 L 257.540 84.583 257.620 88.750 L 257.701 92.917 259.320 96.083 C 265.066 107.325,270.027 112.328,277.595 114.510 C 279.865 115.165,279.947 115.209,280.091 115.874 C 280.156 116.172,280.271 116.581,280.347 116.782 L 280.484 117.147 281.450 116.798 C 284.237 115.793,287.264 116.756,290.527 119.687 L 291.804 120.834 292.610 120.475 C 295.245 119.301,298.118 120.713,299.567 123.893 L 300.131 125.129 301.857 124.814 C 303.951 124.433,303.861 124.544,304.311 121.795 C 304.964 117.808,304.921 117.741,298.083 111.913 C 288.154 103.451,286.895 102.012,283.721 95.500 C 277.450 82.635,276.597 81.576,266.667 74.338 C 258.574 68.439,247.225 57.412,242.047 50.416 C 241.844 50.141,241.677 49.992,241.678 50.083 M150.266 54.224 C 149.879 56.289,150.278 62.836,150.932 65.129 C 151.399 66.769,153.328 70.500,153.708 70.500 C 153.888 70.500,155.246 69.984,156.726 69.354 C 161.729 67.223,165.699 65.888,171.250 64.469 L 172.750 64.086 170.333 63.968 C 160.650 63.495,158.264 62.299,150.982 54.272 L 150.381 53.609 150.266 54.224 M188.667 62.433 C 155.438 65.165,133.418 79.296,123.189 104.452 C 114.785 125.117,116.986 154.801,128.442 175.332 C 133.154 183.775,136.274 187.637,148.504 200.167 C 161.408 213.386,165.494 218.746,171.404 230.203 C 173.242 233.766,173.600 234.554,175.626 239.500 L 176.888 242.583 177.010 248.083 C 177.077 251.108,177.251 254.933,177.396 256.583 C 178.284 266.671,178.225 275.539,177.232 281.000 C 171.684 311.524,136.236 326.308,112.000 308.207 C 101.680 300.500,94.890 289.063,92.409 275.214 L 92.134 273.677 90.275 271.954 C 86.748 268.683,83.028 265.667,82.521 265.667 C 82.275 265.667,82.279 265.745,82.655 268.083 C 83.890 275.761,83.624 282.718,81.843 289.302 C 81.506 290.545,81.515 290.558,78.165 283.638 C 75.588 278.312,72.534 274.235,67.523 269.427 C 66.656 268.596,66.795 268.269,66.010 273.004 C 64.941 279.457,63.706 284.434,62.230 288.240 C 61.084 291.197,61.040 290.567,62.753 295.667 C 71.956 323.059,91.301 345.966,112.147 354.155 C 134.225 362.828,157.083 359.229,179.525 343.546 C 197.354 331.088,207.846 315.746,213.752 293.500 C 217.650 278.820,219.935 272.010,223.399 264.755 C 227.769 255.603,236.220 243.394,239.226 241.891 C 241.048 240.980,243.768 239.311,247.167 237.019 C 260.458 228.056,265.056 225.437,271.301 223.271 C 289.239 217.053,309.659 224.008,320.413 240.000 C 332.206 257.535,327.461 282.769,309.392 298.607 C 307.973 299.852,306.745 301.044,306.665 301.256 C 306.115 302.701,304.740 309.852,304.565 312.177 L 304.447 313.738 305.780 312.528 C 310.169 308.545,316.857 304.811,323.565 302.599 C 326.865 301.510,326.872 301.545,324.075 305.417 C 319.556 311.672,316.937 317.193,315.437 323.625 C 314.957 325.683,314.675 325.630,318.432 324.185 C 324.331 321.915,330.235 320.218,334.750 319.493 C 337.336 319.079,337.010 319.286,339.453 316.500 C 368.978 282.833,375.287 243.190,355.500 215.667 C 339.847 193.894,308.512 179.836,281.167 182.318 C 274.807 182.896,272.104 183.428,259.917 186.507 C 249.653 189.099,247.352 189.636,244.583 190.083 C 234.367 191.731,224.052 192.053,215.464 190.991 C 208.090 190.080,207.361 189.894,204.750 188.254 C 202.997 187.153,197.125 184.200,192.333 182.010 C 169.410 171.535,158.777 157.744,158.788 138.500 C 158.806 107.880,188.147 89.298,219.814 99.851 L 222.379 100.705 223.814 100.331 C 226.682 99.583,233.944 96.886,234.325 96.427 C 234.451 96.274,233.906 96.003,232.122 95.332 C 224.789 92.573,219.332 89.212,214.342 84.379 C 213.031 83.110,213.169 83.053,216.700 83.406 C 224.489 84.184,228.899 83.902,235.966 82.170 C 239.940 81.197,239.913 81.535,236.250 78.584 C 231.400 74.678,227.778 71.214,224.544 67.389 C 222.698 65.206,223.011 65.360,218.667 64.509 C 208.096 62.438,197.511 61.705,188.667 62.433 M125.938 69.800 C 125.714 70.162,127.332 75.168,128.292 77.083 C 129.457 79.408,131.354 81.882,133.350 83.681 L 134.665 84.867 136.958 82.661 C 141.076 78.697,145.152 75.538,149.110 73.244 C 150.336 72.533,151.316 71.927,151.287 71.898 C 151.257 71.869,150.000 72.250,148.492 72.746 C 139.740 75.622,134.143 74.896,126.390 69.881 C 126.192 69.753,125.989 69.716,125.938 69.800 M130.570 88.772 C 123.654 94.362,120.068 95.431,111.612 94.429 C 108.711 94.085,108.760 94.064,109.597 95.284 C 112.022 98.817,116.371 102.438,119.864 103.833 C 122.435 104.860,122.343 104.881,123.074 103.081 C 124.657 99.181,128.944 91.883,131.589 88.583 C 132.661 87.247,132.720 87.167,132.632 87.167 C 132.590 87.167,131.662 87.889,130.570 88.772 M257.192 94.699 C 256.106 101.106,256.710 105.514,259.277 109.910 L 260.052 111.237 260.270 110.494 C 260.832 108.578,262.245 107.140,264.042 106.656 C 264.851 106.437,264.846 106.410,263.656 104.806 C 262.254 102.914,261.218 101.132,259.228 97.189 C 258.287 95.321,257.483 93.761,257.443 93.721 C 257.403 93.681,257.290 94.121,257.192 94.699 M294.569 101.570 C 293.934 101.847,293.390 102.519,293.177 103.289 C 292.491 105.773,295.618 107.511,297.309 105.586 C 299.149 103.490,297.090 100.473,294.569 101.570 M120.235 109.208 C 115.929 116.415,113.154 118.525,105.583 120.347 C 104.392 120.634,103.322 120.921,103.206 120.984 C 102.725 121.247,109.282 124.754,111.300 125.313 C 112.607 125.675,115.874 126.059,116.914 125.972 C 117.735 125.903,117.706 125.995,118.156 122.083 C 118.680 117.534,119.854 112.067,121.065 108.542 C 121.610 106.955,121.555 106.999,120.235 109.208 M312.617 112.692 C 315.353 114.748,315.483 116.145,313.479 121.957 C 312.462 124.907,311.090 127.336,311.384 125.667 C 311.440 125.346,311.612 123.208,311.766 120.917 L 312.046 116.750 311.432 114.368 C 311.094 113.059,310.776 111.877,310.724 111.743 C 310.539 111.260,311.059 111.521,312.617 112.692 M233.300 113.107 C 232.289 114.670,229.967 116.167,228.554 116.167 C 228.376 116.167,228.327 116.225,228.425 116.319 C 228.679 116.564,241.520 119.388,241.968 119.298 C 242.109 119.269,241.128 118.104,239.542 116.417 C 234.916 111.496,234.489 111.269,233.300 113.107 M311.333 112.461 C 311.333 112.536,311.524 113.255,311.757 114.059 C 312.453 116.461,312.477 116.789,312.227 120.619 C 311.957 124.748,311.959 124.758,312.634 123.134 C 314.018 119.803,314.798 115.893,314.279 114.889 C 313.840 114.040,311.333 111.974,311.333 112.461 M263.583 112.999 C 263.308 113.288,262.840 113.674,262.542 113.859 C 261.874 114.272,261.869 114.436,262.501 115.308 C 263.338 116.463,263.696 116.196,264.008 114.188 C 264.265 112.533,264.200 112.353,263.583 112.999 M277.761 116.274 C 277.706 116.811,277.586 117.617,277.494 118.067 C 277.278 119.129,277.346 119.166,278.441 118.593 C 280.261 117.640,280.226 115.770,278.381 115.401 L 277.862 115.297 277.761 116.274 M268.116 116.924 C 267.802 117.355,266.695 117.977,265.625 118.324 C 264.817 118.585,264.815 118.576,266.069 119.820 C 267.521 121.258,267.776 121.098,268.398 118.368 C 268.818 116.517,268.732 116.077,268.116 116.924 M284.412 117.375 C 285.076 119.483,285.160 120.731,284.753 122.417 C 284.376 123.981,284.412 123.997,285.915 122.924 C 287.832 121.556,289.184 119.787,288.859 119.073 C 288.394 118.053,284.111 116.417,284.412 117.375 M272.234 120.851 C 271.766 121.368,270.691 121.951,269.792 122.175 C 268.792 122.425,268.780 122.375,270.176 123.754 C 271.521 125.083,271.529 125.081,272.171 123.367 C 272.487 122.522,272.813 120.500,272.633 120.500 C 272.588 120.500,272.409 120.658,272.234 120.851 M293.982 120.572 C 293.926 120.629,294.024 121.179,294.200 121.796 C 294.582 123.133,294.536 125.137,294.094 126.391 C 293.727 127.432,293.818 127.492,294.932 126.946 C 296.481 126.186,298.500 124.078,298.500 123.221 C 298.500 122.056,294.707 119.832,293.982 120.572 M245.172 122.575 C 244.460 123.727,243.222 124.555,241.179 125.244 L 240.108 125.606 241.512 125.904 C 242.285 126.069,245.347 126.758,248.318 127.436 C 251.289 128.114,253.760 128.629,253.809 128.579 C 253.960 128.429,253.232 127.828,249.303 124.861 L 245.523 122.006 245.172 122.575 M275.964 124.404 C 275.615 124.884,274.144 125.639,273.292 125.776 C 272.413 125.917,272.498 126.141,273.908 127.404 L 275.149 128.515 275.413 128.112 C 276.358 126.670,276.882 123.140,275.964 124.404 M303.000 125.112 C 302.147 125.227,302.106 125.346,302.487 126.581 C 303.003 128.251,302.912 130.339,302.256 131.875 C 301.904 132.697,303.561 131.619,305.255 129.923 C 308.209 126.965,307.082 124.560,303.000 125.112 M279.485 128.718 C 278.992 129.172,278.385 129.528,277.777 129.720 C 276.607 130.089,276.599 130.027,277.979 131.396 L 279.125 132.533 279.402 132.141 C 279.710 131.705,280.257 130.005,280.479 128.792 C 280.661 127.796,280.499 127.784,279.485 128.718 M117.456 128.667 C 117.394 128.804,117.118 129.533,116.844 130.286 C 114.702 136.171,113.322 137.754,108.010 140.413 C 105.846 141.497,105.837 141.406,108.179 142.171 C 111.230 143.168,113.845 143.395,116.554 142.897 L 118.024 142.628 117.911 141.022 C 117.848 140.139,117.746 136.942,117.683 133.917 C 117.620 130.892,117.518 128.529,117.456 128.667 M289.428 129.316 C 289.171 129.417,289.289 129.501,290.012 129.736 C 292.537 130.556,293.313 131.750,294.082 135.995 C 294.866 140.321,295.410 141.280,297.658 142.301 C 299.373 143.081,300.595 142.935,304.417 141.495 C 307.521 140.324,308.603 140.286,310.583 141.275 C 312.610 142.286,313.333 143.797,313.333 147.019 C 313.333 154.405,316.253 156.823,322.500 154.610 C 329.479 152.137,330.038 152.405,332.165 159.240 C 333.575 163.774,334.855 164.953,338.694 165.257 C 342.048 165.522,346.310 164.219,348.583 162.235 C 349.165 161.727,349.129 161.733,346.920 162.500 C 343.214 163.788,339.481 163.763,336.861 162.432 C 335.725 161.855,335.567 161.505,334.491 157.164 C 332.376 148.631,331.072 147.883,323.667 150.956 C 318.529 153.088,317.581 152.379,315.742 145.028 C 314.447 139.853,313.877 138.938,311.303 137.906 C 309.315 137.109,308.459 137.194,304.417 138.589 C 298.440 140.651,297.774 140.335,295.803 134.510 C 294.378 130.296,293.313 129.152,290.842 129.178 C 290.242 129.185,289.605 129.247,289.428 129.316 M255.100 130.134 C 254.513 131.270,252.885 132.400,251.078 132.926 C 249.777 133.304,249.501 133.215,257.250 134.919 C 260.825 135.706,263.844 136.381,263.958 136.419 C 264.671 136.660,263.677 135.809,259.875 132.926 C 255.099 129.303,255.430 129.497,255.100 130.134 M284.670 133.509 C 284.075 134.018,282.575 134.667,281.994 134.667 C 281.471 134.667,281.596 134.877,282.817 136.056 C 284.344 137.530,284.514 137.480,285.172 135.357 C 285.798 133.338,285.623 132.695,284.670 133.509 M82.667 133.728 C 82.667 133.762,82.960 133.983,83.319 134.220 C 86.896 136.588,90.078 142.754,88.900 145.033 C 88.753 145.317,87.159 147.059,85.358 148.905 C 79.478 154.932,79.439 155.682,84.779 160.197 C 88.132 163.031,88.833 163.904,88.833 165.240 C 88.833 166.523,88.513 166.910,83.310 171.917 C 80.575 174.548,80.003 175.857,80.491 178.370 C 80.911 180.534,81.429 181.241,84.500 183.840 C 89.189 187.810,89.263 188.818,85.188 193.250 C 81.920 196.805,81.588 198.509,83.650 201.158 L 83.967 201.565 83.878 200.143 C 83.736 197.855,84.464 196.380,86.563 194.703 C 92.615 189.868,92.710 186.957,86.968 182.307 C 84.219 180.081,83.762 179.246,83.858 176.628 C 83.944 174.274,84.401 173.743,88.609 171.094 C 94.405 167.445,94.200 164.116,87.851 158.742 C 84.283 155.721,84.263 154.283,87.737 150.549 C 90.899 147.150,91.573 146.042,91.572 144.250 C 91.568 141.128,87.930 135.989,84.514 134.280 C 83.459 133.752,82.667 133.515,82.667 133.728 M288.831 137.253 C 288.350 137.765,286.840 138.500,286.270 138.500 C 286.041 138.500,285.805 138.577,285.747 138.671 C 285.636 138.852,287.847 141.167,288.131 141.167 C 288.506 141.167,289.490 138.317,289.498 137.208 C 289.501 136.722,289.318 136.734,288.831 137.253 M265.167 137.487 C 265.167 138.218,262.395 139.741,260.667 139.960 L 259.583 140.098 260.083 140.363 C 260.716 140.699,272.215 145.000,272.481 145.000 C 272.734 145.000,272.558 144.666,271.719 143.550 C 269.083 140.044,265.167 136.420,265.167 137.487 M292.609 140.805 C 292.200 141.257,290.852 141.953,290.125 142.088 C 289.272 142.246,289.330 142.451,290.569 143.640 C 291.884 144.903,291.902 144.903,292.498 143.644 C 293.291 141.967,293.369 139.965,292.609 140.805 M296.857 145.337 C 296.207 145.925,295.758 146.126,294.034 146.602 C 293.685 146.699,294.041 147.182,295.227 148.223 L 296.306 149.171 296.653 148.729 C 297.156 148.089,298.002 144.635,297.647 144.674 C 297.612 144.677,297.256 144.976,296.857 145.337 M118.114 145.000 C 118.058 145.137,117.891 145.925,117.743 146.750 C 116.657 152.815,115.114 155.244,110.292 158.477 C 108.773 159.496,108.742 159.584,109.816 159.814 C 113.516 160.607,117.407 160.368,120.089 159.182 C 120.997 158.780,120.993 158.866,120.256 155.811 C 119.466 152.532,118.698 148.604,118.435 146.502 C 118.315 145.538,118.171 144.862,118.114 145.000 M121.623 164.625 C 121.487 170.098,120.936 171.434,117.092 175.597 C 115.312 177.525,115.248 177.400,117.958 177.287 C 121.525 177.137,124.655 176.162,126.795 174.532 L 127.173 174.244 125.937 171.577 C 124.086 167.584,123.236 165.532,122.483 163.238 C 122.109 162.099,121.782 161.167,121.756 161.167 C 121.729 161.167,121.670 162.723,121.623 164.625 M293.774 171.532 C 292.056 174.685,291.500 176.652,291.500 179.570 C 291.500 181.704,291.309 181.560,294.500 181.822 C 297.383 182.058,301.131 182.564,303.299 183.010 C 305.663 183.496,305.756 183.412,303.910 182.453 C 299.205 180.009,296.825 177.117,295.437 172.164 C 294.786 169.840,294.711 169.811,293.774 171.532 M312.037 174.700 C 309.625 177.573,308.456 180.043,308.094 183.031 L 307.979 183.979 309.698 184.498 C 313.199 185.555,316.650 186.740,318.989 187.687 C 321.875 188.856,321.877 188.856,320.110 187.356 C 315.349 183.314,314.090 180.951,313.712 175.347 C 313.552 172.985,313.495 172.963,312.037 174.700 M328.876 181.306 C 326.042 183.804,323.500 187.677,323.500 189.499 C 323.500 189.574,324.269 190.028,325.208 190.507 C 328.128 191.997,332.678 194.506,334.315 195.530 C 336.239 196.732,336.235 196.737,334.800 195.000 C 330.801 190.162,329.911 187.499,330.385 181.792 C 330.549 179.823,330.556 179.825,328.876 181.306 M68.583 182.011 C 67.300 182.282,64.856 182.764,63.152 183.082 C 55.124 184.582,54.516 185.383,53.340 196.000 C 52.879 200.171,51.252 207.868,49.236 215.418 C 46.620 225.219,41.109 237.099,34.781 246.583 C 31.155 252.017,28.082 255.673,21.500 262.387 C 17.227 266.746,17.239 266.708,20.667 264.877 C 28.101 260.905,33.210 257.257,38.833 251.906 C 41.273 249.585,41.419 249.548,41.265 251.292 C 39.532 270.877,31.565 288.173,17.765 302.310 L 15.917 304.203 16.583 304.091 C 19.528 303.597,25.155 301.529,28.084 299.863 C 35.489 295.653,40.218 290.238,47.251 277.917 C 51.951 269.684,51.471 270.424,51.874 270.779 C 53.220 271.968,56.917 283.197,58.573 291.128 C 58.808 292.252,59.000 293.208,59.000 293.253 C 59.000 293.674,59.464 293.067,60.082 291.837 C 62.540 286.942,64.081 281.441,65.656 271.939 C 66.019 269.752,66.353 267.925,66.399 267.879 C 66.623 267.655,71.136 272.180,73.289 274.788 C 75.409 277.355,77.817 281.425,79.853 285.877 C 81.325 289.096,81.320 289.091,81.688 287.726 C 83.275 281.845,83.290 273.820,81.730 265.375 C 81.548 264.390,82.236 264.658,84.741 266.548 C 88.869 269.662,93.250 273.983,98.423 280.045 C 100.703 282.715,100.738 282.733,100.587 281.125 C 99.959 274.422,98.518 267.397,96.409 260.750 C 95.023 256.383,95.016 256.599,96.719 251.417 C 97.549 248.894,98.095 246.900,98.318 245.583 C 98.683 243.423,101.108 225.550,101.665 220.917 C 102.676 212.499,103.349 210.852,109.668 201.333 C 113.407 195.702,113.154 196.336,113.997 190.500 C 114.584 186.434,115.007 184.466,115.504 183.492 L 115.847 182.819 110.132 182.845 C 104.638 182.870,102.912 182.766,100.078 182.237 C 99.327 182.097,99.073 182.501,98.490 184.761 C 97.961 186.813,95.563 195.999,92.251 208.667 C 91.208 212.654,89.785 218.112,89.089 220.795 C 86.605 230.363,84.070 235.877,79.838 240.919 C 77.855 243.281,73.360 245.931,68.819 247.417 C 67.998 247.685,66.022 248.777,62.667 250.815 C 60.436 252.169,58.328 254.543,53.301 261.360 C 49.474 266.549,46.169 271.346,43.746 275.228 C 36.985 286.058,35.522 287.868,37.597 282.833 C 42.713 270.419,45.145 260.940,47.002 246.178 C 47.706 240.590,48.304 237.725,51.893 222.750 C 52.487 220.275,53.201 217.200,53.482 215.917 C 53.763 214.633,54.408 211.689,54.916 209.374 C 57.597 197.160,58.939 195.488,68.858 192.007 C 70.448 191.449,71.842 190.959,71.955 190.919 C 72.108 190.865,72.070 190.611,71.810 189.931 C 71.333 188.684,71.453 188.378,72.943 187.052 C 75.586 184.700,75.460 184.844,75.083 184.617 C 74.716 184.396,72.960 182.658,72.388 181.949 C 71.924 181.375,71.575 181.381,68.583 182.011 M69.917 183.970 C 69.642 184.136,67.654 185.113,65.500 186.142 L 61.583 188.013 59.625 189.962 C 58.198 191.382,57.667 191.820,57.667 191.576 C 57.667 189.241,58.312 187.020,59.216 186.247 C 60.454 185.187,66.100 183.773,69.417 183.692 L 70.417 183.668 69.917 183.970 M66.333 184.362 C 59.489 185.821,58.685 186.335,58.255 189.527 C 58.095 190.714,58.341 190.644,60.118 189.000 C 61.665 187.569,61.918 187.408,64.958 185.920 C 68.669 184.105,68.930 183.809,66.333 184.362 M95.568 185.668 C 94.273 185.932,92.743 186.833,93.590 186.833 C 94.040 186.833,95.074 187.449,95.958 188.244 L 96.815 189.014 97.152 187.882 C 97.851 185.529,97.647 185.244,95.568 185.668 M72.938 187.665 C 71.786 188.727,71.920 189.586,73.596 191.883 C 73.905 192.307,74.333 192.486,74.333 192.190 C 74.333 191.429,77.353 189.444,79.032 189.102 L 80.060 188.892 79.128 188.359 C 77.790 187.593,76.437 187.167,74.980 187.053 L 73.709 186.954 72.938 187.665 M347.481 188.732 C 343.399 190.977,341.220 192.780,339.502 195.333 C 337.913 197.697,337.898 197.741,338.542 198.216 C 338.840 198.436,339.803 199.143,340.682 199.788 C 343.544 201.887,346.203 204.236,349.246 207.355 C 352.191 210.374,352.225 210.402,351.632 209.333 C 346.845 200.703,346.496 197.439,349.427 188.703 C 349.868 187.387,349.927 187.387,347.481 188.732 M69.223 192.443 L 66.863 193.369 66.445 194.309 C 65.809 195.738,65.609 196.571,64.256 203.417 C 61.689 216.409,61.290 217.467,56.281 224.583 C 53.851 228.035,50.110 234.353,49.350 236.289 C 48.801 237.686,47.995 242.522,47.333 248.382 C 46.270 257.803,42.930 271.147,39.503 279.667 C 38.611 281.883,38.504 282.184,38.636 282.102 C 38.800 282.001,40.768 278.949,43.752 274.167 C 46.940 269.058,54.050 259.146,57.466 255.047 C 60.375 251.557,60.613 251.361,65.231 248.649 C 67.493 247.320,67.991 246.837,69.627 244.385 C 76.962 233.388,78.807 226.480,76.637 218.128 L 76.259 216.674 76.903 216.014 L 77.546 215.355 76.680 214.386 C 76.203 213.853,75.537 212.858,75.198 212.176 L 74.583 210.935 74.583 208.676 C 74.583 207.033,74.671 206.038,74.905 205.028 L 75.227 203.640 74.386 202.862 C 72.268 200.904,72.110 198.232,73.953 195.540 C 74.863 194.210,74.857 194.152,73.660 192.708 C 72.412 191.202,72.388 191.201,69.223 192.443 M93.750 191.814 C 93.200 191.974,92.491 192.241,92.174 192.408 L 91.597 192.711 92.416 193.033 C 93.332 193.393,94.414 194.136,94.778 194.656 C 95.170 195.216,95.277 195.076,95.666 193.501 C 96.199 191.347,95.990 191.163,93.750 191.814 M74.109 196.513 C 73.272 197.024,72.876 199.482,73.420 200.784 C 73.897 201.926,73.952 201.930,75.012 200.919 C 76.112 199.870,77.985 198.891,79.201 198.730 C 80.246 198.591,80.211 198.468,78.925 197.748 C 76.996 196.669,74.783 196.102,74.109 196.513 M92.583 196.838 C 91.232 197.110,90.187 197.677,90.667 197.877 C 92.048 198.451,92.625 198.795,93.198 199.386 C 93.552 199.750,93.869 200.018,93.904 199.982 C 94.052 199.829,94.795 196.850,94.707 196.763 C 94.576 196.632,93.397 196.674,92.583 196.838 M91.083 202.122 C 90.364 202.301,89.000 202.864,89.000 202.981 C 89.000 203.050,89.417 203.278,89.928 203.490 C 90.492 203.724,91.172 204.196,91.663 204.695 C 92.107 205.146,92.507 205.456,92.552 205.383 C 92.738 205.078,93.462 202.184,93.374 202.096 C 93.261 201.983,91.564 202.002,91.083 202.122 M57.670 206.459 C 55.726 207.435,55.751 210.093,57.714 211.108 C 58.884 211.713,60.685 210.910,61.128 209.586 C 61.809 207.554,59.552 205.513,57.670 206.459 M367.583 206.438 C 361.855 207.303,358.873 208.493,355.208 211.376 C 353.855 212.440,353.862 212.492,355.663 215.000 C 358.412 218.829,360.839 223.168,362.700 227.583 C 363.912 230.459,364.032 230.594,363.636 228.633 C 363.431 227.617,363.257 225.614,363.130 222.813 L 362.937 218.543 363.409 217.091 C 364.285 214.399,366.025 211.315,368.344 208.341 C 370.270 205.872,370.331 206.023,367.583 206.438 M75.125 206.759 C 74.852 207.042,75.069 210.501,75.435 211.711 C 75.508 211.952,75.736 211.812,76.694 210.937 C 78.115 209.641,79.166 209.047,80.540 208.767 L 81.580 208.555 80.910 208.132 C 79.393 207.174,75.594 206.273,75.125 206.759 M105.465 208.875 C 104.642 210.158,103.181 214.279,102.758 216.510 C 102.384 218.483,102.387 218.500,103.125 218.502 C 104.186 218.504,105.453 219.231,106.784 220.602 C 107.453 221.290,108.000 221.753,108.000 221.630 C 108.000 221.506,107.817 220.283,107.593 218.911 C 107.148 216.186,106.000 208.750,106.000 208.596 C 106.000 208.367,105.685 208.531,105.465 208.875 M89.821 208.841 C 88.272 209.209,86.727 209.995,87.542 210.002 C 88.018 210.005,89.460 210.827,90.037 211.423 C 90.786 212.197,90.758 212.221,91.257 210.410 C 91.767 208.553,91.637 208.411,89.821 208.841 M87.333 214.598 C 85.966 215.061,85.303 215.500,85.971 215.500 C 86.546 215.500,87.626 216.115,88.521 216.953 C 89.081 217.477,89.353 217.637,89.409 217.479 C 89.735 216.562,90.177 214.600,90.102 214.405 C 89.960 214.035,88.747 214.120,87.333 214.598 M77.595 216.228 C 77.072 216.722,77.012 216.858,77.105 217.353 C 77.265 218.206,77.408 218.275,78.294 217.927 C 78.728 217.757,79.560 217.490,80.143 217.334 L 81.203 217.052 80.166 216.359 C 78.882 215.502,78.391 215.477,77.595 216.228 M85.856 219.745 C 84.764 220.150,84.220 220.499,84.675 220.502 C 85.151 220.505,86.600 221.293,87.239 221.896 C 87.632 222.266,87.951 222.449,88.042 222.358 C 88.258 222.142,88.855 219.796,88.758 219.543 C 88.626 219.199,87.026 219.310,85.856 219.745 M102.275 220.375 C 102.223 220.673,101.913 222.942,101.588 225.417 C 101.262 227.892,100.956 230.112,100.906 230.351 C 100.819 230.777,100.841 230.788,101.924 230.899 C 103.283 231.038,104.128 231.423,105.420 232.491 C 106.714 233.561,106.729 233.435,105.709 230.073 C 102.415 219.212,102.458 219.334,102.275 220.375 M85.449 224.849 C 84.092 225.169,82.603 225.996,83.375 226.002 C 83.852 226.005,85.426 226.885,85.951 227.441 C 86.261 227.771,86.555 228.001,86.602 227.953 C 86.692 227.864,87.500 225.018,87.500 224.793 C 87.500 224.626,86.250 224.661,85.449 224.849 M84.000 230.741 C 81.988 231.307,81.666 231.642,82.780 232.010 C 83.115 232.121,83.624 232.349,83.911 232.519 L 84.432 232.826 84.966 231.743 C 85.669 230.317,85.635 230.281,84.000 230.741 M370.417 231.673 C 368.217 231.946,364.998 233.058,365.001 233.545 C 365.002 233.658,365.258 234.762,365.570 236.000 C 366.688 240.429,367.282 244.894,367.445 250.083 C 367.571 254.107,367.645 254.201,368.319 251.210 C 370.370 242.119,372.450 239.287,380.708 234.344 C 382.489 233.278,382.488 233.291,380.792 232.830 C 376.971 231.793,373.014 231.352,370.417 231.673 M100.602 232.942 C 100.525 233.318,99.441 241.389,99.287 242.740 C 99.256 243.010,99.415 243.095,100.250 243.258 C 101.745 243.548,102.614 244.018,104.040 245.306 C 104.996 246.170,104.979 245.961,103.786 242.125 C 103.180 240.177,102.296 237.271,101.820 235.667 C 100.888 232.518,100.752 232.215,100.602 232.942 M75.584 235.302 C 74.709 237.332,73.156 240.042,70.957 243.379 C 69.763 245.191,68.829 246.717,68.882 246.771 C 69.039 246.928,73.412 245.084,75.102 244.148 C 77.859 242.621,79.617 240.909,81.448 237.971 C 82.677 235.998,82.707 236.085,80.823 236.146 C 78.983 236.205,78.350 236.011,77.167 235.022 C 76.754 234.677,76.338 234.348,76.241 234.291 C 76.139 234.231,75.863 234.656,75.584 235.302 M98.463 247.437 C 98.417 247.517,98.215 248.146,98.013 248.833 C 97.811 249.521,97.192 251.541,96.637 253.323 C 95.239 257.809,95.366 258.274,98.000 258.318 C 99.367 258.341,100.397 258.810,101.734 260.017 L 102.717 260.905 102.601 260.287 C 102.256 258.445,98.621 247.159,98.463 247.437 M367.444 256.778 C 367.383 256.839,367.333 257.173,367.333 257.519 C 367.333 260.239,365.741 268.829,364.339 273.666 C 363.535 276.444,363.538 276.722,364.360 275.298 C 368.741 267.710,372.596 264.903,381.042 263.152 C 382.485 262.853,383.667 262.550,383.667 262.479 C 383.667 262.203,379.990 259.915,377.644 258.729 C 374.989 257.388,368.144 256.079,367.444 256.778 M52.833 276.458 C 52.830 284.800,51.147 288.467,44.667 294.245 L 43.583 295.211 47.292 295.102 C 52.482 294.949,54.340 294.598,56.875 293.294 L 58.167 292.630 58.167 291.927 C 58.167 290.608,56.566 284.571,54.665 278.719 C 53.023 273.666,52.834 273.432,52.833 276.458 M362.634 279.613 C 362.484 279.780,361.973 280.892,361.499 282.083 C 360.056 285.705,358.239 289.713,356.143 293.894 C 355.046 296.081,354.178 297.901,354.214 297.937 C 354.250 297.973,355.414 296.918,356.801 295.593 C 363.014 289.654,365.602 288.569,373.455 288.608 L 377.494 288.628 376.548 287.550 C 373.307 283.859,369.792 281.419,365.809 280.096 C 363.432 279.306,362.972 279.236,362.634 279.613 M306.719 291.564 C 301.398 295.562,297.688 298.967,292.481 304.633 C 290.240 307.071,290.700 306.849,285.462 308.012 C 280.067 309.210,279.420 309.418,273.583 311.832 C 266.869 314.610,259.881 317.506,255.663 319.259 C 248.632 322.182,243.640 322.841,235.363 321.937 C 229.741 321.324,228.840 321.451,223.558 323.598 C 220.713 324.755,218.389 325.511,216.958 325.746 C 216.066 325.892,215.859 325.418,219.392 331.333 C 220.598 333.352,221.669 335.424,222.493 337.333 C 223.557 339.799,223.811 340.258,224.135 340.304 C 224.567 340.366,230.243 338.843,254.167 332.248 C 270.280 327.806,270.794 327.698,276.417 327.551 C 285.074 327.325,288.225 328.341,294.417 333.353 C 297.773 336.070,302.455 338.608,305.294 339.249 C 310.703 340.469,323.896 341.823,333.750 342.168 C 345.784 342.590,347.256 342.912,341.000 343.757 C 329.249 345.343,317.741 348.479,307.266 352.949 C 302.088 355.159,297.867 356.780,295.892 357.318 C 293.082 358.082,277.217 362.872,272.667 364.330 C 256.909 369.377,254.909 369.086,245.863 360.432 L 244.976 359.583 244.247 360.417 C 243.304 361.495,242.712 361.508,240.078 360.509 C 239.073 360.127,238.186 359.800,238.109 359.782 C 238.031 359.765,237.945 360.200,237.918 360.750 C 237.863 361.853,237.464 363.177,236.981 363.859 L 236.667 364.301 237.726 365.609 C 238.308 366.328,239.331 367.517,239.999 368.250 C 240.668 368.983,242.146 370.686,243.283 372.035 C 247.819 377.411,249.641 377.551,259.000 373.245 C 261.331 372.172,263.409 371.449,269.447 369.605 C 279.285 366.601,281.764 365.996,287.280 365.248 C 304.972 362.850,316.649 363.586,333.824 368.183 C 337.604 369.195,337.653 369.181,335.401 367.726 C 328.420 363.216,321.372 359.983,313.883 357.855 C 312.399 357.433,311.739 357.170,311.704 356.985 C 311.650 356.708,314.413 355.364,317.333 354.248 C 318.112 353.950,319.559 353.397,320.547 353.019 C 334.340 347.740,353.294 346.948,368.295 351.023 C 369.695 351.404,370.895 351.658,370.962 351.589 C 371.270 351.271,365.163 345.861,362.508 344.101 C 354.910 339.064,347.905 337.668,330.236 337.667 C 327.020 337.667,324.342 337.620,324.285 337.563 C 323.528 336.805,332.707 326.412,338.953 320.953 C 340.634 319.484,340.580 319.412,337.974 319.657 C 331.837 320.233,327.361 321.423,317.299 325.153 C 313.992 326.379,314.078 326.491,315.233 322.469 C 317.287 315.320,319.676 310.425,323.851 304.815 C 325.684 302.352,325.644 302.308,322.583 303.418 C 316.053 305.789,310.781 308.873,305.715 313.287 C 305.055 313.862,304.402 314.333,304.265 314.333 C 302.937 314.333,305.142 303.801,308.585 293.701 C 309.363 291.417,310.000 289.501,310.000 289.441 C 310.000 289.154,309.467 289.499,306.719 291.564 M61.773 295.935 C 61.715 296.363,61.666 298.146,61.666 299.898 C 61.663 307.310,60.500 310.126,55.217 315.515 C 53.906 316.853,52.833 317.996,52.833 318.057 C 52.833 318.373,59.539 318.000,61.636 317.568 C 64.496 316.979,69.500 314.390,69.500 313.500 C 69.500 313.345,68.873 311.913,68.107 310.317 C 66.593 307.165,63.934 300.764,62.735 297.382 C 62.320 296.215,61.959 295.236,61.931 295.208 C 61.903 295.181,61.832 295.508,61.773 295.935 M285.890 302.720 C 281.238 307.746,280.749 308.305,280.886 308.442 C 280.967 308.523,287.906 306.989,289.691 306.495 C 290.484 306.276,291.315 305.251,291.022 304.852 C 289.943 303.382,289.626 300.743,290.264 298.542 C 290.472 297.822,290.055 298.220,285.890 302.720 M350.570 303.203 C 347.800 307.275,345.109 310.794,341.676 314.833 C 339.984 316.825,339.968 316.955,341.536 315.939 C 349.441 310.816,353.321 310.073,361.566 312.106 C 364.923 312.934,364.892 312.936,364.328 311.869 C 361.702 306.891,358.457 303.516,353.973 301.100 L 352.530 300.323 350.570 303.203 M271.787 308.464 C 267.306 313.286,266.685 314.000,266.971 314.000 C 267.267 314.000,276.313 310.254,276.522 310.045 C 276.598 309.968,276.508 309.598,276.322 309.222 C 275.846 308.260,275.741 306.535,276.065 305.011 C 276.210 304.330,276.307 303.751,276.281 303.725 C 276.255 303.700,274.233 305.832,271.787 308.464 M262.845 310.210 C 261.981 311.149,260.219 313.040,258.929 314.413 C 257.639 315.786,256.178 317.343,255.682 317.873 C 254.536 319.096,254.602 319.134,256.512 318.353 C 257.376 318.000,258.946 317.358,260.000 316.927 C 263.431 315.525,265.000 314.800,265.000 314.618 C 265.000 314.519,264.846 314.121,264.658 313.732 C 264.177 312.738,264.064 311.002,264.399 309.726 C 264.834 308.064,264.817 308.069,262.845 310.210 M253.167 313.618 C 251.792 314.663,244.447 320.586,243.796 321.175 L 243.083 321.820 243.858 321.826 C 245.617 321.842,251.033 320.683,252.750 319.924 L 253.658 319.522 253.310 318.735 C 252.850 317.697,252.935 315.499,253.481 314.266 C 253.949 313.210,253.883 313.074,253.167 313.618 M70.892 316.417 C 73.370 324.433,73.538 329.254,71.502 333.890 C 70.913 335.232,70.409 336.165,68.133 340.133 C 67.483 341.264,67.438 341.249,69.709 340.663 C 75.770 339.100,78.658 337.541,82.148 333.950 L 83.046 333.026 81.218 330.722 C 77.961 326.615,71.500 317.400,71.500 316.861 C 71.500 316.783,71.340 316.575,71.145 316.401 C 70.794 316.088,70.790 316.088,70.892 316.417 M202.303 321.393 C 201.287 322.975,198.117 327.095,196.095 329.460 C 194.223 331.651,194.191 331.722,195.481 330.846 C 200.089 327.717,204.044 326.963,209.149 328.240 C 210.469 328.570,211.570 328.818,211.597 328.791 C 211.624 328.764,211.211 328.017,210.678 327.130 C 208.802 324.006,207.353 322.539,204.567 320.941 C 202.935 320.005,203.232 319.946,202.303 321.393 M336.822 323.569 C 333.399 326.791,331.380 328.940,327.601 333.383 C 326.471 334.712,326.541 334.700,330.182 332.940 C 337.869 329.225,339.562 329.079,347.167 331.476 C 349.973 332.361,349.976 332.395,346.782 327.583 C 344.715 324.470,340.974 320.833,339.837 320.833 C 339.776 320.833,338.419 322.064,336.822 323.569 M273.583 328.119 C 272.440 328.239,272.792 329.066,274.487 330.241 C 275.330 330.825,275.309 330.854,275.185 329.333 C 275.072 327.939,275.099 327.960,273.583 328.119 M279.473 328.999 C 280.769 330.607,281.113 332.020,280.612 333.682 L 280.391 334.417 286.404 334.417 C 289.711 334.417,292.960 334.473,293.625 334.543 C 295.241 334.712,295.198 334.542,293.241 333.025 C 288.321 329.211,286.173 328.356,280.772 328.065 L 278.627 327.949 279.473 328.999 M268.323 328.905 C 266.235 329.517,266.227 329.560,267.893 331.253 C 269.438 332.823,269.725 332.869,269.573 331.524 C 269.510 330.965,269.544 330.168,269.652 329.661 C 269.899 328.512,269.820 328.467,268.323 328.905 M262.832 330.388 C 260.841 330.964,260.829 331.146,262.667 332.901 C 264.008 334.183,264.419 334.375,264.262 333.644 C 263.996 332.410,263.990 331.881,264.232 331.097 C 264.612 329.864,264.623 329.869,262.832 330.388 M258.917 331.420 C 258.825 331.453,258.206 331.638,257.542 331.831 C 256.471 332.141,256.333 332.227,256.333 332.584 C 256.333 333.038,258.097 335.036,258.834 335.417 L 259.277 335.646 259.203 334.364 C 259.136 333.206,259.238 332.469,259.583 331.625 C 259.699 331.342,259.393 331.248,258.917 331.420 M252.263 333.302 C 251.446 333.548,250.751 333.828,250.719 333.923 C 250.646 334.147,252.316 336.175,252.878 336.543 C 253.660 337.055,253.684 337.019,253.737 335.250 C 253.764 334.333,253.843 333.415,253.912 333.208 C 254.066 332.751,254.096 332.750,252.263 333.302 M192.231 333.867 C 191.966 334.069,191.100 334.847,190.306 335.595 C 188.505 337.293,185.192 340.104,183.363 341.485 C 181.706 342.737,181.714 342.843,183.418 342.166 C 188.963 339.963,192.300 340.045,197.480 342.510 C 199.603 343.521,199.537 343.523,199.227 342.458 C 198.333 339.384,196.773 336.762,194.655 334.770 C 193.196 333.397,192.961 333.309,192.231 333.867 M245.500 335.120 C 244.721 335.350,244.054 335.565,244.019 335.597 C 243.696 335.893,245.884 338.501,246.662 338.748 C 247.152 338.904,247.166 338.867,246.961 337.970 C 246.819 337.348,246.838 336.960,247.058 336.053 C 247.210 335.428,247.334 334.860,247.334 334.792 C 247.333 334.609,247.072 334.656,245.500 335.120 M280.917 335.178 C 274.646 336.142,270.787 337.936,266.644 341.814 L 265.204 343.162 264.403 342.921 C 263.444 342.632,263.238 342.750,263.081 343.680 C 262.637 346.306,260.027 348.693,256.174 349.996 L 254.431 350.585 254.221 351.623 C 253.605 354.666,250.818 356.246,247.167 355.622 L 246.417 355.494 245.874 357.038 C 245.158 359.078,245.166 359.147,246.239 360.127 C 249.854 363.431,250.142 363.448,257.917 360.789 C 267.831 357.399,270.267 356.702,273.531 356.321 C 275.450 356.097,279.382 356.197,281.667 356.528 C 283.661 356.818,295.259 356.826,296.476 356.540 C 297.623 356.269,302.043 354.559,306.917 352.500 C 316.504 348.449,326.858 345.441,337.000 343.759 C 339.940 343.271,340.400 343.177,340.306 343.084 C 340.269 343.047,337.579 342.899,334.328 342.756 C 319.443 342.098,307.804 340.761,303.207 339.179 C 302.449 338.918,300.493 337.950,298.858 337.028 L 295.887 335.351 293.819 335.184 C 289.274 334.819,283.269 334.816,280.917 335.178 M85.167 335.508 C 85.167 335.550,85.716 336.671,86.387 338.000 C 90.127 345.407,90.359 348.954,87.649 357.285 C 86.786 359.938,86.736 359.895,89.187 358.620 C 94.276 355.971,96.376 354.229,98.708 350.720 C 100.259 348.387,100.296 348.567,97.917 346.832 C 94.719 344.498,91.919 342.043,87.292 337.513 C 86.123 336.369,85.167 335.467,85.167 335.508 M240.323 336.566 C 238.888 336.993,238.667 337.104,238.667 337.393 C 238.667 337.884,241.488 340.568,241.739 340.316 C 241.776 340.280,241.739 339.893,241.658 339.456 C 241.563 338.948,241.574 338.349,241.690 337.790 C 242.055 336.023,242.077 336.043,240.323 336.566 M236.583 337.587 C 236.492 337.620,235.892 337.801,235.250 337.990 C 233.293 338.565,233.325 338.876,235.550 340.937 C 236.677 341.980,236.879 341.943,236.637 340.736 C 236.503 340.069,236.524 339.666,236.733 338.847 C 237.092 337.448,237.087 337.404,236.583 337.587 M263.117 338.939 C 262.919 339.136,262.993 341.226,263.212 341.659 C 263.349 341.929,263.688 342.151,264.217 342.315 L 265.015 342.563 265.605 341.973 L 266.195 341.383 265.110 340.609 C 264.513 340.183,263.847 339.607,263.629 339.328 C 263.411 339.050,263.181 338.875,263.117 338.939 M229.323 339.565 C 227.985 339.964,227.667 340.109,227.667 340.315 C 227.667 340.868,229.996 343.333,230.519 343.333 C 230.598 343.333,230.616 342.901,230.561 342.372 C 230.494 341.730,230.550 341.063,230.730 340.359 C 230.879 339.780,231.000 339.275,231.000 339.237 C 231.000 339.107,230.589 339.188,229.323 339.565 M255.503 343.875 C 255.508 345.844,256.399 348.677,257.096 348.945 C 257.727 349.187,261.333 346.754,261.333 346.086 C 261.333 345.951,260.993 345.829,260.420 345.758 C 259.185 345.603,257.704 344.831,256.549 343.738 C 256.022 343.241,255.571 342.833,255.546 342.833 C 255.521 342.833,255.501 343.302,255.503 343.875 M234.445 343.905 C 231.995 344.564,230.969 346.279,230.076 351.205 C 229.511 354.325,228.730 355.696,226.913 356.761 C 225.349 357.678,224.209 357.486,220.462 355.678 C 215.951 353.501,214.383 353.345,212.117 354.846 C 210.621 355.837,210.067 357.048,209.577 360.404 C 209.111 363.592,207.966 366.361,207.002 366.630 C 206.158 366.866,203.870 366.692,202.064 366.254 C 196.926 365.008,195.223 365.193,193.427 367.191 C 190.962 369.932,189.425 374.343,189.746 377.760 C 189.894 379.346,190.068 379.331,190.329 377.708 C 191.155 372.584,194.413 368.000,197.230 368.000 C 197.656 368.000,199.382 368.423,201.278 368.992 C 209.640 371.501,210.879 370.883,212.086 363.605 C 213.167 357.090,214.048 356.648,221.333 358.970 C 228.847 361.365,231.401 359.781,232.748 351.892 C 233.674 346.467,234.925 345.735,240.833 347.155 C 244.880 348.128,246.144 347.793,247.616 345.359 C 248.536 343.840,248.480 343.777,247.122 344.804 C 245.143 346.302,243.953 346.329,240.333 344.960 C 236.869 343.649,235.986 343.491,234.445 343.905 M177.484 345.551 C 174.202 347.670,171.919 349.043,169.874 350.125 C 167.761 351.244,167.799 351.308,170.284 350.819 C 175.404 349.811,178.421 350.441,183.083 353.491 C 185.172 354.857,185.183 354.853,184.844 352.908 C 184.346 350.046,182.629 346.443,180.857 344.542 C 180.171 343.805,180.200 343.797,177.484 345.551 M247.441 349.628 C 247.269 350.967,247.729 353.376,248.379 354.542 C 248.973 355.607,251.289 355.211,252.696 353.804 C 253.632 352.868,253.531 352.545,252.167 352.102 C 250.656 351.611,249.573 350.937,248.479 349.808 L 247.542 348.839 247.441 349.628 M105.610 353.092 C 111.420 358.870,112.785 362.093,112.842 370.167 C 112.848 371.037,112.904 372.040,112.968 372.395 L 113.083 373.039 114.418 371.645 C 118.883 366.980,120.422 364.324,121.485 359.449 L 121.805 357.981 121.398 357.826 C 121.174 357.741,120.412 357.523,119.704 357.343 C 115.091 356.164,109.229 353.702,103.592 350.575 L 102.434 349.933 105.610 353.092 M164.505 352.926 C 160.585 354.804,152.604 357.447,149.403 357.927 C 147.979 358.141,148.534 358.282,151.214 358.390 C 158.353 358.677,161.195 359.853,165.763 364.409 C 168.678 367.317,168.651 367.294,168.841 366.993 C 169.077 366.620,169.022 361.800,168.760 359.833 C 168.476 357.712,168.230 356.954,167.056 354.583 C 165.836 352.123,165.982 352.217,164.505 352.926 M239.377 355.667 C 239.485 357.787,239.893 359.000,240.791 359.872 C 242.358 361.395,243.404 361.094,244.597 358.777 C 245.347 357.319,245.299 357.083,244.223 356.940 C 243.003 356.778,241.435 355.953,240.300 354.877 L 239.287 353.917 239.377 355.667 M125.017 358.572 C 125.056 358.612,126.265 359.134,127.702 359.732 C 135.952 363.168,138.159 365.323,141.504 373.209 C 142.738 376.118,142.679 376.116,143.721 373.282 C 145.803 367.619,146.347 363.022,145.361 359.417 C 145.198 358.822,145.290 358.826,140.434 359.170 C 136.924 359.418,130.407 359.215,126.917 358.748 C 124.822 358.468,124.921 358.477,125.017 358.572 M265.664 359.975 C 263.699 361.019,263.981 363.973,266.114 364.677 C 267.194 365.033,268.641 364.334,269.101 363.233 C 270.010 361.057,267.718 358.884,265.664 359.975 M241.250 365.812 C 241.892 366.222,243.579 367.356,245.000 368.332 L 247.583 370.105 250.083 370.813 C 251.458 371.203,252.644 371.581,252.718 371.654 C 253.053 371.983,248.505 373.621,247.769 373.436 C 246.303 373.068,239.667 366.137,239.667 364.973 C 239.667 364.796,239.630 364.776,241.250 365.812 M241.194 366.489 C 241.553 367.489,246.133 372.209,247.269 372.748 C 248.084 373.134,249.124 373.007,250.595 372.340 C 251.890 371.753,251.863 371.667,250.250 371.253 C 247.974 370.667,246.992 370.184,244.156 368.253 C 241.370 366.355,241.086 366.186,241.194 366.489 " stroke="none" fill="#daa520" fill-rule="evenodd"/></g></svg>