<?xml version="1.0" encoding="UTF-8"?>
<svg id="Ebene_1" data-name="Ebene 1" xmlns="http://www.w3.org/2000/svg" version="1.1" viewBox="0 0 155 155">
  <defs>
    <style>
      .cls-1 {
        fill: #a3885a;
        stroke-width: 0px;
      }
    </style>
  </defs>
  <path class="cls-1" d="M44.7,66.2c1,.4,1.4,1,1.7,2,1.1,5.3,2.4,10.6,3.6,15.9,2.1,9.5,4.2,19,6.3,28.6.7,3,1.4,6.1,2.1,9.2,1.5,0,2.9,0,4.2,0,.4,0,.9.3,1.1.6,1.4,2.2,3.1,4,5.5,4.7h12.8c1.8-.5,3.4-1.5,4.2-3.1,1.2-2.2,2.8-2.5,4.9-2.3.3,0,.7,0,1,0,.8.1,1.1-.3,1.3-1.1,1.8-8.2,3.6-16.5,5.4-24.7,2.1-9.4,4.1-18.8,6.2-28.2.2-.7.5-1.1,1.1-1.4,2.5-1.1,5-2.3,7.5-3.5.2-.1.4-.3.6-.4H37.5c2.4,1.4,4.7,2.6,7.2,3.7ZM100.4,68.7c-.8,3.8-1.5,7.5-2.3,11.1-2,9.1-4,18.2-5.9,27.3-.4,1.8-.7,3.6-1.2,5.3,0,.3-.5.7-.8.7-1.5,0-3,0-4.7,0,1.8-14.9,3.5-29.7,5.3-44.5h9.6ZM69.9,68.7h11.7c1.4,0,2.9,0,4.4,0-1.6,14.8-3.1,29.6-4.6,44.4h-11.4c-1.5-14.8-3-29.6-4.6-44.4h4.5ZM60.7,68.7c1.7,14.8,3.4,29.6,5.2,44.4-1.7,0-3.2,0-4.7,0-.8,0-.7-.6-.8-1-1.3-5.8-2.5-11.6-3.8-17.5-1.8-8.4-3.7-16.8-5.5-25.2,0-.2,0-.4,0-.7h9.7Z"/>
  <g>
    <path class="cls-1" d="M83.5,130.3c-2.7,2-5.4,4-7.4,6.7-2.1-2.7-4.8-4.6-7.5-6.7h15Z"/>
    <path class="cls-1" d="M75.6,38.4c-6.7,0-12.2-5.5-12.2-12.2s5.5-12.2,12.2-12.2,12.2,5.5,12.2,12.2-5.5,12.2-12.2,12.2ZM75.6,19.1c-4,0-7.2,3.2-7.2,7.2s3.2,7.2,7.2,7.2,7.2-3.2,7.2-7.2-3.2-7.2-7.2-7.2Z"/>
    <g>
      <path class="cls-1" d="M96.9,52.2c-.4-.3-1-.4-1.5-.4-13,0-26,0-39,0-.6,0-1.4.2-1.9.6-2.3,1.5-4.6,3.1-6.8,4.7-1.2.9-2.4,1.7-3.9,2.8h64.4c-3.9-2.7-7.5-5.2-11.2-7.6Z"/>
      <path class="cls-1" d="M91,44.9c-2.9-3.2-6.7-3.7-10.8-3.4,0-2.6,0-2.7-1.2-3.9-1.2-1-1.7-2.2-1.9-3.5h-2.7c0,1.1-.4,2.2-1.4,3.1-1.2,1.2-2.3,2.3-1.4,4.3-6.4-.5-11,1.6-13.5,7.8h35.6c-.4-1.8-1.5-3.1-2.6-4.4Z"/>
    </g>
    <rect class="cls-1" x="72.1" y="100.2" width="6.9" height="16.5"/>
    <path class="cls-1" d="M75.5,77.5c.4,1,.9,1.9,1.3,2.9.9,2.6,1.8,5.3,2.1,8.4.3,2.7,0,5.1-1.3,6.8-1,1.4-2.4,1.5-3.4.2-1.5-1.8-2-6-1.1-9,.3-1,.8-1.9,1.2-2.8.2-.4.4-.8.6-1.3.6-1.5.9-3.2.5-5.1,0,0,0,0,.1-.1Z"/>
    <circle class="cls-1" cx="75.6" cy="33.6" r="2.2"/>
  </g>
  <path class="cls-1" d="M93.7,55.2c.2-1.6.2-3.2-.2-4.8-.4-1.6-1.1-3.1-2.5-4.2-1.2-1-2.9-1-3.9,0-1,1-.9,2.5.2,3.6.2-.2.5-.4.7-.6,1-.8,2.1-.7,2.8.4.5.8.8,1.7,1.1,2.5.4,1.3.2,2.7,0,4.1-.2.8-.6,1.4-1.2,1.9-3.2,2.3-6.7,3.8-10.5,4.6-3.1.7-6.1,1.2-9.2,1.9-2.5.5-4.8,1.4-6.8,3.1-3.1,2.7-3.5,7-1.5,9.8,1.5,2.1,3.7,3.1,6.3,2.9,2.4-.3,4-1.5,5-3.7.5-1.2.6-2.5,0-3.7-.6-1.3-2.2-1.9-3.4-1.4.3.8.7,1.5.8,2.3.1,1.5-.7,2.6-2.1,3.1-1.4.4-3,0-3.8-1.3-1.1-1.5-.9-3.5.3-4.9,1.6-1.9,3.9-2.6,6.2-3.1,3.2-.7,6.4-1.2,9.6-2,3.9-.9,7.6-2.4,10.8-4.8,5.6-4.1,8.8-9.6,9.4-16.5.5-6.1-1-11.7-4.7-16.6-3.1-4.2-7.2-6.9-12.1-8.5-6.3-2.1-12.7-1.9-19.2-.4,1.2.8,2.3,1.5,3.4,2.3.5.4,1,.4,1.6.4,4.8-.6,9.5-.3,14.1,1.4,11.9,4.4,17,18,11,29.2-.6,1-1.3,2-2,2.9,0,0-.1,0-.2-.1Z"/>
  <path class="cls-1" d="M53.5,98.6c-.2-1.6-.2-3.2.2-4.8.4-1.6,1.1-3.1,2.5-4.2,1.2-1,2.9-1,3.9,0,1,1,.9,2.5-.2,3.6-.2-.2-.5-.4-.7-.6-1-.8-2.1-.7-2.8.4-.5.8-.8,1.7-1.1,2.5-.4,1.3-.2,2.7,0,4.1.2.8.6,1.4,1.2,1.9,3.2,2.3,6.7,3.8,10.5,4.6,3.1.7,6.1,1.2,9.2,1.9,2.5.5,4.8,1.4,6.8,3.1,3.1,2.7,3.5,7,1.5,9.8-1.5,2.1-3.7,3.1-6.3,2.9-2.4-.3-4-1.5-5-3.7-.5-1.2-.6-2.5,0-3.7.6-1.3,2.2-1.9,3.4-1.4-.3.8-.7,1.5-.8,2.3-.1,1.5.7,2.6,2.1,3.1,1.4.4,3,0,3.8-1.3,1.1-1.5.9-3.5-.3-4.9-1.6-1.9-3.9-2.6-6.2-3.1-3.2-.7-6.4-1.2-9.6-2-3.9-.9-7.6-2.4-10.8-4.8-5.6-4.1-8.8-9.6-9.4-16.5-.5-6.1,1-11.7,4.7-16.6,3.1-4.2,7.2-6.9,12.1-8.5,6.3-2.1,12.7-1.9,19.2-.4-1.2.8-2.3,1.5-3.4,2.3-.5.4-1,.4-1.6.4-4.8-.6-9.5-.3-14.1,1.4-11.9,4.4-17,18-11,29.2.6,1,1.3,2,2,2.9,0,0,.1,0,.2-.1Z"/>
</svg>