<?xml version="1.0" encoding="UTF-8"?>
<svg id="Ebene_1" data-name="Ebene 1" xmlns="http://www.w3.org/2000/svg" version="1.1" viewBox="0 0 254 150">
  <defs>
    <style>
      .cls-1, .cls-2 {
        fill: #a3885a;
        stroke-width: 0px;
      }

      .cls-2 {
        opacity: .9;
      }
    </style>
  </defs>
  <path class="cls-1" d="M36.6,109.1c.5.2.7.5.8,1,.6,2.6,1.2,5.3,1.8,7.9,1.1,4.7,2.1,9.5,3.1,14.2.3,1.5.7,3,1.1,4.5.7,0,1.4,0,2.1,0,.2,0,.5.1.6.3.7,1.1,1.5,2,2.7,2.3h6.4c.9-.3,1.7-.8,2.1-1.5.6-1.1,1.4-1.2,2.4-1.1.2,0,.3,0,.5,0,.4,0,.5-.1.6-.5.9-4.1,1.8-8.2,2.7-12.3,1-4.7,2.1-9.3,3.1-14,0-.3.2-.5.6-.7,1.3-.6,2.5-1.2,3.7-1.8.1,0,.2-.1.3-.2h-38.2c1.2.7,2.4,1.3,3.6,1.9ZM64.3,110.3c-.4,1.9-.7,3.7-1.1,5.5-1,4.5-2,9-3,13.5-.2.9-.4,1.8-.6,2.6,0,.1-.3.4-.4.4-.8,0-1.5,0-2.3,0,.9-7.4,1.7-14.7,2.6-22.1h4.8ZM49.2,110.3h5.8c.7,0,1.4,0,2.2,0-.8,7.4-1.5,14.7-2.3,22.1h-5.7c-.8-7.3-1.5-14.7-2.3-22.1h2.2ZM44.6,110.3c.9,7.3,1.7,14.7,2.6,22.1-.9,0-1.6,0-2.3,0-.4,0-.4-.3-.4-.5-.6-2.9-1.3-5.8-1.9-8.7-.9-4.2-1.8-8.4-2.7-12.5,0-.1,0-.2,0-.4h4.8Z"/>
  <g>
    <path class="cls-1" d="M101.6,15c.5-.1,1.2.2,1.7,1.1-1.1-.6-1.3,1-1.3,1.4h2v.2c-.1.2-.4.6-.5.8h-1.5v10.4c0,1.1.5,2.7,1.8,1.4,0,.8-.7,1.7-1.6,1.7-1,0-1.8-1.5-2.9-1.5v-.2c.3-.2.5-.4.6-.6,0-.2.1-.4.1-1.2v-10.1h-.8c0-.3-.4-.7-.6-.8v-.2c1-.2.9-2.1,2.9-2.5Z"/>
    <path class="cls-1" d="M107.6,18.7c-.4.3-.4.6-.4,1.1v9.6c0,.6,0,2.3.9,2.3-.2.3-.4.4-.6.4-.8,0-1.9-1.5-3-1.5v-.2c.3-.2.5-.4.6-.6,0-.2.2-.4.2-1.2v-14.1c0-.5,0-.9-.2-1.1,0-.2-.2-.4-.4-.6v-.2c1.6,0,.6-1.5,3-1.5-.4.4-.4,1.1-.4,1.9,0,.1,0,4.1,0,4.2,0,1.2,2.6-.8,2.8-1.2,1.2,1.5,2.4,1.5,2.5,1.5v.2c-.3.2-.5.6-.6,1v11.7c0,1.5,0,2.4.2,2.7.2.5.5.9,1,1.4.3.2.8.5,1.3.8v.5c-1-.4-1.9-.9-2.6-1.5-.8-.6-1.3-1.2-1.6-1.8-.2-.4-.2-1-.2-1.8v-12.8c0,0,0-.1,0-.2-.3-.1-1.8.5-2.3,1Z"/>
    <path class="cls-1" d="M116.4,26.4v2.5c0,.3,0,.8.1,1.1.2.6.6.9,1.3.9,3-.2-1.2-6.1,3.9-6.1-.8.2-.7,4.5-.4,5.2,0,.2.2.4.4.6v.2c-.7,0-1.2.1-1.6.3-.6.2-1.4.6-2.3,1.2-1-.6-1.7-1-2.3-1.2-.5-.2-1-.2-1.6-.3v-.2c.2-.2.3-.4.4-.6.1-.2.2-.6.2-1.1v-9.4c0-.5,0-.9-.2-1.1,0-.2-.2-.4-.4-.6v-.2c.7,0,1.2-.1,1.7-.3.6-.2,1.4-.6,2.3-1.2.9.6,1.7,1,2.3,1.2.4.2,1,.3,1.6.3v.2c-.2.2-.3.4-.4.6,0,.2-.1.6-.1,1.1v1.6c0,.3,0,1.7.1,2,0,.2.2.3.4.6v.2c-1.1,0-5.4,1.5-5.4,2.6ZM119.2,22.7v-3.2c0-.5,0-.9-.1-1.1-.2-.6-.6-.9-1.3-.9s-1.1.3-1.3.9c0,.2-.1.6-.1,1.1v4.8c0,.5,2.8-.7,2.8-1.6Z"/>
  </g>
  <g>
    <path class="cls-1" d="M68.7,82.6c0-.6,0-.9-.1-1.1,0-.2-.2-.4-.4-.6v-.2c.7,0,1.2-.1,1.6-.3.6-.2,1.4-.6,2.3-1.2,1,.6,1.7,1,2.3,1.2.5.2,1,.2,1.6.3v.2c-.2.2-.3.4-.4.6,0,.2-.2.6-.2,1.1v9.4c0,.5,0,.9.2,1.1,0,.2.2.3.4.6v.2c-.7,0-1.2,0-1.7.3-.6.2-1.4.6-2.3,1.2-.9-.6-1.7-1-2.3-1.2-.4-.2-1-.3-1.6-.3v-.2c.2-.2.3-.4.4-.6,0-.2.1-.6.1-1.1v-9.4ZM73.5,82.6c0-.6,0-.9-.1-1.1-.2-.6-.6-.9-1.3-.9s-1,.4-1.3.9c0,.2-.1.6-.1,1.1v9.4c0,.5,0,.9.1,1.1.2.5.6.9,1.3.9s1.1-.4,1.3-.9c0-.2.1-.6.1-1.1v-9.4Z"/>
    <path class="cls-1" d="M78.3,80.7v-2.9c0-.5,0-.9-.1-1.1,0-.2-.2-.4-.5-.6v-.2c.8,0,1.9-1,2.5-1.5.4.6,1.9.9,2.2.6-.2.9-.6,1.5-1.2,1.6-.2,0-.6-.2-.8-.2,0,0,0,.2,0,.3v4h2v.2c-.1.2-.4.6-.5.9h-1.5c0,4,0,6.4,0,10.4s.5,2.7,1.8,1.4c0,.8-.7,1.7-1.5,1.7-1,0-1.7-1.5-2.9-1.5v-.2c.3-.2.5-.4.6-.6,0-.2.1-.4.1-1.2v-10.1h-.6c0-.3-.4-.7-.6-.9v-.2h1.2Z"/>
  </g>
  <g>
    <path class="cls-1" d="M55.9,141c-1.3,1-2.7,2-3.7,3.3-1-1.4-2.4-2.3-3.7-3.3h7.4Z"/>
    <path class="cls-1" d="M52,95.3c-3.3,0-6.1-2.7-6.1-6.1s2.7-6.1,6.1-6.1,6.1,2.7,6.1,6.1-2.7,6.1-6.1,6.1ZM52,85.7c-2,0-3.6,1.6-3.6,3.6s1.6,3.6,3.6,3.6,3.6-1.6,3.6-3.6-1.6-3.6-3.6-3.6Z"/>
    <g>
      <path class="cls-1" d="M62.6,102.2c-.2-.1-.5-.2-.8-.2-6.5,0-12.9,0-19.4,0-.3,0-.7.1-.9.3-1.1.8-2.3,1.5-3.4,2.3-.6.4-1.2.9-1.9,1.4h32c-1.9-1.3-3.7-2.6-5.6-3.8Z"/>
      <path class="cls-1" d="M59.6,98.5c-1.5-1.6-3.3-1.8-5.4-1.7,0-1.3,0-1.3-.6-1.9-.6-.5-.8-1.1-.9-1.8h-1.4c0,.6-.2,1.1-.7,1.5-.6.6-1.2,1.1-.7,2.1-3.2-.3-5.5.8-6.7,3.9h17.7c-.2-.9-.7-1.5-1.3-2.2Z"/>
    </g>
    <rect class="cls-1" x="50.2" y="126" width="3.4" height="8.2"/>
    <path class="cls-1" d="M51.9,114.7c.2.5.4.9.6,1.5.5,1.3.9,2.6,1,4.2.1,1.4,0,2.5-.6,3.4-.5.7-1.2.7-1.7,0-.7-.9-1-3-.5-4.5.2-.5.4-.9.6-1.4,0-.2.2-.4.3-.6.3-.8.4-1.6.3-2.5,0,0,0,0,0,0Z"/>
    <circle class="cls-1" cx="52" cy="92.9" r="1.1"/>
  </g>
  <path class="cls-1" d="M53.7,36.9c-.1,0-.2,0-.2-.1,3.8-3.8,7.6-2.1,9.6-5.9.8-1.5,1.3-2.6-.1-4,.3,1,.1,2.1-.9,2.1-3.4.1-6.4-9.1-9.7-9.4-4.2-.4-7.3,7.8-8.7,4.4-1.6-4-5-4.6-7.9-4.4-4.3.4-7.6,4.3-7.6,8.4s5.3,3.8,4.8.8c-.2-1.5-1.5-1.5-2.4-2.2-1.6-1.3,2.2-5.9,5.7-5.7,2.4.1,4.7,2.7,4.8,10.8,0,1.9,0,4.4,0,7.1-.9-.4-1.9-.4-3-.3,2.4,1.6,3,4.7,3,6.6v8.6c0,4.2-1.2,5.5-2.3,4.3,0,2.3,2.6,2.3,2.7,2,.8-1.5,3-3.4,4.8-3.7-.2-.1-.2-.9-.3-1.1v-2.9c.7,0,1.2-.6,1.3-1.2,1.6-.2,2.9-1.7,3.1-2.9-4.1,1.5-3.2-13.1,5.3-3.5,9.7,10.9,2.1,30.6-9.2,25.5-4.4-1.9-3.8-7.4.3-9.2,1.1-.5,2.2-.6,3.2,0,.2,0,.5.2.8.4.2.2.5.5.9.8.5-1,.7-2,.5-2.9-.2-.9-.7-1.5-1.5-1.9-1.3-.6-2.7-.4-4.4.4-1.7.9-3,2.1-4,3.9,0,.1-.2.3-.2.4-1.5-2.1-6.8-2.8-8.4-1.1,6-.4,6.7,5.1,8.6,7.9.6.9,1.5,1.7,2.5,2.3,2,1.2,4.2,1.3,6.2,1.5-2.4,1.2-4,2.9-4.8,5.3-1.5,4.1.3,8.1,4.5,9.6,1.7.6,3.4.6,5.1,0,1.6-.5,2.7-1.5,3.1-2.8.3-.8.2-1.6-.3-2.5-.4-.8-1.2-1.4-2.2-1.7,0,.4,0,.9,0,1.2,0,.4-.1.7-.2.9-.4,1-1.1,1.8-2.1,2.2-3.9,1.5-7.8-2.1-6.2-6.6.7-2,2-3.5,4.1-4.4.7-.3,1.5-.5,2.4-.6.3.1.7.3,1,.5,1.9,1.4,5,2.3,7.7.6-2.4.1-2.5-2.9-1.2-4.3,10.4-10.6,3.7-27.6-7.7-33.1ZM45.9,44.8v-14.5c0-3.4.4-4.9,1.2-5.3,3.4-1.9,6.7,7.3,10.1,7.8-3.6.5-10.8,7.1-11.2,12.1Z"/>
  <path class="cls-1" d="M81.6,54.8c-9.5,0-2.3,11.5-7.5,11.5s-1.9-.7-2.4-1.6c-.2-.6-.2-1.5-.2-2.1v-19.7c0-1.9,0-3.3.8-4.2-4.5,0-2.6,2.7-5.4,2.8v.4c.9.9.9,1.6.9,3.1v17.7c0,1,0,1.6-.2,2.1-.1.3-.4.6-.8,1v.4c1.3,0,2.2.1,3.1.5,1.2.4,2.6,1.1,4.3,2.2,1.8-1,3.2-1.8,4.3-2.2.9-.4,1.9-.5,3-.5v-.4c-.3-.4-.6-.7-.7-1-.5-1.3-.7-9.4.8-9.8Z"/>
  <path class="cls-1" d="M97.6,42.9c0-.4.4-.7.8-1v-.4c-1.3,0-2.2-.2-3.1-.5-1.1-.4-2.5-1.2-4.3-2.2-1.7,1-3.1,1.8-4.3,2.2-.8.3-1.8.4-2.9.5v.4c.3.4.5.7.7,1,.1.4.2,1,.2,2.1v17.6c0,1,0,1.6-.2,2.1-.1.3-.4.6-.8,1v.4c1.3,0,2.2.1,3.1.5,1.2.4,2.6,1.1,4.3,2.2,1.8-1,3.2-1.8,4.3-2.2.9-.4,1.9-.5,3-.5v-.4c-.3-.4-.6-.7-.7-1-.1-.4-.3-1.1-.3-2.1v-17.6c0-1,.1-1.7.3-2.1ZM93.6,62.5c0,1,0,1.6-.2,2.1-.4,1-1.1,1.6-2.5,1.6s-1.9-.7-2.4-1.6c-.1-.4-.2-1.1-.2-2.1v-17.6c0-1,0-1.7.2-2.1.4-1,1.1-1.7,2.4-1.7s2,.7,2.5,1.7c.1.4.2,1,.2,2.1v17.6Z"/>
  <path class="cls-1" d="M114.4,42.9c0-.4.4-.7.8-1v-.4c-1.3,0-2.2-.2-3.1-.5-1.1-.4-2.5-1.2-4.3-2.2-1.7,1-3.1,1.8-4.3,2.2-.8.3-1.8.4-2.9.5v.4c.3.4.5.7.7,1,.1.4.2,1,.2,2.1v17.6c0,1,0,1.6-.2,2.1-.1.3-.4.6-.8,1v.4c1.3,0,2.2.1,3.1.5,1.2.4,2.6,1.1,4.3,2.2,1.8-1,3.2-1.8,4.3-2.2.9-.4,1.9-.5,3-.5v-.4c-.3-.4-.6-.7-.7-1-.1-.4-.3-1.1-.3-2.1v-17.6c0-1,.1-1.7.3-2.1ZM110.5,62.5c0,1,0,1.6-.2,2.1-.4,1-1.1,1.6-2.5,1.6s-1.9-.7-2.4-1.6c-.1-.4-.2-1.1-.2-2.1v-17.6c0-1,0-1.7.2-2.1.4-1,1.1-1.7,2.4-1.7s2,.7,2.5,1.7c.1.4.2,1,.2,2.1v17.6Z"/>
  <path class="cls-1" d="M131.3,64.5c-.2-.4-.3-1.1-.3-2.1v-29.3c0-1.6.1-2.8.8-3.6-4.5,0-2.6,2.7-5.4,2.8v.4c.3.4.5.7.7,1,.1.4.2,1,.2,1.9v5.5c0,1.6-5-2.2-5.2-2.6-1.1,1.9-4.6,2.8-4.7,2.8v.4c.6.4.9,1.1,1,1.9v18.5c0,.6,0,1.1,0,1.7,0,.7-.4,1.4-1,1.8v.4c1,0,3.7,1.5,4.8,2.8.4-.8,4-3.1,5.3-3.1v3.1c.5-1.3,2.1-2.8,4.6-2.8v-.4c-.3-.4-.6-.7-.7-1ZM127.4,63c-.1.3-.4.7-.7.9-1,.8-3.9,2-4.4,1.8,0,0-.1-.1-.1-.3v-23.4c0-.1,0-.2.1-.2.5-.3,3.4.9,4.4,1.7.7.6.7,1.1.7,2.1,0,5.7.1,11.7,0,17.4Z"/>
  <path class="cls-1" d="M149.1,39l-.2-.4c-2.8,0-.9-2.8-5.4-2.8.8.9.8,2.2.8,4.2v22.6c0,1.9-.9,3.7-2.6,3.7s-2-.7-2.4-1.6c-.2-.6-.3-1.5-.3-2.1v-19.7c0-1.9,0-3.3.9-4.2-4.5,0-2.6,2.7-5.4,2.8l-.2.4c1.1.9,1.1,1.6,1.1,3.1v17.7c0,1,0,1.6-.2,2.1-.1.3-.4.6-.9,1v.4c1.3,0,2.2.1,3.1.5,1.1.4,2.6,1.1,4.3,2.2,1.8-1.7,4.6-4.8,7.2-4.8l.2-.4c-.4-.4-.7-.7-.9-1-.1-.4-.2-1.1-.2-2.1v-18.3c0-1.4,0-2.2,1.1-3.1Z"/>
  <path class="cls-1" d="M156,63.5v-20.6c0-1.9,0-3.3.9-4.2-4.5,0-2.7,2.7-5.5,2.8v.4c.3.4.5.7.7,1,.1.4.2,1.4.2,2.1v17.3c0,1.5,0,1.8-.2,2.2-.1.4-.5.7-1,1.1v.4c2,0,4.2,2.9,5.6,2.8.4,0,.7-.3,1-.8-1.6,0-1.6-3.2-1.6-4.4Z"/>
  <path class="cls-1" d="M172.9,63.5v-18.1c0-.6,0-1.2,0-1.8.1-.7.4-1.4,1.1-1.8v-.4c-.2,0-2.3,0-4.8-2.8-.2.4-5.2,4.5-5.2,2.8s0-1.9.8-2.8c-4.5,0-2.6,2.8-5.5,2.8v.4c.3.4.6.7.7,1,.1.4.2,1.1.2,2.1v17.4c0,1.4,0,1.8-.2,2.2-.2.4-.5.7-1,1.1v.4c2,0,4.2,2.9,5.5,2.8.4,0,.7-.4,1-.8-1.6,0-1.6-3.2-1.6-4.4v-18c0-.9,0-1.5.7-2.1,1-.8,3.9-2,4.4-1.7.1,0,.1.1.1.2v20.3c0,1.4,0,1.8-.2,2.2s-.5.7-1,1.1v.4c2,0,4.2,2.9,5.6,2.8.4,0,.7-.4,1-.8-1.6,0-1.6-3.2-1.6-4.4Z"/>
  <path class="cls-1" d="M190.4,42.9c.1-.3.4-.7.8-1v-.4c-1.3,0-2.2-.2-3.1-.5-1.2-.4-2.6-1.1-4.3-2.2-1.8,1.1-3.2,1.9-4.3,2.2-.9.3-1.9.5-3,.5v.4c.3.4.6.7.7,1,.2.4.3,1.1.3,2.1v17.7c0,1,0,1.6-.3,2,0,.4-.4.7-.8,1v.4c1.3,0,2.2.2,3.1.5,1.1.4,2.5,1.2,4.3,2.2,1.7-1,3.1-1.8,4.3-2.2.8-.3,1.8-.4,2.9-.5v-.4c-.3-.4-.5-.7-.7-1-.5-1.3-.7-9.4.8-9.8-9.7,0-1.7,11-7.4,11.5-1.3,0-2-.7-2.5-1.7-.2-.5-.2-1.4-.2-2v-4.7c0-2.1,8-4.8,9.9-4.8v-.4c-.3-.4-.5-.7-.7-1-.2-.6-.2-3.2-.2-3.8v-2.9c0-1,0-1.6.2-2.1ZM186.5,51c0,1.7-5.3,4-5.3,3.1v-9.1c0-1,0-1.6.2-2.1.4-1,1.1-1.6,2.5-1.6s1.9.6,2.4,1.6c.1.4.2,1.1.2,2.1v6Z"/>
  <path class="cls-1" d="M61,103.6c.1-.8.1-1.6-.1-2.4-.2-.8-.6-1.5-1.2-2.1-.6-.5-1.4-.5-1.9,0-.5.5-.4,1.3.1,1.8.1,0,.2-.2.3-.3.5-.4,1-.3,1.4.2.2.4.4.8.5,1.3.2.7.1,1.4,0,2,0,.4-.3.7-.6.9-1.6,1.2-3.3,1.9-5.2,2.3-1.5.3-3,.6-4.6.9-1.2.3-2.4.7-3.4,1.6-1.5,1.4-1.8,3.5-.7,4.9.8,1.1,1.8,1.6,3.1,1.4,1.2-.1,2-.8,2.5-1.8.3-.6.3-1.2,0-1.8-.3-.7-1.1-.9-1.7-.7.1.4.3.8.4,1.2,0,.7-.4,1.3-1,1.5-.7.2-1.5,0-1.9-.6-.5-.8-.4-1.7.2-2.4.8-.9,1.9-1.3,3.1-1.5,1.6-.3,3.2-.6,4.8-1,1.9-.4,3.8-1.2,5.4-2.4,2.8-2,4.4-4.8,4.7-8.2.3-3-.5-5.8-2.3-8.3-1.5-2.1-3.6-3.4-6-4.2-3.1-1-6.3-.9-9.5-.2.6.4,1.2.8,1.7,1.1.3.2.5.2.8.2,2.4-.3,4.7-.2,7,.7,5.9,2.2,8.4,9,5.5,14.5-.3.5-.6,1-1,1.5,0,0,0,0,0,0Z"/>
  <path class="cls-1" d="M41,125.2c-.1-.8-.1-1.6.1-2.4.2-.8.6-1.5,1.2-2.1.6-.5,1.4-.5,1.9,0,.5.5.4,1.3-.1,1.8-.1,0-.2-.2-.3-.3-.5-.4-1-.3-1.4.2-.2.4-.4.8-.5,1.3-.2.7-.1,1.4,0,2,0,.4.3.7.6.9,1.6,1.2,3.3,1.9,5.2,2.3,1.5.3,3,.6,4.6.9,1.2.3,2.4.7,3.4,1.6,1.5,1.4,1.8,3.5.7,4.9-.8,1.1-1.8,1.6-3.1,1.4-1.2-.1-2-.8-2.5-1.8-.3-.6-.3-1.2,0-1.8.3-.7,1.1-.9,1.7-.7-.1.4-.3.8-.4,1.2,0,.7.4,1.3,1,1.5.7.2,1.5,0,1.9-.6.5-.8.4-1.7-.2-2.4-.8-.9-1.9-1.3-3.1-1.5-1.6-.3-3.2-.6-4.8-1-1.9-.4-3.8-1.2-5.4-2.4-2.8-2-4.4-4.8-4.7-8.2-.3-3,.5-5.8,2.3-8.3,1.5-2.1,3.6-3.4,6-4.2,3.1-1,6.3-.9,9.5-.2-.6.4-1.2.8-1.7,1.1-.3.2-.5.2-.8.2-2.4-.3-4.7-.2-7,.7-5.9,2.2-8.4,9-5.5,14.5.3.5.6,1,1,1.5,0,0,0,0,0,0Z"/>
  <g>
    <path class="cls-1" d="M117.8,115.2c0-3.7,0-7.3,0-11v-4.6c1-.1,1.9.5,2.1,1.5,1-.9.1-3.5-.3-3.5-.3,0-.3.5-.6.5s-.7,0-1.2,0v-3.7c0-2.5,0-6,2.4-7.4-.8-.2-1.8-.4-2.4-.1v-7.4c1.5-2.2,4.7-1.8,6.1.7.4.8.5,1.5.2,2.3,0,.2-.1.4-.3.6-.2.2-.3.4-.5.7.8.3,1.4.4,2.1.2.6-.2,1-.6,1.3-1.2.3-.9.1-2-.6-3.1-.7-1.2-1.7-2-3-2.6,0,0-.2-.1-.3-.1,1.4-1.2,1.6-5.1.3-6,0,.6,0,1.2,0,1.7-5.5,5.2-12-2.7-19,1.4-1.9,1.1-3.1,3.1-2,6,.1.4-.6.9-.2,1.1,1.5,1,3.7,2.5,5.1,1.7.4-.2.7-.4.9-.7-.9,0-1.9-.4-2.2-1.4-.4-1.6.4-2.7,1.9-3.4.8-.4,2.2-.2,3.8.1-1.6,4.6-4.8,12.7-8.2,20.7-5.8-.5-10.4-1.8-10.1-4.9.2-1.4,1.5-2,2.7-2-.4-.4-.9-.6-1.5-.9-2.1-.9-5,1.2-6.8,2.6-.4.3.7.9.6,1.3-.4,2.6,1,4.2,3.7,5.3-.3.4-.5,1-.7,1.5.5-.3,1.2-.5,1.8-.6,1.4-.2,2.9.2,4.4.3,1.5.2,3.2.3,4.9.3-.2.4-1.4,2.9-3.1,6.5-.4-.7-1.3-1.1-2.1-1.3,1.3,2.5,0,5.7-1.2,8.3-.5,1-.9,1.9-1.3,2.9-.6,1.2-1.2,2.4-1.7,3.6-1.6,3.4-4.2,7.4-4.3,10.7-.1,2.6,1,5.8,4.7,5.1,2.1-.4,2.7-2.5,2.3-4.3-.9.5-1.7.9-2.4,1s-1.3,0-1.8-.2c-5.5-3.2,6.4-13,9.1-11.2-1-1.1-1.5-2.4-.9-2.7.8,2,2.9,3.3,5.4,2.5.4-.1.8-.3,1.2-.6,3.8-2.9,1-6.7-.6-4.6-.7.8,0,1.6.1,2.5.4,2.1-7.8,4.5-3.7-6.2,1.8-4.3,3.5-8.9,3.8-9.6.1,0,.2,0,.4,0,.3,0,.6-.2.8-.5.1,0,.3,0,.5,0s.4,0,.7-.1c-.5-.2-.7-.7-.7-1,.2-1.4,3.9-1.5,5.4-1.3,0,.5-.5,2.3-1,2.6-.3.2.7.6,1,1.4,0,2.9,0,6.2,0,8.2-.2,3.8-.7,7.7-2.3,7.9.5.5,1.7.7,2.2.5-.1,1.1,1.2,2,2.5,1.2,1.4,2.1,4.5,5.4,8,5.1,0,0,.1,0,.2,0-5.1-1.8-5.5-6.8-5.6-12ZM112.9,98.2c-1.6,0-3.5,0-5.3,0,1.8-4.9,3.5-9.8,5.4-14.4,0,4,0,9.3-.1,14.4Z"/>
    <path class="cls-1" d="M134.8,99.9c-.4-.7-.4-3.3,0-4.2.1-.4.4-.7.9-.9v-.4c-.2,0-2.4,0-4.8-2.8-.7,1.2-3.3,2.3-4.3,3-.4.3-.9.6-.9-.2,0-1.9,0-1.9.8-2.8-4.5,0-2.6,2.7-5.4,2.8l-.2.4c.4.4.7.7.9,1,.1.4.2,1,.2,2.1v17.3c0,1.5,0,1.8-.2,2.2-.1.4-.5.7-1,1.1v.4c2,0,4.2,2.9,5.6,2.8.4,0,.7-.3,1-.8-1.6,0-1.6-3.2-1.6-4.4v-18c0-.9,0-1.5.7-2,1.2-1,4.5-2.5,4.5-1.5s0,2.2,0,2.8v1.1c0,1.2,0,4.4-1.6,4.4.3.5.6.8,1,.8,1.3.1,3.5-2.8,5.6-2.8v-.4c-.6-.4-.9-.7-1-1.1Z"/>
    <path class="cls-1" d="M150.9,129.4c0-11.4,0-22.8,0-34.2,0-1.6.1-2.8.9-3.6-4.5,0-2.7,2.7-5.5,2.8v.4c.3.4.6.7.7,1,.1.4.3,1,.3,2.1v15.5c0,2.7-4.8,5.4-5.1,5.2,0,0,0-.1,0-.3,0-7.7,0-15.4,0-23.1,0-1.6,0-2.8.8-3.6-4.5,0-2.6,2.7-5.5,2.8v.4c.3.4.6.7.7,1s.2,1,.2,2.1v18.8c-.1.7-.4,1.4-1.1,1.9v.4c2.2,0,3.4.3,4.8,2.8.3-.4,5.3-4.5,5.3-2.8s.1,10.7-.3,11.4c-.2.4-.5.7-1,1.1v.4c2,0,4.2,2.9,5.6,2.8.4,0,.7-.4,1-.9-1.6,0-1.6-3.1-1.6-4.3Z"/>
    <path class="cls-1" d="M159.5,94.3c0-.8.4-3.9,2.4-2.7-1-1.6-2.2-2.3-3.1-2.1-3.8.9-3.6,4.5-5.4,4.8v.4c.2.3.8,1,.9,1.6h1.5v18.9c0,1.5,0,1.9-.2,2.2-.1.4-.5.7-1,1.1v.4c2.2,0,3.7,2.8,5.5,2.8,1.6,0,2.9-1.6,2.9-3.2-2.5,2.5-3.4-.6-3.4-2.7v-19.5h2.8c0-.5.7-1.3,1.1-1.6l-.2-.4h-3.7Z"/>
    <path class="cls-1" d="M178.7,123.6c-.2-.7-.3-2.4-.3-5.1v-21.9c.1-.7.4-1.4,1.1-1.8v-.4c-.2,0-2.5,0-4.8-2.8-.4.7-5.3,4.5-5.3,2.3s0-4.8,0-6.9c.7-.3,1.4-.6,2.1-.8.8-.3,1.6-.5,2.2-1,.4-.3.6-.6.7-1.1,0-.3.3-.4.6-.4.3,0,.6,0,.9,0,.3,0,.4-.2.4-.5,0-.7-.4-1.4-.8-1.9-.5-.6-1.6-.6-2.3,0-.5.4-.9.9-1.3,1.4-.4.5-.2,1,.5,1.1.2,0,.4,0,.7,0-.2.3-.2.5-.4.6-.3.2-.6.5-1,.6-.8.2-1.5.4-2.3.6,0-1.3.2-2.3.8-3-4.5,0-2.7,2.7-5.5,2.8v.4c.3.4.6.7.7,1,.1.4.3,1.1.3,2.1v26.4c0,1.5-.1,1.8-.3,2.2-.1.4-.5.7-1,1.1v.4c2,0,4.2,2.9,5.6,2.8.4,0,.7-.3,1-.8-1.6,0-1.6-3.2-1.6-4.4v-18c0-.9,0-1.5.7-2,1-.9,3.9-2,4.4-1.8,0,0,0,.1,0,.3v24.1c0,1.6.2,2.8.5,3.4.5,1.2,1.5,2.3,2.9,3.4,1.3,1,3,1.9,4.8,2.8v-1c-1-.5-1.9-1-2.5-1.5-.9-.8-1.5-1.6-1.8-2.5Z"/>
    <path class="cls-1" d="M186.7,116.4v-20.6c0-1.9,0-3.3.9-4.2-4.5,0-2.7,2.7-5.5,2.8v.4c.3.4.5.7.7,1s.2,1.4.2,2.1v17.3c0,1.5,0,1.8-.2,2.2-.1.4-.5.7-1,1.1v.4c2,0,4.2,2.9,5.6,2.8.4,0,.7-.3,1-.8-1.6,0-1.6-3.2-1.6-4.4Z"/>
    <path class="cls-1" d="M204.5,107.7c-9.5,0-2.3,11.5-7.5,11.5s-1.9-.7-2.4-1.6c-.2-.6-.2-1.5-.2-2.1v-19.7c0-1.9,0-3.3.8-4.2-4.5,0-2.6,2.7-5.4,2.8v.4c.9.9.9,1.6.9,3.1v17.7c0,1,0,1.6-.2,2.1-.1.3-.4.6-.8,1v.4c1.3,0,2.2.1,3.1.5,1.2.4,2.6,1.1,4.3,2.2,1.8-1,3.2-1.8,4.3-2.2.9-.4,1.9-.5,3-.5v-.4c-.3-.4-.6-.7-.7-1-.5-1.3-.7-9.4.8-9.8Z"/>
    <path class="cls-1" d="M221,107.7c-9.5,0-2.3,11.5-7.5,11.5s-1.9-.7-2.4-1.6c-.2-.6-.2-1.5-.2-2.1v-19.7c0-1.9,0-3.3.8-4.2-3.1,0-3.2,1.3-3.9,2.1,0-1,0-1.9.2-2.9.4-2.3,1.3-4.5.9-7,.5,0,.9,0,1.3-.1.9-.1,1.8-.1,2.5-.8.6-.6.5-1.2,0-1.7-.6-.6-1.1-1.2-1.6-1.9-.5-.7-.8-1.4-1.3-2.1-.9-1.4-1.8-1.4-2.7,0-.4.6-.7,1.2-1,1.8-.6.8-1.1,1.6-1.8,2.2-.5.6-.7,1.2,0,1.6.5.4,1.1.6,1.6.8.8.2,1.6.2,2.5.3,0,.4,0,.8,0,1.2-.2,1.2-.4,2.4-.7,3.5-.5,1.9-1.2,3.7-1,5.7,0,0,0,0,0,0-1.4-1.9-1.4-4.4-3-6.2.2-.2.4-.3.5-.4.4-.4,1-.9,1.3-1.4.3-.5,0-1-.4-1.2-1-.4-2.1-.7-3-1.2-1.4-.7-2-.3-2,1.2,0,1.1-.1,2.2-.2,3.3,0,.5.1.8.5.9.4,0,.8,0,1.2,0,.6-.2,1.1-.5,1.7-.8.2.3.5.7.6,1,.3.9.7,1.8,1,2.8.3,1.1.7,2.2,1.5,3.1.2.3.4.5.7.6.2.5.2,1.1.2,1.8v17.7c0,1,0,1.6-.2,2.1-.1.3-.4.6-.8,1v.4c1.3,0,2.2.1,3.1.5,1.2.4,2.6,1.1,4.3,2.2,1.8-1,3.2-1.8,4.3-2.2.9-.4,1.9-.5,3-.5v-.4c-.3-.4-.6-.7-.7-1-.5-1.3-.7-9.4.8-9.8Z"/>
  </g>
  <path class="cls-2" d="M211.7,39.9c0,0,0-.2.1-.3.5-1.3.6-2.6.2-4-.3-1.3-.9-2.1-1.8-2.6-.6-.3-1.1-.2-1.7,0-.6.3-1,.9-1.3,1.6.3,0,.6,0,.8,0,.2,0,.5.1.6.2.7.3,1.2.9,1.5,1.7.6,2-.3,3.9-1.8,4.6-1,0-1.9-.1-2.7-.4,0,0,0,0,0,0-1.2-.3-4.5-2.3-4.5-2.3h0c-1.7,1-3.1,1.8-4.3,2.2-.8.3-1.8.4-2.9.4l-.2.4c.5.4.7.7.9,1,.1.4.2,1.1.2,2.1v8.1c3.9,0,9,1.9,9,5.4v4.2c0,1,0,1.6-.3,2.1-.4,1-1,1.6-2.4,1.6-6.1,0,2.5-11.5-7.6-11.3.6.7,1.3,1.4,1.3,3.5s0,5.7-.2,6.1c-.1.3-.4.6-.9,1l.2.4c1.1,0,2.1.1,2.9.5,1.2.4,2.6,1.1,4.3,2.2,1.8-1,3.2-1.8,4.3-2.2.9-.4,1.9-.5,3-.5v-.4c-.3-.4-.6-.7-.7-1-.2-.4-.3-1.1-.3-2.1v-2.9c0-.7,0-3.2.3-3.8,0-.3.4-.7.8-1v-.4c-2,0-10.1-2.8-10.1-4.8v-4.7c0-.6,0-1.5.2-2.1.4-1,1-1.6,2.4-1.6s2,.7,2.4,1.6c.4.8.4,5.4.1,6-.1.4-.5.7-1,1.1v.4c2.3,0,2.9,3,6,.8-1.4-.4-1.4-6.4-.9-8.1.2,0,.3,0,.5,0,2.4-.3,5.7-2.6,8.3.9.2-1.6-2.7-4.2-4.5-4Z"/>
</svg>