<?xml version="1.0" encoding="UTF-8"?>
<svg id="Ebene_1" data-name="Ebene 1" xmlns="http://www.w3.org/2000/svg" viewBox="0 0 155.55 140.29">
  <defs>
    <style>
      .cls-1 {
        opacity: .94;
      }

      .cls-1, .cls-2 {
        fill: #a3885a;
      }

      .cls-1, .cls-2, .cls-3, .cls-4, .cls-5, .cls-6 {
        stroke-width: 0px;
      }

      .cls-3 {
        fill: #aa0f09;
      }

      .cls-4 {
        fill: none;
      }

      .cls-5 {
        fill: #1d1d1b;
      }

      .cls-6 {
        fill: #fff;
      }
    </style>
  </defs>
  <path class="cls-2" d="M88.58,52.09c.32-.25.58-.4,1.02-.45.44-.05.91.03,1.39.06.49.04,1.09.11,1.59.15-.28-.57-.6-1.13-.97-1.65-.09-.13-.25-.15-.37-.17-.76-.08-1.44-.04-2.2-.23-.76-.18-1.58-.65-2.27-.99-.84-.41-1.64-.89-2.55-.6-1.22.4-1.17,1.33-1.14,2.43.25-.63.51-1.01,1.18-1.2-.07,1.24.14,2.28.67,3.4-.04-.16-.14-.36-.11-.53.08-.48,0-.98.3-1.39.41-.56,1.15-.58,1.69-.27.53.31.35.26.48.75-.18.04-.5.57-.53.76-.08.56.14.84.55,1.18.22.19.46.18.64-.06-.17-.03-.58-.27-.41-.64.38-.38.6-.24,1.03-.57Z"/>
  <path class="cls-3" d="M80.35,32.15c.28,1.46.62,2.9.83,4.37.85,5.95,2.4,11.55,4.73,16.82,1.63,3.71,3.26,7.44,4.6,11.33,2.53,7.31.53,15.87-4.59,19.86-3.94,3.06-7.99,2.72-11.93-.15-3.63-2.64-5.4-6.81-5.56-12.1-.15-5.18,1.54-9.61,3.54-13.9,2.5-5.35,4.94-10.75,6.35-16.77.59-2.53.91-5.17,1.37-7.76.1-.57.26-1.12.39-1.68.09,0,.17,0,.26-.01Z"/>
  <path class="cls-4" d="M84.66,88.57c.09-.25.19-.5.29-.75-.28-.24-.52-.48-.7-.7-.05.1-.11.2-.18.29-.37.49-.71.99-1.04,1.47.67-.3,1.25-.42,1.64-.31Z"/>
  <g>
    <path class="cls-2" d="M74.92,110.68v-2.08c0-.36-.03-.62-.08-.79-.06-.11-.17-.25-.34-.39l.08-.14c.51,0,1.26-.73,1.66-1.04.25.39,1.32.65,1.54.42-.17.62-.45,1.07-.87,1.15-.14.03-.45-.17-.56-.17-.03.06-.03.11-.03.2v2.84h1.4l.06.14c-.14.14-.36.42-.39.62h-1.07c-.03,2.81,0,4.52,0,7.36,0,.79.36,1.91,1.26,1.01,0,.59-.48,1.21-1.1,1.18-.67,0-1.24-1.04-2.05-1.04v-.14c.2-.14.34-.28.39-.45.06-.14.08-.25.08-.81v-7.1h-.42c-.03-.2-.25-.48-.42-.62l.08-.14h.76Z"/>
    <path class="cls-2" d="M78.49,112.03c0-.39-.03-.65-.08-.79-.06-.14-.14-.25-.31-.39l.06-.14c.42-.03.79-.08,1.1-.2.45-.17.98-.45,1.63-.84.67.39,1.21.67,1.63.84.34.11.7.17,1.12.2l.06.14c-.17.14-.28.25-.31.39-.06.14-.11.39-.11.79v6.63c0,.36.06.62.11.79.03.11.14.22.31.39l-.06.14c-.42,0-.79.06-1.12.2-.42.14-.95.42-1.63.81-.65-.39-1.18-.67-1.63-.81-.31-.14-.67-.2-1.1-.2l-.06-.14c.17-.17.25-.28.31-.39.06-.17.08-.42.08-.79v-6.63ZM81.89,112.03c0-.39-.03-.65-.08-.79-.17-.39-.42-.65-.93-.65-.48,0-.73.25-.9.65-.06.14-.08.39-.08.79v6.63c0,.36.03.62.08.79.17.36.42.62.9.62.51,0,.76-.25.93-.62.06-.17.08-.42.08-.79v-6.63Z"/>
    <path class="cls-2" d="M89.81,112.79c.06.14.17.28.39.42v.14c-.79,0-1.6,1.09-2.11,1.04-.17,0-.28-.11-.39-.31.62,0,.62-1.21.62-1.66v-.42c0-.25-.03-.98-.03-1.07,0-.36-1.26.17-1.71.56-.25.2-.25.42-.25.76v6.77c0,.45,0,1.66.62,1.66-.11.2-.25.31-.39.31-.53.06-1.35-1.04-2.11-1.04v-.14c.2-.14.34-.28.39-.42.06-.17.08-.28.08-.84v-6.51c0-.39-.03-.65-.08-.79s-.17-.25-.34-.39l.08-.14c1.07-.03.34-1.04,2.05-1.04-.31.34-.31.31-.31,1.04,0,.31.17.2.34.08.39-.25,1.38-.67,1.63-1.12.93,1.07,1.74,1.04,1.8,1.04l.03.14c-.17.08-.28.2-.34.34-.14.36-.11,1.32.03,1.6Z"/>
  </g>
  <path class="cls-4" d="M127.17,76.77c-.04.21-.31,1.42-.82,3.17.36-1.03.64-2.1.82-3.17Z"/>
  <path class="cls-6" d="M108.99,102.15c.06.02.12.02.12.02l-.12-.02Z"/>
  <path class="cls-2" d="M29.04,112.54c0-.85,0-1.3-.63-1.84l.09-.22c1.7-.04.54-1.66,3.27-1.66-.49.54-.49,1.34-.49,2.51v11.83c0,.36,0,.9.13,1.25.27.58.63.99,1.43.99,3.09,0-1.21-6.9,4.48-6.9-.9.27-.81,5.11-.49,5.92.04.18.22.36.49.63l-.09.22c-.67,0-1.25.09-1.79.31-.67.22-1.52.67-2.6,1.3-1.03-.63-1.88-1.08-2.6-1.3-.49-.22-1.08-.31-1.75-.31l-.09-.22c.27-.27.4-.45.49-.63.09-.27.13-.67.13-1.25v-10.62Z"/>
  <path class="cls-2" d="M39.12,112.58c0-.63-.04-1.03-.13-1.25-.09-.22-.22-.4-.49-.63l.09-.22c.67-.04,1.25-.13,1.75-.31.72-.27,1.57-.72,2.6-1.34,1.08.63,1.93,1.08,2.6,1.34.54.18,1.12.27,1.79.31l.09.22c-.27.22-.45.4-.49.63-.09.22-.18.63-.18,1.25v10.58c0,.58.09.99.18,1.25.04.18.22.36.49.63l-.09.22c-.67,0-1.25.09-1.79.31-.67.22-1.52.67-2.6,1.3-1.03-.63-1.88-1.08-2.6-1.3-.49-.22-1.08-.31-1.75-.31l-.09-.22c.27-.27.4-.45.49-.63.09-.27.13-.67.13-1.25v-10.58ZM44.54,112.58c0-.63-.04-1.03-.13-1.25-.27-.63-.67-1.03-1.48-1.03-.76,0-1.17.4-1.43,1.03-.09.22-.13.63-.13,1.25v10.58c0,.58.04.99.13,1.25.27.58.67.99,1.43.99.81,0,1.21-.4,1.48-.99.09-.27.13-.67.13-1.25v-10.58Z"/>
  <path class="cls-2" d="M49.25,112.58c0-.63-.04-1.03-.13-1.25-.09-.22-.22-.4-.49-.63l.09-.22c.67-.04,1.25-.13,1.75-.31.72-.27,1.57-.72,2.6-1.34,1.08.63,1.93,1.08,2.6,1.34.54.18,1.12.27,1.79.31l.09.22c-.27.22-.45.4-.49.63-.09.22-.18.63-.18,1.25v10.58c0,.58.09.99.18,1.25.04.18.22.36.49.63l-.09.22c-.67,0-1.25.09-1.79.31-.67.22-1.52.67-2.6,1.3-1.03-.63-1.88-1.08-2.6-1.3-.49-.22-1.08-.31-1.75-.31l-.09-.22c.27-.27.4-.45.49-.63.09-.27.13-.67.13-1.25v-10.58ZM54.67,112.58c0-.63-.04-1.03-.13-1.25-.27-.63-.67-1.03-1.48-1.03-.76,0-1.17.4-1.43,1.03-.09.22-.13.63-.13,1.25v10.58c0,.58.04.99.13,1.25.27.58.67.99,1.43.99.81,0,1.21-.4,1.48-.99.09-.27.13-.67.13-1.25v-10.58Z"/>
  <path class="cls-2" d="M67.04,123.11c0,.58.04,1.03.18,1.25.04.18.22.4.49.63l-.09.22c-1.52,0-2.46.85-2.78,1.66v-1.88c-.76,0-2.91,1.39-3.18,1.88-.67-.76-2.29-1.7-2.87-1.66l-.04-.22c.4-.22.58-.63.63-1.08.04-.36.04-.67.04-1.03v-11.11c-.04-.45-.22-.85-.67-1.12l.09-.22s2.15-.49,2.82-1.66c.13.27,3.14,2.51,3.14,1.57v-3.32c0-.54-.04-.94-.13-1.16-.09-.18-.22-.4-.49-.63l.09-.22c1.7-.04.54-1.66,3.27-1.66-.4.45-.49,1.16-.49,2.15v17.61ZM61.66,110.79v14.07c0,.09.04.13.09.18.31.13,2.06-.58,2.64-1.08.18-.13.36-.36.45-.54.09-3.45,0-7.04,0-10.49,0-.58,0-.9-.45-1.25-.58-.49-2.33-1.21-2.64-1.03-.04,0-.09.04-.09.13Z"/>
  <path class="cls-2" d="M116.87,112.54c0-.85,0-1.3-.63-1.84l.09-.22c1.7-.04.54-1.66,3.27-1.66-.49.54-.49,1.34-.49,2.51v11.83c0,.36,0,.9.13,1.25.27.58.63.99,1.43.99,3.09,0-1.21-6.9,4.48-6.9-.9.27-.81,5.11-.49,5.92.04.18.22.36.49.63l-.09.22c-.67,0-1.25.09-1.79.31-.67.22-1.52.67-2.6,1.3-1.03-.63-1.88-1.08-2.6-1.3-.49-.22-1.08-.31-1.75-.31l-.09-.22c.27-.27.4-.45.49-.63.09-.27.13-.67.13-1.25v-10.62Z"/>
  <path class="cls-2" d="M126.96,112.58c0-.63-.04-1.03-.13-1.25-.09-.22-.22-.4-.49-.63l.09-.22c.67-.04,1.25-.13,1.75-.31.72-.27,1.57-.72,2.6-1.34,1.08.63,1.93,1.08,2.6,1.34.54.18,1.12.27,1.79.31l.09.22c-.27.22-.45.4-.49.63-.09.22-.18.63-.18,1.25v10.58c0,.58.09.99.18,1.25.04.18.22.36.49.63l-.09.22c-.67,0-1.25.09-1.79.31-.67.22-1.52.67-2.6,1.3-1.03-.63-1.88-1.08-2.6-1.3-.49-.22-1.08-.31-1.75-.31l-.09-.22c.27-.27.4-.45.49-.63.09-.27.13-.67.13-1.25v-10.58ZM132.38,112.58c0-.63-.04-1.03-.13-1.25-.27-.63-.67-1.03-1.48-1.03-.76,0-1.17.4-1.43,1.03-.09.22-.13.63-.13,1.25v10.58c0,.58.04.99.13,1.25.27.58.67.99,1.43.99.81,0,1.21-.4,1.48-.99.09-.27.13-.67.13-1.25v-10.58Z"/>
  <path class="cls-2" d="M137.08,112.58c0-.63-.04-1.03-.13-1.25-.09-.22-.22-.4-.49-.63l.09-.22c.67-.04,1.25-.13,1.75-.31.72-.27,1.57-.72,2.6-1.34,1.08.63,1.93,1.08,2.6,1.34.54.18,1.12.27,1.79.31l.09.22c-.27.22-.45.4-.49.63-.09.22-.18.63-.18,1.25v10.58c0,.58.09.99.18,1.25.04.18.22.36.49.63l-.09.22c-.67,0-1.25.09-1.79.31-.67.22-1.52.67-2.6,1.3-1.03-.63-1.88-1.08-2.6-1.3-.49-.22-1.08-.31-1.75-.31l-.09-.22c.27-.27.4-.45.49-.63.09-.27.13-.67.13-1.25v-10.58ZM142.51,112.58c0-.63-.04-1.03-.13-1.25-.27-.63-.67-1.03-1.48-1.03-.76,0-1.17.4-1.43,1.03-.09.22-.13.63-.13,1.25v10.58c0,.58.04.99.13,1.25.27.58.67.99,1.43.99.81,0,1.21-.4,1.48-.99.09-.27.13-.67.13-1.25v-10.58Z"/>
  <path class="cls-5" d="M109.22,131.15s.47.97,0,2.78.79,0,.79,0c0,0-.45-1.57,0-2.78-.41-.83-.79,0-.79,0Z"/>
  <g>
    <path class="cls-2" d="M106,129.93c.04.2.09.39.14.58l-.13-.58s0,0,0,0Z"/>
    <path class="cls-2" d="M113.36,126.56c5.99-7.78,1.15-19.16-6.75-23.02-.09,0-.13-.04-.18-.09,2.82-2.78,5.56-1.52,7.04-4.3.58-1.12.94-1.88-.09-2.91.22.76.09,1.52-.67,1.57-2.46.09-4.71-6.68-7.13-6.9-3.05-.31-5.33,5.69-6.36,3.23-1.21-2.96-3.67-3.41-5.83-3.23-3.14.27-5.56,3.14-5.56,6.14s3.85,2.78,3.5.58c-.18-1.12-1.12-1.12-1.75-1.61-1.21-.94,1.61-4.3,4.21-4.21,1.79.09,3.45,2.02,3.54,7.93.04,1.39.04,3.23.04,5.24-.63-.27-1.39-.31-2.2-.22,1.79,1.17,2.2,3.45,2.2,4.84v6.27c0,3.09-.85,4.03-1.7,3.14,0,1.7,1.88,1.66,1.97,1.43.58-1.08,2.2-2.46,3.5-2.73-.13-.09-.18-.63-.22-.81v-2.15c.49,0,.9-.4.94-.9,1.16-.18,2.15-1.25,2.24-2.11-3,1.12-2.38-9.63,3.85-2.55,7.08,7.98,1.57,22.45-6.77,18.73-3.23-1.39-2.78-5.42.22-6.77.81-.36,1.61-.4,2.33-.04.18.04.36.18.58.31.18.18.4.36.63.58.4-.76.54-1.43.4-2.11-.18-.67-.54-1.12-1.12-1.39-.94-.4-2.02-.31-3.23.31-1.25.63-2.2,1.57-2.91,2.82-.04.09-.13.22-.18.31-1.12-1.57-5.02-2.06-6.14-.81,4.44-.31,4.88,3.72,6.27,5.78.45.67,1.08,1.25,1.84,1.7,1.9,1.11,3.99.94,5.69,1.22-.28,1.34-.75,2.25-.75,3.36,0,1.03.42,1.86.94,1.86s.94-.83.94-1.86c0-.88-.28-1.64-.53-2.59h0s-.03-.11-.03-.11c-.05-.19-.1-.38-.14-.58,0,0,0,0,0,0v-.04s2.55-.42,2.89,2.15c.13.65.22,1.66.04,3.02-.27,1.01-.52,1.9-.52,2.83,0,1.32.54,2.4,1.21,2.4s1.21-1.07,1.21-2.4c0-.93-.24-1.82-.51-2.83,0,0-.21-.92-.19-1.87h0s-.41-3.29,3.25-6.64ZM100.92,109.31v-10.67c0-2.46.31-3.58.85-3.9,2.46-1.39,4.93,5.38,7.39,5.69-2.64.36-7.93,5.24-8.25,8.87Z"/>
    <path class="cls-2" d="M106.16,130.62h0s-.02-.07-.03-.11l.03.11Z"/>
  </g>
  <g>
    <path class="cls-2" d="M21.88,132.08c.02.17.04.33.06.46l-.06-.46Z"/>
    <path class="cls-1" d="M18.78,103.53c-.09,0-.13-.04-.18-.09,2.82-2.78,5.56-1.52,7.04-4.3.58-1.12.94-1.88-.09-2.91.22.76.09,1.52-.67,1.57-2.46.09-4.71-6.68-7.13-6.9-3.05-.31-5.33,5.69-6.36,3.23-1.21-2.96-3.67-3.41-5.83-3.23-3.14.27-5.56,3.14-5.56,6.14,0,.98.44,1.62,1.01,1.95.23.19.74.81.47,2.36-.33,1.32-.71,2.4-.71,3.54,0,1.32.54,2.4,1.21,2.4s1.21-1.07,1.21-2.4c0-1.04-.3-2.03-.61-3.2-.17-1.86.18-2.49.34-2.68.42-.26.69-.73.58-1.38-.18-1.12-1.12-1.12-1.75-1.61-1.21-.94,1.61-4.3,4.21-4.21,1.79.09,3.45,2.02,3.54,7.93.04,1.39.04,3.23.04,5.24-.63-.27-1.39-.31-2.2-.22,1.79,1.17,2.2,3.45,2.2,4.84v6.27c0,3.09-.85,4.03-1.7,3.14,0,1.7,1.88,1.66,1.97,1.43.58-1.08,2.2-2.46,3.5-2.73-.13-.09-.18-.63-.22-.81v-2.15c.49,0,.9-.4.94-.9,1.17-.18,2.15-1.25,2.24-2.11-3,1.12-2.38-9.63,3.85-2.55,7.08,7.98,1.57,22.45-6.77,18.73-3.23-1.39-2.78-5.42.22-6.77.81-.36,1.61-.4,2.33-.04.18.04.36.18.58.31.18.18.4.36.63.58.4-.76.54-1.43.4-2.11-.18-.67-.54-1.12-1.12-1.39-.94-.4-2.02-.31-3.23.31-1.25.63-2.2,1.57-2.91,2.82-.04.09-.13.22-.18.31-1.12-1.57-5.02-2.06-6.14-.81,2.84-.2,4.04,1.38,4.91,3.08.17.46.36,1.27.23,2.46-.28,1.19-.64,2.13-.64,3.11s.42,1.86.94,1.86.94-.83.94-1.86-.36-1.93-.63-3.12c0-.06-.06-.39-.05-.82.19.39.38.75.59,1.07.45.67,1.08,1.25,1.84,1.7,1.76,1.02,3.68.96,5.31,1.17h0s3.47-.12,3.36,2.08c0,.05,0,.09-.01.13h0c-.01.29-.04.59-.08.92-.27,1.01-.52,1.9-.52,2.83,0,1.32.54,2.4,1.21,2.4s1.21-1.07,1.21-2.4c0-.93-.24-1.82-.51-2.83,0,0-.03-.15-.07-.39h0s0,0,0,0c-.02-.13-.04-.29-.06-.46v-.06s-.64-2.09,3.38-5.14c0-.01.02-.02.03-.03,6.35-7.78,1.49-19.41-6.51-23.32ZM13.09,109.31v-10.67c0-2.46.31-3.58.85-3.9,2.46-1.39,4.93,5.38,7.39,5.69-2.64.36-7.93,5.24-8.25,8.87Z"/>
    <polygon class="cls-2" points="21.94 132.54 21.94 132.54 21.94 132.54 21.94 132.54"/>
  </g>
  <g>
    <path class="cls-2" d="M91.34,80.28s.04-.05.05-.08c-.48-.35-.93-.76-1.37-1.15-.06.13-.11.26-.17.39.49.29.98.57,1.49.84Z"/>
    <path class="cls-2" d="M141.1,55.56c-.94-3.99-2.01-7.91-3.98-11.46-1.9-3.42-3.98-6.27-6.13-9.57-2.06-3.16-4.16-6.25-6.76-9.2-2.6-2.95-5.71-5.66-9-8.06-2.05-1.5-4.57-2.74-6.78-4.09-1.6-1.22-.24-1.96-.02-2.07,2.51-.8,4.53.14,6.79,1.4.11.06.23.3.37.34-.39-.84-.71-1.83-1.53-2.36-1.48-.95-3.09-1.59-4.82-1.67-1.62-.08-3.26.02-4.42,1.15-.83.81-1.15,1.57-1.16,2.35,0,0,0,0,0,0,0,.05,0,.1,0,.15,0,.03,0,.05,0,.08.1,3.15,1.53,5.75,1.55,5.79.15.34.29.68.4,1.01,1.15,3.79,1.9,7.55,1.91,11.49,0,1.21-.28,2.41-.79,3.41-.04.08-.08.16-.13.24-2.66,3.46-9.61,1.23-9.7,1.2-.18-.41-.27-.77-.22-1.05.03-.19.04-.38.07-.58.2-1.18.45-2.36.77-3.52.05.56.1,1.11.15,1.67l.09-.03c.29-2.12.5-4.25.65-6.39.06.02.12.03.18.05.25.91.51,1.82.76,2.73.05-.02.11-.04.16-.05-.2-3.32-.76-6.51-1.61-9.72.04-.03.09-.07.13-.1.76,1.04,1.55,2.06,2.34,3.08-1.77-3.37-3.91-6.27-6.54-9.02,1.38.43,2.76.84,4.15,1.24-2.98-1.9-6-3.08-9.46-3.8.98-.62,1.97-1.22,2.95-1.83-2.72.48-5.29,1.21-7.84,2.28-.04-.05-.09-.09-.13-.14.41-.9.8-1.8,1.17-2.72-1.11.97-2.23,1.95-3.33,2.93-.2.18-.4.35-.6.53,0,0,0,0,0,0-1.28.9-1.78,2.34-1.97,3.31.02-.63.02-1.27-.03-1.91-.23-2.8-.72-5.5-1.75-8.12-.63-1.61-1.8-2.76-2.95-3.98-.16-.17-.81-.57-.95-.54.16.23.6.89.73,1.14,1.53,2.92,2.99,5.66,3.14,9.01.17,3.53-.61,7.03-.52,10.56-.28-.16-.61-.52-.68-.75-.3.78.17,1.93.24,2.06.16.3.32.48.49.57.14,1.79.36,4.41.48,4.59.02.45.22,1.96-.23,2.38.05.61-.02,1.93,1.66,2.97-.35-.84-.45-1.77-.15-2.27.3-.5.64-3.33.64-3.33,0,0,.82-.93.89-1.27,0,0,.46-.66.63-.15.17.51.65,3.03.77,3.44.13.41.25.65.31.82.06.17-.12,1.65,1.45,2.49-.07-.29-.43-2.02-.3-2.3.13-.28.16-.83.16-.83l-.3.08s-.27-1.8.19-2.86c-.08-.15-.19-.31-.33-.49h0s-.09-.37-.06-.96c.11-.37.52-1.32,1.8-1.93-.59-.02-1.04.05-1.33.12.19-.41.45-.84.81-1.28.07-.07.13-.15.2-.22.72-.75,1.7-1.4,2.3-2.29-1.17.65-2.27,1-3.62,1,1.1-1.13,2.23-2.18,3.46-3.18-.59.08-.86.06-1.48.3-.5.19-1.1.4-1.7.57.54-.79,1.29-1.29,1.58-1.46.04-.02.08-.05.12-.07,0,0,0,0,0,0h0c.5-.31.9-.71,1.52-.84,1.08-.22,2.19.02,3.21.37.01,0,6.76,4.16,4.25,10.15,0,0,0,.02-.01.02-.68,1.45-5.07,5.62-6.25,9.05-1.18,3.44-1.57,8.54,2.52,11.87,0,0,.48.68,3.06,2.36.42.74.88,1.54,1.16,2.23.16.4.21.87-.12,1.13-1.21.94-2.29,1.77-3.72,2.37-.95.4-1.89.22-2.87-.13-.6-.21-1.3-.62-1.93-.81-.21.38-.38.77-.59,1.15-.53.54-1.17.9-1.65,1.51-.47.61-.75,1.2-.74,2.02,0,.7.36,1.42.76,2.01.05-.54,0-1.15.16-1.67.16-.52.46-.94.81-1.32.35-.38.77-.53,1.17-.82.04.08.09.14.12.22-.59.68-1.18,1.19-1.17,2.16,0,.97.57,1.69,1.18,2.4.02-.09-.05-.23-.06-.32-.13-.97-.19-1.88.73-2.44.82-.49,1.72-.47,2.65-.52.94-.04,1.86.28,2.81.33.32.02.69-.03,1.01-.05,0-.07,0-.14,0-.22-.84-.47-1.68-.94-2.51-1.43,1.94-.09,3.54.11,5.19,1.19-.4-.59-.83-1.14-1.35-1.64,0-.09,0-.18-.02-.27.29.02.46.07.78.08,1.34.04,2.66,0,4.03-.2.27-.04.66-.23.89-.43.05-.05-.1-.17-.13-.19-.46-.26-1.07-.19-1.47-.54-.76-.67-.95-1.14-.99-2.22-.01-.32-.02-.71-.02-1.12.45.25.92.51,1.43.79.05.03.1.05.14.08.03.01.05.03.08.04,0,0,0,0,0,0,.26.13.51.24.77.39,0,0,3.29,1.91,4.16,11.66.01.25.03.5.04.75,0,.12.04.29.05.45,0,.08.01.15.02.23-.37-.42-.74-.97-1.12-1.37-2.06-2.14-4.15-3.8-7.06-4.59-.54-.15-.82.51-.89,1.11-.22,1.91-.34,4.55.23,6.32.33,1.03,1.15,1.9,1.38,2.52.42,1.11.49,1.86-.61.94-.99-.83-1.85-2.51-2.88-3.51-.56-.54-1.34-1.05-1.94-1.6-.29-.27-.54-.39-.94-.18-.54.28-1.12.38-1.62.81-1.37,1.15-1.85,2.56-2.02,4.32.42-.81.69-1.66,1.47-2.21.68-.49,1.39-.42,2.16-.22-1.26.68-1.95,1.64-2.16,3.03-.15.95.27,1.49.61,2.31.4-1.86,1.05-2.92,2.74-3.84.14-.08.3-.01.38.12.08.13-.04.31-.09.42-.05.11-.19.15-.23.24-.29.65-.5,1.16-.28,1.86s.77,1.03,1.39,1.36c-.1-.22-.29-.49-.37-.7-.16-.44-.35-.99.11-1.23,1.24-.66,1.98-.69,2.97.32.99,1.01,1.82,2.2,2.83,3.19.27.26.54.41.84.6.01-.43.03-.95.05-1.37.08-2.04.16-4.05.37-6.07.51.66,1.22,1.55,1.55,2.26.59,1.27.95,2.18.55,3.52-.34,1.13-.93,2.15-1.91,2.9s-2.19,1.4-3.47,1.7c-1.41.32-3.07.12-4.54-.04-.28-.03-.68-.14-1-.2,0,.01-.01.03-.02.04.44.39.89.81,1.37,1.15-.02.03-.04.05-.05.08-.5-.27-1-.55-1.49-.84-.96,2.04-2.28,3.8-3.94,5.09-.08.07-.17.13-.25.19,1.97.75,4.05,1.27,6.33,1.63.26.04.49-.09.74-.09.03.12.06.25.07.37-1.96.37-4.08.5-6.02.83-1.94.32-3.68.73-5.61.92.13.08.26.19.41.22.42.08.81.26,1.25.26,2.79.02,5.57.47,8.35-.02,5.13-.91,9.32-2.83,13.49-5.9.19-.14.26-.33.43-.47-1.03,2.48-2.37,4.66-4.08,6.73.11-.03.29-.03.39-.09,1.56-1,3.28-1.89,4.43-3.37,1.98-2.54,3.02-5.18,3.83-8.27.2-.78.23-1.61.37-2.41.04-.12.09-.24.13-.35.07,0,.15-.02.22-.03.72,2.37,1.25,3.89,1.65,6.34.09-.19.31-.33.34-.55.25-2.05.34-2.65.05-4.78-.28-2.09-.51-4.1-1.08-6.09.42-3.5.13-6.96-.45-10.01.06.08.11.16.17.23.57.74,1.16.66,1.98.66-.72-1.39-1.44-2.79-2.12-4.19-.71-1.46-1.44-3.06-2.12-4.6,0,0,2.07.6,2.9,1.78.83,1.18.94,1.89.94,1.89l.85.1s.79-.29,1.16,1.12c1.04,4.38,1.52,9.79,1.25,13.74-.32,4.73-1.15,7.87-2.47,11.87-.82,2.48-2.46,3.57-3.78,5.61-.17.27-.42.37-.6.61-.18.24-.39.39-.56.66,2.18-2.05,4.37-3.28,6.16-5.85,2.17-3.12,3.69-6.15,5.06-10.1.26-.74.49-1.64.68-2.62h0s1.22-4.5,3.36-3.79c2.14.71,2.26,3.55,2.14,4.14-.12.59.81,4.99,1.26,5.86,0,0,0,0,0,0h0s0,.01,0,.04c-.04.21-.31,1.42-.82,3.17-1.43,4.87-4.81,13.92-10.95,17.36,1.22-.56,2.36-1.25,3.4-2.17,4.12-3.62,7.14-7.85,9.78-12.57,2.37-4.24,3.45-8.87,4.95-13.44.39-1.19.19-2.4.1-3.65-.08-1.12-.41-2.28-.45-3.42-.01-.29.16-.6.26-.87.11-.01.21-.01.32-.02.41.81.89,1.58,1.2,2.43.31.85.42,1.73.64,2.6.06,0,.12.02.19.02.04-.38.2-.78.18-1.16-.24-3.94-.69-7.98-1.53-11.79-.48-2.18-1.25-3.99-1.76-6.11-.11-.47-.15-.89.02-1.36.17-.47.51-.6,1.03-.59,0,0,1.49.15,2.16.99.68,1.13,1.36,2.28,2.04,3.49,1.42,2.53,2.25,5.53,3.15,8.33.02.05.04.15.11.15-.06-.82.08-1.8-.1-2.6ZM77.79,21.15c.42.82.42,1.07-.12,1.17-.01-.42-.03-.84-.04-1.25.05.03.11.06.16.09ZM77.68,25.04c-.02-.65-.04-1.3-.05-1.95.07,0,.14,0,.21,0,.55.93.55,1.32-.16,1.96Z"/>
    <path class="cls-2" d="M90.03,79.05s.01-.03.02-.04c-.03,0-.06-.01-.09-.02.02.02.04.04.07.06Z"/>
  </g>
  <path class="cls-2" d="M76.77,101.04c-.3-.39-.49-.61-.61-.86,3.6,1.92,7.82,3.09,11.52,4.13-2.61-1.17-7.02-3.1-10.63-5.57.24,0,.51.03.92.07.9.09,2.57.8,3.37.9.8.09,1.15.11,1.71-.23-1.57-.41-2.65-.68-4.06-1.59-1.06-.68-2.44-.69-3.74-.48-.39-.32-.76-.64-1.11-.97.26-.24.52-.35,1.31-.17,1.26.3,3.1,1.15,4.49-.13-1.1.18-2.18.17-3.08-.51s-1.42-.95-2.48-1.07c-.51.15-.98.39-1.46.57-.48-.59-.88-1.19-1.17-1.81,1.03-.11,2.21.75,2.94,1.23-.98-1.49-1.9-2.3-3.43-2.67-.3-1.48.03-3.04,1.26-4.64,3.65-2.71,8.64-4.32,11.08-8.14,5.59-9.3-3.26-19.88-10.1-19.88-5.32,0-6.79,2.36-7.1,3.51-.81,2.96.13,5,2.13,6.26,2.89-8.2,11.19-1.44,12.28,1.1,3.68,8.52-3.19,11.07-5.23,12.5-3.66,1.82-7.95,4.11-7.24,9.03.1.31.21.61.32.91-.01,0-.02,0-.04,0-.83,2.14-.45,3.56.84,5.39-.19-.95-.62-2.6.15-3.48.4.65.86,1.26,1.36,1.83.27.9,0,1.79.02,2.72.44.97.87,1.39,1.79,2.04.92.65,1.26,1.68,1.42,2.78.8-1.72-.57-3.21-1.24-4.32-.49-.82-.36-1.06-.15-1.47.33.27.68.53,1.03.78.53,1.45,1.34,3,2.71,3.63,1.53.7,2.34,1.46,3.53,2.56-.02-.66-.23-.94-.73-1.56-.51-.62-2.01-1.65-2.57-2.35Z"/>
  <path class="cls-2" d="M153.72,125.68c.45-.28,1.03-.46,1.74-.46l.09-.22c-.27-.22-.45-.45-.49-.63-.13-.22-.18-.67-.18-1.25v-17.61c0-.99.09-1.7.49-2.15-2.73,0-1.57,1.61-3.27,1.66l-.09.22c.27.22.4.45.49.63.09.22.13.63.13,1.16v3.32c0,.94-3-1.3-3.14-1.57-.67,1.16-2.78,1.66-2.82,1.66l-.09.22c.45.27.63.67.67,1.12v11.11c0,.36,0,.67-.04,1.03-.04.45-.22.85-.63,1.08l.04.22c.58-.04,2.2.9,2.87,1.66.27-.49,2.42-1.88,3.18-1.88v1.47s0,.04,0,.06c-.07.46-.16.89-.26,1.3-.01.05-.02.1-.03.14-.35,1.42-.77,2.56-.77,3.76,0,1.32.54,2.4,1.21,2.4s1.21-1.07,1.21-2.4-.52-2.65-.88-4.34c-.05-.28-.15-1.2.58-1.72ZM152.68,123.43c-.09.18-.27.4-.45.54-.58.49-2.33,1.21-2.64,1.08-.04-.04-.09-.09-.09-.18v-14.07c0-.09.04-.13.09-.13.31-.18,2.06.54,2.64,1.03.45.36.45.67.45,1.25,0,3.45.09,7.04,0,10.49Z"/>
</svg>