<?xml version="1.0" encoding="UTF-8"?>
<svg id="Ebene_1" data-name="Ebene 1" xmlns="http://www.w3.org/2000/svg" viewBox="0 0 98.3 137.38">
  <defs>
    <style>
      .cls-1 {
        fill: #a3885a;
      }

      .cls-1, .cls-2, .cls-3 {
        stroke-width: 0px;
      }

      .cls-2 {
        fill: #aa0f09;
      }

      .cls-3 {
        fill: none;
      }
    </style>
  </defs>
  <path class="cls-1" d="M29.42,68.18c.42-.32.76-.53,1.34-.59.57-.06,1.19.03,1.82.08.64.05,1.42.14,2.09.2-.37-.75-.79-1.48-1.27-2.16-.12-.16-.32-.2-.49-.22-1-.11-1.89-.06-2.88-.29-.99-.24-2.06-.86-2.96-1.29-1.1-.53-2.15-1.17-3.33-.78-1.6.52-1.53,1.74-1.5,3.17.32-.83.66-1.32,1.55-1.57-.1,1.62.18,2.99.87,4.45-.05-.21-.18-.47-.14-.69.11-.63,0-1.29.39-1.82.54-.73,1.51-.76,2.21-.35.7.41.46.34.63.98-.23.06-.66.75-.69,1-.1.73.18,1.1.71,1.54.29.24.6.23.84-.08-.22-.04-.76-.35-.54-.84.5-.5.79-.31,1.35-.75Z"/>
  <path class="cls-2" d="M18.65,42.07c.37,1.91.81,3.79,1.09,5.72,1.12,7.79,3.15,15.11,6.19,22.01,2.14,4.85,4.27,9.74,6.02,14.83,3.31,9.57.7,20.78-6.01,25.99-5.16,4.01-10.46,3.55-15.61-.2-4.75-3.46-7.07-8.91-7.27-15.83-.2-6.77,2.01-12.57,4.64-18.2,3.27-7,6.47-14.07,8.31-21.96.77-3.32,1.2-6.77,1.8-10.16.13-.75.34-1.47.51-2.2.11,0,.23-.01.34-.02Z"/>
  <path class="cls-3" d="M79.93,100.48c-.06.28-.4,1.86-1.07,4.15.48-1.35.84-2.74,1.07-4.15Z"/>
  <g>
    <path class="cls-1" d="M33.04,105.07s.05-.07.07-.1c-.63-.45-1.21-.99-1.79-1.51-.07.17-.15.34-.23.51.64.38,1.29.75,1.95,1.1Z"/>
    <path class="cls-1" d="M98.17,72.72c-1.23-5.22-2.63-10.35-5.21-15-2.49-4.48-5.2-8.21-8.02-12.52-2.7-4.13-5.45-8.18-8.85-12.04-3.4-3.86-7.48-7.41-11.77-10.54-2.68-1.96-5.98-3.59-8.87-5.35-2.1-1.6-.31-2.56-.03-2.7,3.29-1.04,5.93.18,8.89,1.83.14.08.31.39.48.44-.51-1.1-.93-2.4-2-3.08-1.94-1.25-4.04-2.08-6.31-2.19-2.12-.1-4.26.02-5.79,1.5-1.08,1.05-1.51,2.05-1.51,3.07,0,0,0,0,0,0,0,.06,0,.13,0,.19,0,.03,0,.07,0,.1.13,4.12,2,7.53,2.03,7.58.19.44.38.89.52,1.33,1.5,4.96,2.49,9.88,2.5,15.04,0,1.58-.37,3.15-1.03,4.46-.05.11-.11.21-.17.31-3.49,4.52-12.58,1.61-12.7,1.57-.24-.54-.35-1.01-.29-1.38.03-.25.05-.5.09-.76.26-1.55.59-3.09,1-4.61.07.73.13,1.46.2,2.19l.11-.03c.38-2.78.65-5.56.85-8.36.08.02.15.05.23.07.33,1.19.67,2.38.99,3.57.07-.02.14-.05.21-.07-.26-4.35-1-8.52-2.11-12.73.06-.04.11-.09.17-.13,1,1.36,2.03,2.69,3.06,4.03-2.31-4.41-5.12-8.21-8.56-11.81,1.81.56,3.62,1.1,5.43,1.62-3.9-2.49-7.86-4.04-12.38-4.98,1.28-.81,2.58-1.59,3.87-2.39-3.56.62-6.92,1.58-10.26,2.99-.06-.06-.12-.12-.17-.18.53-1.18,1.05-2.36,1.54-3.55-1.45,1.27-2.92,2.56-4.36,3.83-.26.23-.52.46-.78.69,0,0,0,0,0,0-1.67,1.18-2.33,3.06-2.58,4.33.02-.83.03-1.66-.04-2.5-.3-3.66-.94-7.2-2.29-10.62-.83-2.1-2.35-3.61-3.85-5.21-.2-.22-1.06-.74-1.24-.7.21.3.78,1.17.95,1.49,2,3.82,3.91,7.41,4.11,11.79.22,4.62-.8,9.2-.69,13.82-.37-.21-.79-.68-.89-.98-.4,1.02.23,2.53.31,2.69.2.4.42.62.65.75.18,2.34.47,5.77.62,6.01.03.59.29,2.57-.3,3.12.06.79-.03,2.53,2.17,3.89-.45-1.1-.59-2.32-.19-2.98.39-.66.84-4.35.84-4.35,0,0,1.07-1.22,1.17-1.66,0,0,.61-.86.83-.19.22.67.85,3.97,1.01,4.5.16.53.33.85.4,1.07.07.22-.16,2.16,1.9,3.25-.09-.39-.56-2.65-.39-3.01.17-.36.21-1.08.21-1.08l-.4.11s-.36-2.36.25-3.75c-.11-.19-.25-.41-.43-.64h0s-.12-.48-.08-1.26c.15-.48.69-1.72,2.35-2.53-.77-.03-1.36.06-1.75.15.25-.54.59-1.1,1.05-1.68.09-.1.17-.19.27-.29.94-.99,2.22-1.83,3.02-3-1.53.85-2.97,1.3-4.74,1.31,1.44-1.48,2.92-2.86,4.53-4.16-.77.1-1.13.08-1.93.39-.65.25-1.43.52-2.22.75.71-1.04,1.68-1.68,2.07-1.91.05-.03.11-.06.16-.09,0,0,0,0,0,0h0c.65-.4,1.18-.94,1.99-1.1,1.42-.29,2.87.03,4.21.49.02.01,8.85,5.45,5.56,13.28,0,.01,0,.02-.01.03-.9,1.9-6.64,7.36-8.18,11.85-1.55,4.5-2.06,11.18,3.3,15.53,0,0,.63.9,4,3.09.54.97,1.15,2.02,1.52,2.92.22.53.28,1.14-.15,1.48-1.58,1.22-3,2.32-4.87,3.1-1.24.52-2.47.28-3.76-.18-.79-.28-1.7-.81-2.53-1.06-.27.49-.5,1.01-.77,1.5-.69.71-1.54,1.17-2.16,1.98-.62.8-.98,1.57-.97,2.65,0,.92.48,1.85,1,2.63.07-.71,0-1.51.2-2.19.21-.68.6-1.23,1.05-1.73.46-.49,1.01-.69,1.53-1.08.05.1.12.19.15.29-.77.89-1.55,1.55-1.54,2.83,0,1.27.75,2.21,1.54,3.14.02-.12-.06-.3-.08-.41-.17-1.27-.25-2.46.96-3.19,1.07-.64,2.25-.62,3.47-.68,1.22-.06,2.44.36,3.67.44.42.03.9-.03,1.33-.06,0-.09,0-.19,0-.28-1.1-.62-2.2-1.23-3.28-1.87,2.54-.12,4.63.15,6.79,1.56-.53-.77-1.09-1.5-1.76-2.15-.01-.12,0-.24-.03-.35.38.03.61.09,1.02.1,1.75.05,3.48,0,5.27-.27.36-.05.86-.3,1.16-.56.07-.06-.12-.22-.17-.25-.6-.34-1.4-.24-1.92-.71-.99-.88-1.24-1.49-1.3-2.91-.02-.42-.02-.93-.02-1.47.59.33,1.21.67,1.87,1.03.06.04.12.07.19.1.03.02.06.04.1.05,0,0,0,0,0,0,.34.17.67.32,1.01.51,0,0,4.3,2.5,5.44,15.26.02.32.04.65.05.98,0,.16.05.38.07.59,0,.1.01.2.02.3-.48-.55-.97-1.27-1.47-1.79-2.7-2.81-5.43-4.97-9.25-6.01-.71-.19-1.08.67-1.17,1.45-.29,2.5-.45,5.96.31,8.28.44,1.35,1.5,2.49,1.8,3.3.54,1.46.65,2.44-.8,1.23-1.3-1.09-2.42-3.29-3.77-4.6-.73-.71-1.75-1.38-2.54-2.09-.39-.35-.7-.5-1.23-.23-.7.36-1.46.5-2.13,1.06-1.79,1.51-2.42,3.35-2.64,5.66.55-1.06.91-2.17,1.92-2.89.9-.64,1.82-.56,2.83-.29-1.65.89-2.55,2.15-2.83,3.97-.19,1.25.36,1.96.8,3.02.53-2.43,1.38-3.82,3.59-5.02.19-.1.39-.02.5.16.11.18-.05.4-.12.55-.07.14-.25.19-.3.31-.38.85-.66,1.52-.36,2.44s1.01,1.35,1.82,1.78c-.13-.28-.38-.64-.48-.92-.21-.57-.46-1.29.15-1.61,1.62-.86,2.59-.9,3.88.42,1.29,1.32,2.39,2.88,3.7,4.18.35.34.71.53,1.11.79.02-.57.04-1.24.06-1.79.1-2.68.21-5.3.49-7.94.66.87,1.59,2.03,2.02,2.95.77,1.66,1.24,2.85.72,4.6-.44,1.48-1.22,2.81-2.51,3.79s-2.86,1.84-4.54,2.22c-1.84.42-4.01.16-5.94-.06-.36-.04-.89-.19-1.3-.26,0,.02-.02.04-.03.06.58.51,1.16,1.06,1.79,1.51-.02.04-.05.07-.07.1-.66-.35-1.31-.72-1.95-1.1-1.25,2.67-2.99,4.98-5.15,6.66-.11.09-.22.17-.33.25,2.57.98,5.31,1.67,8.29,2.13.34.05.64-.12.97-.12.04.16.07.32.09.48-2.57.48-5.34.66-7.88,1.08-2.53.42-4.82.96-7.34,1.21.17.1.34.25.53.29.56.1,1.06.34,1.63.35,3.65.02,7.3.62,10.93-.02,6.72-1.19,12.19-3.7,17.66-7.73.25-.19.33-.43.57-.62-1.35,3.25-3.11,6.1-5.34,8.81.15-.04.38-.04.51-.12,2.04-1.32,4.3-2.48,5.8-4.41,2.59-3.33,3.95-6.79,5.01-10.82.27-1.02.3-2.1.48-3.15.06-.15.11-.31.17-.46.1-.01.2-.02.29-.04.95,3.1,1.64,5.1,2.15,8.3.12-.25.41-.43.45-.71.33-2.68.45-3.47.07-6.26-.37-2.73-.67-5.36-1.42-7.97.55-4.58.17-9.11-.58-13.1.07.1.14.21.22.3.74.96,1.52.86,2.6.87-.94-1.82-1.88-3.65-2.78-5.49-.93-1.91-1.89-4.01-2.77-6.01,0,0,2.71.79,3.8,2.33,1.08,1.54,1.23,2.47,1.23,2.47l1.11.13s1.03-.38,1.52,1.47c1.37,5.74,1.98,12.81,1.63,17.99-.42,6.19-1.5,10.3-3.24,15.54-1.08,3.25-3.21,4.67-4.95,7.34-.23.35-.54.48-.78.8-.24.32-.51.51-.74.86,2.85-2.68,5.72-4.29,8.06-7.66,2.83-4.09,4.82-8.05,6.63-13.23.34-.97.64-2.15.89-3.43h0s1.59-5.89,4.4-4.96c2.8.93,2.96,4.64,2.8,5.41-.15.77,1.06,6.53,1.65,7.67,0,0,0,0,0,0h0s0,.02,0,.05c-.06.28-.4,1.86-1.07,4.15-1.87,6.37-6.3,18.21-14.33,22.72,1.59-.74,3.1-1.64,4.45-2.84,5.39-4.74,9.34-10.27,12.79-16.45,3.1-5.54,4.52-11.61,6.48-17.6.51-1.56.24-3.14.13-4.78-.1-1.46-.53-2.98-.58-4.48-.01-.38.21-.78.34-1.14.14-.02.27-.02.42-.03.53,1.05,1.17,2.07,1.58,3.18.41,1.11.56,2.27.84,3.41.08.01.16.02.25.02.05-.49.27-1.02.24-1.51-.31-5.16-.9-10.45-2.01-15.43-.63-2.86-1.64-5.22-2.3-8-.14-.61-.2-1.17.03-1.78.23-.61.67-.79,1.35-.78,0,0,1.95.2,2.83,1.29.89,1.47,1.78,2.98,2.67,4.57,1.86,3.31,2.94,7.24,4.12,10.91.02.07.05.19.15.2-.08-1.08.11-2.36-.14-3.4ZM15.3,27.68c.55,1.07.55,1.4-.16,1.53-.02-.55-.03-1.09-.05-1.64.07.04.14.08.21.12ZM15.16,32.78c-.02-.85-.05-1.7-.07-2.56.09,0,.19,0,.28,0,.72,1.21.72,1.73-.21,2.56Z"/>
    <path class="cls-1" d="M31.32,103.46s.02-.04.03-.06c-.04,0-.08-.02-.11-.02.03.03.06.05.09.08Z"/>
  </g>
  <path class="cls-1" d="M13.97,132.25c-.4-.51-.65-.8-.8-1.12,4.71,2.51,10.23,4.04,15.08,5.41-3.42-1.53-9.19-4.06-13.91-7.29.31-.01.66.03,1.21.09,1.17.11,3.36,1.05,4.41,1.17,1.04.12,1.5.15,2.24-.29-2.06-.54-3.46-.9-5.32-2.08-1.39-.89-3.19-.9-4.89-.63-.51-.42-1-.84-1.45-1.28.34-.31.68-.46,1.71-.22,1.65.39,4.06,1.51,5.88-.17-1.44.24-2.86.22-4.03-.66s-1.86-1.24-3.25-1.39c-.67.2-1.28.51-1.91.74-.63-.77-1.15-1.56-1.53-2.37,1.35-.14,2.89.98,3.85,1.61-1.28-1.95-2.49-3.02-4.49-3.5-.39-1.94.04-3.97,1.65-6.08,4.77-3.55,11.31-5.65,14.5-10.66,7.31-12.17-4.27-26.02-13.22-26.03-6.96,0-8.89,3.09-9.3,4.59-1.06,3.88.17,6.54,2.79,8.2,3.78-10.73,14.64-1.89,16.08,1.43,4.82,11.15-4.17,14.48-6.85,16.36-4.79,2.38-10.41,5.37-9.48,11.82.13.41.27.8.42,1.19-.02,0-.03,0-.05,0-1.08,2.81-.59,4.66,1.09,7.05-.25-1.24-.81-3.4.2-4.55.52.86,1.12,1.65,1.78,2.4.36,1.18,0,2.34.02,3.56.58,1.28,1.14,1.81,2.34,2.66,1.2.85,1.64,2.19,1.85,3.64,1.05-2.25-.75-4.2-1.62-5.65-.64-1.07-.47-1.39-.2-1.92.44.35.89.69,1.35,1.02.69,1.9,1.75,3.92,3.55,4.75,2,.92,3.06,1.91,4.62,3.35-.03-.86-.3-1.24-.96-2.05-.66-.81-2.64-2.15-3.37-3.08Z"/>
</svg>