<?xml version="1.0" encoding="UTF-8"?>
<svg id="Ebene_1" data-name="Ebene 1" xmlns="http://www.w3.org/2000/svg" version="1.1" xmlns:serif="http://www.serif.com/" viewBox="0 0 140 140">
  <defs>
    <style>
      .cls-1 {
        fill: #a4895b;
        stroke-width: 0px;
      }
    </style>
  </defs>
  <g id="Ebene_1-2" data-name="Ebene 1-2">
    <g>
      <path class="cls-1" d="M118.7,129.2c-3.6,3.7-7.9,7.3-12.9,10.7,5.7-1.9,11.5-5.7,16.6-10.8l-3.7.2Z"/>
      <path class="cls-1" d="M139,78.9v-.2c-.1-1-.3-2.1-.4-3.1,0-.4,0-.6,0-.6,0,0,0,0,0,0-1.7-10.5-5.9-20.7-12.3-29.6-4.7-6.6-10.4-12.2-17.2-15.7,1.2,1.9,1.7,9.7.8,11.9,11.2,6.9,20.5,19.5,24.2,34.2,0,0,0,0,0,.1.2,1,.5,1.9.6,2.9v.2c1.7,8,1.3,15.1.1,20.8l3.3-.2c1.6-8.2,1.2-16.2.8-20.8h0Z"/>
    </g>
    <g>
      <path class="cls-1" d="M10.4,80.5v-.2c.2-1,.3-2,.6-2.9,0,0,0,0,0-.1,3.1-14.8,11.9-27.8,22.8-35.2-.9-2.2-.8-10,.3-11.9-6.6,3.8-12,9.6-16.5,16.4-6,9.2-9.8,19.5-11,30.1h0s0,.2,0,.6c-.1,1-.2,2.1-.3,3.1v.2c-.2,3.4-.2,8.6.5,14.3l3.2-10.1c.1-1.4.3-2.8.5-4.2h0Z"/>
      <path class="cls-1" d="M41.8,140c-13.9-8.6-22.7-18.6-27.5-29.3v-.3c-.3-.4-.5-.9-.7-1.3l-1.3,4.1c6.6,13.6,18.5,23.6,29.4,26.8Z"/>
    </g>
    <path class="cls-1" d="M78.5,53.7c0,0-.2,0-.2,0,0,0,.1,0,.2,0h0Z"/>
    <path class="cls-1" d="M72.1,15.6l4.8,2.6c-2.5-7.6-4.7-8.3-10.2-9.9,4.1,1.7,5.4,7.3,5.4,7.3Z"/>
    <path class="cls-1" d="M34,43.9c-7.1,4.3-11.4,10.5-13.9,17.5,4.2-6.8,9.4-11.2,15.5-13-.7-1.5-1.3-3-1.5-4.6Z"/>
    <path class="cls-1" d="M15.3,77.8c4.3-11.9,15.7-17.9,26.9-20.2-2.8-2.6-4.8-5.3-6.4-8.2-9.4,3.6-19.3,15.6-21.6,28l1.2.4Z"/>
    <path class="cls-1" d="M54.8,64.3c-4.5-1.6-8.7-3.5-12.1-6.3-5.5,7.9-9.3,14.8-6.9,22.7.2-8,12.2-16.5,18.9-16.3Z"/>
    <path class="cls-1" d="M109.6,43.5c-.3,1.5-.8,3-1.5,4.6,6,1.7,11.3,6.2,15.5,13-2.8-6.9-7.2-13-13.9-17.5Z"/>
    <path class="cls-1" d="M107.9,49.1c-1.7,2.9-3.6,5.6-6.4,8.2,12.4,2.5,25.2,9.7,28,24.3h.5c-.5-14-11.6-28.5-22.1-32.5h0Z"/>
    <path class="cls-1" d="M102.2,58.3c6.3,7.1,10.7,12.4,8.9,23.4,4.9-9.2-4.9-21.5,7.5-15.1-4.5-4-10.2-6.5-16.3-8.3Z"/>
    <path class="cls-1" d="M100.9,57.7c-3.4,2.8-7.2,4.7-11.7,6.3,6.7-.1,18.4,8.3,18.5,16.3,2.5-7.9-1.4-14.8-6.9-22.7h0Z"/>
    <path class="cls-1" d="M68.8,64.9c-4.5-3.5-8.5-7.3-10.8-10.9,0,0-.1,0-.2,0-6.2-.4-23.3-10.6-19.2-22.6.8-2.5,3.1-4.7,5.7-4.4,3,.4,4,4.3,4,4.3,1.4-3.3-1.4-6.7-4.9-6.3-2,.3-3.7,1.2-5.2,2.8-1.7,1.9-2.8,4.3-3,6.8-1.9,19.3,14.7,29.5,33.6,30.4h0Z"/>
    <path class="cls-1" d="M82.1,94.1c0,0,.2-.2.1-.4,0-.1-.2-.1-.2,0-1,.3-1.9.6-2.8.7-2.5.3-4.6-1-6.1-2.6-1.6-1.6-4-5.6-6.3-9.7l2.9-5.1c1-1.7,2.1-3.1,4.1-3.8.3,0,.3-.3.3-.5s0-.3-.4-.3c-.2,0-5.9.7-6.1.7-.3,0-.4.2-.4.4s0,.4.3.4c2,.3.6,2.6.1,3.3l-1.8,3.3c-2.1-3.6-4-7-5.2-8.4-1.8-2.1-4.1-3.5-7.1-3.1-1.8.2-3.7.8-5.5,1.9,0,0-.2.2-.1.4,0,.1.2.1.2,0,1.1-.3,2-.7,3.1-.7,2.3-.2,4.4,1.1,5.9,2.7,1.4,1.5,3.8,5.6,6.2,9.9l-2.8,5c-1,1.7-2.1,3.1-4.1,3.8-.3,0-.3.3-.3.5s0,.3.4.3c.2,0,5.9-.7,6.1-.7.3,0,.4-.2.4-.4s0-.4-.3-.4c-2-.3-.6-2.6-.1-3.3l1.7-3.2c2.1,3.7,4.2,7.1,5.7,8.7,2,2.1,4.3,2.8,6.6,2.6,1.2-.1,2.3-.4,3.7-1,.5-.2,1.4-.6,1.8-.9h0Z"/>
    <path class="cls-1" d="M88.3,81.3c-.9-.9-2.5-1.3-4.4-1.7-2.3-.4-6.2-.8-5.7-3.6.3-1.6,1.6-2.3,2.6-2.5,1-.1,3-.2,3.9.1.5.2.6.7.4,1.9-.2,1.2-.3,2.4-.1,3.6,0,0,.1.2.2.2.1,0,.2,0,.2-.2,0-.3.1-.6.2-.9.2-.8.3-1.7.6-2.5.6-1.5,1.3-2.8,2.4-4.1.2-.2.2-.4.2-.5,0-.1-.1-.2-.3-.2-.8,0-6.8.8-7.7.9-1.9.2-3.6,1-4.7,2.3-1.2,1.5-1.2,3.6-.2,5.2,2.3,3.8,8.8,2.3,10.2,4.4.5.8.5,2.1-.3,2.9-.6.6-1.4,1-2,1.1-.8.2-2.1.3-2.8.3-1.8-.2-3.1-.5-3.8-2.2-.3-.8-.5-1.7,0-2.7,0-.1-.1-.3-.3-.3-.2,0-.4.3-.5.4-1,1.7-.9,3.4-.3,4.7.2.6.3,1.2.2,1.8,0,.3.1.5.4.5l1.3-.2c1-.1,4.9-.5,5.6-.6,1.5-.2,2.9-.6,4-1.4,2.5-1.9,2.1-5.4.7-6.8h0Z"/>
    <path class="cls-1" d="M87.9,109.6c.4-.1.7-.2.7-.6,0-.3-.2-.4-.5-.3-.2,0-1.4.2-2.5.3-1.1.1-2.2.2-2.3.3-1.2.1-2.3.3-2.5.3-.3,0-.5.1-.5.5,0,.4.4.4.7.4,1,.1,2,.6,2,1.7v5.6c0,.2,0,.3-.5.5,0,0-1.1.5-1.4.6-.1,0-.2.2-.2.3s0,.2.2.3c.2,0,1.3.3,1.4.3.4.1.5.2.5.4v4.7c0,1.1-.9,1.7-2,2.1-.4.1-.7.2-.7.6,0,.3.2.4.5.3.2,0,1.4-.2,2.5-.3.1,0,1.2-.1,2.3-.3,1.2-.1,2.3-.3,2.5-.3.3,0,.5-.1.5-.5,0-.4-.4-.4-.7-.4-1-.1-2-.6-2-1.7v-4.7c0-.2,0-.3.5-.5,0,0,1.1-.5,1.4-.6.1,0,.2-.2.2-.3s0-.2-.2-.3c-.2,0-1.3-.3-1.4-.3-.4-.1-.5-.2-.5-.4v-5.6c0-1.1.9-1.7,2-2.1h0Z"/>
    <path class="cls-1" d="M120.1,106c.4-.1.7-.2.7-.6,0-.3-.2-.4-.5-.3-.2,0-1.4.2-2.5.3-1.1.1-2.2.2-2.3.3-1.2.1-2.3.3-2.5.3-.3,0-.5.1-.5.5,0,.4.4.4.7.4,1,.1,2,.6,2,1.7v5.6c0,.2,0,.3-.5.5,0,0-1.1.5-1.4.6-.1,0-.2.2-.2.3s0,.2.2.3c.2,0,1.3.3,1.4.3.4.1.5.2.5.4v4.7c0,1.1-.9,1.7-2,2.1-.4.1-.7.2-.7.6,0,.3.2.4.5.3.2,0,1.4-.2,2.5-.3.1,0,1.2-.1,2.3-.3,1.2-.1,2.3-.3,2.5-.3.3,0,.5-.1.5-.5,0-.4-.4-.4-.7-.4-1-.1-2-.6-2-1.7v-4.7c0-.2,0-.3.5-.5,0,0,1.1-.5,1.4-.6.1,0,.2-.2.2-.3s0-.2-.2-.3c-.2,0-1.3-.3-1.4-.3-.4-.1-.5-.2-.5-.4v-5.6c0-1.1.9-1.7,2-2.1h0Z"/>
    <path class="cls-1" d="M53.5,108.2c-.9,0-1.1-.7-1.3-1.3l-1.9-5.8c0-.2-.3-.1-.3,0l-1.7,4.4-1.6-4.1c0-.2-.3-.1-.3,0l-1.9,6.2c-.2.6-.4,1.3-1.3,1.6-.1,0-.1.1-.1.2s0,.2.2.1c0,0,1.1-.1,1.5-.2,0,0,0,0,.1,0,.4,0,1.4-.2,1.4-.2.1,0,.2,0,.2-.2s0-.2-.1-.2c-.2,0-.7,0-.9-.1-.4-.3-.1-.9,0-1.2.1-.4,1.1-3.8,1.1-3.8.3.8,1.1,2.6,1.4,3.3.3.8.5.8.7,0l1.4-3.7c.4,1.2.8,2.4,1.2,3.5,0,.1,0,.3,0,.5,0,.4-.2.9-1.1,1.1-.1,0-.1.1-.1.2s0,.2.2.1c0,0,1.1-.1,1.4-.2,0,0,.1,0,.1,0,.4,0,1.9-.2,2-.2.1,0,.2,0,.2-.2s0-.2-.1-.2h0Z"/>
    <path class="cls-1" d="M68.2,102.1c0,0,0,0,.1,0,0-.1,0-.6.2-1,.3-.7.6-1.3,1.1-1.8.2-.2,0-.3,0-.3-.4,0-.6,0-.9,0-1,.1-2.4.3-2.9.3-1.7.2-3.3,1.9-3.4,4-.1,2.1,1.1,4.1,3.4,3.8.6,0,1-.1,2.2-.2.8,0,1.5-.2,1.7-.2.1,0,.2,0,.2-.2s-.2-.2-.3-.2c-.5,0-.9-.3-.9-.7s0-1.8,0-2,0-.1.2-.2c0,0,.5-.2.6-.2,0,0,0,0,0-.1,0,0,0,0,0-.1-.6-.2-1.5,0-1.5,0,0,0-2.3.2-2.8.5,0,0-.1,0-.1.2,0,0,0,.1.1.1.2,0,1.1-.2,1.9,0,.2,0,.2,0,.2.1,0,.9,0,1.6,0,2,0,.5-1.6.8-2.2.6-.9-.3-1.6-1.3-1.6-3.1s1.3-3.1,2-3.2c1.1-.1,1.5-.1,2,0,.2,0,.4.3.3.8,0,.5,0,1.2.2,1.2h0Z"/>
    <path class="cls-1" d="M90.4,98.9s-.2,0-.3.2c-.1.2-.3.5-.4.7-.2.3-.5.6-1,.7-.3,0-.4,0-.4-.3,0-.3,0-1.8,0-1.9s.1-.3.3-.4c1.5-.7.7.2,5.1-2.2,1.5-.8,2.9-1.7,4.7-1.9.6,0,1.7,0,2.2.1,0,0,0,0,0,0,0,0,.1,0,.1-.2s0,0,0,0c-.2-.2-1-.7-2.4-.6-5.1.6-4.7,3-11.7,3.7-.9,0-.4,0-.7,0-.1,0-.2,0-.2.2s.2.2.3.2c.5,0,.9.3.9.7v2.4c0,.1,0,.2-.2.3-.2,0-.5.2-.6.2,0,0,0,0,0,.1s0,0,0,.1c0,0,.6.1.6.1q.2,0,.2.2v2c0,.5-.4.8-.9.9-.2,0-.3,0-.3.3s0,.2.2.1c0,0,.6,0,1.1-.1.5,0,.9-.1,1-.1.5,0,1-.1,1.1-.1.1,0,.2,0,.2-.2s-.2-.2-.3-.2c-.4,0-.9-.3-.9-.7v-1.8c0-.3,0-.3.4-.3.5,0,.9.3,1,.5.1.2.3.4.4.6,0,.1.3.2.3.1,0,0,0-.2,0-.3-.5-1.1-.5-2,0-3.2,0-.1,0-.2,0-.3h0Z"/>
    <path class="cls-1" d="M84.1,97.7c.2,0,.3,0,.3-.3,0-.1,0-.2-.2-.1,0,0-.6,0-1.1.1-.5,0-.9.1-1,.1-.5,0-1,.1-1.1.1-.1,0-.2,0-.2.2s.2.2.3.2c.4,0,.8.3.8.7v2.4c0,.1,0,.1-.2.2,0,0-.5.2-.6.2,0,0,0,0,0,.1,0,0,0,0,0,.1,0,0,.6.1.6.1.2,0,.2,0,.2.2v2c0,.5-.4.8-.8.9-.2,0-.3,0-.3.3,0,.1,0,.2.2.1,0,0,.6,0,1.1-.1,0,0,.5,0,1-.1.5,0,1-.1,1.1-.1.1,0,.2,0,.2-.2s-.2-.2-.3-.2c-.4,0-.8-.3-.8-.7v-2c0-.1,0-.1.2-.2,0,0,.5-.2.6-.2,0,0,0,0,0-.1,0,0,0,0,0-.1,0,0-.6-.1-.6-.1-.2,0-.2,0-.2-.2v-2.4c0-.5.4-.8.8-.9h0Z"/>
    <path class="cls-1" d="M78.8,98.2c.2,0,.3,0,.3-.3s0-.2-.2-.1c0,0-2.7.3-2.7.3-.1,0-.2,0-.2.2s.2.2.3.2c.4,0,.9.3.9.7v4.4c-2.5-3.4-3.2-4.4-3.5-4.7,0,0-.3-.5-1-.4-.5,0-1,.1-1.1.1-.1,0-.2,0-.2.2s.2.2.3.2c.4,0,.9.3.9.7v2.4c0,.1,0,.1-.2.2,0,0-.5.2-.6.3,0,0,0,0,0,.1s0,0,0,.1c0,0,.6.1.6.1.2,0,.2,0,.2.2v2c0,.5-.4.8-.9.9-.2,0-.3,0-.3.3s0,.2.2.1c0,0,2.7-.3,2.7-.3.1,0,.2,0,.2-.2s-.2-.2-.3-.2c-.4,0-.9-.3-.9-.7v-4.2c.7.9,1.4,1.8,3.5,4.6.2.3.6.4,1,.4.6,0,1-.1,1.1-.1.1,0,.2,0,.2-.2s-.2-.2-.3-.2c-.4,0-.9-.3-.9-.7,0,.3,0-1.8,0-2,0-.1,0-.1.2-.2,0,0,.5-.2.6-.2,0,0,0,0,0-.1s0,0,0-.1c0,0-.6-.1-.6-.1-.2,0-.2,0-.2-.2s0-2.4,0-2.4c0-.5.4-.8.9-.9h0Z"/>
    <path class="cls-1" d="M96.5,96.3c.2,0,.3,0,.3-.3,0-.1,0-.2-.2-.1,0,0-.6,0-1.1.1-.5,0-.9.1-1,.1-.5,0-1,.1-1.1.1-.1,0-.2,0-.2.2s.2.2.3.2c.4,0,.8.3.8.7v2.4c0,.1,0,.1-.2.2,0,0-.5.2-.6.2,0,0,0,0,0,.1,0,0,0,0,0,.1,0,0,.6.1.6.1.2,0,.2,0,.2.2v2c0,.5-.4.8-.8.9-.2,0-.3,0-.3.3,0,.1,0,.2.2.1,0,0,.6,0,1.1-.1,0,0,.5,0,1-.1.5,0,1-.1,1.1-.1.1,0,.2,0,.2-.2s-.2-.2-.3-.2c-.4,0-.8-.3-.8-.7v-2c0-.1,0-.1.2-.2,0,0,.5-.2.6-.2,0,0,0,0,0-.1,0,0,0,0,0-.1,0,0-.6-.1-.6-.1-.2,0-.2,0-.2-.2v-2.4c0-.5.4-.8.8-.9Z"/>
    <path class="cls-1" d="M104.2,98.4s0,0,0,0c0,0,0,0,.1,0,0-.1,0-.3,0-.4,0-.4.2-.7.3-1.1.3-.7.6-1.3,1.1-1.8,0,0,0-.2,0-.2s0,0-.1,0c-.4,0-2.9.3-3.4.4-2.4.3-3.8,1.9-3.9,4.2-.2,2.2,1.1,4.2,3.9,3.8,2.5-.3,3.1-2.2,3.2-3.1,0-.2,0-.3-.2-.3-.1,0-.2,0-.2.2-.2,1.4-1.2,2.3-2.8,2.5-1.7.2-2.5-1.4-2.5-3.2s1-3.1,2.5-3.3c.5,0,1.3,0,1.7,0,.2,0,.3.3.2.9-.1.5-.2,1.1,0,1.6h0Z"/>
    <path class="cls-1" d="M106.9,102.2c-.2,0-.3,0-.3.3,0,.1,0,.2.2.1.2,0,7.1-.8,7.2-.8.2,0,.3,0,.3-.2s-.2-.2-.3-.3c-.6-.5-1.2-1.5-.9-2.6,0-.2,0-.3,0-.3,0,0-.2,0-.2.2-.4.8-.4,1.4-.2,2,0,.1,0,.2-.3.4-.5.2-1,.4-1.5.5-.5,0-.9,0-1.4,0-.3,0-.3-.2-.3-.5v-1.5c0-.3,0-.3.4-.3.5,0,.9.3,1,.5.1.2.3.4.4.6,0,.1.3.2.3.1,0,0,0-.2,0-.3-.5-1.1-.5-2,0-3.2,0-.1,0-.2,0-.3,0,0-.2,0-.3.2-.1.2-.3.4-.4.7-.2.3-.5.6-1,.7-.3,0-.3,0-.4-.3v-2.1c0-.2.1-.3.3-.4.5-.2,1-.3,1.4-.4s.9,0,1.3,0c.2,0,.3.3.2.9-.1.5-.2,1.1,0,1.6,0,0,0,0,0,0,0,0,0,0,.1,0,0-.1,0-.3,0-.4,0-.4.1-.7.3-1.1.3-.7.6-1.3,1.1-1.8,0,0,0-.1,0-.2,0,0,0,0-.1,0-.6,0-6.2.7-6.9.8-.1,0-.2,0-.2.2s.2.2.3.2c.5,0,.9.3.9.7s0,2.4,0,2.4c0,.1,0,.2-.2.3-.1,0-.5.2-.6.2,0,0,0,0,0,.1,0,0,0,0,0,.1,0,0,.6.1.6.1.2,0,.2,0,.2.2v2c0,.5-.4.8-.8.9h0Z"/>
    <path class="cls-1" d="M122.2,93.4c.2,0,.3,0,.3-.3s0-.2-.2-.1c0,0-2.6.3-2.7.3-.1,0-.2,0-.2.2,0,.2.2.2.3.2.4,0,.8.3.8.7v4.3c-2.5-3.4-3.2-4.3-3.4-4.6,0,0-.3-.5-1-.4-.5,0-1,.1-1.1.1-.1,0-.2,0-.2.2,0,.2.2.2.3.2.4,0,.8.2.8.7v2.4c0,.1,0,.1-.2.2,0,0-.5.2-.6.2,0,0,0,0,0,.1s0,0,0,.1c0,0,.6.1.6.1.2,0,.2,0,.2.2v2c0,.5-.4.7-.8.9-.2,0-.3,0-.3.3s0,.2.2.1c0,0,2.6-.3,2.7-.3.1,0,.2,0,.2-.2s-.2-.2-.3-.2c-.4,0-.8-.3-.8-.7v-4.2c.7.9,1.3,1.8,3.4,4.5.2.3.6.4,1,.4.6,0,1-.1,1.1-.1.1,0,.2,0,.2-.2s-.2-.2-.3-.2c-.4,0-.8-.2-.8-.7,0,.3,0-1.8,0-2,0-.1,0-.1.2-.2,0,0,.5-.2.6-.2,0,0,0,0,0-.1s0,0,0-.1c0,0-.6-.1-.6-.1-.2,0-.2,0-.2-.2,0,0,0-2.4,0-2.4,0-.5.4-.7.8-.9h0Z"/>
    <path class="cls-1" d="M129.9,95.5s0,0,0,0c0,0,0,0,.1,0,0-.4.2-1.1.4-1.5.3-.7.5-1.2,1-1.8.2-.2,0-.3,0-.3-.4,0-.6,0-.9,0,0,0-.7,0-1.4.2,0,0-.6,0-1.1.1-.1,0-.2,0-.4,0,0,0-.2,0-.2,0-.2,0-.3,0-.4,0-.5,0-1,.1-1.1.1-.7,0-1.4.2-1.4.2-.3,0-.5,0-.9,0-.1,0-.2.2,0,.3.5.4.8.9,1,1.5.1.3.3,1,.4,1.4,0,0,0,0,.1,0,0,0,0,0,0,0,.1-.5,0-1,0-1.5-.1-.5,0-.7.2-.9.3-.2.9-.3,1.4-.4,0,.1.2.2.2.4v2.4c0,.1,0,.1-.2.2,0,0-.5.2-.6.2,0,0,0,0,0,.1s0,0,0,.1c0,0,.6.1.6.1.2,0,.2,0,.2.2v2c0,.5-.4.7-.8.9-.2,0-.3,0-.3.3s0,.2.2.1c0,0,.6,0,1.1-.1,0,0,.5,0,1-.1.5,0,1-.1,1.1-.1.1,0,.2,0,.2-.2,0-.2-.2-.2-.3-.2-.4,0-.8-.2-.8-.7v-2c0-.1,0-.1.2-.2,0,0,.5-.2.6-.2,0,0,0,0,0-.1s0,0,0-.1c0,0-.6-.1-.6-.1-.2,0-.2,0-.2-.2v-2.4c0-.2,0-.3.2-.5.5,0,1.1,0,1.4,0,.2,0,.3.3.2.8,0,.5-.2,1,0,1.6h0Z"/>
    <path class="cls-1" d="M51.8,113.5c-3.3,0-5.9.3-9.5-2.9-5.1-4.5-7.1-13-13.6-32.1-.2-.6-1.1-.5-1.3.1l-6.6,16.8-6-15.4c-.2-.6-1.1-.5-1.3.1l-7.3,23.5c-.9,2.3-1.7,4.9-5,6-.4.1-.6.4-.6.8s.2.6.7.5c.4,0,4.2-.5,5.6-.6,0,0,.2,0,.5,0,1.4-.2,3.2-.4,3.5-.4.5,0,.7-.3.7-.7s-.1-.6-.6-.6c-3.4-.4-2.3-3.7-1.9-5.2.4-1.5,4.2-14.2,4.2-14.2,1.2,3,4.1,9.8,5.2,12.7,1.2,3,1.7,3,2.8,0l5.2-14c1.5,4.5,3,9,4.4,13.1,1.5,4.5,3.2,8.2,6.4,11.1,2.9,2.6,6.5,3.4,11.5,2.8.8,0,2.1-.3,2.9-.5.1,0,.3-.2.3-.5,0-.2-.2-.3-.3-.3h0Z"/>
    <path class="cls-1" d="M85,132.2c-2,0-3.6.2-5.8-1.7-3.1-2.7-4.3-7.9-8.2-19.5-.1-.3-.7-.3-.8,0l-4,10.2-3.6-9.4c-.1-.3-.7-.3-.8,0l-4.5,14.3c-.5,1.4-1,3-3,3.6-.3,0-.3.3-.3.5s0,.3.4.3c.2,0,2.5-.3,3.4-.4,0,0,.1,0,.3,0,.8,0,1.9-.2,2.2-.2.3,0,.4-.2.4-.4s0-.4-.3-.4c-2.1-.3-1.4-2.3-1.2-3.2.2-.9,2.5-8.6,2.5-8.6.7,1.8,2.5,6,3.2,7.7.7,1.9,1.1,1.8,1.7,0l3.2-8.5c.9,2.7,1.8,5.5,2.7,8,.9,2.7,1.9,5,3.9,6.7,1.8,1.6,4,2.1,7,1.7.5,0,1.3-.2,1.7-.3,0,0,.2-.1.2-.3,0-.1-.1-.2-.2-.2h0Z"/>
    <path class="cls-1" d="M98.4,124.7c-1-.1-1.9-.6-1.9-1.7v-9.6c1.6,2.1,3.1,4.1,7.9,10.4.6.7,1.4,1,2.2.9,1.3-.2,2.3-.3,2.5-.3.3,0,.5-.1.5-.4,0-.4-.4-.4-.7-.4-1-.1-1.9-.6-1.9-1.7,0,.6,0-4.1,0-4.6,0-.2,0-.3.5-.5,0,0,1.1-.5,1.3-.6.1,0,.2-.2.2-.3s0-.2-.2-.3c-.2,0-1.3-.3-1.3-.3-.4-.1-.5-.2-.5-.4,0-.1,0-5.4,0-5.6,0-1.1.9-1.7,1.9-2.1.4-.1.7-.2.7-.6,0-.3-.2-.4-.5-.3-.2,0-6,.7-6.2.7-.3,0-.5.1-.5.4,0,.4.4.4.7.4,1,.1,1.9.6,1.9,1.7v10c-5.7-7.8-7.4-10-7.9-10.7,0,0-.6-1.2-2.2-1-1.1.1-2.3.3-2.5.3-.3,0-.5.1-.5.4,0,.4.4.4.7.4,1,.1,1.9.6,1.9,1.7v5.6c0,.2,0,.3-.5.5,0,0-1.1.5-1.3.6-.1,0-.2.2-.2.3s0,.2.2.3c.2,0,1.3.3,1.3.3.4.1.5.2.5.4v4.6c0,1.1-.9,1.7-1.9,2.1-.4.1-.7.2-.7.6,0,.3.2.4.5.3.2,0,6-.7,6.2-.7.3,0,.5-.1.5-.4,0-.4-.4-.4-.7-.4h0Z"/>
    <path class="cls-1" d="M135.3,113.8c-2.4-2.1-7-2-8.7-3.5-.4-.4-.7-.9-.7-1.5,0-1.4,1-2.6,2.5-2.9,1-.1,2.9-.2,3.8.1.5.2.6.7.4,1.9-.2,1.2-.3,2.3-.1,3.5,0,0,0,.2.2.2.1,0,.2,0,.2-.2,0-.3.1-.6.2-.9.2-.8.3-1.6.6-2.4.6-1.5,1.2-2.7,2.4-3.9.2-.2.2-.4.2-.5,0-.1-.1-.2-.3-.2-.8,0-6.6.7-7.5.8-1.7.2-3.3.9-4.4,2.1-.7.8-1.1,1.8-1.1,2.8s.6,2.6,1.5,3.5c2.6,2.3,6.6,1.8,8.4,3.4.6.5.9,1.2.9,2.3s-.6,2.8-1.6,3.8c-2.1,2.3-5.8,4.6-10.6,5.1-.3,0-.7.1-.8.2,0,0-.1.2-.1.2,0,0,0,.2,0,.2.2,0,.4,0,.6,0,5.1-.6,9.9-1.5,13.1-5.1,1.3-1.4,2.1-3.1,2.2-5.3,0-1.5-.4-2.7-1.5-3.7h0Z"/>
    <path class="cls-1" d="M25.1,66.9c12.1-6.3,3,5.3,7.1,14.4,0,0,0,0,0,.1,0,0,0,0,0,0,0,.2.2.3.3.5,0,0,0,0,0,0-1.8-11,2.6-16.3,8.9-23.4-6.2,1.8-11.8,4.3-16.3,8.3h0Z"/>
    <path class="cls-1" d="M53.6,92.1c-2-.2-2.5-1.7-3-2.9l-5.6-13.1c-.1-.3-.7-.3-.8,0l-5.6,14.4c-.5,1.4-1,2.9-3,3.6-.3,0-.3.3-.3.5s0,.3.4.3c.3,0,0,0,0,0,.2,0,2.5-.3,3.4-.4,0,0,.1,0,.3,0,.8,0,1.9-.2,2.1-.2.3,0,.4-.2.4-.4s0-.4-.3-.4c-1.7-.2-1.8-1.2-1.5-2.1.2-.4.7-.8,1.4-.9,1.5-.3,3.5-.5,5.4-.6.9,0,.9.3,1.1.6.2.8.2,1.9-1.5,2.4-.3,0-.3.3-.3.5s0,.3.4.3c.2,0,1.3-.1,2.1-.2.2,0,.3,0,.3,0,.9,0,4.4-.5,4.6-.5.3,0,.4-.2.4-.4s0-.4-.3-.4h0ZM45.1,88.3c-.2,0-1.3.3-2.2.2-1,0-1.6,0-1.6-.6l2.7-6.9c.7,1.7,2,4.5,2.8,6.5-.1.3-.7.5-1.7.7h0Z"/>
    <path class="cls-1" d="M62.1,107.2c-.9,0-1.1-.7-1.3-1.3l-2.5-5.7c0-.1-.3-.1-.3,0l-2.5,6.3c-.2.6-.4,1.3-1.3,1.6-.1,0-.1.1-.1.2s0,.2.2.1c0,0,1.1-.1,1.5-.2,0,0,0,0,.1,0,.4,0,.8,0,.9-.1.1,0,.2,0,.2-.2s0-.2-.1-.2c-.7,0-.8-.5-.7-.9,0-.2.3-.3.6-.4.6-.1,1.5-.2,2.4-.3.4,0,.4.1.5.3.1.4,0,.8-.7,1.1-.1,0-.1.1-.1.2s0,.2.2.1c0,0,.6,0,.9-.1,0,0,.1,0,.1,0,.4,0,1.9-.2,2-.2.1,0,.2,0,.2-.2s0-.2-.1-.2ZM58.4,105.6c0,0-.6.1-.9.1-.5,0-.7,0-.7-.2l1.2-3c.3.7.9,2,1.2,2.8,0,.1-.3.2-.7.3Z"/>
    <path class="cls-1" d="M108.3,34.5c-.2-2.5-1.3-5-3-6.8-1.5-1.6-3.2-2.5-5.2-2.8-3.5-.4-6.3,3-4.9,6.3,0,0,1-3.9,4-4.3,2.6-.3,4.9,1.9,5.7,4.4,3.2,9.3-6.4,17.5-13.8,21-5.1,2.7-10,2.1-12.6,1.4h0c0,0-.1,0-.2,0-.3,0-.6-.2-.8-.2-.2,0-.4-.2-.6-.2s-.3-.1-.4-.2c0,0-.1,0-.1,0,0,0,0,0,.1,0,0,0,.2,0,.4.2s.4.1.6.2c.2,0,.5.2.8.2-.7-.2-1.3-.5-2-.7-14.8-5.8-18.3-19.6-12.8-23.4l1.6-1.1c.6-.3,1-.5,1.4-.6-.2,1.7.1,3.5.4,4.2.5,1.2,1.8,1.9,3.6,2.2,1.7.4,5.8,2.5,8.1,5.5s4.4,2.2,5.5,1.7c1-.5,3.2-1.7,2-5.1-5.2-3.9-5-10.8-6.1-13.9s-7.4-5.8-9-6.7c-1.8-4.4-4.1-6.6-7.7-8.3C54.4,5.4,52.7,0,52.7,0c1.4,5.4,2.7,6.3,3.6,7.5.9,1.2,3.5,2,6.9,4.4,3,2.2,3,3,3.4,6-4.5-2.7-11.6-1.9-16.1.7,4.5,0,8.2.7,10.5,3.6-4.8-1.2-8.9,1.9-10.1,5.4,1.9-1.2,4.1-2.1,5.6-1.3-7.9,11.3-2,23.8,9.7,33.5l.5.4s.5.5,2.8,1.9c-1.5-7.3,6.6-9.6,9-5.7.9,1.7.7,3.2,0,4.2-1.1,1.5-3.2,1.5-4.5.2-.4-.4-.4-.5-.5-.5-.9-1.7,1.3-3.5,2.7-2.1.5.5.7,1.1.3,2,3.1-4-4.2-6.5-5.6-1.9-.3,1-.3,1.8,0,2.6.3.8.3,1.7,4.1,4,18.7-1,34.9-11.2,33.1-30.4h0ZM75.2,24.9c3.7,1.3,3.4,3.4,3.4,4.7-.7-.6-1.2-.8-2.2-.8.3-1.3-1.1-3.9-1.1-3.9h0s0,0,0,0Z"/>
  </g>
</svg>