<?xml version="1.0" encoding="UTF-8"?>
<svg id="Ebene_2" data-name="Ebene 2" xmlns="http://www.w3.org/2000/svg" version="1.1" viewBox="0 0 328.85 210">
  <defs>
    <style>
      .cls-1 {
        fill: #a4895b;
        stroke-width: 0px;
      }
    </style>
  </defs>
  <path class="cls-1" d="M133.22,115.85c.72-.18,1.76.37,2.54,1.7-1.64-.97-1.93,1.52-1.93,2.18h3.03l.18.3c-.37.25-.84.85-.91,1.27h-2.3v15.86c0,1.7.78,4.18,2.79,2.18,0,1.27-1.09,2.6-2.36,2.6-1.46-.06-2.73-2.3-4.48-2.3v-.31c.43-.3.72-.61.85-.9.12-.31.18-.61.18-1.82v-15.31h-1.21c-.06-.43-.55-1.03-.84-1.27l.12-.3c1.45-.24,1.27-3.14,4.35-3.88"/>
  <path class="cls-1" d="M142.48,121.48c-.61.43-.61.91-.61,1.64v14.59c0,.97,0,3.57,1.33,3.57-.24.43-.55.66-.84.66-1.15.12-2.91-2.24-4.54-2.24v-.31c.43-.3.72-.61.84-.9.12-.37.24-.61.24-1.82v-21.43c0-.78-.12-1.33-.24-1.7-.06-.24-.3-.55-.66-.84l.12-.31c2.3-.06.78-2.24,4.48-2.24-.61.66-.66,1.64-.66,2.91-.06.18-.06,6.23-.06,6.36,0,1.76,3.94-1.27,4.3-1.87,1.87,2.24,3.69,2.24,3.82,2.24l.06.3c-.55.31-.78.84-.91,1.45v17.79c0,2.24.06,3.63.24,4.18.25.72.72,1.39,1.46,2.05.49.37,1.15.78,1.99,1.21v.78c-1.52-.66-2.85-1.39-3.94-2.24-1.15-.84-1.93-1.76-2.36-2.73-.25-.55-.37-1.52-.37-2.79l-.06-19.55c0-.12,0-.18-.06-.24-.43-.18-2.79.72-3.57,1.45"/>
  <path class="cls-1" d="M160.03,127.54v-4.9c0-.78-.06-1.33-.18-1.7-.37-.84-.84-1.33-1.93-1.33s-1.64.49-1.99,1.33c-.12.37-.18.9-.18,1.7v7.38c0,.78,4.3-1.09,4.3-2.48M155.74,133.16v3.81c0,.49,0,1.21.18,1.64.37.84.91,1.39,1.99,1.39,4.6-.37-1.87-9.32,5.99-9.32-1.21.3-1.09,6.9-.66,7.93.12.3.31.55.66.84l-.12.31c-.91.06-1.7.18-2.36.43-.97.37-2.12.97-3.51,1.82-1.46-.84-2.6-1.45-3.51-1.82-.72-.24-1.52-.37-2.42-.43l-.12-.31c.37-.3.61-.55.66-.84.18-.31.24-.85.24-1.64v-14.34c0-.78-.06-1.33-.24-1.7-.06-.25-.31-.55-.66-.84l.12-.31c.9,0,1.7-.18,2.42-.43.9-.3,2.05-.9,3.51-1.82,1.39.91,2.54,1.52,3.51,1.82.66.24,1.45.43,2.36.43l.12.31c-.37.31-.55.61-.66.84-.12.37-.18.9-.18,1.7v2.36c0,.49,0,2.6.18,3.09.12.24.31.49.66.85l-.12.3c-1.52,0-8.05,2.24-8.05,3.94"/>
  <path class="cls-1" d="M180.13,119.73v-4.47c0-.78-.06-1.33-.18-1.7-.12-.24-.37-.55-.72-.84l.18-.31c1.09,0,2.73-1.58,3.57-2.24.55.84,2.85,1.39,3.33.9-.37,1.33-.97,2.3-1.87,2.48-.3.06-.97-.37-1.21-.37-.06.12-.06.24-.06.43v6.11h3.03l.12.3c-.3.31-.78.91-.84,1.33h-2.3c-.06,6.05,0,9.74,0,15.86,0,1.7.78,4.12,2.73,2.18,0,1.27-1.03,2.6-2.36,2.54-1.46,0-2.66-2.24-4.41-2.24v-.31c.43-.3.72-.61.84-.97.12-.31.18-.55.18-1.76v-15.31h-.91c-.06-.43-.55-1.03-.91-1.33l.18-.3h1.64v.02Z"/>
  <path class="cls-1" d="M198.53,124.26c.12.31.37.61.84.91v.31c-1.7,0-3.45,2.36-4.54,2.24-.37,0-.61-.24-.85-.66,1.33,0,1.33-2.6,1.33-3.57v-.91c0-.55-.06-2.12-.06-2.3,0-.78-2.73.37-3.69,1.21-.55.43-.55.91-.55,1.64v14.59c0,.97,0,3.57,1.33,3.57-.25.43-.55.66-.85.66-1.15.12-2.91-2.24-4.54-2.24v-.31c.43-.3.72-.61.84-.9.12-.37.18-.61.18-1.82v-14.04c0-.84-.06-1.39-.18-1.7-.12-.3-.37-.55-.72-.84l.18-.31c2.3-.06.72-2.24,4.41-2.24-.66.72-.66.66-.66,2.24,0,.66.36.43.72.18.84-.55,2.97-1.45,3.51-2.42,1.99,2.3,3.75,2.24,3.87,2.24l.06.31c-.37.18-.61.43-.72.72-.3.78-.24,2.85.06,3.45"/>
  <path class="cls-1" d="M208.63,122.63c0-.84-.06-1.39-.18-1.7-.37-.84-.91-1.39-1.99-1.39s-1.58.55-1.93,1.39c-.12.31-.18.84-.18,1.7v14.28c0,.78.06,1.33.18,1.7.37.78.91,1.33,1.93,1.33,1.09,0,1.64-.55,1.99-1.33.12-.37.18-.9.18-1.7v-14.28ZM201.31,122.63c0-.84-.06-1.39-.18-1.7-.12-.3-.3-.55-.66-.84l.12-.3c.91-.06,1.7-.18,2.36-.43.97-.37,2.12-.97,3.51-1.82,1.45.84,2.6,1.46,3.51,1.82.72.24,1.52.37,2.42.43l.12.3c-.37.31-.61.55-.66.84-.12.31-.24.84-.24,1.7v14.28c0,.78.12,1.33.24,1.7.06.24.31.49.66.84l-.12.31c-.91,0-1.7.12-2.42.43-.91.31-2.05.91-3.51,1.76-1.39-.85-2.54-1.46-3.51-1.76-.66-.3-1.46-.43-2.36-.43l-.12-.31c.37-.37.55-.61.66-.84.12-.37.18-.9.18-1.7v-14.28Z"/>
  <path class="cls-1" d="M215.1,137.76c.97-4.47.97-5.51,2.97-7.99,1.64-2.06,4.24-3.51,4.24-5.87,0-4.35-4.12-4.24-4.35-2.18-.12,1.33.06,3.69.18,4,.12.31.43.61.84.91v.3c-1.87,0-2.36,2.42-4.84.61,1.21-.3,1.09-5.62.66-6.66-.06-.24-.3-.55-.66-.85l.12-.3c.91,0,1.7-.12,2.42-.43.91-.3,2.05-.91,3.51-1.76,1.39.84,2.54,1.46,3.51,1.76.66.31,1.46.43,2.36.43l.18.3c-.36.31-.61.61-.72.85-.12.37-.18.9-.18,1.7v5.15c-5.62,0-9.99,12.04-5.27,11.74,3.94-.24-.24-10.05,6.17-8.23-1.45,0-1.21,6.17-.72,7.39.12.24.37.49.72.84l-.18.31c-.91,0-1.7.12-2.36.37-.97.37-2.12.97-3.51,1.82-1.45-.84-2.6-1.45-3.51-1.82-.72-.24-1.52-.37-2.42-.37l-.12-.31c.55-.18.78-.84.97-1.7"/>
  <path class="cls-1" d="M236.35,127.54v-4.9c0-.78-.06-1.33-.18-1.7-.37-.84-.84-1.33-1.93-1.33s-1.64.49-1.99,1.33c-.12.37-.18.9-.18,1.7v7.38c0,.78,4.3-1.09,4.3-2.48M232.06,133.16v3.81c0,.49,0,1.21.18,1.64.37.84.91,1.39,1.99,1.39,4.6-.37-1.87-9.32,5.99-9.32-1.21.3-1.09,6.9-.66,7.93.12.3.31.55.66.84l-.12.31c-.91.06-1.7.18-2.36.43-.97.37-2.12.97-3.51,1.82-1.45-.84-2.6-1.45-3.51-1.82-.72-.24-1.52-.37-2.42-.43l-.12-.31c.36-.3.61-.55.66-.84.18-.31.24-.85.24-1.64v-14.34c0-.78-.06-1.33-.24-1.7-.06-.25-.31-.55-.66-.84l.12-.31c.91,0,1.7-.18,2.42-.43.9-.3,2.05-.9,3.51-1.82,1.39.91,2.54,1.52,3.51,1.82.66.24,1.45.43,2.36.43l.12.31c-.36.31-.55.61-.66.84-.12.37-.18.9-.18,1.7v2.36c0,.49,0,2.6.18,3.09.12.24.31.49.66.85l-.12.3c-1.52,0-8.05,2.24-8.05,3.94"/>
  <path class="cls-1" d="M246.52,121.42c-.61.49-.61.97-.61,1.7v14.59c0,.97.06,3.57,1.33,3.57-.24.37-.49.66-.84.66-1.09.06-2.85-2.3-4.47-2.3v-.31c.43-.31.66-.61.84-.91.12-.3.18-.61.18-1.76v-14.1c0-.78-.06-1.33-.18-1.7-.12-.24-.37-.49-.72-.84l.12-.31c2.36,0,.78-2.24,4.48-2.24-.66.72-.66,1.33-.66,2.3,0,1.39,4.06-1.93,4.24-2.3,2.06,2.24,3.75,2.3,3.88,2.3l.06.31c-.61.31-.78.84-.91,1.45-.06.49,0,.97,0,1.45v14.71c0,.97,0,3.57,1.33,3.57-.24.37-.55.66-.84.66-1.15.06-2.91-2.3-4.54-2.3v-.31c.43-.31.72-.61.84-.91.12-.3.18-.61.18-1.76v-16.47c0-.06,0-.18-.12-.18-.37-.24-2.79.72-3.57,1.39"/>
  <path class="cls-1" d="M66.39,109.22c-5.34-.34-9.99,1.02-10.89,4.2-1.7-1.82-3.06-4.31-6.81-4.31-5.45,0-10.21,1.59-14.52,3.63-15.32,7.26-25.76,27.24-26.9,46.98-2.05-.68-4.54-.57-7.26.56,3.29,1.13,5.34,4.08,6.47,6.92.68,1.82,1.13,3.63,1.24,4.76,2.27,15.09,10.89,28.37,27.8,33.59,3.41,1.02,4.65,1.82,1.02,4.42,8.05,0,11.69-3.18,14.41-6.81,2.95-3.97,5.34-5.1,8.51-8.17,1.24-1.24,2.39-2.61,3.18-3.97,1.93-3.18,2.61-6.58,1.25-9.53-1.59-3.63-7.6-4.65-7.94-.91-.34,2.39,1.93,3.07,3.29,4.54,1.02.91,1.24,2.16.9,3.29-3.4,12.37-29.5,11.12-38.58-11.46,2.27.45,5.1-.34,7.72-2.39-5.79-.45-9.2-6.47-10.44-9.31-.45-3.97-.45-7.83-.23-11.46.34-3.52.9-6.92,1.93-10.1.79-3.07,1.93-6.02,3.41-8.62,1.36-2.61,2.84-4.99,4.54-7.26,1.93-2.61,2.84-3.52,5.45-5.68,2.39-1.93,5.1-3.74,8.28-4.88,2.27-.79,5.22-1.36,8.17-.57,2.27.57,4.88,1.47,6.92,3.07,8.97,6.92-1.36,16.91-8.62,16.12-2.84-.34-5.1-2.05-5.56-5.56-.68,3.07-.79,5.9-.23,7.94-.68.45-1.25,1.24-1.25,2.16,0,.34.11.79.34,1.02-4.31,2.39-8.39,4.76-10.67,7.26-4.54,5.1-3.52,14.75.68,13.84,1.25-.23,2.73.9,4.65.9,3.86-.23,7.26-2.95,5.34-2.72-2.84.34-6.36-.45-7.37-5.1-1.77-7.49,12.59-12.89,22.12-19l1.6,19.16,2.14-21.73h-.13c.41-.33.8-.67,1.17-1.01l.87,9.2,1.67-12.4c.43-.84.69-1.7.74-2.58.11-2.05-.34-4.08-1.59-6.24-2.5-4.65-2.16-10.1,3.18-11.8"/>
  <path class="cls-1" d="M88.86,166.54c-.57-1.13-.68-4.99-.11-6.47.23-.57.68-1.02,1.36-1.36l-.11-.57c-.23,0-3.52.11-7.26-4.2-1.02,1.82-4.99,3.52-6.58,4.54-.68.45-1.36.9-1.36-.34,0-2.95,0-2.84,1.24-4.2-6.92,0-3.97,4.08-8.28,4.2l-.34.57c.68.57,1.13,1.02,1.36,1.59.23.57.34,1.59.34,3.18v26.33c0,2.27-.11,2.73-.34,3.4-.23.57-.79,1.13-1.59,1.7v.57c3.07,0,6.36,4.42,8.51,4.2.57,0,1.13-.45,1.59-1.24-2.5,0-2.5-4.88-2.5-6.7v-27.35c0-1.36,0-2.27,1.02-3.07,1.82-1.59,6.92-3.75,6.92-2.27,0,.34.11,3.29.11,4.31v1.7c0,1.82,0,6.7-2.5,6.7.45.79.9,1.25,1.59,1.25,2.05.23,5.34-4.2,8.51-4.2v-.57c-.91-.57-1.36-1.13-1.59-1.7"/>
  <path class="cls-1" d="M107.81,190.25c0,1.47-.11,2.5-.34,3.18-.68,1.47-1.7,2.5-3.74,2.5-1.93,0-2.95-1.02-3.63-2.5-.23-.68-.34-1.7-.34-3.18v-26.78c0-1.59.11-2.61.34-3.18.68-1.59,1.7-2.61,3.63-2.61,2.05,0,3.07,1.02,3.74,2.61.23.57.34,1.59.34,3.18v26.78ZM113.82,160.29c.11-.57.57-1.02,1.24-1.59l-.23-.57c-1.7-.11-3.18-.34-4.54-.79-1.7-.68-3.86-1.82-6.58-3.41-2.61,1.59-4.76,2.73-6.58,3.41-1.24.45-2.72.68-4.42.79l-.23.57c.68.57,1.02,1.02,1.25,1.59.23.57.34,1.59.34,3.18v26.78c0,1.47-.11,2.5-.34,3.18-.23.45-.57.91-1.25,1.59l.23.57c1.7,0,3.18.23,4.42.79,1.82.57,3.97,1.7,6.58,3.29,2.72-1.59,4.87-2.73,6.58-3.29,1.36-.57,2.84-.79,4.54-.79l.23-.57c-.68-.68-1.13-1.13-1.24-1.59-.23-.68-.45-1.7-.45-3.18v-26.78c0-1.59.23-2.61.45-3.18"/>
  <path class="cls-1" d="M154.45,154.39l-.34-.56c-4.31-.11-1.24-4.2-8.17-4.2,1.13,1.36,1.25,3.4,1.25,6.36v34.39c0,2.84-1.47,5.57-4.08,5.57-2.05,0-2.95-1.02-3.63-2.5-.34-.91-.34-2.27-.34-3.18,0-9.08-.11-18.16,0-27.24,0,0,.23-2.27.34-2.5.23-.68.79-1.25,1.59-1.82v-.57c-.79,0-3.75-2.05-2.5-4.2-2.05,0-4.08,4.2-7.04,4.2v.57c.79.57,1.36,1.13,1.59,1.82.23.45.34.9.34,2.5v27.24c0,.91,0,2.27-.34,3.18-.68,1.47-1.59,2.5-3.63,2.5s-3.06-1.02-3.63-2.5c-.34-.91-.45-2.27-.45-3.18v-29.96c0-2.95.11-4.99,1.25-6.36-6.92,0-3.86,4.08-8.17,4.2l-.34.57c1.7,1.36,1.7,2.5,1.7,4.65v26.9c0,1.47-.11,2.5-.45,3.18-.11.45-.57.91-1.24,1.59l.23.57c1.7,0,3.18.23,4.54.79,1.7.57,3.86,1.7,6.58,3.29,2.61-1.59,4.76-2.73,6.58-3.29.07-.07.15-.11.23-.11.11,0,.23,0,.23.11,1.82.57,3.97,1.7,6.58,3.29,2.72-2.61,7.15-7.37,11.12-7.37l.23-.57c-.68-.57-1.13-1.13-1.25-1.59-.34-.57-.45-1.7-.45-3.18v-27.8c0-2.16,0-3.29,1.7-4.76"/>
  <path class="cls-1" d="M179.19,191.73v-27.58c0-.91-.11-1.82,0-2.73.23-1.13.57-2.16,1.7-2.73l-.11-.57c-.23,0-3.41-.11-7.26-4.31-.34.68-7.94,6.92-7.94,4.31,0-1.82,0-2.95,1.24-4.31-6.92,0-3.97,4.2-8.39,4.2l-.23.57c.68.68,1.13,1.13,1.36,1.59.23.68.34,1.7.34,3.18v26.44c0,2.16-.11,2.73-.34,3.29-.34.57-.79,1.13-1.59,1.7v.57c3.07,0,6.36,4.42,8.39,4.31.68,0,1.13-.56,1.59-1.24-2.39,0-2.5-4.88-2.5-6.7v-27.35c0-1.36,0-2.27,1.13-3.18,1.47-1.25,6.02-3.07,6.7-2.61.23,0,.23.23.23.34v30.87c0,2.16-.11,2.73-.34,3.29-.23.57-.79,1.13-1.59,1.7v.57c3.07,0,6.36,4.42,8.51,4.31.57,0,1.13-.56,1.59-1.24-2.5,0-2.5-4.88-2.5-6.7"/>
  <path class="cls-1" d="M207.11,178.45c-14.41,0-3.52,17.48-11.35,17.48-2.05,0-2.95-1.02-3.63-2.5-.34-.91-.34-2.27-.34-3.18v-29.96c0-2.95,0-4.99,1.24-6.36-6.92,0-3.97,4.08-8.28,4.2l-.23.57c1.59,1.36,1.59,2.5,1.59,4.65v26.9c0,1.47-.11,2.5-.34,3.18-.23.45-.57.91-1.24,1.59l.23.57c1.7,0,3.18.23,4.42.79,1.82.57,3.97,1.7,6.58,3.29,2.73-1.59,4.88-2.72,6.58-3.29,1.36-.56,2.84-.79,4.54-.79l.23-.57c-.68-.68-1.13-1.13-1.25-1.59-.79-2.05-1.02-14.3,1.25-14.98"/>
  <path class="cls-1" d="M224.92,190.14c0,1.47-.23,2.61-.45,3.18-.57,1.59-1.59,2.61-3.63,2.61s-3.06-1.02-3.63-2.61c-.23-.57-.34-1.7-.34-3.18v-13.39c0-1.47.11-2.5.34-3.18.56-1.47,1.59-2.5,3.63-2.5s3.07,1.02,3.63,2.5c.34.91.45,2.27.45,3.18v13.39ZM230.83,160.18c.23-.45.68-1.02,1.36-1.59l-.23-.57c-1.7,0-3.18-.34-4.54-.79-1.7-.68-3.86-1.7-6.58-3.4-2.61,1.7-4.87,2.73-6.58,3.4-1.36.45-2.84.79-4.42.79l-.34.57c.68.57,1.13,1.13,1.36,1.59.68,1.7.91,5.56-1.24,6.13,4.53,3.29,5.45-1.13,9.08-1.13v-.57c-.91-.57-1.36-1.25-1.7-1.82-.23-.68-.11-1.93.23-2.61.56-1.59,1.59-2.61,3.63-2.61s3.07,1.02,3.63,2.61c.34.79.45,2.27.45,3.18v6.24c-1.24-.68-2.61-1.36-4.09-2.27-2.61,1.59-4.87,2.72-6.58,3.29-1.36.57-2.84.79-4.42.79l-.34.57c.68.56,1.13,1.13,1.36,1.59.34.91.34,2.27.34,3.18v13.39c0,1.47-.11,2.61-.34,3.18-.23.45-.68,1.02-1.36,1.59l.34.57c1.59,0,3.07.34,4.42.79,1.7.68,3.97,1.7,6.58,3.4,2.73-1.7,4.88-2.72,6.58-3.4,1.36-.45,2.84-.79,4.54-.79l.23-.57c-.68-.56-1.13-1.13-1.36-1.59-.23-.57-.34-1.7-.34-3.18v-26.79c0-1.47.11-2.61.34-3.18"/>
  <path class="cls-1" d="M256.59,191.73v-27.58c0-.91-.11-1.82,0-2.73.23-1.13.57-2.16,1.7-2.73l-.11-.57c-.23,0-3.4-.11-7.26-4.31-.34.68-7.94,6.92-7.94,4.31,0-1.82,0-2.95,1.24-4.31-6.92,0-3.97,4.2-8.39,4.2l-.23.57c.68.68,1.13,1.13,1.36,1.59.23.68.34,1.7.34,3.18v26.44c0,2.16-.11,2.73-.34,3.29-.34.57-.79,1.13-1.59,1.7v.57c3.07,0,6.36,4.42,8.39,4.31.68,0,1.13-.56,1.59-1.24-2.39,0-2.5-4.88-2.5-6.7v-27.35c0-1.36,0-2.27,1.13-3.18,1.47-1.25,6.02-3.07,6.7-2.61.23,0,.23.23.23.34v30.87c0,2.16-.11,2.73-.34,3.29-.23.57-.79,1.13-1.59,1.7v.57c3.07,0,6.36,4.42,8.51,4.31.57,0,1.13-.56,1.59-1.24-2.5,0-2.5-4.88-2.5-6.7"/>
  <path class="cls-1" d="M277.24,190.94c-.23.45-.68,1.02-1.13,1.36-1.47,1.24-5.91,3.07-6.7,2.73-.11-.11-.23-.23-.23-.45v-35.63c0-.23.11-.34.23-.34.79-.45,5.22,1.36,6.7,2.61,1.13.9,1.13,1.7,1.13,3.18,0,8.74.23,17.82,0,26.56M283.26,193.31c-.34-.57-.45-1.7-.45-3.18v-44.6c0-2.5.23-4.31,1.24-5.45-6.92,0-3.97,4.08-8.28,4.2l-.23.57c.68.57,1.02,1.13,1.24,1.59.23.57.34,1.59.34,2.95v8.39c0,2.39-7.6-3.29-7.94-3.97-1.7,2.95-7.04,4.2-7.15,4.2l-.23.57c1.13.68,1.59,1.7,1.7,2.84v28.14c0,.91,0,1.7-.11,2.61-.11,1.13-.57,2.16-1.59,2.73l.11.57c1.47-.11,5.56,2.27,7.26,4.2.68-1.24,6.13-4.76,8.05-4.76v4.76c.79-2.05,3.18-4.2,7.04-4.2l.23-.57c-.68-.56-1.13-1.13-1.24-1.59"/>
  <path class="cls-1" d="M301.53,170.96v.57c3.52,0,4.42,4.54,9.08,1.25-2.27-.68-2.05-10.55-1.24-12.6.11-.45.57-.91,1.24-1.59l-.23-.56c-1.7,0-3.18-.23-4.54-.68-1.7-.68-3.86-1.82-6.58-3.4-2.61,1.59-4.76,2.73-6.58,3.4-1.24.45-2.73.68-4.42.68l-.34.56c.79.68,1.13,1.13,1.36,1.59.23.68.34,1.7.34,3.18v12.37c5.9,0,13.73,2.95,13.73,8.17v6.36c0,1.47-.11,2.5-.45,3.18-.57,1.47-1.59,2.5-3.63,2.5-9.31,0,3.74-17.48-11.57-17.14.91,1.02,1.93,2.16,1.93,5.34,0,1.47-.11,8.62-.34,9.31-.23.45-.57.91-1.36,1.59l.34.57c1.7,0,3.18.23,4.42.79,1.82.57,3.97,1.7,6.58,3.29,2.73-1.59,4.88-2.72,6.58-3.29,1.36-.56,2.84-.79,4.54-.79l.23-.57c-.68-.68-1.13-1.13-1.24-1.59-.34-.68-.45-1.7-.45-3.18v-4.42c0-1.02.11-4.88.45-5.79.11-.45.57-1.02,1.24-1.59l-.23-.57c-2.84,0-15.09-4.2-15.09-7.37v-7.15c0-.9,0-2.27.34-3.18.68-1.47,1.59-2.5,3.63-2.5s3.07,1.02,3.63,2.5c.57,1.24.57,8.28.23,9.08-.23.57-.79,1.13-1.59,1.7"/>
  <path class="cls-1" d="M120.29,133.58c-.57-.23-1.36-.23-2.05-.23-4.2-.45-4.88-21.45-4.88-25.3l-.11-57.76c0-3.07,1.25-6.13,4.08-6.81-14.75-3.18-1.82-11.69-.11-8.17.68,1.47.23,3.18,2.39,3.97,4.31,1.59,6.58-7.38-2.73-7.15-8.28.11-9.53,9.65-15.89,11.35,2.95,1.59,3.29,3.86,3.29,6.81v20.09c-1.59-.57-3.41-.68-5.45-.45,3.97,2.61,5.45,7.6,5.45,12.26v12.37c-6.47-14.98-16.23-29.39-16.57-45.85,0-3.52,2.27-14.75,6.92-17.59,1.24-.68,2.05.23,3.07.34,1.24.11,2.05-.68,1.59-1.93-.45-1.02-2.05-2.05-5.34-.57-9.42,4.31-9.08,14.07-20.77,11.57-3.74-.79-7.26-.45-10.78,1.02-4.31,1.82-7.26,4.65-8.74,8.85-2.27,6.47.45,12.71,7.04,14.98.08.03.15.04.23.07l1.33,14.04,1.82-13.45c.61.03,1.23.03,1.84-.03l1.58,18.79,1.93-19.61c2.07-.84,3.49-2.21,4.09-4.02.45-1.24.34-2.5-.45-3.86-.68-1.24-1.82-2.16-3.4-2.73,0,.68-.11,1.36-.11,1.82-.11.57-.23,1.02-.34,1.36-.56,1.59-1.7,2.84-3.29,3.4-6.13,2.39-12.26-3.29-9.76-10.33,1.02-3.18,3.18-5.45,6.36-6.81,3.86-1.7,9.87-1.7,13.62.68-1.93,1.13-3.63,2.95-2.16,5.45,2.27-3.07,4.42,0,4.65,2.5v17.82c-1.59-.68-3.52-.79-5.56-.57,4.54,2.95,5.56,8.74,5.56,12.26v3.4c0,1.59.11,4.65.11,7.94v12.6c0,3.07,0,5.91-.11,7.94-.11,9.54-.9,18.72-10.33,22.24h.34c6.58.57,12.26-5.45,14.86-9.42,2.39,1.47,4.88-.23,4.65-2.16.9.23,2.95-.11,3.86-1.02-3.86-.57-4.31-10.1-4.2-17.59,0-7.37,0-21.11.11-27.01,1.7,4.2,12.71,26.21,14.19,35.07.23,1.36.45,2.73-.68,3.52,2.61,0,5.1,1.59,7.26,4.54,1.7,2.5,4.42,8.74,7.6,12.03,1.02,1.02,2.27,2.05,3.29,2.05,2.27,0,2.05-2.27.68-2.73"/>
  <path class="cls-1" d="M137.2,99.4c0,1.47-.11,2.5-.34,3.18-.68,1.47-1.7,2.5-3.74,2.5-1.93,0-2.95-1.02-3.63-2.5-.23-.68-.34-1.7-.34-3.18v-26.79c0-1.59.11-2.61.34-3.18.68-1.59,1.7-2.61,3.63-2.61,2.05,0,3.07,1.02,3.74,2.61.23.57.34,1.59.34,3.18v26.79ZM143.22,69.44c.11-.57.57-1.02,1.24-1.59l-.23-.56c-1.7-.11-3.18-.34-4.54-.79-1.7-.68-3.86-1.82-6.58-3.41-2.61,1.59-4.76,2.73-6.58,3.41-1.24.45-2.72.68-4.42.79l-.23.56c.68.57,1.02,1.02,1.25,1.59.23.57.34,1.59.34,3.18v26.79c0,1.47-.11,2.5-.34,3.18-.23.45-.57.9-1.25,1.59l.23.57c1.7,0,3.18.23,4.42.79,1.82.57,3.97,1.7,6.58,3.29,2.73-1.59,4.88-2.73,6.58-3.29,1.36-.57,2.84-.79,4.54-.79l.23-.57c-.68-.68-1.13-1.13-1.24-1.59-.23-.68-.45-1.7-.45-3.18v-26.79c0-1.59.23-2.61.45-3.18"/>
  <path class="cls-1" d="M170.23,63.54l-.34-.57c-4.31-.11-1.36-4.2-8.28-4.2,1.24,1.36,1.24,3.4,1.24,6.36v34.39c0,2.84-1.36,5.56-3.97,5.56-2.05,0-3.07-1.02-3.63-2.5-.34-.9-.45-2.27-.45-3.18v-29.96c0-2.95.11-4.99,1.36-6.36-6.92,0-3.97,4.08-8.28,4.2l-.34.57c1.7,1.36,1.7,2.5,1.7,4.65v26.9c0,1.47-.11,2.5-.34,3.18-.23.45-.68.91-1.36,1.59l.23.57c1.7,0,3.18.23,4.54.79,1.7.57,3.97,1.7,6.58,3.29,2.73-2.61,7.04-7.38,11.01-7.38l.34-.56c-.68-.57-1.13-1.13-1.36-1.59-.23-.57-.34-1.7-.34-3.18v-27.8c0-2.16,0-3.29,1.7-4.76"/>
  <path class="cls-1" d="M180.79,100.87v-31.43c0-2.95.11-4.99,1.36-6.36-6.92,0-4.08,4.08-8.39,4.2l-.23.57c.68.57,1.02,1.02,1.24,1.59.23.57.34,2.16.34,3.18v26.33c0,2.27-.11,2.73-.34,3.4-.23.57-.79,1.13-1.59,1.7v.57c3.07,0,6.36,4.42,8.51,4.2.57,0,1.13-.45,1.59-1.24-2.5,0-2.5-4.88-2.5-6.7"/>
  <path class="cls-1" d="M194.74,67.17c0-1.24.57-5.9,3.63-4.08-1.47-2.5-3.4-3.52-4.76-3.18-5.79,1.36-5.45,6.81-8.17,7.26l-.23.57c.57.45,1.47,1.59,1.59,2.39h2.27v28.71c0,2.27-.11,2.84-.34,3.41-.23.57-.79,1.13-1.59,1.7v.56c3.29,0,5.68,4.2,8.39,4.31,2.39,0,4.42-2.5,4.42-4.87-3.74,3.74-5.22-.91-5.22-4.08v-29.73h4.31c.11-.79,1.02-1.93,1.7-2.39l-.34-.57h-5.68,0Z"/>
  <path class="cls-1" d="M217.66,99.29c0,1.47-.23,2.61-.45,3.18-.56,1.59-1.59,2.61-3.63,2.61s-3.07-1.02-3.63-2.61c-.23-.57-.34-1.7-.34-3.18v-13.39c0-1.47.11-2.5.34-3.18.56-1.47,1.59-2.5,3.63-2.5s3.07,1.02,3.63,2.5c.34.91.45,2.27.45,3.18v13.39ZM223.57,69.33c.23-.45.68-1.02,1.36-1.59l-.23-.57c-1.7,0-3.18-.34-4.54-.79-1.7-.68-3.86-1.7-6.58-3.4-2.61,1.7-4.87,2.73-6.58,3.4-1.36.45-2.84.79-4.42.79l-.34.57c.68.57,1.13,1.13,1.36,1.59.68,1.7.91,5.56-1.24,6.13,4.53,3.29,5.45-1.13,9.08-1.13v-.57c-.91-.57-1.36-1.24-1.7-1.82-.23-.68-.11-1.93.23-2.61.56-1.59,1.59-2.61,3.63-2.61s3.07,1.02,3.63,2.61c.34.79.45,2.27.45,3.18v6.24c-1.24-.68-2.61-1.36-4.08-2.27-2.61,1.59-4.87,2.72-6.58,3.29-1.36.57-2.84.79-4.42.79l-.34.57c.68.56,1.13,1.13,1.36,1.59.34.91.34,2.27.34,3.18v13.39c0,1.47-.11,2.61-.34,3.18-.23.45-.68,1.02-1.36,1.59l.34.57c1.59,0,3.07.34,4.42.79,1.7.68,3.97,1.7,6.58,3.4,2.73-1.7,4.88-2.72,6.58-3.4,1.36-.45,2.84-.79,4.54-.79l.23-.57c-.68-.57-1.13-1.13-1.36-1.59-.23-.57-.34-1.7-.34-3.18v-26.79c0-1.47.11-2.61.34-3.18"/>
  <path class="cls-1" d="M249.66,75.68c-.57-1.13-.68-4.99-.11-6.47.23-.57.68-1.02,1.36-1.36l-.11-.57c-.23,0-3.52.11-7.26-4.2-1.02,1.82-4.99,3.52-6.58,4.54-.68.45-1.36.91-1.36-.34,0-2.95,0-2.84,1.24-4.2-6.92,0-3.97,4.08-8.28,4.2l-.34.57c.68.57,1.13,1.02,1.36,1.59.23.57.34,1.59.34,3.18v26.33c0,2.27-.11,2.73-.34,3.4-.23.57-.79,1.13-1.59,1.7v.57c3.07,0,6.36,4.42,8.51,4.2.57,0,1.13-.45,1.59-1.24-2.5,0-2.5-4.88-2.5-6.7v-27.35c0-1.36,0-2.27,1.02-3.07,1.82-1.59,6.92-3.74,6.92-2.27,0,.34.11,3.29.11,4.31v1.7c0,1.82,0,6.7-2.5,6.7.45.79.91,1.25,1.59,1.25,2.05.23,5.34-4.2,8.51-4.2v-.57c-.91-.57-1.36-1.13-1.59-1.7"/>
  <path class="cls-1" d="M177.17,42.11l-2.55,6.89c-.09.23-.08.48.02.7l2.88,6.76c.15.36.51.59.89.58.34,0,.65-.2.81-.49.03-.04.04-.09.06-.13l2.55-6.89c.09-.23.08-.48-.02-.7l-2.88-6.75c-.15-.36-.51-.59-.89-.58-.39,0-.73.26-.87.62"/>
  <path class="cls-1" d="M251.74,102.06c-1.13,5.1-3.4,7.49-7.83,9.99,9.99-8.05-5.22-5.1,3.63-13.96,0,0,4.2,3.97,4.2,3.97Z"/>
  <path class="cls-1" d="M299.5,77.06c-4.73,2.39-9.74,4.4-14.57,6.64.09-.36.18-.71.29-1.06.71-2.16,2.12-4.1,3.96-5.43,2.21-1.59,8.05-2.56,10.18-.89.18.14.37.32.55.48-.14.09-.28.18-.41.26M289.68,121.57c.5.49,1,.99,1.5,1.48-1.88.29-3.82.35-5.72.22-2-.13-4.02-.45-5.86-1.25-.77-.34-1.5-.77-2.18-1.25,1.32-2.77,3.09-5.33,5.26-7.5,2.14,3.2,3.99,5.32,7,8.3M297.92,104.96c1.59-.03,3.29.24,4.47,1.3,1.11,1.01,1.55,2.57,1.6,4.07.14,4.24-2.57,8.26-6.21,10.45-.42.26-.86.49-1.3.69-.72-.63-1.41-1.27-2.07-1.94-1.83-1.87-3.39-4.01-4.84-6.19-.81-1.23-1.59-2.49-2.29-3.78,3.23-2.27,6.67-4.54,10.65-4.6M274.28,117.69c-3.72-5.04-4.14-12.51,0-17.59.72-1.31,1.99-2.35,3.32-3.21-.96,4.35-2.13,7.87-3.06,10.35,2.62.76,2.69-2.61,3.63-1.65.72.74.85,1.37,1.24,2.1.21.38.62,1.17,1.04,1.93-1.64,1.58-3.12,3.29-4.37,5.09-.66.95-1.26,1.95-1.8,2.98M256.29,43.08c-1.27,0-2.3-1.03-2.3-2.3s1.03-2.3,2.3-2.3,2.3,1.03,2.3,2.3-1.03,2.3-2.3,2.3M325.44,90.32c-1.52-1.05-3.65-1.24-5.22-.28-1.68,1.03-2.46,3.43-1.4,5.13.15-.81.55-1.58,1.19-2.1,1.25-1.04,3.36-.94,4.38.33,1.25,1.55.58,3.88-.46,5.57-.83,1.35-2.02,2.66-3.59,2.81-1.22.12-2.4-.51-3.3-1.35-1.32-1.24-2.14-2.92-2.85-4.6-1.75-4.14-2.99-8.49-4.8-12.6.96-.8,1.85-1.68,2.62-2.67,1.84-2.38,2.98-5.28,5.08-7.42,1.17-1.19,3.06-2.14,4.44-1.2,1.28.86,1.23,2.85.39,4.15-.46.72-1.23,1.35-2.07,1.26-.99-.1-1.69-1.69-.44-2.09-2-.22-2.86,2.43-1.76,3.85.98,1.27,2.91,1.49,4.38.88,1.48-.61,2.59-1.88,3.5-3.2.94-1.35,1.74-2.8,2.28-4.34,1-2.83,1.11-5.91.95-8.91-.76-15.05-7.99-29.66-19.5-39.39-2.57-2.18-5.48-4.18-8.8-4.76l-3.09-.54c2.12-.02,4.24-.03,4.24-.03,2.74-.03,5.45-1.41,7.01-3.66,1.56-2.25,1.92-5.31.84-7.83-1.07-2.52-3.54-4.41-6.26-4.72-1.69-.19-3.48.23-4.76,1.35-1.41,1.24-2.06,3.38-1.21,5.1,0-1.22.5-2.46,1.43-3.25.85-.72,2.06-1.02,3.12-.68.91.3,1.63,1.01,2.16,1.81,1.45,2.15,1.65,5.36-.24,7.14-1.27,1.19-3.14,1.48-4.89,1.54-7.96.3-16.12-2.67-23.76-.43-4.15,1.21-7.72,3.86-10.97,6.71,2.4-5.05,7.59-8.05,12.66-10.39,2.39-1.11,4.86-2.16,6.83-3.91,2.13-1.89,3.62-4.79,2.84-7.59-.7,2.97-2.99,5.29-5.58,6.86-2.44,1.48-5.16,2.41-7.79,3.54-5.2,2.22-10.15,5.27-13.77,9.6-1.41,1.69-2.61,3.55-3.67,5.48-.36.64-.69,1.29-1.02,1.93-1.43,2.81-2.72,5.81-2.79,8.97-.06,3,.98,5.9,1.59,8.85.2.97.36,1.98.13,2.95-.23.96-.94,1.87-1.9,2.07-.75.15-1.6-.27-1.93-.93-.24,2.19,1.43,4.42,3.6,4.79.48.09.99.09,1.41.34,1.03.61.85,2.13.54,3.29,1.83.23,3.26-1.72,3.48-3.56.21-1.83-.33-3.68-.23-5.53.13-2.32,1.27-4.45,1.68-6.73.4-2.22.12-4.52.55-6.72s1.91-4.5,4.14-4.76c-1.8,1.94-3.07,4.59-2.62,7.2.24,1.37.92,2.62,1.34,3.95.92,2.97.37,6.37-1.44,8.9,2.23.37,4.17-1.71,4.89-3.86,1.71-5.06-.6-11.26,2.46-15.65,1.2-1.72,3.07-2.86,5.01-3.65,4.53-1.83,9.66-1.94,14.41-.76,4.75,1.18,9.13,3.59,12.99,6.6,3.06,2.38,5.85,5.17,7.87,8.48,3.36,5.47,4.47,12.28,3.02,18.54-1.27,5.51-4.52,10.52-8.97,13.99-1.27-1.28-2.79-2.36-4.65-3.06-.66-.25-1.86-.63-3.39-.74-5.99-.46-12.07,2.88-14.62,8.05-1.37,2.78-1.55,4.63-1.95,8.17-5.96,3.38-11.37,8.18-13.53,14.62-2.53,7.54.26,16.54,6.57,21.37-1.49,4.87-1.64,10.12-.02,14.94.86,2.56,2.17,4.93,3.36,7.36h5.26c-1.93-1.5-3.61-3.26-4.68-5.44-1.12-2.31-1.47-4.93-1.42-7.5.04-2.43.43-4.84,1.12-7.16,1.7.83,3.49,1.46,5.31,1.95,4.74,1.29,9.85,1.65,14.6.56.22.18.43.37.66.55,1.45,1.17,2.99,2.26,4.23,3.65,1.77,1.99,2.88,4.66,2.67,7.32-.22,2.66-1.9,5.23-4.4,6.19-1.13.43-2.38.53-3.59.41-2.04-.2-3.77-1.41-5.13-2.94-1.36-1.53-2.25-3.43-1.58-5.37s2.74-3.37,4.76-3.07c1.85.26,3.32,1.87,3.78,3.68.32-1.59-.83-3.31-2.21-4.3-1.03-.75-2.26-1.3-3.53-1.3-2.81,0-5.1,2.78-5.2,5.59-.09,2.81,1.56,5.45,3.71,7.27,1.23,1.04,2.65,1.87,4.21,2.29,4.23,1.12,8.96-1.29,11-5.15,2.05-3.86,1.58-8.78-.71-12.51-.97-1.58-2.21-2.93-3.55-4.2,1.15-.6,2.24-1.3,3.19-2.18,2.64-2.43,4.06-5.96,4.62-9.49.63-3.98.1-8.45-2.74-11.31-1.55-1.56-3.61-2.47-5.34-3.84-1.72-1.36-3.15-3.52-2.6-5.64-2.05,2.55-3.3,5.97-.76,8.05-.58-.41-1.36-.15-2.05.02-3.27.81-6.65,2.41-9.79,4.55-1.31-3.84-1.64-7.93-1.51-12.03,1.86-.84,3.76-1.59,5.69-2.24,3.99-1.33,8.12-2.23,12.06-3.72,1.6-.61,3.18-1.33,4.66-2.19.78,1.43,1.53,2.92,2.17,4.42,1.02,2.34,1.7,4.82,2.68,7.18s2.28,4.66,4.27,6.26c1.99,1.59,4.78,2.38,7.18,1.49,1.97-.73,3.42-2.47,4.34-4.36.8-1.66,1.26-3.52,1.07-5.35s-1.11-3.63-2.62-4.68"/>
  <polygon class="cls-1" points="320.36 102.35 322.17 124.09 324.31 102.35 320.36 102.35"/>
  <polygon class="cls-1" points="316.89 101.8 318.32 116.86 320.36 101.8 316.89 101.8"/>
</svg>