<?xml version="1.0" encoding="UTF-8"?>
<svg id="Ebene_1" data-name="Ebene 1" xmlns="http://www.w3.org/2000/svg" version="1.1" viewBox="0 0 80 80">
  <defs>
    <style>
      .cls-1 {
        fill: #a4895a;
        stroke-width: 0px;
      }
    </style>
  </defs>
  <path class="cls-1" d="M39.46,21.53c-2.12-1.61-4.05-3.49-5.3-5.82-1.42-2.65-1.85-5.95-.57-8.67.22-.46.48-.9.77-1.33.9-1.37,2.04-2.67,3.57-3.24.44-.17.92-.27,1.39-.21s.93.29,1.19.69c.24.37.28.84.29,1.28.03,2.23-.68,4.45-1.99,6.25-.46.29-.79.5-1.15.92-.35.42-.58.98-.46,1.52.15.67.79,1.15,1,1.81.11.35.1.72.18,1.07.08.35.3.72.66.79.47.09.86-.38.98-.84.15-.56.06-1.18.3-1.7.23-.49.73-.85.87-1.37.23-.81-.48-1.48-.02-2.25.53-1.44,1.41-2.73,1.98-4.16.56-1.42.77-3.11-.02-4.42-.62-1.03-1.78-1.65-2.97-1.8-1.19-.15-2.4.14-3.49.62-2.18.96-3.99,2.72-5.01,4.87-.64,1.33-.97,2.79-1.1,4.26-.27,3.1.37,6.28,1.84,9.03.78,1.46,1.79,2.78,2.96,3.94,1.94.23,3.12-.33,4.11-1.22"/>
  <path class="cls-1" d="M40.79,69.9c-.64.16-1.28.33-1.92.5.2.15.4.31.58.48.85.79,1.58,1.75,1.94,2.85.37,1.1.33,2.37-.26,3.36-.3.5-.73.93-1.15,1.33-.73.69-1.57,1.41-2.58,1.46.91.25,1.91.07,2.74-.38.83-.45,1.5-1.17,2-1.97.23-.37.43-.77.58-1.18.59-1.69.22-3.65-.78-5.14-.33-.49-.72-.92-1.16-1.31"/>
  <path class="cls-1" d="M57.11,58.22s0-.08,0-.12c-.01-.14-.02-.28-.04-.42,0-.05-.02-.11-.02-.16-.02-.11-.04-.22-.06-.33-.01-.06-.03-.13-.04-.19-.03-.13-.07-.26-.11-.39-.02-.06-.04-.13-.06-.19-.05-.15-.11-.29-.17-.45,0-.01-.01-.03-.02-.04h0c-.68-1.67-2.04-3.57-4.2-5.76,1.35,2.32,1.81,4.21,1.64,5.76h-.01c0,.14-.02.27-.05.41,0,.02,0,.03,0,.05,0,.01,0,.02,0,.03-.03.15-.07.29-.11.43-.01.03-.02.06-.03.09-.04.12-.08.23-.12.35-.02.05-.04.09-.06.14-.04.09-.08.19-.13.28-.03.06-.06.12-.09.17-.04.07-.08.15-.13.21-.04.07-.09.14-.14.21-.03.05-.07.1-.11.15-.06.08-.13.17-.2.25-.02.03-.04.05-.06.08-2.53,2.94-8.27,4.03-12.59,5.15,1.44-1.11,1.5-2.72,1.5-3.61,1.22,0,1.98-.13,3.66-.81.88-.36,1.59-.83,2.21-1.56.25-.29.46-.68.57-1.3.25-1.44.12-2.91-.91-3.94-.95-.96-2.25-1.49-3.54-1.89,0,1.02,0,2.04,0,3.07.31,0,.62.13.83.36.1.11.18.23.24.36.24.49.19,1.08-.18,1.68-.32.52-1.92.83-2.92.63-.02-2.38-.02-4.75-.02-7.14.05,0,1.06,0,1.08,0,.82,0,1.55-.25,2.26-.57.71-.31,1.37-.81,1.75-1.49.64-1.16.29-2.77-.77-3.56-.93-.69-3.05-1.22-4.33-1.22v-3.19s0-.06,0-.08v-11.01c-.05-1.72,1.11-7.22,3.39-8.61.61-.33,1,.11,1.5.17.61.05,1-.33.78-.95-.22-.5-1.06-1-2.67-.28-4.56,2.11-4.39,6.89-10.11,5.67-1.83-.39-3.61-.22-5.28.5-2.17.89-3.56,2.28-4.28,4.33-1.11,3.17.22,6.22,3.45,7.34,1.28.44,2.61.44,3.84.05,1.28-.39,2.06-1.11,2.45-2.11.22-.61.11-1.22-.22-1.89-.33-.61-.95-1.06-1.67-1.34-.05.33-.05.67-.05.89-.05.28-.11.5-.17.67-.28.78-.83,1.39-1.61,1.67-3,1.17-6-1.61-4.84-5.06.56-1.56,1.61-2.67,3.17-3.33,1.89-.83,4.84-.83,6.61.33-.89.56-1.72,1.44-1,2.67,1.06-1.5,2.17,0,2.28,1.22v12.99c-.45.28-1.76.39-2.59.14-.41-.13-.66-.6-.77-1.01-.07-.26-.07-.54-.02-.81.13-.75.63-1.4,1.29-1.77v-4.18c-.71.15-1.35.54-1.9,1.03-.31.27-.37.39-.67.67-.01.01-.02.02-.03.03-.52.61-.97,1.27-1.33,1.99-.61,1.22-.98,2.59-.83,3.94.12,1.08.61,2.14,1.39,2.88.09.09.2.18.3.26h0c-.75,1.05-.97,1.95-1.13,2.53-.15.52-.19,1.52-.12,2.05.04.3.14.6.26.87.47,1.09,1.34,2,2.37,2.59.55.32,1.15.54,1.76.68,0-1.2,0-2.37-.03-3.42v-.41c-.16-.15-.29-.32-.4-.52-.26-.49-.39-1.11-.14-1.61.34-.65,2.28-.4,2.61-.43v-.34c.01.56.02,1.19.02,1.85.03,1.71.05,3.74-.02,5.72-3.24.3-3.63,1.67-3.78,3.11-.1.93.05,2.43.44,3.27.3.22.58.36.89.37.7.06,1.08-.52,1.19-1.62,0-.18.02-1.07.08-1.23.15-.42.49-.8,1-.71-.29,3.15-.92,5.51-2.18,5.1-.39-.11-.67-.39-1-.83-.44-.56-1.17,1.11-2.78,2.45-2,1.67-3.89,1.56-6.17,4-1.61,1.78-2.78,4.39-1.34,8,.72-5.72,10.78-8.95,19.95-11.01.37-.08.74-.17,1.1-.26v.02c6.55-1.59,11.92-3.85,12.48-7.82h0c.04-.31.05-.62.04-.94"/>
  <path class="cls-1" d="M46.81,28.61c-1.05-.99-1.94-1.85-2.76-2.9-.29,1.22-.43,2.33-.41,2.94v1.52c.47.49.96.99,1.24,1.3.36.4.71.81.93,1.3.17.39.23.82.19,1.24-.02.25-.09.49-.21.7-.31.53-.97.79-1.58.78-.19,0-.38-.04-.56-.08v3.05c1.1.29,2.29.21,3.34-.24,1.14-.49,2.09-1.39,2.65-2.49.17-.33.3-.67.36-1.02.07-.43.04-.86-.04-1.29-.38-1.91-1.72-3.48-3.14-4.81"/>
</svg>