<?xml version="1.0" encoding="UTF-8"?>
<svg id="Ebene_2" data-name="Ebene 2" xmlns="http://www.w3.org/2000/svg" version="1.1" viewBox="0 0 337.22 210">
  <defs>
    <style>
      .cls-1 {
        fill: #a4895b;
        stroke-width: 0px;
      }
    </style>
  </defs>
  <path class="cls-1" d="M136.03,23.15c2.15-1.02,4.57-1.81,7.23-1.81,1.86,0,2.54,1.24,3.39,2.15.45-1.58,2.76-2.26,5.48-2.09-2.66.85-2.88,3.55-1.58,5.88.57,1.07.79,2.09.73,3.1-.11,2.26-2.94,4.12-6.1,5.93-2.49,1.42-5.88,3.05-6.72,5.99-1.07-2.21,1.47-4.86,1.47-4.86-.12-.12-.12-.34-.12-.51,0-.45.22-.85.57-1.07-.28-1.02-.22-2.43.12-3.95.22,1.75,1.36,2.6,2.82,2.76,3.55.39,8.76-4.58,4.24-8.02-1.02-.79-2.31-1.24-3.39-1.52-1.52-.4-3-.12-4.12.28-1.58.57-2.94,1.47-4.12,2.43-1.3,1.07-1.7,1.52-2.71,2.82-.85,1.13-1.58,2.31-2.26,3.61-.67,1.3-1.24,2.76-1.7,4.3-.45,1.58-.79,3.27-.91,5.03-.17,1.81-.17,3.73.06,5.7.62,1.42,2.31,4.4,5.25,4.63-1.36,1.02-2.76,1.42-3.9,1.19,2.26,7.18,17.06,17.56,17.06,5.03-.34-.73-1.19-1.07-.96-1.24.51-.28.96-3.05.96-4.97,0-6.67-6.78-8.7-7.74-4.85-.28,1.02.22,1.98-1.02,2.94-2.43,1.81-4.24-2.03-1.02-4.24,4.3-2.88,8.42-1.47,10.22,1.75,0,.06.06.06.06.12.9-1.98,4.52-3.9,6.49-3.56-1.69.91-2.26,2.54-2.43,4.18-.06.51-.06,1.07-.06,1.58,0,.62.96.91.79,1.42-.73,1.64-.79,3.61-.79,7.4,0,2.03,0,3.61.06,6.04.06,4.8.45,9.31,5.19,11.07-.06,0-.12.06-.17.06-3.27.28-6.16-2.71-7.4-4.69-.28.22-.4.34-.96.34s-1.42-1.02-1.42-1.42v-.06c-.51.17-1.52-.06-1.92-.45,1.58-.22,1.97-2.71,2.09-5.88-.79.67-1.52,1.36-2.37,2.49-1.42,1.81-3.16,3.39-7.18,3.39,1.75-1.3,1.13-1.7-.57-2.21-8.42-2.6-12.65-9.21-13.78-16.71h-.06c-.22-1.52-1.07-4.86-3.84-5.82,1.36-.57,2.6-.62,3.61-.28.57-9.83,5.76-19.77,13.39-23.38"/>
  <path class="cls-1" d="M163.7,44.78c0-.95-.07-1.56-.2-1.9-.41-.95-1.02-1.56-2.24-1.56-1.15,0-1.76.61-2.17,1.56-.13.34-.2.95-.2,1.9v16c0,.88.07,1.49.2,1.9.41.88,1.02,1.49,2.17,1.49,1.22,0,1.83-.61,2.24-1.49.13-.41.2-1.02.2-1.9v-16ZM155.5,44.78c0-.95-.07-1.56-.2-1.9s-.34-.61-.75-.95l.13-.34c1.02-.07,1.9-.2,2.65-.47,1.08-.41,2.37-1.08,3.93-2.03,1.63.95,2.91,1.63,3.93,2.03.82.27,1.7.41,2.71.47l.13.34c-.41.34-.67.61-.75.95-.13.34-.27.95-.27,1.9v16c0,.88.13,1.49.27,1.9.07.27.34.54.75.95l-.13.34c-1.02,0-1.9.13-2.71.47-1.02.34-2.31,1.02-3.93,1.96-1.56-.95-2.85-1.62-3.93-1.96-.75-.34-1.63-.47-2.65-.47l-.13-.34c.41-.41.61-.67.75-.95.13-.41.2-1.02.2-1.9v-16Z"/>
  <path class="cls-1" d="M170.89,44.71c0-1.29,0-1.96-.95-2.78l.13-.34c2.57-.07.82-2.51,4.94-2.51-.75.82-.75,2.03-.75,3.8v17.9c0,.54,0,1.36.2,1.9.41.88.95,1.49,2.16,1.49,4.68,0-1.83-10.44,6.78-10.44-1.36.41-1.22,7.72-.75,8.95.07.27.34.54.75.95l-.13.34c-1.02,0-1.9.13-2.71.47-1.02.34-2.31,1.02-3.93,1.96-1.56-.95-2.85-1.62-3.93-1.96-.75-.34-1.63-.47-2.65-.47l-.13-.34c.41-.41.61-.67.75-.95.13-.41.2-1.02.2-1.9v-16.07h.02Z"/>
  <path class="cls-1" d="M189.26,42.07v21.28c0,.13.07.2.13.27.47.2,3.12-.88,4-1.62.27-.21.54-.54.67-.82.13-5.22,0-10.65,0-15.87,0-.88,0-1.36-.67-1.9-.88-.75-3.53-1.83-4-1.56-.07,0-.13.07-.13.2M197.39,60.71c0,.88.07,1.56.27,1.9.07.27.34.61.75.95l-.13.34c-2.31,0-3.73,1.29-4.2,2.51v-2.85c-1.15,0-4.4,2.1-4.81,2.85-1.02-1.15-3.45-2.57-4.34-2.51l-.07-.34c.61-.34.88-.95.95-1.62.07-.54.07-1.02.07-1.56v-16.81c-.07-.68-.34-1.29-1.02-1.7l.13-.34c.07,0,3.25-.75,4.27-2.51.2.41,4.74,3.8,4.74,2.37v-5.01c0-.82-.07-1.42-.2-1.76-.13-.27-.34-.61-.75-.95l.13-.34c2.57-.07.82-2.51,4.95-2.51-.61.67-.75,1.76-.75,3.25v26.64h0Z"/>
  <path class="cls-1" d="M209.45,50.27v-5.49c0-.88-.07-1.49-.2-1.9-.41-.95-.95-1.49-2.17-1.49s-1.83.54-2.24,1.49c-.13.41-.2,1.02-.2,1.9v8.27c0,.88,4.81-1.22,4.81-2.78M204.64,56.57v4.27c0,.54,0,1.36.2,1.83.41.95,1.02,1.56,2.24,1.56,5.15-.41-2.11-10.44,6.71-10.44-1.36.34-1.22,7.72-.75,8.88.13.34.34.61.75.95l-.13.34c-1.02.07-1.9.2-2.64.47-1.08.41-2.37,1.08-3.93,2.03-1.62-.95-2.91-1.63-3.93-2.03-.82-.27-1.7-.41-2.71-.47l-.13-.34c.41-.34.67-.61.75-.95.2-.34.27-.95.27-1.83v-16.07c0-.88-.07-1.49-.27-1.9-.07-.27-.34-.61-.75-.95l.13-.34c1.02,0,1.9-.2,2.71-.47,1.02-.34,2.31-1.02,3.93-2.03,1.56,1.02,2.85,1.7,3.93,2.03.74.27,1.62.47,2.64.47l.13.34c-.41.34-.61.67-.75.95-.13.41-.2,1.02-.2,1.9v2.65c0,.54,0,2.91.2,3.45.13.27.34.54.75.95l-.13.34c-1.7,0-9.01,2.51-9.01,4.4"/>
  <path class="cls-1" d="M220.84,43.43c-.68.54-.68,1.08-.68,1.9v16.33c0,1.08.07,4,1.49,4-.27.41-.54.75-.95.75-1.22.07-3.19-2.57-5.02-2.57v-.34c.47-.34.75-.68.95-1.02.13-.34.2-.68.2-1.96v-15.79c0-.88-.07-1.49-.2-1.9-.13-.27-.41-.54-.82-.95l.13-.34c2.64,0,.88-2.51,5.01-2.51-.74.82-.74,1.49-.74,2.57,0,1.56,4.54-2.16,4.74-2.57,2.31,2.51,4.2,2.57,4.34,2.57l.07.34c-.67.34-.88.95-1.02,1.62-.07.54,0,1.08,0,1.62v16.47c0,1.08,0,4,1.49,4-.27.41-.61.75-.95.75-1.29.07-3.25-2.57-5.09-2.57v-.34c.47-.34.82-.68.95-1.02.13-.34.2-.68.2-1.96v-18.44c0-.07,0-.2-.13-.2-.41-.27-3.12.82-4,1.56"/>
  <path class="cls-1" d="M94.27,87.29c-.34.28-.73.57-1.13.85-1.13.67-3.05,1.75-5.14,2.49-2.71.91-5.64,1.24-7.23-.39,2.77.96,5.88-.85,8.42-2.94,1.7-1.36,3.45-3.1,5.19-4.74v-5.42c-.34,0-.67,0-1.02-.11,1.36-.57,1.02-3.28,1.02-4.46,0-.57,0-1.07-.12-1.52-6.78,1.97-18.64,5.54-10.34,14.68-19.04-14.4,11.97-18.53,21.86-22.93,6.49-2.94,11.97-7.28,12.54-14.58.57,7.34-2.09,12.71-5.88,15.42-.73.57-1.52,1.07-2.31,1.47-.62.34-1.36.62-2.15.96-3.28,1.36-4.35,4.97-4.97,4.18-.39-.45-.73-.73-1.13-.85-2.15-.62-3,1.36-3,3.16v6.33c12.31-7.28,16.89,6.72,11.69,10.16-.62.4-1.3.57-1.97.4-1.97-.45-1.97-2.15-2.15-3.79.85.45,1.58.67,2.26.73.62.12,1.18,0,1.64-.34,2.76-1.81.12-11.18-7.85-5.93-.17.11-.39.28-.62.51.45.34.96.73,1.3,1.3-1.24-.28-2.43.11-3.39.73-.28.22-.62.4-.91.68v8.24c0,2.03,0,9.94.06,12.37.06,4.8.45,11.7,5.19,13.44-3.16.34-5.99-4.57-7.57-7-1.3.73-2.37-.06-2.37-1.13-.4.17-1.47,0-1.92-.45,2.49-.39,2.09-10.16,2.09-13.73v-3.5c-.34-.73-1.24-1.07-.96-1.24.34-.22.73-1.42.85-3.05"/>
  <path class="cls-1" d="M117.84,102.98c0,1.08,0,4,1.49,4-.27.47-.61.75-.95.75-1.29.13-3.25-2.51-5.09-2.51v-.34c.47-.34.82-.67.95-1.02.13-.41.2-.67.2-2.03v-15.72c0-.61-.07-1.56-.2-1.9-.13-.34-.34-.61-.75-.95l.13-.34c2.57-.07.88-2.51,5.02-2.51-.75.82-.82,2.03-.82,3.8v18.78h0Z"/>
  <path class="cls-1" d="M129.71,91.59v-5.49c0-.88-.07-1.49-.2-1.9-.41-.95-.95-1.49-2.17-1.49s-1.83.54-2.24,1.49c-.13.41-.2,1.02-.2,1.9v8.27c0,.88,4.81-1.22,4.81-2.78M124.89,97.89v4.27c0,.54,0,1.36.2,1.83.41.95,1.02,1.56,2.24,1.56,5.15-.41-2.1-10.44,6.71-10.44-1.36.34-1.22,7.72-.75,8.88.13.34.34.61.75.95l-.13.34c-1.02.07-1.9.2-2.65.47-1.08.41-2.37,1.08-3.93,2.03-1.62-.95-2.91-1.62-3.93-2.03-.82-.27-1.7-.41-2.71-.47l-.13-.34c.41-.34.67-.61.75-.95.2-.34.27-.95.27-1.83v-16.07c0-.88-.07-1.49-.27-1.9-.07-.27-.34-.61-.75-.95l.13-.34c1.02,0,1.9-.2,2.71-.47,1.02-.34,2.31-1.02,3.93-2.03,1.56,1.02,2.85,1.7,3.93,2.03.75.27,1.63.47,2.65.47l.13.34c-.41.34-.61.68-.75.95-.13.41-.2,1.02-.2,1.9v2.65c0,.54,0,2.91.2,3.45.13.27.34.54.75.95l-.13.34c-1.7,0-9.01,2.51-9.01,4.4"/>
  <path class="cls-1" d="M136.89,86.03c0-1.29,0-1.96-.95-2.78l.13-.34c2.58-.07.82-2.51,4.95-2.51-.75.82-.75,2.03-.75,3.8v17.9c0,.54,0,1.36.2,1.9.41.88.95,1.49,2.16,1.49,4.68,0-1.83-10.44,6.78-10.44-1.36.41-1.22,7.72-.75,8.95.07.27.34.54.75.95l-.13.34c-1.02,0-1.9.13-2.71.47-1.02.34-2.31,1.02-3.93,1.96-1.56-.95-2.85-1.62-3.93-1.96-.75-.34-1.63-.47-2.65-.47l-.13-.34c.41-.41.61-.67.75-.95.13-.41.2-1.02.2-1.9v-16.07h0Z"/>
  <path class="cls-1" d="M155.26,83.38v21.28c0,.13.07.2.13.27.47.2,3.12-.88,4-1.62.27-.21.54-.54.67-.82.13-5.22,0-10.65,0-15.87,0-.88,0-1.36-.67-1.9-.88-.75-3.53-1.83-4-1.56-.07,0-.13.07-.13.2M163.39,102.03c0,.88.07,1.56.27,1.9.07.27.34.61.75.95l-.13.34c-2.31,0-3.73,1.29-4.2,2.51v-2.85c-1.15,0-4.4,2.1-4.81,2.85-1.02-1.15-3.45-2.57-4.34-2.51l-.07-.34c.61-.34.88-.95.95-1.62.07-.54.07-1.02.07-1.56v-16.81c-.07-.68-.34-1.29-1.02-1.7l.13-.34c.07,0,3.25-.75,4.27-2.51.2.41,4.74,3.8,4.74,2.37v-5.01c0-.82-.07-1.42-.2-1.76-.13-.27-.34-.61-.75-.95l.13-.34c2.57-.07.82-2.51,4.95-2.51-.61.67-.75,1.76-.75,3.25v26.64h0Z"/>
  <path class="cls-1" d="M179.99,95.04c-.41.34-.67.67-.75.95-.2.54-.27,2.85-.27,3.45v2.65c0,.88.07,1.49.27,1.9.07.27.34.54.75.95l-.13.34c-1.02,0-1.9.13-2.71.47-1.02.34-2.31,1.02-3.93,1.96-1.56-.95-2.85-1.62-3.93-1.96-.75-.34-1.63-.47-2.65-.47l-.2-.34c.47-.41.68-.67.82-.95.13-.41.2-4.68.2-5.56,0-1.9-.61-2.58-1.15-3.19,9.15-.2,1.36,10.24,6.92,10.24,1.22,0,1.83-.61,2.17-1.49.2-.41.27-1.02.27-1.9v-3.8c0-3.12-4.68-4.88-8.2-4.88v-7.39c0-.88-.07-1.49-.2-1.9-.13-.27-.34-.54-.82-.95l.2-.34c1.02,0,1.9-.13,2.65-.41,1.08-.41,2.37-1.08,3.93-2.03,1.62.95,2.91,1.63,3.93,2.03.82.27,1.7.41,2.71.41l.13.34c-.41.41-.67.68-.75.95-.47,1.22-.61,7.12.75,7.52-2.78,1.96-3.32-.75-5.43-.75v-.34c.47-.34.82-.67.95-1.02.2-.47.2-4.68-.13-5.42-.34-.88-.95-1.49-2.17-1.49s-1.76.61-2.17,1.49c-.2.54-.2,1.36-.2,1.9v4.27c0,1.9,7.32,4.4,9.01,4.4l.13.34h0Z"/>
  <path class="cls-1" d="M205.27,86.1c0-.95-.07-1.56-.2-1.9-.41-.95-1.02-1.56-2.24-1.56-1.16,0-1.76.61-2.17,1.56-.13.34-.2.95-.2,1.9v16c0,.88.07,1.49.2,1.9.41.88,1.02,1.49,2.17,1.49,1.22,0,1.83-.61,2.24-1.49.13-.41.2-1.02.2-1.9v-16ZM197.07,86.1c0-.95-.07-1.56-.2-1.9-.13-.34-.34-.61-.75-.95l.13-.34c1.02-.07,1.9-.2,2.65-.47,1.08-.41,2.37-1.08,3.93-2.03,1.62.95,2.91,1.63,3.93,2.03.82.27,1.7.41,2.71.47l.13.34c-.41.34-.67.61-.75.95-.13.34-.27.95-.27,1.9v16c0,.88.13,1.49.27,1.9.07.27.34.54.75.95l-.13.34c-1.02,0-1.9.13-2.71.47-1.02.34-2.31,1.02-3.93,1.96-1.56-.95-2.85-1.62-3.93-1.96-.75-.34-1.63-.47-2.65-.47l-.13-.34c.41-.41.61-.67.75-.95.13-.41.2-1.02.2-1.9v-16Z"/>
  <path class="cls-1" d="M213.48,82.84v-5.02c0-.88-.07-1.49-.2-1.9-.13-.27-.41-.61-.82-.95l.2-.34c1.22,0,3.05-1.76,4-2.51.61.95,3.19,1.56,3.73,1.02-.41,1.49-1.08,2.58-2.11,2.78-.34.07-1.08-.41-1.36-.41-.07.13-.07.27-.07.47v6.84h3.39l.13.34c-.34.34-.88,1.02-.95,1.49h-2.57c-.07,6.78,0,10.91,0,17.76,0,1.9.88,4.61,3.05,2.44,0,1.42-1.16,2.91-2.65,2.85-1.62,0-2.98-2.51-4.94-2.51v-.34c.47-.34.82-.67.95-1.08.13-.34.2-.61.2-1.96v-17.15h-1.02c-.07-.47-.61-1.15-1.02-1.49l.2-.34h1.84Z"/>
  <path class="cls-1" d="M72.55,23.94c.82-.2,1.96.41,2.85,1.9-1.83-1.08-2.17,1.7-2.17,2.44h3.39l.2.34c-.41.27-.95.95-1.02,1.42h-2.57v17.76c0,1.9.88,4.68,3.12,2.44,0,1.42-1.22,2.91-2.65,2.91-1.63-.07-3.05-2.57-5.02-2.57v-.34c.47-.34.82-.67.95-1.02.13-.34.2-.68.2-2.03v-17.15h-1.36c-.07-.47-.61-1.16-.95-1.42l.13-.34c1.62-.27,1.42-3.53,4.88-4.34"/>
  <path class="cls-1" d="M82.92,30.24c-.68.47-.68,1.02-.68,1.83v16.33c0,1.08,0,4,1.49,4-.27.47-.61.75-.95.75-1.29.13-3.25-2.51-5.09-2.51v-.34c.47-.34.82-.67.95-1.02.13-.41.27-.67.27-2.03v-24c0-.88-.13-1.49-.27-1.9-.07-.27-.34-.61-.75-.95l.13-.34c2.57-.07.88-2.51,5.02-2.51-.67.75-.74,1.83-.74,3.25-.07.2-.07,6.98-.07,7.12,0,1.96,4.4-1.42,4.81-2.1,2.1,2.51,4.14,2.51,4.27,2.51l.07.34c-.61.34-.88.95-1.02,1.62v19.93c0,2.51.07,4.06.27,4.68.27.82.82,1.56,1.62,2.31.54.41,1.29.88,2.24,1.36v.88c-1.69-.75-3.19-1.56-4.4-2.51-1.29-.95-2.17-1.96-2.65-3.05-.27-.61-.41-1.7-.41-3.11l-.07-21.89c0-.13,0-.2-.07-.27-.47-.2-3.12.82-4,1.62"/>
  <path class="cls-1" d="M102.58,37.02v-5.49c0-.88-.07-1.49-.21-1.9-.41-.95-.95-1.49-2.16-1.49s-1.83.54-2.24,1.49c-.13.41-.2,1.02-.2,1.9v8.27c0,.88,4.81-1.22,4.81-2.78M97.77,43.33v4.27c0,.54,0,1.36.2,1.83.41.95,1.02,1.56,2.24,1.56,5.15-.41-2.11-10.44,6.71-10.44-1.36.34-1.22,7.72-.74,8.88.13.34.34.61.74.95l-.13.34c-1.02.07-1.9.2-2.64.47-1.08.41-2.37,1.08-3.93,2.03-1.63-.95-2.91-1.63-3.93-2.03-.82-.27-1.7-.41-2.71-.47l-.13-.34c.41-.34.68-.61.75-.95.2-.34.27-.95.27-1.83v-16.07c0-.88-.07-1.49-.27-1.9-.07-.27-.34-.61-.75-.95l.13-.34c1.02,0,1.9-.2,2.71-.47,1.02-.34,2.31-1.02,3.93-2.03,1.56,1.02,2.85,1.7,3.93,2.03.74.27,1.62.47,2.64.47l.13.34c-.41.34-.61.67-.74.95-.13.41-.21,1.02-.21,1.9v2.65c0,.54,0,2.91.21,3.45.13.27.34.54.74.95l-.13.34c-1.7,0-9.01,2.51-9.01,4.4"/>
  <path class="cls-1" d="M58.68,120.84c-3.81.14-8.05.14-12.14,0,4.1-11.3,8.05-22.59,12.43-33.32.14,9.31,0,21.6-.28,33.32M70.12,160.23c-.14-8.47-.14-16.94-.14-25.41v-10.73c2.26-.28,4.38,1.13,4.8,3.39,2.4-2.11.28-8.19-.71-8.19-.71.14-.71,1.13-1.42,1.13-.85,0-1.7,0-2.68.14v-8.47c0-5.79,0-13.83,5.51-17.08-1.83-.57-4.1-.85-5.51-.28v-19.91c6.92,0,12.71-2.68,12.71-13.69-6.68,6.53-13.92,4.64-21.63,2.66-.17-5.77-6.61-12.44-6.61-12.44,1.87,4.62-2.83,6.01-3.17.84-.38-5.84-4.92-7.75-4.92-7.75,3.22,4.77.92,13.39-2.95,14.86s-4.08-2.11-4.08-2.11c-5.84,4.1-7.97,17.36-5.65,20.96.05.17.09.32.15.49.28.99-1.42,1.98-.57,2.54,3.39,2.26,8.62,5.79,11.86,3.81.85-.42,1.56-.99,2.12-1.7-1.98,0-4.38-.85-5.09-3.25-.99-3.67.85-6.21,4.38-7.77,1.84-.99,5.09-.57,8.9.28-3.67,10.73-11.01,29.37-18.92,47.72-13.41-1.13-24.15-4.1-23.44-11.3.42-3.25,3.53-4.52,6.21-4.66-.99-.85-2.11-1.42-3.39-1.98-4.94-2.11-11.58,2.82-15.67,5.93-.99.71,1.56,1.97,1.42,3.1-.99,5.93,2.4,9.74,8.47,12.14-.71.99-1.27,2.26-1.7,3.53,1.27-.71,2.68-1.13,4.1-1.42,3.25-.57,6.78.42,10.16.71,3.53.42,7.34.71,11.3.71-.42.99-3.25,6.78-7.2,15.11-.85-1.56-2.96-2.54-4.8-3.1,2.96,5.79,0,13.14-2.82,19.2-1.13,2.26-2.11,4.38-3.1,6.63-1.42,2.68-2.68,5.51-3.95,8.33-3.81,7.91-9.6,17.08-9.88,24.71-.28,6.07,2.26,13.41,10.87,11.86,4.94-.99,6.35-5.79,5.23-9.89-2.11,1.27-3.95,1.98-5.5,2.26-1.56.28-2.96.14-4.1-.57-12.7-7.34,14.83-30.07,21.03-25.84-2.4-2.54-3.39-5.65-2.11-6.35,1.84,4.66,6.78,7.62,12.57,5.79.99-.28,1.84-.71,2.82-1.42,8.76-6.63,2.4-15.39-1.42-10.73-1.56,1.84,0,3.67.28,5.79.99,4.8-18.07,10.31-8.47-14.4,4.1-10.02,8.05-20.48,8.76-22.17.28.14.57.14.85.14.71,0,1.42-.42,1.84-1.13.28.14.71.14,1.13.14.57,0,.99-.14,1.56-.28-1.13-.57-1.7-1.55-1.56-2.4.42-3.25,9.04-3.53,12.57-3.1,0,1.13-1.27,5.37-2.26,6.07-.71.42,1.56,1.27,2.4,3.25,0,6.78,0,14.4-.14,19.06-.42,8.9-1.56,17.79-5.23,18.35,1.13,1.13,3.95,1.56,5.09,1.13-.28,2.54,2.68,4.52,5.79,2.82,3.25,4.94,10.31,12.43,18.5,11.72.14,0,.28,0,.42-.14-11.72-4.24-12.71-15.67-12.99-27.68"/>
  <path class="cls-1" d="M88.34,123.38c0-1.56.71-7.34,4.52-5.09-1.84-3.1-4.24-4.38-5.93-3.95-7.2,1.69-6.78,8.47-10.16,9.04l-.28.71c.71.57,1.84,1.98,1.97,2.96h2.82v35.72c0,2.82-.14,3.53-.42,4.24-.28.71-.99,1.42-1.97,2.11v.71c4.1,0,7.06,5.23,10.45,5.36,2.96,0,5.5-3.1,5.5-6.07-4.66,4.66-6.49-1.13-6.49-5.09v-36.99h5.36c.14-.99,1.27-2.4,2.11-2.96l-.42-.71h-7.06,0Z"/>
  <path class="cls-1" d="M116.86,141.59c0,3.25-10.02,7.62-10.02,5.79v-17.22c0-1.83.14-3.1.42-3.95.85-1.97,2.11-3.1,4.66-3.1s3.67,1.13,4.52,3.1c.28.85.42,2.12.42,3.95v11.44h0ZM124.35,126.2c.28-.57.71-1.27,1.56-1.97l-.28-.71c-2.11,0-3.95-.42-5.51-.99-2.26-.71-4.94-2.11-8.19-4.24-3.39,2.11-6.07,3.53-8.19,4.24-1.7.57-3.53.99-5.65.99l-.28.71c.85.71,1.42,1.42,1.55,1.97.42.85.57,2.12.57,3.95v33.46c0,1.83-.14,3.1-.57,3.81-.14.71-.71,1.27-1.55,1.97l.28.71c2.11.14,3.95.42,5.65.99,2.11.85,4.8,2.26,8.19,4.24,3.25-1.98,5.93-3.39,8.19-4.24,1.56-.57,3.39-.85,5.51-.99l.28-.71c-.85-.71-1.27-1.27-1.56-1.97-.99-2.4-1.27-17.79,1.56-18.5-18.35,0-3.25,20.89-13.98,21.74-2.54,0-3.81-1.27-4.66-3.25-.42-.99-.42-2.68-.42-3.81v-8.9c0-3.95,15.25-9.17,18.78-9.17l.28-.71c-.85-.85-1.27-1.42-1.56-1.98-.42-1.13-.42-6.07-.42-7.2v-5.51c0-1.83.14-3.1.42-3.95"/>
  <path class="cls-1" d="M156.68,133.97c-.71-1.42-.85-6.21-.14-8.05.28-.71.85-1.27,1.7-1.69l-.14-.71c-.28,0-4.38.14-9.04-5.23-1.27,2.26-6.21,4.38-8.19,5.65-.85.57-1.7,1.13-1.7-.42,0-3.67,0-3.53,1.56-5.23-8.62,0-4.94,5.09-10.31,5.23l-.42.71c.85.71,1.42,1.27,1.7,1.97.28.71.42,1.98.42,3.95v32.76c0,2.82-.14,3.39-.42,4.24-.28.71-.99,1.42-1.97,2.11v.71c3.81,0,7.91,5.51,10.59,5.23.71,0,1.41-.57,1.98-1.56-3.1,0-3.1-6.07-3.1-8.33v-34.03c0-1.69,0-2.82,1.27-3.81,2.26-1.98,8.62-4.66,8.62-2.82,0,.42.14,4.1.14,5.36v2.11c0,2.26,0,8.33-3.1,8.33.57.99,1.13,1.56,1.97,1.56,2.54.28,6.63-5.23,10.59-5.23v-.71c-1.13-.71-1.7-1.42-1.98-2.11"/>
  <path class="cls-1" d="M187.74,165.32v-34.31c0-1.13-.14-2.26,0-3.39.28-1.42.71-2.68,2.11-3.39l-.14-.71c-.28,0-4.24-.14-9.04-5.36-.42.85-9.88,8.62-9.88,5.36,0-2.26,0-3.67,1.56-5.36-8.62,0-4.94,5.23-10.45,5.23l-.28.71c.85.85,1.42,1.42,1.7,1.98.28.85.42,2.11.42,3.95v32.9c0,2.68-.14,3.39-.42,4.1-.42.71-.99,1.42-1.97,2.11v.71c3.81,0,7.91,5.51,10.45,5.36.85,0,1.41-.71,1.98-1.55-2.96,0-3.1-6.07-3.1-8.33v-34.03c0-1.7,0-2.82,1.42-3.95,1.84-1.55,7.48-3.81,8.33-3.25.28,0,.28.28.28.42v38.41c0,2.68-.14,3.39-.42,4.1-.28.71-.99,1.42-1.97,2.11v.71c3.81,0,7.91,5.51,10.59,5.36.71,0,1.42-.71,1.97-1.55-3.1,0-3.1-6.07-3.1-8.33"/>
  <path class="cls-1" d="M203.7,165.32v-39.11c0-3.67.14-6.21,1.69-7.91-8.62,0-5.09,5.09-10.45,5.23l-.28.71c.85.71,1.27,1.27,1.55,1.98.28.71.42,2.68.42,3.95v32.76c0,2.82-.14,3.39-.42,4.24-.28.71-.99,1.42-1.97,2.11v.71c3.81,0,7.91,5.51,10.59,5.23.71,0,1.42-.57,1.98-1.55-3.1,0-3.1-6.07-3.1-8.33"/>
  <path class="cls-1" d="M237.87,124.09l-.05-.12c3.37-3.93.08-7.24-1-8.26-1.24-1.17-1.59-2.52-1.59-2.52-.95,2.91-.07,3.56-.07,3.56-.46-.07-2.54-.98-.87-6.62,1.66-5.64-1.1-8.62-1.1-8.62.42,1.67-1.38,4.96-3.75,7.49-3.32,3.55-1.9,6.51-1.9,6.51-1.32-.22-1.22-2.81-1.22-2.81-2,2.24-2.1,4.4-1.37,6.28-.39-.22-.79-.46-1.21-.7-3.25,1.97-5.93,3.39-8.19,4.24-1.56.57-3.39.85-5.51.85l-.42.71c.99.85,1.42,1.42,1.7,1.98.28.85.42,2.12.42,3.95v15.39c7.34,0,17.08,3.67,17.08,10.16v7.91c0,1.84-.14,3.1-.57,3.95-.71,1.83-1.98,3.1-4.52,3.1-11.58,0,4.66-21.74-14.4-21.32,1.13,1.27,2.4,2.68,2.4,6.63,0,1.84-.14,10.73-.42,11.58-.28.57-.71,1.13-1.7,1.98l.42.71c2.11,0,3.95.28,5.51.99,2.26.71,4.94,2.11,8.19,4.1,3.39-1.97,6.07-3.39,8.19-4.1,1.69-.71,3.53-.99,5.64-.99l.28-.71c-.85-.85-1.42-1.42-1.56-1.98-.42-.85-.57-2.11-.57-3.95v-5.51c0-1.27.14-6.07.57-7.2.14-.57.71-1.27,1.56-1.98l-.28-.71c-3.53,0-18.78-5.23-18.78-9.18v-8.9c0-1.13,0-2.82.42-3.95.85-1.83,1.97-3.1,4.52-3.1s3.81,1.27,4.52,3.1c.71,1.56.71,10.31.28,11.3-.28.71-.99,1.42-1.98,2.12v.71c4.38,0,5.51,5.64,11.3,1.56-2.82-.85-2.54-13.14-1.56-15.67.14-.57.71-1.13,1.56-1.98"/>
  <path class="cls-1" d="M337.16,57.94s-.09-.03-.14-.03c-1.98-.15-3.97-.3-5.95-.44.45-.16.73-.62.74-1.07,1.91-.74,3.57-2.14,4.63-3.9-.57.07-1.14.12-1.71.19-.54.06-1.1.12-1.63.02-.54-.09-1.07-.36-1.36-.82-.17-.27-.24-.58-.41-.86-.17-.29-.52-.53-.84-.4-.23-.67.17-1.44.76-1.84.3-.21.69-.41.72-.77.02-.42-.45-.67-.82-.82.39-.29.73-.64,1.02-1.03.24-.32.43-.77.22-1.12-.15-.23-.47-.32-.72-.21,0,0-1.07.52-2.15,1.04,1.01-.56,2.02-1.12,2.02-1.12,1.52-.85,2.91-2.14,3.37-3.83.12-.45.17-.96-.07-1.35-.38.47-.84.88-1.36,1.21-.21.13-.43.25-.67.3-.42.08-.87-.05-1.17-.35.1-.37.07-.77-.06-1.12,3.28-1.92,5.4-5.67,5.38-9.47-1.54,2.04-3.5,3.75-5.74,5,.36-.81.39-1.75.1-2.58,1.71-1.29,3.2-2.88,4.25-4.74,1.08-1.91,1.68-4.11,1.57-6.31-.64,1.98-2.07,3.7-3.93,4.66-.03-.42-.06-.84-.24-1.22-.16-.34-.48-.63-.86-.65-.19,0-.38.05-.56.12-.42.15-.84.34-1.24.56.33-.43.66-.89.83-1.42.16-.48.17-1.01.16-1.51-.02-.79-.14-1.6-.51-2.3-.37-.72-1.03-1.32-1.83-1.46.77-2.95.23-6.2-1.43-8.75-.52-.81-1.16-1.54-1.81-2.25-2.79-2.97-6.14-5.41-9.82-7.16-.23-.11-.51-.22-.74-.09,1.85,1.72,3.69,3.48,5.16,5.52,1.47,2.02,2.57,4.36,2.81,6.85.43,4.4-2.12,8.95-6.13,10.84.3-1.71-.06-3.51-.89-5.04-.85-1.56-2.18-2.82-3.72-3.7-.91-.52-1.89-.91-2.74-1.51-.85-.61-1.58-1.51-1.66-2.56-.69.6-1.2,1.39-1.47,2.26-.03.12-.07.25-.06.37.02.2.14.37.25.54.15.23.43.55-.07.75-1.38.28-2.08.15-3.08.59-2.11.94-3.91,2.59-5.02,4.62-.47.87-.93,1.9-1.88,2.18,1.42.94,3.39.98,4.85.11.36.92,1.1,1.69,1.91,2.26.4.28.84.53,1.32.67.62.17,1.3.12,1.89-.13-1.1-.25-1.88-1.41-1.86-2.55.02-1.18.79-2.28,1.81-2.89,1.58-.95,3.73-.79,5.23.28,1.51,1.07,2.34,2.97,2.26,4.81-.08,1.85-1.05,3.6-2.46,4.79-.83.69-1.81,1.19-2.71,1.79-1.43.93-2.71,2.1-3.77,3.44-.85,1.07-1.57,2.29-1.85,3.64-.2,1-.15,2.03.04,3.02.33,1.76,1.14,3.49,2.5,4.67,2.11,1.83,5.31,2.21,7.07,4.38,1.32,1.62,1.49,3.97.81,5.94-.57,1.65-1.89,3.2-3.62,3.37-1.72.17-3.23-1.04-4.75-1.86-1.94-1.03-4.17-1.5-6.36-1.33-.47,0-.94.15-1.32.42-.35-.58-.67-1.19-.92-1.81-.18-.42-.32-.98.03-1.28.22-.2.64-.27.67-.57.02-.15-.09-.29-.18-.41-.77-.94-1.52-1.88-2.28-2.82.2-.42.4-.86.6-1.28.04-.1.09-.2.07-.31-.02-.13-.15-.22-.27-.29-.83-.55-1.61-1.22-2.12-2.06-.33-.54-.56-1.19-.39-1.8.12-.43.42-.8.76-1.1.3-.26.64-.49,1.02-.57.44-.08.95.07,1.16.48,1.92.19,3.67,1.54,4.35,3.34.31-.82.51-1.7.47-2.57-.03-.72-.22-1.43-.61-2.03-.06-.16-.12-.3-.12-.3-.27-.72-.07-1.53-.22-2.3-.19-1.01-.97-1.81-1.83-2.37s-1.84-.92-2.72-1.44c-.52-.3-1.03-.69-1.22-1.26-.3-.89.34-1.87,1.19-2.28.84-.41,1.82-.39,2.76-.36-.85-.85-2.04-1.38-3.24-1.31-.74.05-1.47.34-2.03.82-.36-.17-.58-.27-.58-.27-.37-.17-.82-.07-1.15.18-.32.25-.53.62-.67,1.01-.05.13-.09.28-.18.39-.17.19-.43.23-.68.3-1.33.34-2.31,1.73-2.16,3.1-.47.09-.82.52-.97.98-.13.47-.1.96-.06,1.44-.17-.03-.31-.12-.43-.22-.13.23-.3.37-.47.37s-.35-.15-.48-.38c-.12.11-.27.2-.43.22.04-.48.07-.97-.06-1.44s-.49-.9-.97-.98c.14-1.37-.83-2.76-2.16-3.1-.24-.07-.52-.11-.68-.3-.09-.11-.13-.26-.18-.39-.13-.38-.34-.76-.67-1.01-.32-.25-.78-.35-1.15-.18,0,0-.22.1-.58.27-.56-.48-1.29-.77-2.03-.82-1.2-.07-2.4.46-3.24,1.31.94-.02,1.91-.05,2.76.36.84.41,1.49,1.39,1.19,2.28-.19.57-.71.96-1.22,1.26-.89.52-1.86.88-2.72,1.44-.87.56-1.64,1.37-1.83,2.37-.14.76.06,1.57-.22,2.3,0,0-.06.15-.12.31-.38.6-.58,1.32-.61,2.03-.03.87.17,1.75.47,2.57.68-1.8,2.44-3.15,4.35-3.34.21-.42.72-.57,1.16-.48.39.07.73.3,1.02.57.34.3.64.67.76,1.1.17.61-.06,1.26-.39,1.8-.52.85-1.29,1.51-2.12,2.06-.12.07-.24.16-.27.29-.02.11.02.21.07.31.2.42.4.86.6,1.28-.76.94-1.52,1.88-2.28,2.82-.1.12-.2.26-.18.41.03.3.44.37.67.57.34.31.21.87.03,1.28-.27.62-.57,1.23-.92,1.81-.37-.28-.85-.43-1.32-.42-2.19-.17-4.43.29-6.36,1.33-1.52.82-3.03,2.02-4.75,1.86-1.73-.17-3.05-1.72-3.62-3.37-.68-1.97-.51-4.32.81-5.94,1.76-2.17,4.96-2.54,7.07-4.38,1.36-1.18,2.16-2.91,2.5-4.67.19-1,.24-2.03.04-3.02-.27-1.35-1-2.56-1.85-3.64-1.06-1.34-2.34-2.51-3.77-3.44-.91-.59-1.88-1.09-2.71-1.79-1.42-1.18-2.38-2.94-2.46-4.79s.75-3.74,2.26-4.81,3.65-1.23,5.23-.28c1.02.61,1.79,1.7,1.81,2.89.02,1.14-.77,2.29-1.86,2.55.59.26,1.27.3,1.89.13.47-.13.91-.38,1.31-.67.82-.57,1.56-1.34,1.91-2.26,1.47.87,3.43.83,4.85-.11-.95-.28-1.41-1.32-1.88-2.18-1.11-2.03-2.91-3.68-5.02-4.62-1.01-.44-1.7-.32-3.08-.59-.49-.2-.22-.52-.07-.75.11-.17.23-.34.25-.54,0-.12-.02-.25-.06-.37-.27-.87-.78-1.66-1.47-2.26-.07,1.05-.8,1.95-1.66,2.56-.85.61-1.83,1-2.74,1.51-1.54.88-2.87,2.15-3.72,3.7-.83,1.52-1.19,3.33-.89,5.04-4-1.89-6.57-6.44-6.13-10.84.25-2.49,1.36-4.83,2.82-6.85,1.48-2.05,3.31-3.8,5.16-5.53-.23-.12-.51-.02-.74.09-3.68,1.75-7.03,4.19-9.82,7.16-.66.7-1.29,1.44-1.81,2.25-1.66,2.55-2.2,5.8-1.43,8.75-.8.13-1.47.73-1.83,1.46-.36.7-.48,1.51-.51,2.3-.02.51,0,1.03.16,1.51.17.52.49.97.83,1.41-.4-.22-.82-.4-1.24-.55-.18-.07-.37-.12-.56-.12-.37.02-.69.31-.86.65-.17.37-.2.81-.24,1.22-1.85-.96-3.29-2.67-3.93-4.66-.11,2.19.49,4.4,1.57,6.31,1.05,1.86,2.54,3.45,4.25,4.74-.29.83-.26,1.77.11,2.58-2.23-1.25-4.2-2.96-5.74-5-.02,3.8,2.09,7.55,5.38,9.47-.13.35-.15.75-.06,1.12-.3.3-.75.43-1.17.35-.24-.05-.47-.17-.67-.3-.52-.32-.97-.73-1.36-1.21-.24.4-.19.9-.07,1.35.47,1.68,1.84,2.98,3.37,3.83,0,0,1.01.56,2.02,1.12l-2.15-1.04c-.25-.12-.57-.02-.72.21-.22.34-.02.79.22,1.12.28.39.63.74,1.02,1.03-.37.14-.86.4-.82.82.02.37.42.57.72.77.59.4.99,1.17.76,1.84-.32-.13-.67.11-.84.4-.17.27-.24.58-.41.86-.29.47-.82.73-1.36.82s-1.09.03-1.63-.02c-.57-.07-1.14-.12-1.71-.19,1.06,1.76,2.71,3.15,4.63,3.9,0,.46.28.92.74,1.07-1.98.15-3.97.3-5.95.45-.05,0-.1,0-.14.03-.13.09,0,.3.12.39,1.28.97,2.96,1.22,4.53,1.49-.14.04-.16.2-.16.33,0,.44.1.87.27,1.27.73,1.75,2.9,2.81,4.73,2.04.51.95-2.06-.12-3.03,1.01-.35.41-.39,1.02-.19,1.51.2.5.6.89,1.05,1.18.23.15.48.28.76.36.77.21,1.6-.05,2.34-.26-2.31,1.86-5.43,2.3-8.38,2.59-.19.02-.39.04-.56.15-.16.11-.26.33-.17.5.05.08.12.14.21.19,1.16.7,2.57.84,3.92.78,1.42-.06,2.81-.31,4.17-.7.43.54.96,1.02,1.6,1.3.35.15.73.22,1.11.22-.17.09-.29.16-.29.16-.18.1-.19.35-.15.55.2,1.1,1.03,2.06,2.1,2.41-2.89,2.19-6.14,3.9-9.58,5.04.53.44,1.27.52,1.95.49,1.61-.08,3.13-.75,4.59-1.43.89-.42,1.78-.85,2.65-1.32.04.76.67,1.29,1.36,1.54.53.19,1.11.23,1.66.14-.33.69-.11,1.59.49,2.06.54.43,1.36.49,1.96.14,0,0,.45-.27,1.07-.62-3.09,5.34-7.82,9.72-13.38,12.39,1.51.28,3.05-.15,4.49-.72,4.21-1.66,7.95-4.48,10.7-8.07.27-.34.63-.74,1.05-.62.62.17.48,1.15.92,1.63.25.27.7.34,1.02.15l1.05-.65c-.09.13-.19.27-.19.27-4.37,6.23-10.59,11.14-17.66,13.93,2.15.22,4.3-.36,6.3-1.17,5.22-2.09,9.69-5.68,13.83-9.47.85-.17,1.71-.33,2.56-.49-.16.42-.07.94.24,1.27.27.3.69.44,1.09.39-2.47,3.13-5.15,6.12-8.22,8.67-3.05,2.55-6.51,4.66-10.28,5.91-.73.24-1.49.46-2.26.42,2.87,1.12,6.18.76,9.04-.41,2.91-1.18,5.44-3.13,7.85-5.14,1.81-1.51,3.58-3.07,5.3-4.68.49-.46.99-.93,1.6-1.22s1.36-.36,1.94,0c.35.21.6.53.91.79.63.52,1.49.72,2.31.7.82-.02,1.61-.23,2.41-.45.2.39.45.76.77,1.07.4.39.89.68,1.34,1.01,1.44,1.04,2.61,2.56,2.89,4.32s-.46,3.72-2.01,4.59c-.47.27-1.03.42-1.55.27-.55-.16-1-.76-.8-1.32-.34.32-.46.82-.4,1.28.05.42.23.83.44,1.21.2.37.42.73.75.99.47.37,1.08.52,1.68.57.92.07,1.93-.06,2.65-.63.27,3.65-.71,7.47-3.09,10.25-2.4,2.8-6.29,4.39-9.9,3.61-.56-.12-1.12-.3-1.59-.62-.56-.39-.96-.97-1.23-1.59-.53-1.23-.56-2.68-.07-3.94.46-1.17,1.61-2.26,2.84-1.98,1.06.24,1.84,1.41,2.9,1.4.31-.85.12-1.85-.46-2.53-.32-.38-.75-.66-1.19-.89-1.26-.67-2.71-1.03-4.1-.79.66-.52.97-1.42.79-2.22-.45-.18-.82.22-1.13.53-1.52,1.57-3.94,2.24-5.04,4.14-.46.78-.63,1.71-.7,2.61-.17,2.39.4,4.87,1.81,6.81.8,1.11,2.97.92,2.06,1.8-1.27-.07-1.78-.02-3.06.07-1.38.1-2.76.29-4.08.75-.78.27-1.54.64-2.24,1.1-1.85,1.19-3.33,3.01-3.92,5.13-.6,2.11-.26,4.52,1.07,6.28.56.74,1.27,1.37,1.81,2.12,1.02,1.46,1.32,3.32,1.18,5.1.93-.55,1.66-1.42,2.06-2.42.39-1,.43-2.12.13-3.15.42.22.31.65.62.8.27.13.59.14.89.12,1.45-.08,2.79-.74,4.14-1.29,1.31-.53,2.75-.98,4.13-.69-1.16-1.07-2.87-1.32-4.46-1.29-1.62.03-3.26.29-4.84-.04-1.58-.33-3.15-1.48-3.33-3.09-.06-.53.04-1.07.21-1.58.27-.82.74-1.57,1.35-2.2,1.5-1.52,3.74-2.1,5.88-2.09,2.14,0,4.24.52,6.34.87s4.31.52,6.34-.13c3.15-1.02,5.37-3.86,6.94-6.77.07,2.3-1.23,4.35-2.62,6.14-1.05,1.37-2.18,2.66-3.31,3.95-2.44,2.81-4.89,5.61-7.68,8.07-.94.83-1.92,1.62-2.76,2.56-2.74,3.02-3.8,7.48-2.71,11.4.3,1.07.74,2.11,1.01,3.19.29,1.19.36,2.43.19,3.64.16-.04.32.04.47.11.87.38,1.94.28,2.73-.25.96-.65,1.47-1.91,1.15-3.04-.07-.27-.17-.5-.27-.82.28.8,1.06,1.31,1.81,1.71.75.4,1.56.78,2.04,1.48.16.23.27.48.37.74.53-.77.88-1.67,1.02-2.6.04-.27.06-.54.04-.81-.07-1.03-.73-2-1.67-2.42-.68-.32-1.52-.38-2.03-.92,1.16-.75,2.4-1.61,2.75-2.95.19-.72.08-1.49.09-2.24,0-.87.23-1.83,1.07-2.24-.87.29-1.66.82-2.26,1.5-.59.67-1.02,1.48-1.69,2.07-.71.62-1.68.94-2.61.8-.92-.15-1.78-.79-2.11-1.67-.27-.72-.19-1.53.03-2.26.63-2.1,2.3-3.7,3.96-5.12,1.56-1.32,3.16-2.59,4.72-3.91,4.54-3.88,8.74-8.55,10.5-14.23.09,1.22.19,2.44.29,3.65.28,3.56.57,7.15.07,10.69s-1.86,7.06-4.43,9.54c-.66.63-1.4,1.2-2.26,1.52.73,1,1.96,1.65,3.2,1.56.37-.02.72-.12,1.05-.27.1,2-.46,4.02-1.58,5.68-.72,1.07-1.66,1.98-2.31,3.1-.61,1.07-.92,2.26-1.14,3.47-.23,1.3-.33,2.76.47,3.81,1.05-.52,2.01-1.23,2.79-2.1.72,1.19.39,2.74-.14,4.03-.53,1.31-1.27,2.6-1.25,4.01.02,1.43.82,2.75,1.81,3.78.99,1.03,2.19,1.84,3.26,2.78,1.07.94,2.06,2.08,2.44,3.46.37-1.38,1.36-2.51,2.43-3.45,1.07-.94,2.27-1.75,3.26-2.78.99-1.03,1.79-2.35,1.81-3.78.02-1.41-.72-2.71-1.25-4.01-.53-1.29-.86-2.84-.14-4.03.78.87,1.73,1.59,2.79,2.1.8-1.05.7-2.51.47-3.81-.22-1.21-.53-2.41-1.14-3.47-.64-1.12-1.58-2.03-2.31-3.1-1.12-1.66-1.68-3.68-1.58-5.68.33.15.69.25,1.05.27,1.23.09,2.46-.56,3.2-1.56-.86-.32-1.6-.89-2.26-1.52-2.56-2.48-3.93-6-4.43-9.54s-.22-7.13.07-10.69c.1-1.22.2-2.44.29-3.65,1.76,5.69,5.95,10.36,10.5,14.23,1.56,1.32,3.16,2.59,4.72,3.91,1.66,1.42,3.33,3.02,3.96,5.12.22.73.3,1.55.03,2.26-.33.88-1.18,1.52-2.11,1.67s-1.91-.17-2.61-.8c-.67-.59-1.1-1.41-1.69-2.07-.61-.68-1.4-1.21-2.26-1.5.84.41,1.06,1.37,1.07,2.24,0,.75-.1,1.51.09,2.24.35,1.33,1.59,2.2,2.75,2.95-.51.54-1.35.61-2.02.92-.93.43-1.61,1.4-1.67,2.42-.02.27,0,.54.04.81.13.93.48,1.82,1.02,2.6.11-.26.22-.51.37-.74.47-.7,1.29-1.08,2.04-1.48.75-.4,1.52-.91,1.81-1.71-.1.32-.2.54-.27.82-.32,1.13.19,2.4,1.15,3.04.79.53,1.86.63,2.73.25.15-.07.31-.15.47-.1-.17-1.21-.1-2.46.19-3.64.27-1.08.71-2.11,1.01-3.19,1.09-3.93.03-8.38-2.71-11.4-.84-.93-1.82-1.72-2.76-2.56-2.79-2.46-5.24-5.27-7.68-8.07-1.13-1.3-2.26-2.6-3.31-3.95-1.39-1.8-2.69-3.84-2.62-6.14,1.56,2.91,3.79,5.74,6.94,6.77,2.03.66,4.24.48,6.34.13s4.2-.87,6.34-.87c2.14,0,4.38.57,5.88,2.09.61.62,1.07,1.37,1.35,2.19.17.51.27,1.05.22,1.58-.17,1.61-1.75,2.76-3.33,3.09-1.58.33-3.23.07-4.84.04-1.59-.03-3.3.21-4.46,1.29,1.38-.29,2.81.16,4.13.69,1.34.55,2.69,1.21,4.14,1.29.3.02.62,0,.89-.12.32-.15.19-.59.62-.8-.3,1.02-.25,2.15.13,3.15.39,1.01,1.13,1.87,2.06,2.42-.13-1.78.15-3.65,1.18-5.1.53-.76,1.25-1.38,1.81-2.12,1.32-1.76,1.66-4.16,1.07-6.28-.6-2.11-2.07-3.94-3.92-5.13-.7-.45-1.46-.82-2.24-1.1-1.31-.46-2.7-.66-4.08-.75-1.28-.09-1.79-.14-3.06-.07-.92-.88,1.25-.69,2.06-1.8,1.41-1.94,1.98-4.42,1.81-6.82-.07-.91-.24-1.82-.7-2.61-1.11-1.89-3.52-2.56-5.04-4.14-.31-.32-.68-.72-1.13-.53-.17.81.13,1.71.79,2.22-1.4-.24-2.85.12-4.1.79-.44.23-.87.52-1.19.89-.58.68-.77,1.68-.47,2.53,1.06,0,1.84-1.17,2.9-1.4,1.23-.27,2.38.81,2.84,1.98.48,1.26.46,2.7-.07,3.94-.27.62-.67,1.2-1.23,1.59-.47.32-1.02.51-1.59.62-3.6.77-7.5-.82-9.9-3.61-2.38-2.78-3.36-6.6-3.09-10.25.72.57,1.72.71,2.65.63.6-.05,1.22-.19,1.68-.57.32-.27.55-.62.75-.99.21-.38.39-.78.44-1.21.06-.46-.06-.96-.4-1.28.2.56-.25,1.16-.8,1.32-.52.15-1.08,0-1.55-.27-1.55-.87-2.29-2.84-2.01-4.59.28-1.76,1.45-3.28,2.89-4.32.46-.32.94-.62,1.34-1.01.32-.31.57-.67.77-1.07.79.22,1.59.42,2.41.45.82.02,1.68-.17,2.31-.7.31-.26.56-.58.91-.79.58-.34,1.33-.27,1.94,0,.61.28,1.11.76,1.6,1.22,1.72,1.61,3.5,3.16,5.3,4.68,2.41,2.01,4.94,3.95,7.85,5.14,2.86,1.17,6.16,1.53,9.04.41-.77.04-1.53-.17-2.26-.42-3.78-1.25-7.23-3.36-10.28-5.91-3.06-2.56-5.74-5.54-8.22-8.67.4.05.82-.09,1.09-.39.31-.33.4-.85.24-1.27.85.17,1.71.33,2.56.49,4.14,3.8,8.62,7.38,13.83,9.47,2,.8,4.15,1.38,6.3,1.17-7.08-2.81-13.29-7.72-17.66-13.93,0,0-.09-.13-.19-.27l1.05.65c.32.2.77.13,1.02-.15.43-.48.29-1.47.92-1.63.42-.11.78.28,1.05.62,2.75,3.59,6.49,6.42,10.7,8.07,1.43.57,2.98,1,4.49.72-5.56-2.68-10.29-7.06-13.38-12.39.62.36,1.07.62,1.07.62.6.35,1.41.29,1.95-.14.6-.47.82-1.37.49-2.06.56.09,1.13.05,1.66-.14.68-.24,1.32-.78,1.36-1.54.87.47,1.76.91,2.65,1.32,1.47.68,2.98,1.35,4.59,1.44.68.03,1.42-.05,1.95-.49-3.44-1.14-6.69-2.86-9.58-5.04,1.07-.35,1.89-1.32,2.1-2.41.03-.2.03-.46-.15-.55,0,0-.12-.07-.29-.16.37,0,.76-.07,1.11-.22.64-.27,1.17-.76,1.6-1.3,1.36.39,2.76.64,4.17.7,1.35.06,2.76-.07,3.92-.78.08-.05.17-.1.21-.18.09-.17,0-.39-.17-.5-.16-.11-.36-.13-.56-.15-2.96-.3-6.07-.74-8.38-2.59.74.21,1.57.47,2.35.26.27-.07.52-.2.76-.36.45-.29.85-.68,1.05-1.18.2-.5.16-1.11-.19-1.51-.97-1.12-3.54-.06-3.03-1.01,1.83.77,4-.29,4.73-2.04.17-.41.27-.84.27-1.27,0-.13-.02-.29-.16-.33,1.57-.27,3.25-.52,4.53-1.49.13-.1.26-.3.12-.4"/>
</svg>