<?xml version="1.0" encoding="UTF-8"?>
<svg id="Ebene_2" data-name="Ebene 2" xmlns="http://www.w3.org/2000/svg" version="1.1" viewBox="0 0 191.62 210">
  <defs>
    <style>
      .cls-1 {
        fill: #a4895b;
        stroke-width: 0px;
      }
    </style>
  </defs>
  <path class="cls-1" d="M49.88,205.38c-3.18,9.63-22.33,3.27-13.57-10.49,10.69-16.75,40.34-12.13,56.8-6.55,7.8,2.89,26.47,11.36,34.36,12.52,20.22,3.08,28.5-11.07,16.56-15.02,5.68-8.47,22.43,2.79,10.4,13.67-5.39,4.91-12.42,6.35-19.93,5.68-17.52-1.35-37.64-14.82-56.89-18.2-33.31-5.78-42.94,17.62-27.72,18.39"/>
  <path class="cls-1" d="M92.5,47.55s-.05-.02-.08-.02c-.39-.01-.77.04-1.16.04,0,0-.01,0-.02,0h-.03s0,0-.01,0c0,0-.02,0-.03.01,0,0-.02.01-.03.02-.01,0-.02.02-.03.03,0,0,0,.01-.01.02,0,.01,0,.02-.01.03,0,.01,0,.03,0,.04h0v.05c.09.3.13.61.22.9l-1.89,1.8c-.29-.1-.6-.16-.89-.27,0,0-.02,0-.03,0,0,0-.01,0-.02,0h0s-.04,0-.05.01c0,0-.01,0-.01,0-.01,0-.03.01-.04.03,0,0-.01,0-.02.01-.01.01-.02.03-.03.04,0,0,0,.01,0,.02,0,0,0,.01,0,.02v.02s0,.01,0,.02c-.02.4-.09.79-.09,1.19,0,.02,0,.04.01.06l-.43.41-.14.11c-.74-.99-1.43-2.03-2.12-3.06.59-.39,1.17-.79,1.72-1.22,0,0,0-.01.01-.02,0,0,0,0,.01-.01,0,0,.01-.02.02-.03.02-.04.02-.08,0-.13h0s0-.02,0-.02c-.26-.43-.63-.77-.99-1.11-.38-.36-.77-.71-1.14-1.08h0l-1.7-1.78,1.33-1.27,1.99,2.08c.25.29.5.58.75.88.32.37.65.76,1.07,1.04,0,0,.01,0,.02,0h0s.09.02.13,0c.01,0,.02-.01.03-.02,0,0,0,0,.01,0,0,0,.01,0,.02-.01.46-.54.89-1.1,1.3-1.67,1.01.74,2.01,1.48,2.98,2.28l-.57.55h0ZM112.12,10.04c.08.03.16.05.25.05.38,0,.68-.31.68-.69,0-.09-.02-.18-.05-.26.4.28.84.3,1.32.27.58-.04,1.09-.15,1.57-.4,0,.03,0,.06,0,.09,0,.27.11.52.28.7.19.2.45.32.75.32h0c-.17.28-.29.58-.35.89-.13.63-.21,1.42.1,1.98-.08-.04-.16-.06-.25-.06-.38-.02-.7.27-.72.65,0,.09,0,.17.04.25-.26-.2-.57-.33-.89-.37-.86-.1-1.65.27-2.28.84l-1.05-1.1c.43-.45.76-.99.89-1.61.11-.53,0-1.1-.28-1.54M113.81,7.94s.01,0,.02,0c-.01,0-.02,0-.02,0M107.91,13.09c-2.29-.21-3.12-3.05-2.72-4.97.46-2.24,2.14-3.92,4.3-4.59,1.69-.53,3.84-.65,5.44.22.04.03.09.05.14.07.36.21.68.47.97.79.33.37.52.72.46,1.18-.07.51-.33,1.02-.66,1.41-.35.4-.72.68-1.27.74h-.03c.15-.34,0-.7-.29-.92-.75-.56-1.83.15-1.86,1.01,0,.27.08.53.24.75-.08-.04-.17-.05-.27-.05-.38,0-.68.31-.68.69,0,.07.01.14.04.21-.22-.15-.48-.25-.79-.27-.97-.05-1.79,1.13-1.22,1.99.22.33.62.5.99.3.1-.05.18-.14.25-.23-.1.3-.33.6-.51.78-.64.67-1.6.99-2.53.91M117.21,9.4c-.08.08-.19.13-.31.13-.25,0-.44-.19-.45-.44,0-.12.04-.23.13-.31.08-.09.19-.13.31-.13.12,0,.23.04.31.13,0,0,0,0,0,0,.08.08.12.19.12.3h0c0,.12-.04.23-.13.31M120.7,4.23c0,.35.14.68.38.94,0,0,.02.02.03.03.22.21.49.34.79.38-.32.87-.52,1.79-.5,2.73,0,.04,0,.07,0,.11-.3-.14-.63-.23-.97-.24-.85-.03-1.78.3-2.52.84-.01-.25-.12-.49-.3-.66-.17-.17-.39-.27-.63-.29.35-.43.61-.92.79-1.43.23-.67.26-1.38,0-2.03.04,0,.07,0,.11.01.96.06,1.91-.1,2.82-.4M122.08,3.7c.14,0,.28.06.37.16.09.09.14.21.14.35,0,.14-.05.26-.15.36-.09.1-.22.15-.36.15s-.26-.05-.36-.15c-.09-.09-.15-.22-.15-.36,0-.28.22-.51.5-.51M122.37,15.88c-.55,2.18-2.03,4.11-4.24,4.76-1.01.3-2.09.34-3.11.03-1.03-.31-2.11-1.06-2.43-2.14-.29-.98-.04-2.13.64-2.88.26-.3.64-.61,1.05-.72-.09.06-.17.13-.22.22-.22.37-.07.77.25,1,.71.52,1.76.03,1.99-.77.12-.42.03-.83-.19-1.16.07.03.14.05.22.05.38.02.7-.27.72-.65,0-.09,0-.17-.04-.25.11.08.24.14.38.19.96.32,2.07-.84,1.45-1.75-.2-.3-.55-.47-.89-.34.07-.39.22-.71.5-1,.54-.54,1.62-1.11,2.31-.77.49.24.88.66,1.18,1.15.09.22.2.43.31.64.11.27.19.56.24.82.22,1.16.16,2.4-.13,3.54M93.82,48.7c.66-.73,1.44-1.45,1.81-2.38h0s.02-.06.01-.09c-.01-.45-.32-.75-.64-1.03-.45-.39-.9-.76-1.36-1.13-.96-.76-1.95-1.48-2.99-2.13-.22-.15-.5-.28-.78-.23-.35.06-.55.42-.76.68-.22.28-.43.59-.68.84-.09.09-.2.18-.34.18-.06,0-.12-.03-.17-.05l-1.98-2.08,3.33-3.18.36.37c.06.07.17.07.24,0l.42-.4c.07-.06.07-.17,0-.24l-.36-.37.54-.52.36.37c.06.07.17.07.24,0l1.02-.97c.07-.06.07-.17,0-.24l-.36-.37,16.92-16.15.36.38c.06.06.17.07.23,0l.83-.79c.06-.06.07-.17,0-.23l-.36-.38-.09-.09,1.47-1.77c-.3,1.36.06,2.78,1.01,3.83,1.14,1.25,2.89,1.86,4.56,1.8,1.61-.06,3.17-.64,4.42-1.67,1.28-1.06,2.17-2.58,2.61-4.17.45-1.62.55-3.5.05-5.11-.03-.09-.06-.19-.1-.28-.01-.06-.04-.12-.07-.17,0,0,0-.02-.01-.02-.1-.23-.21-.46-.35-.69-.01-.04-.03-.07-.04-.1,0,.02-.04-.1-.04-.11-.04-.12-.08-.24-.11-.36-.06-.23-.11-.46-.15-.7,0-.06-.01-.11-.02-.17,0-.02,0-.05,0-.07,0-.12-.01-.25-.02-.37,0-.24,0-.48.03-.71,0-.06.01-.12.02-.19,0-.01.01-.1.02-.12.02-.11.04-.21.06-.32.06-.25.12-.5.2-.74.04-.11.08-.22.12-.34.02-.06.05-.12.07-.18,0-.02.02-.05.03-.07,0,0,0-.01.01-.03.13-.29.13-.64-.08-.87.09-.18.13-.38.13-.59h0c0-.76-.63-1.38-1.39-1.38-.19,0-.37.04-.53.11-.23-.3-.58-.35-.93-.21-.02,0-.04.01-.04.02,0,0-.01,0-.03,0-.06.02-.12.04-.19.06-.12.04-.25.08-.37.12-.25.07-.5.12-.75.17-.11.02-.23.04-.34.05-.03,0-.07,0-.09,0-.05,0-.1,0-.16,0-.25.01-.5.01-.74,0-.11,0-.22-.02-.34-.03-.03,0-.09-.01-.1-.01-.05,0-.09-.01-.14-.02-.24-.05-.48-.11-.72-.19-.12-.04-.24-.08-.35-.13-.02,0-.09-.04-.11-.05-.04-.02-.08-.04-.12-.06-1.41-.98-3.37-1.12-5.02-.95-3.32.34-6.39,2.43-7.2,5.78-.37,1.53-.25,3.18.5,4.57.83,1.55,2.38,2.6,4.17,2.47.17-.01.35-.04.53-.07l-1.86,1.4-.09-.09-.36-.38c-.06-.06-.17-.07-.23,0l-.83.79c-.06.06-.07.17,0,.23l.36.38-16.92,16.15-.36-.37c-.06-.07-.17-.07-.24,0l-1.02.97c-.07.06-.07.17,0,.24l.36.37-.54.52-.36-.37c-.06-.07-.17-.07-.24,0l-.42.4c-.07.06-.07.17,0,.24l.36.37-3.33,3.18-1.19,1.14-1.33,1.27-1.19,1.14-2.07,1.98-.12-.13c-.06-.07-.17-.07-.24,0l-1.05.99c-.07.06-.07.17,0,.24l2.9,3.07c.06.07.17.07.24,0l1.05-.99c.07-.06.07-.17,0-.24l-.13-.14,2.08-1.99,2.02,2.12s.02.06.02.1c0,.13-.09.25-.18.33-.26.25-.59.44-.89.66-.26.19-.62.37-.71.71-.07.28.05.57.19.8.6,1.07,1.27,2.09,1.99,3.09.35.48.7.95,1.06,1.41.27.34.55.65,1,.69.03,0,.06,0,.08-.01h.01c.93-.32,1.67-1.05,2.42-1.66.82-.67,1.63-1.34,2.43-2.03.72-.76,1.43-1.53,2.13-2.31"/>
  <path class="cls-1" d="M137.98,62.31c1.57,2.93,5.11,4.73,8.23,5.66-.37.03-.76-.02-1.17-.09-.42-.09-.58.07-1.02-.04-3.67-1.09-11.48-6.81-7.92-11.08.37-.45.87-.67,1.36-.74,1.5-.24,3.19.94,2.74,2.55-2.33-1.4-3.74.91-2.21,3.75"/>
  <path class="cls-1" d="M28.02,174.25c-.03-7.55-.06-15.11-.09-22.66,0-1.69-.19-3.6,1.48-5.06-.06-.14-.12-.27-.19-.41-1.3.4-2.5.6-3.61.5-.74-.04-1.38-.2-2.21-.29-.83,1.77-4.14,4.34-5.42,5.67-.37.42-.73.83-.92.71,0-.47.09-.79.09-.88.18-.54.55-1.05,1.1-1.53-.03-.14-.06-.29-.09-.43-1.37.5-2.56.77-3.65.72-.64-.04-1.37-.12-2.18-.17-.82,1.82-4.08,4.57-5.34,5.96-.45.57-.99,1.18-.99.15,0-2.44,0-4.13.99-5.68-5.48,2.4-3.14,4.76-6.54,6.4-.09.2-.18.4-.27.59.53.22.89.43,1.07.81.18.39.27,1.19.27,2.5v21.75c0,1.87-.09,2.29-.27,2.94-.18.55-.63,1.23-1.25,1.99v.47c2.4-1.13,5,1.36,6.72.44.45-.19.9-.76,1.17-1.53-1.89.81-1.89-3.22-1.89-4.72v-20.81c0-1.12,0-1.87.81-2.88,1.44-1.95,5.51-5.39,5.52-4.17,0,5.16.09,17.68.09,24.25-.09,1.35-.18,1.76-.36,2.3-.18.54-.63,1.19-1.27,1.92v.47c2.36-.96,4,1.87,5.64,1.25-1-1.4,1.37-3.99,2.01-4.22v-.47c-.64-.23-1.1-.53-1.28-.93s-.27-.74-.27-2.05c-.09-5.78,0-17.62,0-20.91.09-.6.27-1.13.82-1.81,1.46-1.87,5.69-5.13,5.7-3.9v23.63c0,1.87-.09,2.28-.28,2.91-.27.56-.64,1.16-1.29,1.85v.47c2.48-.87,5.17,1.92,6.84,1.21.56-.17,1.02-.69,1.3-1.43-1.95.6-1.95-3.42-1.95-4.92"/>
  <path class="cls-1" d="M45.31,153.78c0,2.13-6.68,6.68-6.67,5.49v-11.44c0-1.22.09-2.09.28-2.7.56-1.46,1.41-2.43,3.1-2.85,1.69-.42,2.44.16,3.01,1.34.19.52.28,1.34.28,2.56v7.59h0ZM50.31,142.47c.19-.41.47-.94,1.04-1.53-.06-.14-.13-.29-.19-.43-1.42.29-2.65.27-3.68.12-1.51-.14-3.3-.66-5.46-1.54-2.26,1.96-4.03,3.37-5.44,4.22-1.12.68-2.34,1.3-3.73,1.71l-.19.52c.56.3.93.67,1.02,1.02.28.48.37,1.3.37,2.52v22.22c0,1.22-.09,2.09-.37,2.64-.09.5-.47.98-1.02,1.61.06.14.12.28.19.41,1.4-.31,2.61-.47,3.73-.4,1.4.18,3.18.65,5.44,1.4,2.16-1.85,3.95-3.19,5.46-4.09,1.04-.6,2.27-1.05,3.68-1.43.06-.17.13-.34.19-.51-.57-.35-.85-.67-1.04-1.1-.66-1.46-.85-11.64,1.04-12.49-12.27,2.67-2.18,14.31-9.34,16.53-1.69.42-2.53-.2-3.1-1.37-.28-.58-.28-1.71-.28-2.46v-5.91c-.01-2.69,10.14-8.61,12.52-9,.06-.17.13-.34.19-.51-.57-.45-.85-.76-1.04-1.1-.28-.69-.28-3.97-.28-4.72v-3.66c0-1.22.09-2.08.28-2.68"/>
  <path class="cls-1" d="M71.82,165.08v-22.78c0-.75-.09-1.49,0-2.25.19-.96.48-1.83,1.43-2.4-.03-.15-.06-.31-.09-.46-.19.02-2.87.19-6.12-2.86-.29.57-6.68,6.65-6.67,4.52,0-1.5,0-2.44,1.05-3.73-5.8.94-3.33,4.01-7.03,4.67-.06.17-.13.34-.19.5.57.45.95.76,1.14,1.1.19.53.28,1.36.28,2.57v21.84c0,1.78-.09,2.27-.28,2.77-.28.52-.66,1.06-1.33,1.65v.47c2.56-.49,5.32,2.71,7.03,2.35.57-.09.95-.62,1.33-1.24-2,.3-2.1-3.71-2.1-5.21v-22.59c0-1.12,0-1.87.95-2.78,1.24-1.23,5.05-3.27,5.62-2.96.19-.02.19.16.19.26v25.5c0,1.78-.09,2.26-.29,2.75-.19.49-.67,1.02-1.34,1.59v.47c2.58-.35,5.35,2.98,7.17,2.7.48-.05.96-.57,1.34-1.17-2.11.21-2.11-3.81-2.11-5.31"/>
  <path class="cls-1" d="M89.28,162.58c0,1.22-.19,2.16-.38,2.64-.48,1.33-1.34,2.2-3.07,2.27-1.73.08-2.59-.71-3.07-2-.19-.46-.29-1.39-.29-2.61v-11.06c0-1.22.09-2.07.29-2.64.48-1.25,1.34-2.14,3.07-2.22,1.73-.08,2.59.74,3.07,1.95.29.74.38,1.86.38,2.61v11.06h0ZM91.28,123.02c0,.61-.05,1.03-.14,1.31-.28.61-.71,1.04-1.51,1.06-.85.02-1.27-.39-1.55-.99-.09-.28-.14-.7-.14-1.31v-11.06c0-.66.05-1.08.14-1.32.28-.66.71-1.1,1.55-1.12.8-.02,1.22.4,1.51,1.05.09.23.14.66.14,1.31v11.06h0ZM94.27,137.74c.19-.37.58-.85,1.15-1.32-.06-.16-.13-.31-.19-.47-1.44,0-2.69-.26-3.84-.61-1.42-.53-3.23-1.31-5.49-2.59.49-.69,1.16-.87,2.84-.91,1.58-.04,3.17-.06,4.75-.07.71,0,.94-.85,1.13-1.41.42-1.5.71-3.23.19-4.59-.09-.23-.28-.52-.52-.8-.66-.89-.66-.61-.66-1.97v-10.64c0-1.17.94-1.5,1.46-1.18-.42-.8-.75-1.31-1.22-1.45-.47-.14-.66,0-1.51-.32-.75-.27-1.64-.73-2.73-1.36-1.13.68-2.02,1.18-2.73,1.48-.56.21-1.18.32-1.88.4-.03.08-.06.16-.09.24.28.22.47.4.52.63.09.23.19.65.19,1.31v11.06c0,.61-.09,1.03-.19,1.32-.05.19-.24.38-.52.68.03.08.06.15.09.23.71-.03,1.32.04,1.88.26.71.21,1.6.65,2.73,1.28.52-.34,1.03-.63,1.51-.87,1.08-.58,2.07.77,2.59,1.76.24.47.33.98.33,1.59-1.27,0-2.54.02-3.81.04-1.51.03-2.4.24-3.53,1.36-.59.57-1.07,1.29-1.02,1.97-2.16,1.46-4.03,2.4-5.45,3.05-1.15.45-2.4.83-3.74.95-.09.17-.19.33-.29.49.58.42.96.86,1.15,1.22.58,1.36.77,4.53-1.05,5.15,3.83,2.4,4.6-1.3,7.67-1.47v-.47c-.77-.43-1.15-.97-1.44-1.42-.19-.55-.1-1.59.19-2.17.48-1.34,1.34-2.24,3.07-2.31,1.73-.08,2.59.74,3.07,2.04.29.65.38,1.86.38,2.61v5.16c-1.06-.53-2.21-1.05-3.46-1.75-2.21,1.41-4.13,2.47-5.57,3.04-1.15.55-2.4.83-3.74.95-.09.17-.19.33-.29.49.58.42.96.86,1.15,1.22.29.73.29,1.85.29,2.6v11.06c0,1.22-.09,2.16-.29,2.65-.19.39-.58.89-1.15,1.41.09.15.19.3.29.44,1.34-.12,2.59.07,3.74.37,1.44.46,3.36,1.19,5.57,2.49,2.31-1.51,4.13-2.4,5.57-2.99,1.15-.4,2.4-.69,3.84-.7.06-.16.13-.31.19-.47-.58-.47-.96-.93-1.15-1.31-.19-.47-.29-1.41-.29-2.62v-22.13c0-1.22.09-2.16.29-2.63"/>
  <path class="cls-1" d="M110.98,163.09c0,1.22-.09,2.05-.29,2.6-.58,1.18-1.44,1.97-3.07,1.88-1.73-.09-2.59-.97-3.17-2.21-.19-.57-.29-1.42-.29-2.64v-22.13c0-1.31.09-2.15.29-2.61.58-1.29,1.44-2.1,3.17-2.01,1.63.09,2.49.99,3.07,2.34.19.48.29,1.33.29,2.65v22.13h0ZM118.74,140.12c-.86-1.68-1.53-2.78-2.49-3.15-.96-.37-1.34-.12-3.07-.92-1.54-.68-3.36-1.74-5.57-3.17-2.3,1.19-4.13,2.07-5.57,2.59-1.15.34-2.4.5-3.84.58-.06.16-.13.31-.19.47.58.48.96.86,1.06,1.33.19.47.38,1.32.38,2.63v22.13c0,1.22-.19,2.06-.38,2.62-.09.37-.48.74-1.06,1.3.06.16.13.31.19.47,1.44.01,2.69.23,3.84.73,1.44.51,3.27,1.51,5.57,2.94,1.05-.6,2.11-1.1,3.07-1.51,2.21-.98,4.22,1.91,5.27,3.97.48.98.67,2.03.67,3.25-2.59-.24-5.18-.44-7.77-.59-3.07-.17-4.9.14-7.2,2.23-1.34,1.18-2.4,2.76-2.02,4.27,1.06-1.76,2.31-2.13,6.15-1.97,3.23.14,6.46.36,9.69.64,1.44.13,1.92-1.51,2.3-2.6.86-2.91,1.43-6.32.38-9.15-.19-.49-.58-1.09-1.05-1.69-1.34-1.91-1.34-1.34-1.34-4.06v-21.28c0-2.34,1.92-2.83,2.97-2.06"/>
  <path class="cls-1" d="M134.29,151.36c0,2.13-6.76,3.97-6.76,2.78v-11.44c0-1.22.09-2.05.29-2.58.57-1.23,1.43-1.86,3.14-1.59,1.71.27,2.47,1.15,3.04,2.57.19.59.28,1.46.28,2.67v7.59ZM139.32,142.07c.19-.34.47-.75,1.04-1.1-.06-.17-.13-.34-.19-.51-1.42-.29-2.65-.8-3.7-1.37-1.52-.75-3.32-2-5.51-3.76-2.29,1.05-4.1,1.73-5.53,2.01-1.15.22-2.39.35-3.82.18-.06.15-.13.3-.19.45.57.53.96,1.05,1.05,1.43.29.6.38,1.45.38,2.67v22.22c0,1.22-.09,2.05-.38,2.49-.09.46-.48.79-1.05,1.19.06.16.13.33.19.49,1.43.26,2.67.6,3.82,1.13,1.43.75,3.24,1.94,5.53,3.62,2.19-.97,3.99-1.59,5.51-1.87,1.04-.18,2.28-.14,3.7.06.06-.14.13-.29.19-.43-.57-.58-.85-1.02-1.04-1.52-.66-1.72-.85-11.98,1.04-12.07-12.33-2.3-2.18,13.43-9.4,12.75-1.71-.27-2.57-1.23-3.14-2.63-.29-.7-.29-1.82-.29-2.57v-5.91c0-2.69,10.28-4.48,12.64-3.93.06-.14.13-.29.19-.43-.57-.68-.85-1.11-1.04-1.52-.28-.81-.28-4.09-.28-4.84v-3.66c0-1.22.09-2.04.28-2.57"/>
  <path class="cls-1" d="M160.82,152.58c-.46-1.08-.56-4.29-.09-5.37.19-.41.56-.68,1.12-.79-.03-.17-.06-.33-.09-.5-.19-.06-2.88-.79-5.96-5.21-.84,1.26-4.12,1.8-5.43,2.32-.56.23-1.13.47-1.13-.56,0-2.44,0-2.34,1.03-3.21-5.74-1.38-3.29,2.58-6.87,1.87-.09.14-.19.27-.28.41.57.59.94,1.05,1.13,1.56.19.51.28,1.38.28,2.69v21.75c0,1.87-.09,2.23-.28,2.75-.19.43-.66.79-1.32,1.12v.47c2.55.54,5.28,4.84,7.07,5.1.47.12.94-.14,1.31-.7-2.06-.52-2.07-4.54-2.07-6.05v-22.59c0-1.12,0-1.87.84-2.32,1.51-.95,5.72-1.61,5.71-.37,0,.28.09,2.75.09,3.59v1.41c0,1.5,0,5.52-2.06,4.97.37.76.75,1.23,1.31,1.38,1.68.64,4.39-2.24,6.99-1.44v-.47c-.74-.7-1.11-1.28-1.3-1.8"/>
  <path class="cls-1" d="M169.97,176.37v-25.97c0-2.44.09-4.1,1.1-4.86-5.61-1.95-3.31,2.23-6.82,1.17-.06.14-.12.27-.19.41.56.65.83,1.11,1.02,1.64.19.53.28,1.87.28,2.72v21.75c0,1.87-.09,2.22-.28,2.72-.19.41-.65.73-1.3.99v.47c2.5.79,5.18,5.36,6.92,5.79.46.16.92-.05,1.28-.57-2.02-.72-2.02-4.74-2.02-6.25"/>
  <path class="cls-1" d="M179.48,156.58c0-1.22.09-2.03.27-2.52.54-1.09,1.36-1.51,2.99-.84,1.63.68,2.34,1.75,2.88,3.29.18.64.27,1.52.27,2.74v7.59c0,2.13-6.41,2.35-6.42,1.16v-11.44h0ZM191.44,172c.06-.13.12-.26.18-.38-.53-.81-.8-1.31-.98-1.77-.27-.87-.27-4.15-.27-4.91v-3.66c0-1.22.09-2.02.27-2.5.18-.29.45-.64.98-.85-.06-.18-.12-.37-.18-.55-1.34-.63-2.5-1.44-3.48-2.26-1.43-1.11-3.14-2.8-5.22-5.08-2.17.5-3.89.75-5.26.68-1.09-.05-2.28-.22-3.65-.73-.06.13-.12.27-.18.4.55.67.92,1.28,1.01,1.69.27.66.37,1.54.37,2.76v22.22c0,1.22-.09,2.03-.37,2.39-.09.43-.46.67-1.01.94.06.18.12.36.18.54,1.37.6,2.56,1.24,3.65,2.04,1.36,1.1,3.09,2.72,5.26,4.94,2.08-.44,3.79-.63,5.22-.55.99.07,2.15.41,3.48.94.06-.13.12-.26.18-.38-.53-.72-.8-1.22-.98-1.77-.63-1.88-.8-12.19.98-11.82-11.64-5.26-2.05,12.91-8.88,10.49-1.63-.68-2.44-1.85-2.99-3.38-.27-.76-.27-1.89-.27-2.64v-5.91c.02-2.69,9.76-2.02,11.97-.89"/>
  <path class="cls-1" d="M77.32,118.06c0-.61.05-1.03.14-1.32.23-.63.66-1.08,1.5-1.14.84-.06,1.27.34,1.5.94.14.37.19.93.19,1.3v5.53c0,.61-.09,1.08-.19,1.32-.24.67-.66,1.12-1.5,1.17s-1.27-.33-1.5-.97c-.09-.23-.14-.69-.14-1.3v-5.53h0ZM78.97,127.41c1.12-.78,2.02-1.25,2.72-1.57.56-.22,1.18-.39,1.88-.43.03-.08.06-.16.09-.24-.28-.22-.47-.45-.56-.63-.09-.23-.14-.7-.14-1.31v-11.06c0-.61.05-1.08.14-1.32.09-.19.28-.44.56-.68-.03-.08-.06-.15-.09-.23-.71.03-1.31-.07-1.88-.23-.71-.24-1.6-.61-2.72-1.24-1.08.78-2.02,1.27-2.72,1.6-.56.23-1.17.42-1.83.48-.05.08-.09.17-.14.25.28.21.47.43.56.61.28.68.37,2.26-.52,2.57,1.87,1.2,2.25-.66,3.75-.76v-.23c-.37-.21-.56-.48-.7-.7-.09-.27-.05-.79.09-1.09.23-.67.66-1.12,1.5-1.18.84-.06,1.27.34,1.5.98.14.32.19.93.19,1.3v2.58c-.52-.25-1.08-.5-1.69-.83-1.08.73-2.02,1.27-2.72,1.56-.56.28-1.17.42-1.83.48-.05.08-.09.17-.14.25.28.21.47.43.56.61.14.36.14.93.14,1.3v5.53c0,.61-.05,1.08-.14,1.33-.09.19-.28.45-.56.71.05.07.09.15.14.22.66-.06,1.27.04,1.83.18.7.23,1.64.58,2.72,1.21"/>
  <path class="cls-1" d="M100.54,126.44c-1.03-.02-1.03-2.04-1.03-2.79v-12.99c0-1.22.05-2.06.56-2.61-2.87-.05-1.69,1.66-3.48,1.68-.03.08-.06.16-.09.23.28.24.42.43.52.66s.14.89.14,1.31v10.88c0,.94-.05,1.12-.14,1.41-.09.23-.33.47-.66.7v.23c1.27,0,2.63,1.86,3.53,1.79.24,0,.47-.18.66-.5"/>
  <path class="cls-1" d="M101.81,124.41c-.05.19-.24.37-.52.64.03.08.06.16.09.24.71.02,1.32.13,1.88.39.71.26,1.6.76,2.73,1.47,1.08-.61,1.97-1.02,2.73-1.21.52-.2,1.13-.26,1.83-.21.03-.08.06-.15.09-.23-.28-.3-.42-.5-.52-.69-.33-.87-.42-5.93.52-6.15-5.92-.36-1.03,7.15-4.65,6.95-.84-.04-1.27-.48-1.55-1.1-.14-.38-.14-.94-.14-1.32v-11.11c0-.37,0-.94.14-1.31.28-.6.71-1,1.55-.96.85.04,1.22.48,1.5,1.11.19.53.19,3.43.05,3.75-.09.23-.33.45-.66.67v.23c1.46.08,1.88,1.98,3.76.74-.94-.34-.84-4.41-.52-5.24.09-.18.24-.36.52-.62-.03-.08-.06-.16-.09-.24-.7-.05-1.31-.18-1.83-.4-.75-.32-1.64-.84-2.73-1.55-1.13.6-2.02,1.04-2.73,1.29-.56.17-1.18.24-1.88.22-.03.08-.06.15-.09.23.28.29.47.48.52.67.09.28.19.71.19,1.32v11.11c0,.61-.09,1.03-.19,1.31"/>
  <path class="cls-1" d="M118.28,124.12c0,.61-.09,1.07-.19,1.29-.23.63-.66,1.01-1.5.94-.84-.08-1.27-.53-1.5-1.21-.09-.24-.14-.71-.14-1.33v-5.53c0-.61.05-1.03.14-1.3.23-.59.66-.97,1.5-.9.84.08,1.27.54,1.5,1.18.14.39.19.96.19,1.33v5.53h0ZM120.72,112c.09-.18.28-.39.56-.59-.03-.08-.06-.16-.09-.25-.7-.08-1.31-.28-1.87-.53-.7-.35-1.59-.87-2.72-1.67-1.08.6-2.02.95-2.72,1.17-.56.14-1.17.23-1.83.19-.05.07-.09.15-.14.22.28.25.47.5.56.7.28.72.37,2.32-.52,2.49,1.88,1.5,2.25-.3,3.75-.17v-.23c-.37-.27-.56-.56-.7-.81-.09-.29-.05-.8.09-1.07.23-.63.66-1.02,1.5-.94.84.08,1.27.54,1.5,1.22.14.34.19.96.19,1.33v2.58c-.51-.33-1.08-.67-1.69-1.1-1.08.56-2.02.95-2.72,1.12-.56.19-1.17.23-1.83.19-.05.07-.09.15-.14.22.28.25.47.5.56.7.14.39.14.95.14,1.32v5.53c0,.61-.05,1.07-.14,1.3-.09.18-.28.4-.56.61.05.08.09.16.14.25.66.05,1.27.24,1.83.47.7.34,1.64.84,2.72,1.64,1.12-.6,2.01-.93,2.72-1.14.56-.13,1.17-.2,1.87-.12.03-.07.06-.15.09-.22-.28-.27-.47-.52-.56-.72-.09-.25-.14-.72-.14-1.33v-11.06c0-.61.05-1.07.14-1.3"/>
  <path class="cls-1" d="M123.1,126.01c-.09.18-.23.35-.51.59.03.08.06.16.09.25.7.08,1.31.25,1.82.55.75.33,1.64.92,2.71,1.72,1.12-.5,2.01-.84,2.71-.97.56-.15,1.17-.15,1.86-.04.03-.07.06-.15.09-.22-.28-.32-.47-.54-.51-.74-.33-.89-.42-5.97.51-6.11-5.92-.9-1.44,6.99-4.66,6.53-.84-.12-1.21-.58-1.49-1.23-.14-.39-.14-.96-.14-1.33v-12.38c0-1.22,0-2.06.51-2.56-2.85-.37-1.64,1.48-3.41,1.31-.03.07-.06.15-.09.22.66.64.66,1.11.66,2v11.11c0,.61-.05,1.02-.14,1.3"/>
  <path class="cls-1" d="M60.6,110.5c-2.03.53-1.16,1.82-2.78,2.12-.05.09-.09.17-.14.26.28.19.47.35.56.57s.14.63.14,1.29v10.88c0,.94-.05,1.13-.14,1.43-.09.25-.32.52-.65.81v.23c1.26-.2,2.61,1.43,3.5,1.21.23-.03.47-.25.61-.6-.98.14-.98-1.87-.98-2.62v-10.41c0-.56,0-.94.42-1.33.75-.77,2.85-1.94,2.85-1.33,0,2.58.05,8.85.05,12.13-.05.66-.09.86-.19,1.1-.09.25-.33.51-.65.79v.23c1.21-.16,2.05,1.47,2.9,1.36-.51-.83.7-1.82,1.03-1.86v-.23c-.33-.19-.56-.4-.66-.63s-.14-.4-.14-1.06c-.05-2.9,0-8.81,0-10.45.05-.29.14-.53.42-.8.75-.75,2.9-1.87,2.9-1.26v11.81c0,.94-.05,1.13-.14,1.42-.14.25-.33.5-.66.77v.23c1.26-.14,2.62,1.55,3.47,1.38.28-.03.52-.24.66-.58-.98.09-.98-1.92-.98-2.67-.01-3.78-.03-7.56-.05-11.34,0-.84-.09-1.82.75-2.37-.03-.07-.06-.15-.09-.22-.66.06-1.27.03-1.83-.15-.37-.1-.7-.26-1.12-.4-.42.79-2.11,1.68-2.76,2.18-.19.16-.37.32-.47.24,0-.23.05-.38.05-.43.09-.25.28-.45.56-.63-.01-.08-.03-.15-.05-.23-.7.08-1.31.06-1.87-.1-.33-.1-.7-.24-1.12-.37-.42.8-2.1,1.73-2.75,2.25-.23.22-.51.45-.51-.07,0-1.22,0-2.06.51-2.7h-.01s.01,0,.01,0c-6.07-1.51-5.85-12.02-5.92-18-.07-3.29-.07-6.17-.07-8.92-.07-8.42,0-15.26,0-25.24v-2.18c-.07-3.71-.28-9.86,1.07-12.42.43-.85.79-.56,1.14-.48.57.04,1-.59.71-1.03-.07-.2-.21-.32-.5-.34-3.35-.32-4.35,10.16-9.88,11.33.85.03,1.35.41,1.63,1.06-1.77.09-3.89,2.68-2.62,4.51,2.12-1.31,2.34.55,1.56,4.02-.99,4.29-3.54,10.97-6.08,17.15-.7-3.2-2.11-6.22-4.01-8.95-.84-1.81-1.26-3.88-.07-6.24-1.33.78-2.31,1.62-2.8,2.46-4.75-5.23-11.46-13.03-21.4-8.19-4.69,2.32-8.31,8.51-8.31,13.21,0,4.54,5.72,1.82,5.19-1.37-.27-1.64-1.62-1.07-2.63-1.39-1.75-.7,2.48-7.88,6.43-9.32,2.72-.96,5.26,1.13,5.4,10.36v1.12c-.89.05-2.06.35-3.22,1.01,2.73.7,3.29,3.68,3.29,6.77v8.86c-.21,1.13-.55,3.09-1.17,3.74-.34.34.62.4,1.1,1-.07,4.53-.14,7.29-.21,12.03-.12,7.35.71,23.63-8.93,27.66-2.84,1.27-5.32.37-5.32-3.07-.07-1.51.67-3.19,2.22-4.87.88-.88,1.82-1.43,2.77-1.49.2-.01.47,0,.74.04.27.1.61.17.95.24.27-1.1.27-2.01-.07-2.71-.34-.7-.88-.97-1.63-.93-1.22.1-2.5.87-3.84,2.39-1.34,1.59-2.28,3.29-2.81,5.23-.33,1.14-.4,2.16-.4,3.07.2,3.91,3.2,4.81,6.65,3.62,5.89-2.08,8.37-6.74,10.01-11.79.34-1.11.96-.63,1.93-4.71,1.24-5.14,2.06-10.74,6.15-12.43-2.84.15-2.56-4.77-2.56-7.03,0-8.93,0-17.93-.07-26.91,0-8.9-.64-11.45,5.83-4.61,4.95,5.26,6.93,11.32,6.99,16.35.07,2.02-.42,5.6-1.82,8.23-2.45,4.39-6.29,3.8-7.4,1-3.81,5.46,1.44,10.36,6.77,7.12-.84,3.33,2.73,4.84,6.25,3.06-4.59-3.4,6.98-27.99,7.56-37.37,0,6.61-.14,7.27-.14,14.51-.14,1.01-.5,3.13-1.2,3.7-.35.29.78.47,1.2,1.36,0,2.46.14,4.89,0,7.38-.14,3.76-.71,7.38-2.62,8.09.57.44,1.77.32,2.34.06-.14,1.23,1.35,1.96,2.91.75.89,3.29,2.9,10.48,8.28,9.63"/>
  <path class="cls-1" d="M64.92,72.11c0-1.22.09-2.08.29-2.66.57-1.39,1.43-2.25,3.15-2.45,1.72-.2,2.49.48,3.06,1.73.19.54.29,1.38.29,2.6v7.59c0,2.12-6.79,5.81-6.79,4.63v-11.44h0ZM59.87,97.6c-.09.48-.48.92-1.05,1.48.06.14.13.29.19.44,1.43-.14,2.67-.14,3.81.08,1.43.36,3.24,1.05,5.54,2.1,2.2-1.56,4.02-2.68,5.55-3.38,1.05-.47,2.3-.76,3.74-.95.06-.16.13-.32.19-.48-.58-.43-.86-.78-1.05-1.24-.67-1.54-.86-11.75,1.05-12.36-12.46,1.07-2.21,14.02-9.48,15.31-1.72.2-2.58-.53-3.15-1.77-.29-.62-.29-1.74-.29-2.49v-5.91c0-2.7,10.32-7.3,12.73-7.38.06-.16.13-.32.19-.48-.58-.52-.86-.88-1.05-1.24-.29-.73-.29-4.01-.29-4.76v-3.66c0-1.22.09-2.07.29-2.65.19-.39.48-.88,1.05-1.39-.06-.15-.13-.3-.19-.45-1.44.1-2.68-.08-3.74-.36-1.53-.33-3.35-1.09-5.55-2.25-2.29,1.67-4.11,2.86-5.54,3.53-1.14.54-2.38,1.01-3.81,1.24-.06.17-.13.33-.19.5.57.37.95.79,1.05,1.15.29.52.38,1.35.38,2.57v22.22c0,1.22-.09,2.08-.38,2.59"/>
  <path class="cls-1" d="M93.49,92.35c0,1.22-.19,2.16-.38,2.62-.48,1.31-1.35,2.15-3.07,2.17-1.73.02-2.6-.8-3.07-2.1-.19-.46-.29-1.4-.29-2.62v-11.06c0-1.22.1-2.06.29-2.63.48-1.23,1.34-2.1,3.07-2.12,1.73-.02,2.6.83,3.07,2.05.29.75.38,1.88.38,2.63v11.06ZM99.45,96.87c.06-.15.13-.31.19-.46-.58-.49-.96-.97-1.15-1.35-.19-.48-.29-1.41-.29-2.63v-22.13c0-1.22.1-2.15.29-2.62.19-.37.58-.83,1.15-1.28-.06-.16-.13-.32-.19-.48-1.44-.05-2.69-.36-3.84-.75-1.44-.58-3.27-1.44-5.57-2.83-2.21,1.43-4.13,2.33-5.57,2.95-1.15.42-2.4.76-3.74.83-.09.16-.19.32-.29.48.58.44.96.89,1.15,1.25.58,1.38.77,4.55-1.06,5.12,3.84,2.52,4.61-1.15,7.68-1.23v-.47c-.77-.45-1.15-1.01-1.44-1.47-.19-.56-.1-1.59.19-2.16.48-1.32,1.34-2.19,3.07-2.21,1.73-.02,2.6.83,3.07,2.15.29.66.38,1.88.38,2.63v5.16c-1.06-.57-2.21-1.13-3.46-1.87-2.21,1.33-4.13,2.33-5.57,2.85-1.15.51-2.4.76-3.74.83-.09.16-.19.32-.29.48.58.44.96.89,1.15,1.25.29.74.29,1.86.29,2.61v11.06c0,1.22-.1,2.16-.29,2.64-.19.38-.58.87-1.15,1.38.09.15.19.3.29.45,1.34-.07,2.59.15,3.74.48,1.44.51,3.36,1.3,5.57,2.68,2.31-1.43,4.13-2.26,5.57-2.8,1.15-.36,2.4-.61,3.84-.56"/>
  <path class="cls-1" d="M121.38,64.85c-.09-.17-.19-.34-.29-.51-3.63-.57-1.14-3.66-6.97-4.32,1.05,1.24,1.05,2.93,1.05,5.36v28.41c0,2.34-1.15,4.46-3.35,4.25-1.72-.16-2.59-1.07-3.07-2.33-.29-.77-.38-1.9-.38-2.65v-24.75c0-2.44.1-4.12,1.15-5.16-5.85-.44-3.36,3.12-7,3.01-.09.15-.19.3-.29.45,1.44,1.2,1.44,2.14,1.44,3.92v22.22c0,1.22-.09,2.06-.29,2.61-.19.37-.58.72-1.15,1.25.06.16.13.32.19.48,1.44.07,2.69.33,3.84.88,1.44.56,3.36,1.65,5.56,3.17,2.3-1.95,5.93-5.48,9.27-5.01.09-.14.19-.29.29-.43-.57-.55-.95-1.07-1.15-1.47-.19-.49-.29-1.44-.29-2.66v-22.97c0-1.78,0-2.72,1.43-3.74"/>
  <path class="cls-1" d="M136.76,82.71c0,2.12-6.71,3.68-6.72,2.49v-11.44c0-1.22.09-2.05.28-2.57.57-1.2,1.42-1.8,3.13-1.46,1.7.35,2.46,1.26,3.03,2.7.19.6.28,1.47.28,2.69v7.59h0ZM141.75,73.64c.19-.33.47-.73,1.03-1.06-.06-.17-.12-.34-.19-.52-1.41-.35-2.63-.92-3.67-1.53-1.51-.81-3.3-2.15-5.48-3.99-2.27.95-4.07,1.56-5.5,1.78-1.14.18-2.38.25-3.81.03-.06.15-.13.29-.19.44.57.56.95,1.09,1.05,1.48.29.61.38,1.47.38,2.69v22.22c0,1.22-.09,2.05-.38,2.47-.09.45-.48.77-1.05,1.15.06.17.13.33.19.5,1.43.31,2.67.71,3.81,1.28,1.43.81,3.23,2.08,5.5,3.84,2.18-.87,3.97-1.41,5.48-1.63,1.04-.14,2.26-.04,3.67.22.06-.14.12-.28.19-.42-.56-.61-.84-1.05-1.03-1.57-.66-1.75-.85-12.02,1.03-12.03-12.24-2.85-2.16,13.33-9.33,12.33-1.7-.34-2.56-1.34-3.13-2.76-.28-.71-.28-1.83-.28-2.58v-5.91c.01-2.7,10.22-4.05,12.56-3.38.06-.14.12-.28.19-.42-.56-.7-.84-1.15-1.03-1.57-.28-.82-.28-4.1-.28-4.85v-3.66c0-1.22.09-2.04.28-2.56"/>
  <path class="cls-1" d="M164.63,119.46c5.63,1.51,10.97,1.29,13.71-1.95,1.95-2.28,2.68-6.07,2.01-11.1-1-7.08-5.76-15.47-10.87-22.34-.81-1.18,2.52-.32,1.5-1.15-3.94-3.16-7.86-6.9-9.45-9.14-1.93-2.65-3.45-5.19-4.28-7.64-1.53-4.48.37-9.03,6.97-6.79,13.18,4.92,10.08,20,4.04,16.86-.68-.34-1.23-.97-1.43-2.03-.27-1.3.21-2.45-1.03-3.63-2.54-2.35-4.4,2.47-1.03,5.17,6.78,5.59,9.14-.47,13.71.24,1.34.26,2.88.77,2.48.37-4.75-3.96-4.02-8.23-6.25-12.24-2.69-4.78-9.44-7.98-14.35-8.44-1.31-.1-2.28,0-3.25.24-3.32.52-7.09-.24-9.97-2.78,1.33,1.7,2.8,3.17,4.27,4.24-.14.17-.21.43-.21.71,0,.63.42,1.32.98,1.63-.21.43-.42.93-.56,1.38-1.19,3.66-.07,7.35,2.16,11.2.7,1.13.7,2.82-.56,3.48-.97.53,4.59,2.28,5.48,3.45,2.21,2.78,4.56,5.52,6.68,8.28,2.19,2.79,3.97,5.53,5.39,8.01,1.63,2.98,2.78,5.65,3.39,8.09.14.41.2.86.34,1.34,2.02,9.82-1.61,13.38-6.45,13.24-4.97-.26-14.06-5.94-12.96-13.36.21-1.13-2.16.52-2.44-.97-.35-2-.35-4.04-.14-5.95.57-4.37,7.09-8.59,8.18-3.6.28,1.29-.21,2.46,1.03,3.6,2.55,2.24,4.33-2.5,1.03-5.19-3.44-2.78-6.08-2.58-8.16-1.13,1.53-2.54,3.82-4.2,6.72-4.03-2.41-.78-4.77-.99-6.93-.61-.56.11-1.04.24-1.6.35-.42.22-.91.36-1.33.66-.42.16-.84.46-1.19.71-.77-.99-1.82-2.21-2.94-2.87,1.05,2.12.77,4.08.21,5.68-.28.7-.63,1.31-.91,2-2.04,5.17-.83,12.18,4.06,17.66,3.49,3.96,8.85,6.86,13.92,8.33"/>
  <path class="cls-1" d="M90.86,17.8c-.06.38-.19.73-.38,1.05.02-.17.02-.35-.01-.53-.15-.77-1.25-1.02-1.32-1.77-.04-.4.29-.74.75-.7.35.04.6.3.75.57.23.42.29.92.22,1.37M88.56,13.78c-.62-.37-1.3-.53-2.01-.61-.73-.07-1.46-.02-2.19-.04,1.58-.59,3.46-.35,4.62.94-.13-.1-.27-.2-.42-.29M84.21,21.39c-1.19-.19-2.3-.71-3.22-1.47-.12-.12-.23-.25-.33-.38-.09-.11-.17-.23-.25-.34.48.32,1.03.56,1.62.67,1.17.22,2.42-.1,3.35-.82.38.32.79.62,1.21.88.55.34,1.17.66,1.81.79-1.29.64-2.76.9-4.2.67M79.47,15.98c-.05-.47-.07-.94-.06-1.41.32.17.68.28,1.02.29,1.2.04,2.21-.81,3.19-1.39.06-.04.12-.06.18-.09,0,0,0,.02,0,.03-.12,1.72-.37,3.46.8,4.86-.66.47-1.51.68-2.31.53-1.41-.27-2.54-1.42-2.8-2.81M80.21,1.94c0,1.48-.23,2.92-.54,4.35-.03,0-.06,0-.09,0,.06-1.67-.17-3.37-.95-4.82.53.14,1.05.3,1.57.46M86.61,11.2c.91.32,1.71.74,2.35,1.41-.18-.13-.37-.25-.57-.34-.95-.47-2.06-.66-3.11-.52-1.24.16-2.21.8-3.26,1.43-.48.29-1.04.63-1.62.58-.37-.03-.83-.29-.84-.69.16-.92.46-1.79.81-2.63,2.11-.19,4.25.06,6.25.76M82.8,4.07c1.58.85,3.07,1.86,4.46,3.01.08.06.16.13.23.2-1.67-.7-3.48-.96-5.28-1.01.27-.71.48-1.44.6-2.2M121.86,46.46l-23.52-22.05c-2.39-3.03-3.9-6.7-4.78-10.45-.27-1.18-.49-2.37-.86-3.53-.37-1.15-.91-2.23-1.63-3.2-1.44-1.94-3.43-3.38-5.59-4.43-2.52-1.23-5.21-2.07-7.92-2.75-.12-.07-.25-.08-.36-.04-.29.06-.44.36-.4.63h0s.01.07.02.1c0,0,0,0,0,.01.01.03.03.06.04.09,0,0,0,0,0,.01.01.02.03.04.05.06,0,0,.01.02.02.03,1.34,1.44,1.61,3.48,1.53,5.38-1.09.05-2.17.1-3.26.17-.35-.06-.59.48-.22.69,1.4.79,2.42,2.12,2.83,3.67-.1.56-.19,1.13-.25,1.7-.23,2.07-.14,4.21.9,6.07,1.07,1.9,3.01,3.32,5.15,3.76,1.63.34,3.35.13,4.87-.53.33-.1.66-.21.99-.33l19.74,18.5-.57.61-.09-.08c-.07-.06-.17-.06-.24,0l-.9.96c-.06.07-.06.17,0,.24l.09.08-.3.32-.7-.66c-.06-.06-.17-.06-.23,0l-1.54,1.64c-.06.06-.06.17,0,.23l3.99,3.74c.06.06.17.06.23,0l1.54-1.64c.06-.06.06-.17,0-.23l-.7-.66.3-.32,2.73,2.56c.07.06.17.06.24,0l.9-.96c.06-.07.06-.17,0-.24l-2.73-2.56.57-.61,5.13,4.81-2.8,2.99-3.43-3.21c-.06-.06-.17-.06-.23,0l-2.26,2.41c-.06.06-.06.17,0,.23l5.31,4.98c.06.06.17.06.23,0l2.26-2.41c.06-.06.06-.17,0-.23l-.12-.11,2.8-2.99.43.4c.07.06.17.06.24,0l2.47-2.63c.06-.07.06-.17,0-.24"/>
</svg>