<?xml version="1.0" encoding="UTF-8"?>
<svg id="Ebene_1" data-name="Ebene 1" xmlns="http://www.w3.org/2000/svg" version="1.1" viewBox="0 0 255 210">
  <defs>
    <style>
      .cls-1 {
        fill: #a4895b;
        stroke-width: 0px;
      }
    </style>
  </defs>
  <path class="cls-1" d="M1.58,178.07c.44-1.2.99-2.29,1.42-3.5.87-2.74,1.32-5.9-.33-8.75,1.75.55,3.39,1.97,4.6,3.17.54-.55,1.2-1.2,1.86-1.64.66-.66,1.42-1.09,2.08-1.64.87-.44,1.64-.87,2.52-1.32,3.39-1.64,7.11-2.52,10.94-2.62-4.6,1.32-8.21,5.03-10.61,9.74,3.28-3.28,7.43-4.93,12.9-2.52,5.25,2.29,2.41,10.72-1.64,8.64-1.97-1.09-1.2-3.17-1.64-5.03-1.75-7.11-12.03,2.74-12.9,9.74-.33,3.06-.33,6.23.22,9.19.44,2.19,4.15-1.53,3.83.33-1.75,12.14,12.57,16.41,20.56,13.68,7.76-2.74,13.68-10.83,10.39-24.72-.22-.66-.33-1.32-.55-1.86-.99-3.39-2.85-6.78-5.47-10.39-2.29-2.95-5.14-6.13-8.64-9.19-3.39-3.06-7.11-6.02-10.61-9.19-1.42-1.32-10.17-1.32-8.64-2.62,1.97-1.64,1.97-4.27.87-5.69-3.5-4.93-5.25-10.17-3.39-16.41.22-.76.54-1.64.88-2.41-.88-.22-1.53-1.09-1.53-2.08,0-.44.11-.87.33-1.2-2.29-.99-4.6-2.62-6.67-4.7,4.48,2.73,10.39,2.19,15.64-.33,1.53-.87,3.06-1.53,5.14-2.08,7.76-1.86,18.59-1.09,22.97,4.48,3.61,4.7,2.41,11.92,10.17,14.65.66.33-1.86.66-4.05,1.2-7.43,2.08-11.27,13.12-22.1,8.42-5.36-2.29-2.41-10.83,1.64-8.64,1.97,1.09,1.2,3.17,1.64,5.03.33,1.53,1.2,2.19,2.29,2.29,9.74.99,14.65-24.18-6.46-23.85-10.5.22-13.45,8.09-11.04,14.33,1.32,3.39,3.72,6.56,6.78,9.62,2.52,2.62,8.75,6.23,15.1,8.64,1.64.66-3.72,1.42-2.41,2.74,8.2,7.55,15.97,17.17,17.61,27.45,1.09,7.33-.11,13.78-3.28,18.7-4.48,7-13.13,10.94-22.1,11.81-8.09.66-16.51-1.2-21.98-5.8-7.66-6.34-9.51-16.84-6.34-25.7"/>
  <path class="cls-1" d="M64.03,192.17c0,1.75,0,6.46,2.41,6.46-.44.76-.99,1.2-1.53,1.2-2.08.22-5.25-4.05-8.21-4.05v-.55c.76-.54,1.32-1.09,1.53-1.64.22-.66.33-1.09.33-3.28v-25.38c0-.99-.11-2.52-.33-3.06s-.54-.99-1.2-1.53l.22-.54c4.16-.11,1.42-4.05,8.09-4.05-1.2,1.32-1.32,3.28-1.32,6.13v30.3h0Z"/>
  <path class="cls-1" d="M69.93,164.83c0-2.08,0-3.17-1.53-4.48l.22-.54c4.15-.11,1.32-4.05,7.99-4.05-1.2,1.32-1.2,3.28-1.2,6.13v28.87c0,.87,0,2.19.33,3.06.66,1.42,1.53,2.41,3.5,2.41,7.55,0-2.95-16.84,10.94-16.84-2.19.66-1.97,12.47-1.2,14.44.11.44.54.87,1.2,1.53l-.22.54c-1.64,0-3.06.22-4.37.76-1.64.54-3.72,1.64-6.34,3.17-2.52-1.53-4.6-2.62-6.34-3.17-1.2-.55-2.62-.76-4.27-.76l-.22-.54c.66-.66.99-1.09,1.2-1.53.22-.66.33-1.64.33-3.06v-25.92h0l-.02-.02Z"/>
  <path class="cls-1" d="M94.1,164.83c0-2.08,0-3.17-1.64-4.48l.33-.54c4.15-.11,1.32-4.05,7.99-4.05-1.2,1.32-1.32,3.28-1.32,6.13v28.87c0,.87.11,2.19.44,3.06.54,1.42,1.53,2.41,3.5,2.41,2.52,0,3.82-2.62,3.82-5.36v-33.14c0-2.85,0-4.81-1.2-6.13,6.67,0,3.83,3.94,7.99,4.05l.33.54c-1.64,1.42-1.64,2.52-1.64,4.6v26.79c0,1.42.11,2.52.33,3.06.22.44.66.99,1.32,1.53l-.33.55c-3.83,0-7.99,4.6-10.61,7.11-2.52-1.53-4.7-2.62-6.34-3.17-1.32-.55-2.74-.76-4.37-.76l-.22-.54c.66-.66,1.09-1.09,1.32-1.53.22-.66.33-1.64.33-3.06v-25.92h0l-.03-.02Z"/>
  <path class="cls-1" d="M132.05,173.8v-8.86c0-1.42-.11-2.41-.33-3.06-.66-1.53-1.53-2.41-3.5-2.41s-2.95.87-3.61,2.41c-.22.66-.33,1.64-.33,3.06v13.35c0,1.42,7.76-1.97,7.76-4.48M124.29,183.97v6.89c0,.87,0,2.19.33,2.95.66,1.53,1.64,2.52,3.61,2.52,8.31-.66-3.39-16.84,10.83-16.84-2.19.55-1.97,12.47-1.2,14.33.22.55.54.99,1.2,1.53l-.22.54c-1.64.11-3.06.33-4.27.76-1.75.66-3.83,1.75-6.34,3.28-2.62-1.53-4.7-2.62-6.35-3.28-1.32-.44-2.73-.66-4.37-.76l-.22-.54c.66-.54,1.09-.99,1.2-1.53.33-.54.44-1.53.44-2.95v-25.92c0-1.42-.11-2.41-.44-3.06-.11-.44-.55-.99-1.2-1.53l.22-.54c1.64,0,3.06-.33,4.37-.76,1.64-.55,3.72-1.64,6.35-3.28,2.52,1.64,4.59,2.73,6.34,3.28,1.2.44,2.62.76,4.27.76l.22.54c-.66.54-.99,1.09-1.2,1.53-.22.66-.33,1.64-.33,3.06v4.27c0,.87,0,4.7.33,5.58.22.44.54.87,1.2,1.53l-.22.54c-2.73,0-14.55,4.05-14.55,7.11"/>
  <path class="cls-1" d="M162.9,167.89c.22.55.66,1.09,1.53,1.64v.54c-3.06,0-6.23,4.27-8.21,4.05-.66,0-1.09-.44-1.53-1.2,2.41,0,2.41-4.7,2.41-6.46v-1.64c0-.99-.11-3.83-.11-4.15,0-1.42-4.93.66-6.67,2.19-.99.76-.99,1.64-.99,2.95v26.36c0,1.75,0,6.46,2.41,6.46-.44.76-.99,1.2-1.53,1.2-2.08.21-5.25-4.05-8.21-4.05v-.55c.76-.54,1.32-1.09,1.53-1.64.22-.66.33-1.09.33-3.28v-25.38c0-1.53-.11-2.52-.33-3.06s-.66-.99-1.32-1.53l.33-.54c4.15-.11,1.32-4.05,7.99-4.05-1.2,1.32-1.2,1.2-1.2,4.05,0,1.2.66.76,1.32.33,1.53-.99,5.36-2.62,6.34-4.37,3.61,4.15,6.78,4.05,7,4.05l.11.54c-.66.33-1.09.76-1.32,1.32-.55,1.42-.44,5.14.11,6.23"/>
  <path class="cls-1" d="M174.49,152.69c1.31-.33,3.17.66,4.6,3.06-2.95-1.75-3.5,2.74-3.5,3.94h5.47l.33.54c-.66.44-1.53,1.53-1.64,2.29h-4.16v28.66c0,3.06,1.42,7.55,5.03,3.94,0,2.29-1.97,4.7-4.27,4.7-2.62-.11-4.92-4.15-8.09-4.15v-.54c.76-.54,1.32-1.09,1.53-1.64.22-.54.33-1.09.33-3.28v-27.67h-2.19c-.11-.76-.99-1.86-1.53-2.29l.22-.54c2.62-.44,2.29-5.69,7.88-7"/>
  <path class="cls-1" d="M191.22,162.86c-1.09.76-1.09,1.64-1.09,2.95v26.36c0,1.75,0,6.46,2.41,6.46-.44.76-.99,1.2-1.53,1.2-2.08.21-5.25-4.05-8.21-4.05v-.55c.76-.54,1.32-1.09,1.53-1.64.22-.66.44-1.09.44-3.28v-38.72c0-1.42-.22-2.41-.44-3.06-.11-.44-.55-.99-1.2-1.53l.22-.54c4.15-.11,1.42-4.05,8.09-4.05-1.09,1.2-1.2,2.95-1.2,5.25-.11.33-.11,11.27-.11,11.49,0,3.17,7.11-2.29,7.76-3.39,3.39,4.05,6.67,4.05,6.89,4.05l.11.54c-.99.54-1.42,1.53-1.64,2.62v32.15c0,4.05.11,6.56.44,7.55.44,1.32,1.32,2.52,2.62,3.72.87.66,2.08,1.42,3.61,2.19v1.42c-2.74-1.2-5.14-2.52-7.11-4.05-2.08-1.53-3.5-3.17-4.27-4.92-.44-.99-.66-2.74-.66-5.03l-.11-35.33c0-.22,0-.33-.11-.44-.76-.33-5.03,1.32-6.46,2.62"/>
  <path class="cls-1" d="M223.05,177.74c0-.87-.11-2.19-.44-3.06-.54-1.42-1.53-2.41-3.5-2.41s-2.95.99-3.5,2.41c-.22.66-.33,1.64-.33,3.06v12.91c0,1.42.11,2.52.33,3.06.54,1.53,1.53,2.52,3.5,2.52s2.95-.99,3.5-2.52c.22-.55.44-1.64.44-3.06v-12.91ZM209.82,177.74c0-.87,0-2.19-.33-3.06-.22-.44-.66-.99-1.32-1.53l.33-.54c1.53,0,2.95-.22,4.27-.76,1.64-.54,3.82-1.64,6.34-3.17,1.42.87,2.73,1.53,3.94,2.19v-6.01c0-.87-.11-2.29-.44-3.07-.54-1.53-1.53-2.52-3.5-2.52s-2.95.99-3.5,2.52c-.33.66-.44,1.86-.22,2.52.33.54.76,1.2,1.64,1.75v.54c-3.5,0-4.38,4.27-8.75,1.09,2.08-.54,1.86-4.27,1.2-5.9-.22-.44-.66-.99-1.32-1.53l.33-.54c1.53,0,2.95-.33,4.27-.76,1.64-.66,3.82-1.64,6.34-3.28,2.62,1.64,4.7,2.62,6.34,3.28,1.32.44,2.73.76,4.38.76l.22.54c-.66.55-1.09,1.09-1.32,1.53-.22.55-.33,1.64-.33,3.07v25.81c0,1.42.11,2.52.33,3.06.22.44.66.99,1.32,1.53l-.22.54c-1.64,0-3.06.33-4.38.76-1.64.66-3.72,1.64-6.34,3.28-2.52-1.64-4.7-2.62-6.34-3.28-1.32-.44-2.74-.76-4.27-.76l-.33-.54c.66-.54,1.09-1.09,1.32-1.53.22-.55.33-1.64.33-3.06v-12.91h0v-.02Z"/>
  <path class="cls-1" d="M234.65,164.83c0-2.08,0-3.17-1.53-4.48l.22-.54c4.15-.11,1.32-4.05,7.99-4.05-1.2,1.32-1.2,3.28-1.2,6.13v28.87c0,.87,0,2.19.33,3.06.66,1.42,1.53,2.41,3.5,2.41,7.55,0-2.95-16.84,10.94-16.84-2.19.66-1.97,12.47-1.2,14.44.11.44.54.87,1.2,1.53l-.22.54c-1.64,0-3.06.22-4.38.76-1.64.54-3.72,1.64-6.34,3.17-2.52-1.53-4.6-2.62-6.34-3.17-1.2-.55-2.62-.76-4.27-.76l-.22-.54c.66-.66.99-1.09,1.2-1.53.22-.66.33-1.64.33-3.06v-25.92h0v-.02Z"/>
  <path class="cls-1" d="M71.84,113.04c.32-.46.95-.82,1.82-1.09-.77,1.32-.5,2.73.04,4.05,1.23,2.09,2.14,4.28,2.6,6.46,1.64-3.6,3.27-7.56,3.91-10.2.5-2.14.37-3.37-1-2.82-.82-1.37.54-2.73,1.69-2.55-.18-.46-.5-.77-1.05-.91,3.55,0,4.19-6.7,6.33-6.1.18.04.27.14.32.27.18.32-.09.68-.46.59-.23-.09-.46-.32-.73.18-.87,1.5-.73,5.51-.68,7.92v1.41c0,6.47-.04,10.88,0,16.34,0,1.78,0,3.64.04,5.78.04,3.87-.09,10.7,3.78,12.29-3.73.41-5.1-4.82-5.69-7.15-1,.59-1.96-.09-1.87-.87-.37.09-1.14,0-1.5-.37,1.23-.18,1.59-2.46,1.68-4.87.09-1.59,0-3.19,0-4.78-.27-.64-1-.91-.77-1.05.46-.27.68-1.59.77-2.23,0-4.69.09-5.1.09-9.38-.36,6.06-7.83,20.17-4.87,23.08-2.28.59-4.6-1.05-4.05-3.05-3.46,1.14-6.92-3.19-4.41-5.92.73,2.05,3.23,3.19,4.82.78.91-1.45,1.23-3.69,1.18-5.01-.04-3.27-1.32-7.51-4.55-11.88-4.24-5.73-3.82-4.01-3.82,1.78.04,5.83.04,11.65.04,17.44,0,1.46-.18,4.6,1.68,5.1-2.69.23-3.23,3.64-4.05,6.69-.64,2.42-1.05,1.96-1.28,2.59-1.09,2.87-2.73,5.33-6.69,5.05-2.32-.18-4.37-1.69-4.51-4.28,0-.59.04-1.23.27-1.87.37-1.09,1-1.92,1.92-2.55.91-.59,1.78-.73,2.59-.46.5.18.87.5,1.09,1.05s.23,1.14.04,1.78c-.23-.14-.46-.27-.64-.41-.18-.09-.37-.18-.5-.23-.64-.23-1.28-.14-1.87.18-1.05.64-1.55,1.5-1.5,2.5,0,2.23,1.68,3.55,3.6,3.5,6.46-.04,5.87-10.92,5.96-15.62.04-3.05.09-4.82.14-7.74-.32-.5-.95-.77-.73-.91.41-.27.64-1.45.77-2.14v-5.73c0-2-.37-4.05-2.19-5.19.77-.14,1.55-.04,2.14.14v-.73c-.09-6.01-1.78-7.97-3.6-8.05-2.64-.09-5.51,3.33-4.32,4.28.68.5,1.59.5,1.78,1.64.37,2.23-3.5,2.36-3.5-.59s2.46-5.96,5.6-6.24c6.64-.54,11.02,5.78,14.11,10.06"/>
  <path class="cls-1" d="M93,125.11c0-.64-.04-1.05-.13-1.28-.27-.64-.68-1.04-1.5-1.04-.77,0-1.18.41-1.45,1.04-.09.23-.14.64-.14,1.28v10.74c0,.59.04,1,.14,1.28.27.59.68,1,1.45,1,.82,0,1.23-.41,1.5-1,.09-.27.13-.68.13-1.28v-10.74ZM87.5,125.11c0-.64-.04-1.05-.14-1.28-.09-.23-.23-.41-.5-.64l.09-.23c.68-.04,1.28-.14,1.78-.32.73-.27,1.59-.73,2.64-1.37,1.09.64,1.96,1.09,2.64,1.37.54.18,1.14.27,1.82.32l.09.23c-.27.23-.46.41-.5.64-.09.23-.18.64-.18,1.28v10.74c0,.59.09,1,.18,1.28.04.18.23.37.5.64l-.09.23c-.68,0-1.28.09-1.82.32-.68.23-1.55.68-2.64,1.32-1.05-.64-1.91-1.09-2.64-1.32-.5-.23-1.09-.32-1.78-.32l-.09-.23c.27-.27.41-.46.5-.64.09-.27.14-.68.14-1.28v-10.74Z"/>
  <path class="cls-1" d="M103.29,125.11c0-.64-.04-1.05-.14-1.28-.27-.64-.68-1.04-1.5-1.04-.77,0-1.18.41-1.45,1.04-.09.23-.13.64-.13,1.28v10.74c0,.59.04,1,.13,1.28.27.59.68,1,1.45,1,.82,0,1.23-.41,1.5-1,.09-.27.14-.68.14-1.28v-10.74ZM97.78,125.11c0-.64-.04-1.05-.14-1.28-.09-.23-.23-.41-.5-.64l.09-.23c.68-.04,1.28-.14,1.78-.32.73-.27,1.59-.73,2.64-1.37,1.09.64,1.96,1.09,2.64,1.37.54.18,1.14.27,1.82.32l.09.23c-.27.23-.46.41-.5.64-.09.23-.18.64-.18,1.28v10.74c0,.59.09,1,.18,1.28.04.18.23.37.5.64l-.09.23c-.68,0-1.28.09-1.82.32-.68.23-1.55.68-2.64,1.32-1.05-.64-1.91-1.09-2.64-1.32-.5-.23-1.09-.32-1.78-.32l-.09-.23c.27-.27.41-.46.5-.64.09-.27.14-.68.14-1.28v-10.74Z"/>
  <path class="cls-1" d="M110.94,124.2c-.46.37-.46.73-.46,1.28v10.97c0,.73.04,2.69,1,2.69-.18.27-.37.5-.64.5-.82.04-2.14-1.73-3.37-1.73v-.23c.32-.23.5-.46.64-.68.09-.23.14-.46.14-1.32v-10.61c0-.59-.04-1-.14-1.27-.09-.18-.27-.37-.54-.64l.09-.23c1.78,0,.59-1.68,3.37-1.68-.5.54-.5,1-.5,1.73,0,1.05,3.05-1.45,3.19-1.73,1.55,1.68,2.82,1.73,2.91,1.73l.04.23c-.46.23-.59.64-.68,1.09-.04.37,0,.73,0,1.09v11.06c0,.73,0,2.69,1,2.69-.18.27-.41.5-.64.5-.87.04-2.19-1.73-3.41-1.73v-.23c.32-.23.54-.46.64-.68s.14-.46.14-1.32v-12.38s0-.14-.09-.14c-.27-.18-2.09.54-2.69,1.05"/>
  <path class="cls-1" d="M118.77,125.06c0-.87,0-1.32-.64-1.87l.09-.23c1.73-.04.54-1.68,3.33-1.68-.5.54-.5,1.37-.5,2.55v12.02c0,.37,0,.91.13,1.28.27.59.64,1,1.45,1,3.14,0-1.23-7.01,4.55-7.01-.91.27-.82,5.19-.5,6.01.04.18.23.37.5.64l-.09.23c-.68,0-1.28.09-1.82.32-.68.23-1.55.68-2.64,1.32-1.04-.64-1.91-1.09-2.64-1.32-.5-.23-1.09-.32-1.78-.32l-.09-.23c.27-.27.41-.46.5-.64.09-.27.14-.68.14-1.28v-10.79h0Z"/>
  <path class="cls-1" d="M131.19,136.45c0,.73,0,2.69,1,2.69-.18.32-.41.5-.64.5-.87.09-2.19-1.68-3.41-1.68v-.23c.32-.23.54-.46.64-.68.09-.27.13-.46.13-1.37v-10.56c0-.41-.04-1.05-.13-1.28s-.23-.41-.5-.64l.09-.23c1.73-.04.59-1.68,3.37-1.68-.5.54-.54,1.37-.54,2.55v12.61h0Z"/>
  <path class="cls-1" d="M136.33,120.01c.54-.14,1.32.27,1.91,1.28-1.23-.73-1.45,1.14-1.45,1.64h2.28l.14.23c-.27.18-.64.64-.68.95h-1.73v11.93c0,1.28.59,3.14,2.09,1.64,0,.95-.82,1.96-1.78,1.96-1.09-.04-2.05-1.73-3.37-1.73v-.23c.32-.23.55-.46.64-.68s.14-.46.14-1.37v-11.52h-.91c-.04-.32-.41-.77-.64-.95l.09-.23c1.09-.18.95-2.36,3.28-2.91"/>
  <path class="cls-1" d="M156.28,104.76c1.73-.82,3.64-1.45,5.83-1.45,1.5,0,2.05,1,2.73,1.73.37-1.28,2.23-1.82,4.37-1.68-2.14.68-2.28,2.87-1.28,4.74.5.87.68,1.68.64,2.5-.23,4.37-13.16,6.97-12.11,11.38.41,1.87,1.82,2.19,2.96,2.05.77-.09-.59,1-2.14,1.09-.77,0-1.37-.46-1.87-.37-1.68.37-2.09-3.5-.27-5.55.91-1,2.55-1.96,4.28-2.91-.09-.09-.14-.27-.14-.41,0-.37.23-.68.5-.87-.23-.82-.18-1.96.09-3.19.18,1.41,1.09,2.09,2.23,2.23,2.91.32,7.06-3.69,3.46-6.47-.82-.64-1.87-1-2.78-1.23-1.18-.32-2.36-.09-3.27.23-1.28.46-2.36,1.18-3.33,1.96-1.05.87-1.41,1.23-2.19,2.28-.68.91-1.27,1.87-1.82,2.91-.59,1.05-1.05,2.23-1.37,3.46-.41,1.28-.64,2.64-.77,4.05-.09,1.45-.09,3,.09,4.6.5,1.14,1.87,3.55,4.19,3.73-1.05.82-2.19,1.14-3.1.95,3.64,9.06,14.11,9.56,15.48,4.6.14-.46.04-.95-.37-1.32-.54-.59-1.45-.87-1.32-1.82.14-1.5,2.55-1.09,3.19.37.55,1.18.27,2.55-.5,3.82-.32.54-.77,1.09-1.27,1.59-1.28,1.23-2.23,1.68-3.41,3.27-1.09,1.45-2.55,2.73-5.78,2.73,1.45-1.05.95-1.37-.41-1.78-6.78-2.09-10.24-7.42-11.15-13.47-.04-.46-.23-1.18-.5-1.91-.46-1.14-1.28-2.32-2.6-2.78,1.09-.46,2.09-.5,2.91-.23.46-7.92,4.64-15.93,10.79-18.85"/>
  <path class="cls-1" d="M172.57,136.45c0,.73,0,2.69,1,2.69-.18.32-.41.5-.64.5-.87.09-2.19-1.68-3.41-1.68v-.23c.32-.23.54-.46.64-.68.09-.27.13-.46.13-1.37v-10.56c0-.41-.04-1.05-.13-1.28-.09-.23-.23-.41-.5-.64l.09-.23c1.73-.04.59-1.68,3.37-1.68-.5.54-.54,1.37-.54,2.55v12.61h0Z"/>
  <path class="cls-1" d="M177.71,120.01c.54-.14,1.32.27,1.91,1.28-1.23-.73-1.45,1.14-1.45,1.64h2.28l.14.23c-.27.18-.64.64-.68.95h-1.73v11.93c0,1.28.59,3.14,2.09,1.64,0,.95-.82,1.96-1.78,1.96-1.09-.04-2.05-1.73-3.37-1.73v-.23c.32-.23.54-.46.64-.68.09-.23.14-.46.14-1.37v-11.52h-.91c-.04-.32-.41-.77-.64-.95l.09-.23c1.09-.18.95-2.36,3.27-2.91"/>
  <path class="cls-1" d="M187.36,130.43c0-.37-.04-.91-.18-1.28-.23-.59-.64-1-1.45-1s-1.23.41-1.45,1c-.09.27-.13.68-.13,1.28v5.37c0,.59.04,1.04.13,1.28.23.64.64,1.05,1.45,1.05s1.23-.41,1.45-1.05c.09-.23.18-.68.18-1.28v-5.37ZM181.85,130.43c0-.37,0-.91-.14-1.28-.09-.18-.27-.41-.54-.64l.14-.23c.64,0,1.23-.09,1.78-.32.68-.23,1.59-.68,2.64-1.32.59.37,1.14.64,1.64.91v-2.5c0-.37-.04-.95-.18-1.28-.23-.64-.64-1.05-1.45-1.05s-1.23.41-1.45,1.05c-.13.27-.18.77-.09,1.05.14.23.32.5.68.73v.23c-1.45,0-1.82,1.78-3.64.46.87-.23.77-1.78.5-2.46-.09-.18-.27-.41-.54-.64l.14-.23c.64,0,1.23-.14,1.78-.32.68-.27,1.59-.68,2.64-1.37,1.09.68,1.96,1.09,2.64,1.37.54.18,1.14.32,1.82.32l.09.23c-.27.23-.46.46-.54.64-.09.23-.14.68-.14,1.28v10.74c0,.59.04,1.04.14,1.28.09.18.27.41.54.64l-.09.23c-.68,0-1.28.14-1.82.32-.68.27-1.55.68-2.64,1.37-1.04-.68-1.96-1.09-2.64-1.37-.54-.18-1.14-.32-1.78-.32l-.14-.23c.27-.23.46-.46.54-.64.09-.23.14-.68.14-1.28v-5.37h-.03Z"/>
  <path class="cls-1" d="M194.46,123.29v14.29c0,.09.04.13.09.18.32.14,2.09-.59,2.69-1.09.18-.14.37-.37.46-.54.09-3.5,0-7.15,0-10.65,0-.59,0-.91-.46-1.28-.59-.5-2.36-1.23-2.69-1.05-.04,0-.09.04-.09.14M199.92,135.81c0,.59.04,1.05.18,1.28.04.18.23.41.5.64l-.09.23c-1.55,0-2.5.87-2.82,1.68v-1.92c-.78,0-2.96,1.41-3.23,1.92-.68-.77-2.32-1.73-2.91-1.68l-.04-.23c.41-.23.59-.64.64-1.09.04-.37.04-.68.04-1.05v-11.29c-.04-.46-.23-.87-.68-1.14l.09-.23s2.19-.5,2.87-1.68c.14.27,3.19,2.55,3.19,1.59v-3.37c0-.54-.04-.95-.13-1.18-.09-.18-.23-.41-.5-.64l.09-.23c1.73-.04.54-1.68,3.33-1.68-.41.46-.5,1.18-.5,2.19v17.89h-.03Z"/>
  <path class="cls-1" d="M208.03,128.8v-3.69c0-.59-.04-1-.14-1.28-.27-.64-.64-1-1.45-1s-1.23.37-1.5,1c-.09.27-.14.68-.14,1.28v5.55c0,.59,3.23-.82,3.23-1.87M204.8,133.03v2.87c0,.37,0,.91.14,1.23.27.64.68,1.05,1.5,1.05,3.46-.27-1.41-7.01,4.51-7.01-.91.23-.82,5.19-.5,5.96.09.23.23.41.5.64l-.09.23c-.68.04-1.28.13-1.78.32-.73.27-1.59.73-2.64,1.37-1.09-.64-1.96-1.09-2.64-1.37-.54-.18-1.14-.27-1.82-.32l-.09-.23c.27-.23.46-.41.5-.64.13-.23.18-.64.18-1.23v-10.79c0-.59-.04-1-.18-1.28-.04-.18-.23-.41-.5-.64l.09-.23c.68,0,1.28-.14,1.82-.32.68-.23,1.55-.68,2.64-1.37,1.05.68,1.91,1.14,2.64,1.37.5.18,1.09.32,1.78.32l.09.23c-.27.23-.41.46-.5.64-.09.27-.14.68-.14,1.28v1.78c0,.37,0,1.96.14,2.32.09.18.23.37.5.64l-.09.23c-1.14,0-6.06,1.68-6.06,2.96"/>
  <path class="cls-1" d="M212.85,125.06c0-.87,0-1.32-.64-1.87l.09-.23c1.73-.04.54-1.68,3.33-1.68-.5.54-.5,1.37-.5,2.55v12.02c0,.37,0,.91.14,1.28.27.59.64,1,1.45,1,3.14,0-1.23-7.01,4.55-7.01-.91.27-.82,5.19-.5,6.01.04.18.23.37.5.64l-.09.23c-.68,0-1.28.09-1.82.32-.68.23-1.55.68-2.64,1.32-1.04-.64-1.91-1.09-2.64-1.32-.5-.23-1.09-.32-1.78-.32l-.09-.23c.27-.27.41-.46.5-.64.09-.27.14-.68.14-1.28v-10.79h0Z"/>
  <path class="cls-1" d="M111.65,95.3c.54-.14,1.32.27,1.91,1.28-1.23-.73-1.45,1.14-1.45,1.64h2.28l.14.23c-.27.18-.64.64-.68.95h-1.73v11.93c0,1.28.59,3.14,2.09,1.64,0,.95-.82,1.96-1.78,1.96-1.09-.04-2.05-1.73-3.37-1.73v-.23c.32-.23.54-.46.64-.68.09-.23.14-.46.14-1.37v-11.52h-.91c-.04-.32-.41-.77-.64-.95l.09-.23c1.09-.18.95-2.36,3.28-2.91"/>
  <path class="cls-1" d="M118.62,99.52c-.46.32-.46.68-.46,1.23v10.97c0,.73,0,2.69,1.01,2.69-.18.32-.41.5-.64.5-.87.09-2.19-1.68-3.41-1.68v-.23c.32-.23.54-.46.64-.68.09-.27.18-.46.18-1.37v-16.12c0-.59-.09-1-.18-1.28-.04-.18-.23-.41-.5-.64l.09-.23c1.73-.04.59-1.68,3.37-1.68-.46.5-.5,1.23-.5,2.19-.04.14-.04,4.69-.04,4.78,0,1.32,2.96-.95,3.23-1.41,1.41,1.68,2.78,1.68,2.87,1.68l.04.23c-.41.23-.59.64-.68,1.09v13.38c0,1.68.04,2.73.18,3.14.18.54.54,1.05,1.09,1.55.37.27.87.59,1.5.91v.59c-1.14-.5-2.14-1.05-2.96-1.68-.87-.64-1.46-1.32-1.78-2.05-.18-.41-.27-1.14-.27-2.09l-.04-14.71c0-.09,0-.14-.04-.18-.32-.13-2.09.54-2.69,1.09"/>
  <path class="cls-1" d="M131.82,104.08v-3.69c0-.59-.04-1-.14-1.28-.27-.64-.64-1-1.45-1s-1.23.37-1.5,1c-.09.27-.14.68-.14,1.28v5.56c0,.59,3.23-.82,3.23-1.87M128.58,108.31v2.87c0,.37,0,.91.14,1.23.27.64.68,1.05,1.5,1.05,3.46-.27-1.41-7.01,4.51-7.01-.91.23-.82,5.19-.5,5.96.09.23.23.41.5.64l-.09.23c-.68.04-1.28.13-1.78.32-.73.27-1.59.73-2.64,1.37-1.09-.64-1.96-1.09-2.64-1.37-.54-.18-1.14-.27-1.82-.32l-.09-.23c.27-.23.46-.41.5-.64.13-.23.18-.64.18-1.23v-10.79c0-.59-.04-1-.18-1.28-.04-.18-.23-.41-.5-.64l.09-.23c.68,0,1.28-.14,1.82-.32.68-.23,1.55-.68,2.64-1.37,1.05.68,1.91,1.14,2.64,1.37.5.18,1.09.32,1.78.32l.09.23c-.27.23-.41.46-.5.64-.09.27-.14.68-.14,1.28v1.78c0,.37,0,1.96.14,2.32.09.18.23.37.5.64l-.09.23c-1.14,0-6.06,1.68-6.06,2.96"/>
  <path class="cls-1" d="M26.28,185.8c0-.64-.04-1.05-.14-1.28-.27-.64-.68-1.05-1.5-1.05-.77,0-1.18.41-1.45,1.05-.09.23-.14.64-.14,1.28v10.74c0,.59.04,1,.14,1.28.27.59.68,1,1.45,1,.82,0,1.23-.41,1.5-1,.09-.27.14-.68.14-1.28v-10.74ZM20.77,185.8c0-.64-.04-1.05-.14-1.28-.09-.23-.23-.41-.5-.64l.09-.23c.68-.04,1.28-.14,1.78-.32.73-.27,1.59-.73,2.64-1.37,1.09.64,1.96,1.09,2.64,1.37.54.18,1.14.27,1.82.32l.09.23c-.27.23-.46.41-.5.64-.09.23-.18.64-.18,1.28v10.74c0,.59.09,1,.18,1.28.04.18.23.37.5.64l-.09.23c-.68,0-1.28.09-1.82.32-.68.23-1.55.68-2.64,1.32-1.05-.64-1.91-1.09-2.64-1.32-.5-.23-1.09-.32-1.78-.32l-.09-.23c.27-.27.41-.46.5-.64.09-.27.14-.68.14-1.28v-10.74Z"/>
  <path class="cls-1" d="M31.79,183.62v-3.37c0-.59-.04-1-.14-1.28-.09-.18-.27-.41-.54-.64l.14-.23c.82,0,2.05-1.18,2.69-1.68.41.64,2.14,1.05,2.5.68-.27,1-.73,1.73-1.41,1.87-.23.04-.73-.27-.91-.27-.04.09-.04.18-.04.32v4.6h2.28l.09.23c-.23.23-.59.68-.64,1h-1.73c-.04,4.55,0,7.33,0,11.93,0,1.28.59,3.1,2.05,1.64,0,.95-.77,1.96-1.78,1.92-1.09,0-2-1.68-3.33-1.68v-.23c.32-.23.54-.46.64-.73.09-.23.14-.41.14-1.32v-11.52h-.68c-.04-.32-.41-.77-.68-1l.14-.23h1.23-.02Z"/>
  <path class="cls-1" d="M134.48,67.24c14.45-5.1,24.81-18.87,24.81-35.08,0-13.64-7.35-25.57-18.31-32.03,7.19,5.61,11.81,14.35,11.81,24.18,0,16.94-13.73,30.67-30.67,30.67s-30.67-13.73-30.67-30.67c0-9.9,4.7-18.7,11.98-24.31-11.08,6.44-18.54,18.43-18.54,32.17,0,16.2,10.36,29.97,24.81,35.08-8.64,4.48-14.54,13.5-14.54,23.9,0,7.93,3.43,15.07,8.9,19.99-2.86-3.79-4.56-8.5-4.56-13.61,0-12.49,10.12-22.6,22.6-22.6s22.6,10.12,22.6,22.6c0,5.03-1.64,9.67-4.42,13.43,5.35-4.92,8.7-11.97,8.7-19.81,0-10.4-5.9-19.42-14.54-23.9"/>
</svg>