<?xml version="1.0" encoding="UTF-8"?>
<svg id="Ebene_2" data-name="Ebene 2" xmlns="http://www.w3.org/2000/svg" version="1.1" viewBox="0 0 80 80">
  <defs>
    <style>
      .cls-1 {
        fill: #a4895b;
        stroke-width: 0px;
      }
    </style>
  </defs>
  <path class="cls-1" d="M29.82,69.52s-.07-.03-.12-.04c-.56-.02-1.13.05-1.69.06,0,0-.02,0-.02,0-.01,0-.03,0-.04,0,0,0-.01,0-.02.01-.01,0-.03.01-.04.02-.01,0-.03.01-.04.03-.02.01-.03.03-.05.05,0,0-.01.02-.02.03,0,.02-.01.03-.02.05,0,.02-.01.04-.01.06,0,0,0,0,0,0,0,0,0,.01,0,.02,0,.02,0,.03,0,.05.14.43.19.89.33,1.32l-2.76,2.63c-.43-.15-.88-.23-1.3-.39-.01,0-.03,0-.04,0,0,0-.02,0-.03,0,0,0,0,0-.01,0-.03,0-.05,0-.08.02,0,0-.01,0-.02,0-.02,0-.04.02-.06.04,0,0-.02.01-.02.02-.02.02-.03.04-.04.06,0,0,0,.02-.01.03,0,0,0,.01-.01.02,0,.01,0,.02,0,.03,0,.01,0,.02,0,.03-.03.58-.13,1.15-.14,1.73,0,.03,0,.06.02.09l-.63.6-.21.16c-1.09-1.45-2.09-2.96-3.1-4.48.86-.57,1.7-1.16,2.52-1.79,0,0,.01-.02.02-.03,0,0,.01-.01.02-.02,0-.01.02-.03.03-.04.03-.06.03-.12,0-.19,0,0,0,0,0,0,0,0,0-.02,0-.03-.38-.62-.92-1.13-1.45-1.63-.55-.53-1.12-1.04-1.67-1.58,0,0,0,0,0,0l-2.49-2.61,1.95-1.86,2.91,3.05c.37.43.73.86,1.1,1.28.48.55.95,1.12,1.56,1.52,0,0,.02,0,.02,0,0,0,0,0,0,0,.07.03.13.03.19.01.02,0,.03-.02.05-.02,0,0,.01,0,.02-.01,0,0,.02-.01.03-.02.67-.78,1.3-1.6,1.9-2.43,1.47,1.08,2.94,2.16,4.35,3.33l-.84.8h0ZM58.5,14.68c.11.04.23.07.36.07.55,0,1-.45,1-1.01,0-.14-.03-.26-.08-.38.59.41,1.23.44,1.92.39.85-.06,1.6-.23,2.29-.59,0,.04-.01.09-.01.13,0,.4.16.76.42,1.03.28.29.66.47,1.09.47h0c-.24.41-.42.85-.51,1.31-.19.93-.31,2.07.15,2.89-.11-.05-.24-.09-.37-.09-.55-.03-1.02.4-1.05.95,0,.13.01.25.05.37-.38-.29-.83-.49-1.3-.54-1.25-.15-2.41.39-3.33,1.23l-1.53-1.61c.63-.65,1.1-1.44,1.3-2.36.17-.77.01-1.61-.4-2.24M60.97,11.6s.02,0,.03,0c-.02,0-.03,0-.03,0M52.34,19.13c-3.35-.31-4.56-4.45-3.98-7.27.68-3.27,3.13-5.72,6.28-6.72,2.47-.78,5.61-.95,7.96.32.07.04.13.07.2.11.52.31,1,.68,1.42,1.15.49.54.77,1.05.67,1.72-.1.74-.49,1.49-.97,2.05-.51.59-1.06.99-1.85,1.09-.01,0-.03,0-.04,0,.22-.5,0-1.02-.42-1.34-1.09-.82-2.67.22-2.71,1.48-.01.4.12.78.34,1.1-.12-.05-.25-.08-.39-.08-.55,0-1,.45-1,1.01,0,.11.02.21.06.31-.32-.23-.7-.37-1.15-.4-1.42-.07-2.62,1.65-1.78,2.9.32.48.91.73,1.45.44.14-.08.27-.2.36-.34-.15.44-.49.88-.74,1.14-.94.98-2.33,1.46-3.7,1.33M65.94,13.74c-.12.12-.28.19-.46.19-.36,0-.65-.29-.65-.64,0-.17.07-.34.19-.46.12-.12.28-.19.46-.19.17,0,.34.07.46.19,0,0,0,0,.01.01.11.12.18.28.18.44h0c0,.17-.07.34-.19.46M71.05,6.18c0,.52.2,1,.56,1.37.01.01.03.03.04.04.32.31.72.5,1.15.56-.47,1.28-.75,2.62-.73,3.99,0,.05,0,.11,0,.16-.44-.2-.92-.33-1.41-.35-1.25-.04-2.6.43-3.69,1.23-.02-.37-.17-.71-.44-.97-.25-.25-.57-.39-.92-.42.51-.62.9-1.34,1.15-2.09.33-.97.38-2.02,0-2.97.05,0,.11.01.16.02,1.41.09,2.79-.15,4.12-.58M73.07,5.41c.21,0,.41.09.54.23.13.13.2.31.21.51,0,.2-.08.38-.21.53-.14.14-.33.22-.53.22-.2,0-.38-.08-.53-.21-.14-.13-.22-.33-.22-.52,0-.41.33-.75.74-.75M73.49,23.22c-.81,3.19-2.96,6.01-6.2,6.96-1.48.43-3.06.49-4.54.04-1.5-.46-3.08-1.56-3.55-3.12-.42-1.43-.05-3.11.93-4.21.39-.43.93-.89,1.53-1.05-.13.09-.24.2-.32.32-.32.53-.1,1.12.37,1.47,1.03.76,2.58.04,2.91-1.13.18-.62.04-1.21-.28-1.69.1.04.21.07.32.07.55.03,1.02-.4,1.05-.95,0-.13-.01-.26-.05-.37.16.11.34.21.56.28,1.4.47,3.02-1.22,2.12-2.55-.3-.44-.81-.68-1.31-.49.11-.57.32-1.04.74-1.46.79-.79,2.36-1.62,3.38-1.12.72.35,1.29.97,1.72,1.68.13.32.29.63.46.93.16.4.28.81.35,1.2.33,1.7.24,3.51-.18,5.18M31.75,71.21c.96-1.07,2.1-2.12,2.65-3.48,0,0,0-.01,0-.02.01-.03.02-.07.02-.12-.02-.66-.46-1.1-.94-1.51-.65-.56-1.31-1.11-1.99-1.65-1.4-1.12-2.85-2.17-4.37-3.12-.33-.22-.73-.41-1.13-.34-.51.09-.81.62-1.11,1-.32.41-.62.87-.99,1.23-.13.13-.3.27-.49.26-.09,0-.17-.04-.25-.08l-2.9-3.04,4.87-4.65.53.55c.09.1.25.1.35,0l.61-.58c.1-.09.1-.25,0-.35l-.53-.55.79-.76.52.55c.09.1.25.1.35,0l1.48-1.42c.1-.09.1-.25,0-.35l-.52-.55,24.74-23.61.53.56c.09.09.24.1.34,0l1.21-1.15c.09-.09.1-.24,0-.34l-.53-.56-.13-.13,2.15-2.59c-.44,1.98.09,4.07,1.48,5.6,1.67,1.83,4.22,2.72,6.66,2.63,2.36-.08,4.64-.94,6.46-2.44,1.88-1.54,3.17-3.77,3.82-6.1.66-2.36.81-5.11.07-7.47-.04-.14-.09-.27-.14-.41-.02-.09-.05-.17-.1-.25,0-.01-.01-.02-.02-.04-.14-.34-.31-.68-.51-1.01-.02-.05-.04-.1-.06-.15.01.03-.05-.15-.06-.16-.06-.17-.11-.35-.16-.53-.09-.34-.16-.68-.21-1.02-.01-.08-.02-.17-.03-.25,0-.03,0-.07,0-.11-.01-.18-.02-.36-.02-.54,0-.35,0-.69.04-1.04,0-.09.02-.18.03-.27,0-.02.02-.14.03-.17.03-.15.05-.31.09-.46.08-.36.18-.72.3-1.08.05-.17.11-.33.18-.49.03-.09.07-.18.11-.27.01-.03.03-.07.04-.1,0-.01,0-.02.02-.04.19-.42.18-.93-.12-1.27.12-.27.19-.56.19-.86h0c0-1.12-.92-2.02-2.04-2.02-.27,0-.54.06-.77.16-.33-.43-.84-.51-1.35-.31-.03.01-.05.02-.06.02-.01,0-.02,0-.04.01-.09.03-.18.06-.27.09-.18.06-.36.12-.54.17-.36.1-.72.18-1.09.25-.17.03-.33.05-.5.07-.04,0-.1.01-.14.01-.08,0-.15.01-.23.01-.36.02-.72.02-1.08,0-.17,0-.33-.02-.49-.04-.04,0-.13-.02-.15-.02-.07-.01-.13-.02-.2-.03-.36-.07-.71-.16-1.05-.27-.17-.06-.35-.12-.52-.19-.03-.01-.13-.05-.16-.07-.06-.03-.12-.05-.17-.08-2.06-1.43-4.92-1.64-7.34-1.39-4.85.5-9.34,3.55-10.52,8.46-.54,2.23-.36,4.64.73,6.68,1.22,2.27,3.47,3.79,6.09,3.61.26-.02.51-.05.77-.1l-2.72,2.05-.13-.13-.53-.56c-.09-.09-.24-.1-.34,0l-1.21,1.15c-.09.09-.1.24,0,.34l.53.56-24.74,23.61-.52-.55c-.09-.1-.25-.1-.35,0l-1.48,1.42c-.1.09-.1.25,0,.35l.52.55-.79.76-.53-.55c-.09-.1-.25-.1-.35,0l-.61.58c-.1.09-.1.25,0,.35l.53.55-4.87,4.65-1.74,1.66-1.95,1.86-1.74,1.66-3.03,2.89-.18-.19c-.09-.1-.25-.1-.34,0l-1.54,1.45c-.1.09-.1.25,0,.34l4.24,4.49c.09.1.25.1.34,0l1.54-1.45c.1-.09.1-.25,0-.34l-.19-.2,3.05-2.91,2.96,3.1s.03.09.03.14c.01.19-.13.36-.26.49-.38.37-.87.65-1.3.96-.39.27-.91.54-1.04,1.03-.11.41.07.83.28,1.17.88,1.56,1.86,3.06,2.91,4.51.5.7,1.02,1.39,1.55,2.06.39.49.8.95,1.46,1.01.05,0,.08,0,.12-.02,0,0,.01,0,.02,0,1.35-.47,2.44-1.54,3.53-2.43,1.2-.97,2.38-1.96,3.55-2.97,1.05-1.11,2.09-2.23,3.11-3.37"/>
  <path class="cls-1" d="M27.42,26.02c-.08.55-.28,1.06-.56,1.53.04-.25.03-.51-.02-.77-.22-1.12-1.82-1.49-1.93-2.58-.06-.59.43-1.09,1.09-1.02.52.05.88.44,1.1.84.34.62.42,1.34.32,2M24.05,20.14c-.9-.54-1.9-.78-2.94-.88-1.07-.1-2.13-.03-3.2-.06,2.31-.86,5.06-.51,6.76,1.37-.2-.15-.4-.3-.61-.43M17.7,31.27c-1.74-.28-3.37-1.03-4.71-2.14-.17-.18-.33-.36-.48-.56-.13-.16-.25-.33-.36-.5.71.47,1.5.81,2.37.98,1.71.33,3.53-.15,4.89-1.2.56.47,1.16.91,1.77,1.29.81.5,1.71.97,2.65,1.16-1.89.93-4.04,1.32-6.13.98M10.76,23.37c-.08-.69-.11-1.38-.09-2.07.47.26,1,.41,1.5.42,1.75.06,3.23-1.19,4.66-2.03.09-.05.18-.09.26-.14,0,.01-.01.03-.01.04-.18,2.51-.54,5.06,1.17,7.1-.96.69-2.2,1-3.38.77-2.06-.39-3.71-2.07-4.1-4.11M11.85,2.83c0,2.16-.34,4.27-.79,6.37-.04,0-.08,0-.12,0,.1-2.44-.24-4.93-1.39-7.05.77.21,1.54.44,2.3.68M21.2,16.38c1.32.47,2.51,1.08,3.43,2.06-.27-.19-.54-.36-.84-.5-1.39-.68-3.01-.96-4.55-.75-1.82.24-3.23,1.16-4.77,2.09-.7.42-1.52.92-2.37.85-.55-.04-1.21-.43-1.23-1.02.24-1.34.67-2.61,1.19-3.85,3.09-.28,6.21.08,9.13,1.12M15.64,5.95c2.31,1.25,4.49,2.72,6.51,4.4.11.09.23.19.34.29-2.45-1.03-5.08-1.4-7.73-1.48.39-1.04.7-2.11.87-3.21M72.74,67.93l-34.39-32.23c-3.49-4.43-5.71-9.79-6.98-15.27-.4-1.72-.72-3.47-1.26-5.16-.54-1.68-1.33-3.26-2.38-4.67-2.11-2.83-5.02-4.94-8.17-6.47C15.89,2.32,11.95,1.09,7.99.09c-.18-.1-.36-.12-.53-.06-.42.08-.64.53-.59.93,0,0,0,0,0,.01,0,.05.02.09.03.14,0,0,0,.01,0,.02.02.05.04.09.06.13,0,0,0,.01.01.02.02.03.04.06.07.09,0,.01.02.02.03.04,1.96,2.11,2.36,5.09,2.24,7.86-1.59.07-3.18.15-4.76.24-.51-.09-.86.71-.32,1.01,2.05,1.15,3.53,3.1,4.14,5.36-.14.82-.28,1.65-.37,2.48-.34,3.03-.21,6.16,1.32,8.88,1.57,2.79,4.4,4.85,7.53,5.5,2.38.49,4.9.19,7.13-.77.49-.15.97-.31,1.45-.48l28.86,27.05-.83.89-.13-.12c-.1-.09-.25-.09-.35.01l-1.32,1.41c-.09.1-.09.25.01.35l.13.12-.44.47-1.03-.96c-.1-.09-.25-.09-.34.01l-2.25,2.4c-.09.1-.09.25.01.34l5.83,5.47c.1.09.25.09.34-.01l2.25-2.4c.09-.1.09-.25-.01-.34l-1.02-.96.44-.47,3.99,3.74c.1.09.25.09.35-.01l1.32-1.4c.09-.1.09-.25-.01-.35l-3.99-3.74.83-.89,7.5,7.03-4.1,4.37-5.01-4.7c-.1-.09-.25-.08-.34.01l-3.3,3.52c-.09.1-.08.25.01.34l7.76,7.28c.1.09.25.08.34-.01l3.3-3.52c.09-.1.08-.25-.01-.34l-.17-.16,4.1-4.37.63.59c.1.09.25.09.34-.01l3.6-3.85c.09-.1.09-.25-.01-.34"/>
</svg>