<?xml version="1.0" encoding="UTF-8"?>
<svg id="Ebene_1" data-name="Ebene 1" xmlns="http://www.w3.org/2000/svg" version="1.1" viewBox="0 0 80 80">
  <defs>
    <style>
      .cls-1 {
        fill: #a4895a;
        stroke-width: 0px;
      }
    </style>
  </defs>
  <path class="cls-1" d="M48.91,48.41c10.4-3.67,17.86-13.58,17.86-25.25,0-9.82-5.29-18.4-13.18-23.06,5.17,4.04,8.5,10.33,8.5,17.4,0,12.19-9.88,22.08-22.08,22.08s-22.07-9.88-22.07-22.08C17.95,10.37,21.33,4.04,26.57,0c-7.98,4.64-13.34,13.27-13.34,23.16,0,11.66,7.46,21.58,17.86,25.25-6.22,3.23-10.47,9.72-10.47,17.2,0,5.71,2.47,10.85,6.4,14.39-2.06-2.73-3.28-6.12-3.28-9.79,0-8.99,7.29-16.27,16.27-16.27s16.27,7.29,16.27,16.27c0,3.62-1.18,6.96-3.18,9.67,3.85-3.54,6.26-8.62,6.26-14.26,0-7.49-4.25-13.98-10.47-17.2"/>
</svg>