<?xml version="1.0" encoding="UTF-8"?>
<svg id="Ebene_1" data-name="Ebene 1" xmlns="http://www.w3.org/2000/svg" version="1.1" viewBox="0 0 356 210">
  <defs>
    <style>
      .cls-1 {
        fill: #a4895b;
        stroke-width: 0px;
      }
    </style>
  </defs>
  <path class="cls-1" d="M335.65,70.93c0-.93-.07-1.52-.2-1.86-.4-.93-1-1.52-2.19-1.52s-1.73.6-2.13,1.52c-.13.33-.2.93-.2,1.86v15.65c0,.86.06,1.46.2,1.86.4.86,1,1.46,2.13,1.46,1.19,0,1.79-.6,2.19-1.46.13-.4.2-1,.2-1.86v-15.65ZM327.62,70.93c0-.93-.07-1.52-.2-1.86-.13-.33-.33-.6-.73-.93l.13-.33c1-.06,1.86-.2,2.59-.46,1.06-.4,2.32-1.06,3.84-1.99,1.59.93,2.86,1.59,3.84,1.99.8.27,1.65.4,2.65.46l.13.33c-.4.33-.66.6-.73.93-.13.33-.27.93-.27,1.86v15.65c0,.86.13,1.46.27,1.86.07.27.33.53.73.93l-.13.33c-1,0-1.86.13-2.65.46-1,.33-2.26,1-3.84,1.92-1.52-.93-2.78-1.59-3.84-1.92-.73-.33-1.59-.46-2.59-.46l-.13-.33c.4-.4.6-.67.73-.93.13-.4.2-1,.2-1.86v-15.65Z"/>
  <path class="cls-1" d="M343.67,67.75v-4.91c0-.86-.07-1.46-.2-1.86-.13-.27-.4-.6-.79-.93l.2-.33c1.19,0,2.99-1.73,3.91-2.45.6.93,3.11,1.53,3.65,1-.4,1.46-1.06,2.52-2.05,2.72-.33.06-1.06-.4-1.33-.4-.06.13-.06.27-.06.46v6.7h3.32l.13.33c-.33.33-.86,1-.93,1.46h-2.52c-.06,6.64,0,10.67,0,17.37,0,1.86.86,4.51,2.99,2.38,0,1.4-1.13,2.86-2.59,2.78-1.59,0-2.92-2.45-4.84-2.45v-.33c.46-.33.79-.67.93-1.06.13-.33.2-.6.2-1.92v-16.78h-1c-.07-.46-.6-1.13-1-1.46l.2-.33h1.79-.01Z"/>
  <path class="cls-1" d="M92.72,127.73c0-2.62-.14-4.08-2.19-5.83l.29-.73c5.69-.14,1.75-5.4,10.65-5.4-1.61,1.75-1.61,4.38-1.61,8.17v44.05c0,.29.14.44.29.59,1.02.44,6.56-1.75,8.61-3.5.58-.44,1.02-1.02,1.31-1.75.14-5.11.14-10.5.14-15.9v-19.69c0-2.62,0-4.08-2.19-5.83l.44-.73c5.54-.14,1.75-5.4,10.65-5.4-1.61,1.75-1.61,4.38-1.61,8.17-.14,7.88-.14,15.61-.14,23.49v15.02c0,1.89.29,3.21.59,4.08.14.59.73,1.17,1.6,2.04l-.29.73c-4.96,0-8.02,2.78-9.19,5.25v-5.98c-2.48-.14-9.34,4.53-10.21,5.98-2.19-2.33-7.29-5.54-9.19-5.25l-.29-.73c1.46-.87,2.05-2.19,2.19-3.65.14-1.02.14-2.19.14-3.35v-33.84l.02.02v-.03Z"/>
  <path class="cls-1" d="M128.17,121.03v-10.8c0-1.89-.15-3.21-.44-4.08-.29-.59-.87-1.32-1.75-2.05l.44-.73c2.62,0,6.56-3.79,8.61-5.4,1.32,2.05,6.86,3.35,8.02,2.19-.87,3.21-2.33,5.54-4.52,5.98-.73.14-2.33-.87-2.92-.87-.14.29-.14.58-.14,1.02v14.73h7.29l.29.73c-.73.73-1.89,2.19-2.04,3.21h-5.54c-.14,14.59,0,23.49,0,38.22,0,4.08,1.89,9.92,6.56,5.26,0,3.06-2.48,6.27-5.69,6.13-3.5,0-6.42-5.4-10.65-5.4v-.73c1.02-.73,1.75-1.46,2.05-2.33.29-.73.44-1.32.44-4.23v-36.9h-2.19c-.14-1.02-1.32-2.48-2.19-3.21l.44-.73h3.94-.02.01Z"/>
  <path class="cls-1" d="M154.42,164.35c0,2.33,0,8.61,3.21,8.61-.59,1.02-1.32,1.6-2.05,1.6-2.78.29-7-5.4-10.94-5.4v-.73c1.02-.73,1.75-1.46,2.05-2.19.29-.87.44-1.46.44-4.38v-33.84c0-1.32-.14-3.35-.44-4.08-.29-.73-.73-1.32-1.6-2.05l.29-.73c5.54-.15,1.89-5.4,10.8-5.4-1.6,1.75-1.75,4.38-1.75,8.17v40.41h0Z"/>
  <path class="cls-1" d="M179.95,145.1c0-1.17-.14-2.92-.59-4.08-.73-1.89-2.05-3.21-4.67-3.21s-3.94,1.31-4.67,3.21c-.29.87-.44,2.19-.44,4.08v17.21c0,1.89.14,3.35.44,4.08.73,2.05,2.04,3.35,4.67,3.35s3.94-1.32,4.67-3.35c.29-.73.59-2.19.59-4.08v-17.21ZM162.3,145.1c0-1.17,0-2.92-.44-4.08-.29-.59-.87-1.32-1.75-2.05l.44-.73c2.05,0,3.94-.29,5.69-1.02,2.19-.73,5.11-2.19,8.46-4.23,1.89,1.17,3.65,2.05,5.25,2.92v-8.02c0-1.17-.14-3.06-.59-4.08-.73-2.05-2.05-3.35-4.67-3.35s-3.94,1.32-4.67,3.35c-.44.87-.59,2.48-.29,3.35.44.73,1.02,1.6,2.19,2.33v.73c-4.67,0-5.83,5.69-11.67,1.46,2.78-.73,2.48-5.69,1.6-7.88-.29-.58-.87-1.32-1.75-2.05l.44-.73c2.05,0,3.94-.44,5.69-1.02,2.19-.87,5.11-2.19,8.46-4.38,3.5,2.19,6.27,3.5,8.46,4.38,1.75.58,3.65,1.02,5.83,1.02l.29.73c-.88.73-1.46,1.46-1.75,2.05-.29.73-.44,2.19-.44,4.08v34.43c0,1.89.14,3.35.44,4.08.29.58.87,1.31,1.75,2.05l-.29.73c-2.19,0-4.08.44-5.83,1.02-2.19.87-4.96,2.19-8.46,4.38-3.35-2.19-6.27-3.5-8.46-4.38-1.75-.59-3.65-1.02-5.69-1.02l-.44-.73c.87-.73,1.46-1.46,1.75-2.05.29-.73.44-2.19.44-4.08v-17.21h.02-.01Z"/>
  <path class="cls-1" d="M204.46,125.11c-1.46,1.17-1.46,2.33-1.46,4.08v35.16c0,2.33.14,8.61,3.21,8.61-.59.87-1.17,1.6-2.05,1.6-2.62.14-6.86-5.54-10.8-5.54v-.73c1.02-.73,1.6-1.46,2.05-2.19.29-.73.44-1.46.44-4.23v-33.99c0-1.89-.14-3.21-.44-4.08-.29-.58-.88-1.17-1.75-2.05l.29-.73c5.69,0,1.89-5.4,10.8-5.4-1.6,1.75-1.6,3.21-1.6,5.54,0,3.35,9.78-4.67,10.21-5.54,4.96,5.4,9.05,5.54,9.34,5.54l.15.73c-1.46.73-1.89,2.05-2.19,3.5-.14,1.17,0,2.34,0,3.5v35.44c0,2.33,0,8.61,3.21,8.61-.59.87-1.32,1.6-2.05,1.6-2.78.14-7-5.54-10.94-5.54v-.73c1.02-.73,1.75-1.46,2.05-2.19s.44-1.46.44-4.23v-39.68c0-.14,0-.44-.29-.44-.88-.58-6.72,1.75-8.61,3.35"/>
  <path class="cls-1" d="M238.59,125.25c-1.46,1.02-1.46,2.19-1.46,3.94v35.16c0,2.33,0,8.61,3.21,8.61-.59,1.02-1.32,1.6-2.05,1.6-2.78.29-7-5.4-10.94-5.4v-.73c1.02-.73,1.75-1.46,2.05-2.19.29-.87.59-1.46.59-4.38v-51.64c0-1.89-.29-3.21-.59-4.08-.14-.59-.73-1.32-1.61-2.05l.29-.73c5.54-.14,1.89-5.4,10.8-5.4-1.46,1.61-1.6,3.94-1.6,7-.15.44-.15,15.02-.15,15.32,0,4.22,9.48-3.06,10.35-4.52,4.53,5.4,8.9,5.4,9.19,5.4l.15.73c-1.32.73-1.89,2.05-2.19,3.5v42.89c0,5.4.15,8.75.59,10.07.59,1.75,1.75,3.35,3.5,4.96,1.17.88,2.78,1.89,4.81,2.92v1.89c-3.65-1.61-6.86-3.35-9.48-5.4-2.78-2.05-4.67-4.23-5.69-6.56-.59-1.32-.87-3.65-.87-6.71l-.14-47.12c0-.29,0-.44-.14-.59-1.02-.44-6.71,1.75-8.61,3.5"/>
  <path class="cls-1" d="M281.04,145.1c0-1.17-.14-2.92-.59-4.08-.73-1.89-2.05-3.21-4.67-3.21s-3.94,1.31-4.67,3.21c-.29.87-.44,2.19-.44,4.08v17.21c0,1.89.14,3.35.44,4.08.73,2.05,2.05,3.35,4.67,3.35s3.94-1.32,4.67-3.35c.29-.73.59-2.19.59-4.08v-17.21ZM263.39,145.1c0-1.17,0-2.92-.44-4.08-.29-.59-.87-1.32-1.75-2.05l.44-.73c2.05,0,3.94-.29,5.69-1.02,2.19-.73,5.11-2.19,8.46-4.23,1.89,1.17,3.65,2.05,5.26,2.92v-8.02c0-1.17-.14-3.06-.59-4.08-.73-2.05-2.05-3.35-4.67-3.35s-3.94,1.32-4.67,3.35c-.44.87-.59,2.48-.29,3.35.44.73,1.02,1.6,2.19,2.33v.73c-4.67,0-5.83,5.69-11.67,1.46,2.78-.73,2.48-5.69,1.6-7.88-.29-.58-.87-1.32-1.75-2.05l.44-.73c2.05,0,3.94-.44,5.69-1.02,2.19-.87,5.11-2.19,8.46-4.38,3.5,2.19,6.27,3.5,8.46,4.38,1.75.58,3.65,1.02,5.83,1.02l.29.73c-.87.73-1.46,1.46-1.75,2.05-.29.73-.44,2.19-.44,4.08v34.43c0,1.89.14,3.35.44,4.08.29.58.87,1.31,1.75,2.05l-.29.73c-2.19,0-4.08.44-5.83,1.02-2.19.87-4.96,2.19-8.46,4.38-3.35-2.19-6.27-3.5-8.46-4.38-1.75-.59-3.65-1.02-5.69-1.02l-.44-.73c.87-.73,1.46-1.46,1.75-2.05.29-.73.44-2.19.44-4.08v-17.21h0Z"/>
  <path class="cls-1" d="M296.5,127.88c0-2.78,0-4.23-2.05-5.98l.29-.73c5.54-.14,1.75-5.4,10.65-5.4-1.6,1.75-1.6,4.38-1.6,8.17v38.51c0,1.17,0,2.92.44,4.08.87,1.89,2.05,3.21,4.67,3.21,10.07,0-3.94-22.47,14.59-22.47-2.92.87-2.62,16.63-1.6,19.26.14.58.73,1.17,1.6,2.04l-.29.73c-2.19,0-4.08.29-5.83,1.02-2.19.73-4.96,2.19-8.46,4.23-3.35-2.05-6.13-3.5-8.46-4.23-1.6-.73-3.5-1.02-5.69-1.02l-.29-.73c.87-.87,1.32-1.46,1.6-2.04.29-.88.44-2.19.44-4.08v-34.57h-.01Z"/>
  <path class="cls-1" d="M328.74,127.88c0-2.78,0-4.23-2.05-5.98l.29-.73c5.54-.14,1.75-5.4,10.65-5.4-1.6,1.75-1.6,4.38-1.6,8.17v38.51c0,1.17,0,2.92.44,4.08.87,1.89,2.05,3.21,4.67,3.21,10.07,0-3.94-22.47,14.59-22.47-2.92.87-2.62,16.63-1.6,19.26.14.58.73,1.17,1.6,2.04l-.29.73c-2.19,0-4.08.29-5.83,1.02-2.19.73-4.96,2.19-8.46,4.23-3.35-2.05-6.13-3.5-8.46-4.23-1.6-.73-3.5-1.02-5.69-1.02l-.29-.73c.87-.87,1.32-1.46,1.6-2.04.29-.88.44-2.19.44-4.08v-34.57h-.01Z"/>
  <path class="cls-1" d="M91.3,41.48c2.52-1.19,5.3-2.13,8.49-2.13,2.19,0,2.98,1.46,3.98,2.52.53-1.86,3.25-2.65,6.37-2.45-3.11,1-3.32,4.18-1.86,6.89.73,1.26,1,2.45.93,3.65-.33,6.37-19.17,10.15-17.64,16.58.6,2.72,2.65,3.18,4.31,2.98,1.13-.13-.86,1.46-3.11,1.59-1.13,0-1.99-.67-2.72-.53-2.45.53-3.05-5.11-.4-8.09,1.33-1.46,3.72-2.86,6.24-4.24-.13-.13-.2-.4-.2-.6,0-.53.33-1,.73-1.26-.33-1.19-.27-2.86.13-4.64.27,2.05,1.59,3.05,3.25,3.25,4.24.46,10.28-5.37,5.04-9.42-1.19-.93-2.72-1.46-4.05-1.79-1.73-.46-3.45-.13-4.78.33-1.86.66-3.45,1.73-4.84,2.86-1.53,1.26-2.05,1.79-3.18,3.32-1,1.33-1.86,2.72-2.65,4.24-.86,1.52-1.52,3.25-1.99,5.04-.6,1.86-.93,3.84-1.13,5.91-.13,2.13-.13,4.38.13,6.7.73,1.65,2.72,5.17,6.1,5.43-1.52,1.19-3.18,1.66-4.51,1.4,5.3,13.2,20.56,13.93,22.55,6.7.2-.67.06-1.4-.53-1.92-.8-.86-2.13-1.26-1.92-2.65.2-2.19,3.72-1.59,4.64.53.79,1.73.4,3.72-.73,5.57-.46.79-1.13,1.59-1.86,2.32-1.86,1.79-3.25,2.45-4.97,4.78-1.59,2.12-3.71,3.98-8.42,3.98,2.13-1.53,1.4-1.99-.6-2.59-9.88-3.05-14.92-10.81-16.25-19.63-.06-.67-.33-1.73-.73-2.78-.67-1.65-1.86-3.38-3.78-4.05,1.59-.67,3.05-.73,4.24-.33.67-11.54,6.77-23.21,15.72-27.46"/>
  <path class="cls-1" d="M123.25,72.91c.13.33.4.67.93,1v.33c-1.86,0-3.78,2.59-4.97,2.45-.4,0-.66-.27-.93-.73,1.46,0,1.46-2.85,1.46-3.91v-1c0-.6-.06-2.32-.06-2.52,0-.86-2.98.4-4.05,1.33-.6.46-.6,1-.6,1.79v15.98c0,1.06,0,3.91,1.46,3.91-.27.46-.6.73-.93.73-1.26.13-3.18-2.45-4.97-2.45v-.33c.46-.33.8-.66.93-1,.13-.4.2-.67.2-1.99v-15.39c0-.93-.07-1.53-.2-1.86s-.4-.6-.79-.93l.2-.33c2.52-.06.8-2.45,4.84-2.45-.73.79-.73.73-.73,2.45,0,.73.4.46.79.2.93-.6,3.25-1.59,3.84-2.65,2.19,2.52,4.11,2.45,4.24,2.45l.06.33c-.4.2-.66.46-.79.79-.33.86-.27,3.11.07,3.78"/>
  <path class="cls-1" d="M129.82,87.63c0,1.06,0,3.91,1.46,3.91-.27.46-.6.73-.93.73-1.26.13-3.18-2.45-4.97-2.45v-.33c.46-.33.8-.66.93-1,.13-.4.2-.66.2-1.99v-15.39c0-.6-.06-1.52-.2-1.86-.13-.33-.33-.6-.73-.93l.13-.33c2.52-.06.86-2.45,4.91-2.45-.73.8-.79,1.99-.79,3.72v18.37h-.01Z"/>
  <path class="cls-1" d="M141.49,69.8c0-.86-2.99.4-4.05,1.33-.6.46-.6,1-.6,1.79v14.72c0,1.06,0,3.91,1.39,3.91-.2.46-.52.73-.86.73-1.26.13-3.18-2.45-4.97-2.45v-.33c.46-.33.79-.66.93-1,.13-.4.2-.67.2-1.99v-15.39c0-.93-.06-1.53-.2-1.86-.13-.33-.4-.6-.79-.93l.2-.33c2.52-.06.79-2.45,4.84-2.45-.73.8-.73,1.99-.73,3.72,0,.73.4.46.73.2.93-.6,3.32-1.59,3.91-2.65.6.27,1.13.53,1.59.73.79.33,1.65.46,2.65.46l.06.33c-.4.2-.66.46-.79.79,0,.06-.06.27-.06.6.13.13.4-.06.67-.27.93-.6,3.32-1.59,3.91-2.65.6.27,1.06.53,1.59.73.79.33,1.65.46,2.59.46l.13.33c-1.19.67-1.06,2.05-1.06,3.25l.06,16.05c0,1.06,0,3.91,1.4,3.91-.2.46-.53.73-.93.73-1.19.13-3.12-2.45-4.91-2.45v-.33c.46-.33.73-.66.93-1,.13-.4.2-.67.2-1.99v-16.71c0-.86-3.05.4-4.11,1.33-.4.33-.53.67-.6,1.06,0,2.32-.06,10.67,0,14.79,0,.93.06,1.19.2,1.52s.46.67.93,1v.33c-.46,0-2.19,1.19-1.46,2.45-1.19,0-2.39-2.45-4.11-2.45v-.33c.46-.33.79-.66.93-1s.2-.6.27-1.52c0-4.64-.06-13.53-.06-17.18"/>
  <path class="cls-1" d="M169.54,79.87c-.4.33-.67.67-.73.93-.2.53-.27,2.78-.27,3.38v2.59c0,.86.06,1.46.27,1.86.06.27.33.53.73.93l-.13.33c-1,0-1.86.13-2.65.46-1,.33-2.26,1-3.84,1.92-1.53-.93-2.78-1.59-3.84-1.92-.73-.33-1.59-.46-2.59-.46l-.2-.33c.46-.4.67-.67.79-.93.13-.4.2-4.57.2-5.43,0-1.86-.6-2.52-1.13-3.11,8.96-.2,1.33,10.02,6.76,10.02,1.19,0,1.79-.6,2.13-1.46.2-.4.27-1,.27-1.86v-3.71c0-3.05-4.57-4.78-8.02-4.78v-7.23c0-.86-.06-1.46-.2-1.86-.13-.27-.33-.53-.79-.93l.2-.33c1,0,1.86-.13,2.59-.4,1.06-.4,2.32-1.06,3.84-1.99,1.59.93,2.86,1.59,3.84,1.99.79.27,1.65.4,2.65.4l.13.33c-.4.4-.67.67-.73.93-.46,1.19-.6,6.96.73,7.36-2.72,1.92-3.25-.73-5.3-.73v-.33c.46-.33.79-.66.93-1,.2-.46.2-4.57-.13-5.31-.33-.86-.93-1.46-2.13-1.46s-1.73.6-2.13,1.46c-.2.53-.2,1.33-.2,1.86v4.18c0,1.86,7.16,4.31,8.81,4.31l.13.33h.01Z"/>
  <path class="cls-1" d="M180.28,71.12c0-.93-.06-1.52-.2-1.86-.4-.93-1-1.52-2.19-1.52s-1.73.6-2.12,1.52c-.13.33-.2.93-.2,1.86v15.65c0,.86.06,1.46.2,1.86.4.86,1,1.46,2.12,1.46,1.19,0,1.79-.6,2.19-1.46.13-.4.2-1,.2-1.86v-15.65ZM172.25,71.12c0-.93-.07-1.52-.2-1.86-.13-.33-.33-.6-.73-.93l.13-.33c1-.06,1.86-.2,2.59-.46,1.06-.4,2.32-1.06,3.84-1.99,1.59.93,2.86,1.59,3.84,1.99.79.27,1.65.4,2.65.46l.13.33c-.4.33-.67.6-.73.93-.13.33-.27.93-.27,1.86v15.65c0,.86.13,1.46.27,1.86.06.27.33.53.73.93l-.13.33c-1,0-1.86.13-2.65.46-1,.33-2.25,1-3.84,1.92-1.52-.93-2.78-1.59-3.84-1.92-.73-.33-1.59-.46-2.59-.46l-.13-.33c.4-.4.6-.67.73-.93.13-.4.2-1,.2-1.86v-15.65Z"/>
  <path class="cls-1" d="M191.42,69.8c-.67.53-.67,1.06-.67,1.86v15.98c0,1.06.06,3.91,1.46,3.91-.27.4-.53.73-.93.73-1.19.07-3.12-2.52-4.91-2.52v-.33c.46-.33.73-.67.93-1,.13-.33.2-.67.2-1.92v-15.45c0-.86-.07-1.46-.2-1.86-.13-.27-.4-.53-.8-.93l.13-.33c2.59,0,.86-2.45,4.91-2.45-.73.79-.73,1.46-.73,2.52,0,1.52,4.45-2.13,4.64-2.52,2.25,2.45,4.11,2.52,4.24,2.52l.06.33c-.66.33-.86.93-1,1.59-.06.53,0,1.06,0,1.59v16.12c0,1.06,0,3.91,1.46,3.91-.27.4-.6.73-.93.73-1.26.07-3.18-2.52-4.97-2.52v-.33c.46-.33.79-.67.93-1s.2-.67.2-1.92v-18.04c0-.06,0-.2-.13-.2-.4-.27-3.05.8-3.91,1.52"/>
  <path class="cls-1" d="M209.12,79.08c.27-.73.6-1.4.86-2.13.53-1.65.8-3.58-.2-5.31,1.06.33,2.05,1.19,2.78,1.92.33-.33.73-.73,1.13-1,.4-.4.86-.67,1.26-1,.53-.27,1-.53,1.52-.79,2.05-1,4.31-1.53,6.64-1.59-2.78.79-4.97,3.05-6.43,5.9,1.99-1.99,4.51-2.98,7.83-1.52,3.18,1.4,1.46,6.5-1,5.24-1.19-.67-.73-1.92-1-3.05-1.06-4.31-7.29,1.65-7.83,5.91-.2,1.86-.2,3.78.13,5.57.27,1.33,2.52-.93,2.32.2-1.06,7.36,7.62,9.94,12.47,8.29,4.71-1.65,8.29-6.56,6.3-14.99-.13-.4-.2-.8-.34-1.13-.6-2.05-1.73-4.11-3.32-6.3-1.39-1.79-3.11-3.71-5.24-5.57-2.05-1.86-4.31-3.65-6.43-5.57-.86-.8-6.16-.8-5.24-1.59,1.19-1,1.19-2.59.53-3.45-2.12-2.98-3.18-6.16-2.05-9.94.13-.46.33-1,.53-1.46-.53-.13-.93-.66-.93-1.26,0-.27.06-.53.2-.73-1.4-.6-2.78-1.59-4.05-2.86,2.72,1.65,6.3,1.33,9.48-.2.93-.53,1.86-.93,3.12-1.26,4.71-1.13,11.27-.67,13.93,2.72,2.19,2.86,1.46,7.23,6.16,8.89.4.2-1.13.4-2.45.73-4.51,1.26-6.83,7.96-13.4,5.11-3.25-1.4-1.46-6.56,1-5.24,1.19.67.73,1.92,1,3.05.2.93.73,1.33,1.4,1.4,5.91.6,8.89-14.66-3.91-14.45-6.37.13-8.16,4.91-6.7,8.69.8,2.05,2.26,3.98,4.11,5.83,1.53,1.59,5.3,3.78,9.15,5.24,1,.4-2.26.86-1.46,1.65,4.97,4.58,9.68,10.42,10.67,16.64.67,4.44-.07,8.35-1.99,11.34-2.72,4.24-7.96,6.64-13.4,7.16-4.91.4-10.02-.73-13.33-3.51-4.64-3.84-5.77-10.21-3.84-15.58"/>
  <path class="cls-1" d="M247.64,69.86c-.67.46-.67,1-.67,1.79v15.98c0,1.06,0,3.91,1.46,3.91-.27.46-.6.73-.93.73-1.26.13-3.18-2.45-4.97-2.45v-.33c.46-.33.8-.66.93-1,.13-.4.27-.67.27-1.99v-23.47c0-.86-.13-1.46-.27-1.86-.06-.27-.33-.6-.73-.93l.13-.33c2.52-.06.86-2.45,4.91-2.45-.66.73-.73,1.79-.73,3.18-.06.2-.06,6.83-.06,6.96,0,1.92,4.31-1.4,4.71-2.05,2.05,2.45,4.05,2.45,4.18,2.45l.06.33c-.6.33-.86.93-1,1.59v19.5c0,2.45.06,3.98.27,4.57.27.79.79,1.53,1.59,2.26.53.4,1.26.86,2.19,1.33v.86c-1.65-.73-3.12-1.53-4.31-2.45-1.26-.93-2.13-1.92-2.59-2.98-.27-.6-.4-1.65-.4-3.05l-.07-21.42c0-.13,0-.2-.06-.27-.46-.2-3.05.8-3.91,1.59"/>
  <path class="cls-1" d="M266.87,71.12c0-.93-.07-1.52-.2-1.86-.4-.93-1-1.52-2.19-1.52s-1.73.6-2.13,1.52c-.13.33-.2.93-.2,1.86v15.65c0,.86.06,1.46.2,1.86.4.86,1,1.46,2.13,1.46,1.19,0,1.79-.6,2.19-1.46.13-.4.2-1,.2-1.86v-15.65ZM258.85,71.12c0-.93-.07-1.52-.2-1.86-.13-.33-.33-.6-.73-.93l.13-.33c1-.06,1.86-.2,2.59-.46,1.07-.4,2.32-1.06,3.85-1.99,1.59.93,2.86,1.59,3.84,1.99.8.27,1.65.4,2.65.46l.13.33c-.4.33-.67.6-.73.93-.13.33-.27.93-.27,1.86v15.65c0,.86.13,1.46.27,1.86.07.27.33.53.73.93l-.13.33c-1,0-1.86.13-2.65.46-1,.33-2.25,1-3.84,1.92-1.52-.93-2.78-1.59-3.85-1.92-.73-.33-1.59-.46-2.59-.46l-.13-.33c.4-.4.6-.67.73-.93.13-.4.2-1,.2-1.86v-15.65Z"/>
  <path class="cls-1" d="M285.57,72.91c.13.33.4.67.93,1v.33c-1.86,0-3.78,2.59-4.97,2.45-.4,0-.66-.27-.93-.73,1.46,0,1.46-2.85,1.46-3.91v-1c0-.6-.06-2.32-.06-2.52,0-.86-2.99.4-4.05,1.33-.6.46-.6,1-.6,1.79v15.98c0,1.06,0,3.91,1.46,3.91-.27.46-.6.73-.93.73-1.26.13-3.18-2.45-4.97-2.45v-.33c.46-.33.79-.66.93-1,.13-.4.2-.67.2-1.99v-15.39c0-.93-.06-1.53-.2-1.86-.13-.33-.4-.6-.8-.93l.2-.33c2.52-.06.79-2.45,4.84-2.45-.73.79-.73.73-.73,2.45,0,.73.4.46.79.2.93-.6,3.25-1.59,3.85-2.65,2.19,2.52,4.11,2.45,4.24,2.45l.06.33c-.4.2-.66.46-.79.79-.33.86-.27,3.11.07,3.78"/>
  <path class="cls-1" d="M296.72,76.49v-5.37c0-.86-.06-1.46-.2-1.86-.4-.93-.93-1.46-2.13-1.46s-1.79.53-2.19,1.46c-.13.4-.2,1-.2,1.86v8.09c0,.86,4.71-1.19,4.71-2.72M292,82.66v4.18c0,.53,0,1.33.2,1.79.4.93,1,1.52,2.19,1.52,5.04-.4-2.05-10.21,6.56-10.21-1.33.33-1.19,7.56-.73,8.69.13.33.33.6.73.93l-.13.33c-1,.06-1.86.2-2.59.46-1.06.4-2.32,1.06-3.84,1.99-1.59-.93-2.85-1.59-3.84-1.99-.79-.27-1.65-.4-2.65-.46l-.13-.33c.4-.33.66-.6.73-.93.2-.33.27-.93.27-1.79v-15.72c0-.86-.06-1.46-.27-1.86-.06-.27-.33-.6-.73-.93l.13-.33c1,0,1.86-.2,2.65-.46,1-.33,2.26-1,3.84-1.99,1.52,1,2.78,1.65,3.84,1.99.73.27,1.59.46,2.59.46l.13.33c-.4.33-.6.66-.73.93-.13.4-.2,1-.2,1.86v2.59c0,.53,0,2.86.2,3.38.13.27.33.53.73.93l-.13.33c-1.65,0-8.82,2.45-8.82,4.31"/>
  <path class="cls-1" d="M316.2,79.87c-.4.33-.67.67-.73.93-.2.53-.27,2.78-.27,3.38v2.59c0,.86.07,1.46.27,1.86.06.27.33.53.73.93l-.13.33c-1,0-1.86.13-2.65.46-1,.33-2.26,1-3.84,1.92-1.52-.93-2.78-1.59-3.84-1.92-.73-.33-1.59-.46-2.59-.46l-.2-.33c.46-.4.66-.67.79-.93.13-.4.2-4.57.2-5.43,0-1.86-.6-2.52-1.13-3.11,8.96-.2,1.33,10.02,6.76,10.02,1.19,0,1.79-.6,2.13-1.46.2-.4.27-1,.27-1.86v-3.71c0-3.05-4.58-4.78-8.02-4.78v-7.23c0-.86-.06-1.46-.2-1.86-.13-.27-.33-.53-.79-.93l.2-.33c1,0,1.86-.13,2.59-.4,1.06-.4,2.32-1.06,3.84-1.99,1.59.93,2.86,1.59,3.84,1.99.79.27,1.65.4,2.65.4l.13.33c-.4.4-.67.67-.73.93-.46,1.19-.6,6.96.73,7.36-2.72,1.92-3.25-.73-5.31-.73v-.33c.46-.33.79-.66.93-1,.2-.46.2-4.57-.13-5.31-.33-.86-.93-1.46-2.13-1.46s-1.73.6-2.13,1.46c-.2.53-.2,1.33-.2,1.86v4.18c0,1.86,7.16,4.31,8.82,4.31l.13.33h.01Z"/>
  <path class="cls-1" d="M163.96,24.78c.79-.2,1.92.4,2.78,1.86-1.79-1.06-2.12,1.65-2.12,2.38h3.32l.2.33c-.4.27-.93.93-1,1.4h-2.52v17.37c0,1.86.86,4.57,3.05,2.38,0,1.4-1.19,2.86-2.59,2.86-1.59-.06-2.99-2.52-4.91-2.52v-.33c.46-.33.79-.67.93-1s.2-.66.2-1.99v-16.78h-1.33c-.06-.46-.6-1.13-.93-1.4l.13-.33c1.59-.27,1.4-3.45,4.78-4.24"/>
  <path class="cls-1" d="M174.1,30.94c-.67.46-.67,1-.67,1.79v15.98c0,1.06,0,3.91,1.46,3.91-.27.46-.6.73-.93.73-1.26.13-3.18-2.45-4.97-2.45v-.33c.46-.33.8-.66.93-1,.13-.4.27-.67.27-1.99v-23.47c0-.86-.13-1.46-.27-1.86-.06-.27-.33-.6-.73-.93l.13-.33c2.52-.06.86-2.45,4.91-2.45-.67.73-.73,1.79-.73,3.18-.06.2-.06,6.83-.06,6.96,0,1.92,4.31-1.4,4.71-2.05,2.05,2.45,4.05,2.45,4.18,2.45l.06.33c-.6.33-.86.93-1,1.59v19.5c0,2.45.06,3.98.27,4.57.27.79.8,1.53,1.59,2.26.53.4,1.26.86,2.19,1.33v.86c-1.65-.73-3.11-1.53-4.31-2.45-1.26-.93-2.13-1.92-2.59-2.98-.27-.6-.4-1.65-.4-3.05l-.06-21.42c0-.13,0-.2-.06-.27-.46-.2-3.05.8-3.91,1.59"/>
  <path class="cls-1" d="M193.33,37.58v-5.37c0-.86-.06-1.46-.2-1.86-.4-.93-.93-1.46-2.13-1.46s-1.79.53-2.19,1.46c-.13.4-.2,1-.2,1.86v8.09c0,.86,4.71-1.19,4.71-2.72M188.62,43.74v4.18c0,.53,0,1.33.2,1.79.4.93,1,1.52,2.19,1.52,5.04-.4-2.05-10.21,6.56-10.21-1.33.33-1.19,7.56-.73,8.69.13.33.33.6.73.93l-.13.33c-1,.06-1.86.2-2.59.46-1.06.4-2.32,1.06-3.84,1.99-1.59-.93-2.86-1.59-3.84-1.99-.8-.27-1.65-.4-2.65-.46l-.13-.33c.4-.33.66-.6.73-.93.2-.33.27-.93.27-1.79v-15.72c0-.86-.06-1.46-.27-1.86-.06-.27-.33-.6-.73-.93l.13-.33c1,0,1.86-.2,2.65-.46,1-.33,2.26-1,3.84-1.99,1.53,1,2.78,1.65,3.84,1.99.73.27,1.59.46,2.59.46l.13.33c-.4.33-.6.66-.73.93-.13.4-.2,1-.2,1.86v2.59c0,.53,0,2.86.2,3.38.13.27.33.53.73.93l-.13.33c-1.65,0-8.82,2.45-8.82,4.31"/>
  <path class="cls-1" d="M43.79,56.52c-5.56-4.22-10.63-9.16-13.91-15.29-3.73-6.95-4.86-15.63-1.49-22.75.58-1.22,1.27-2.37,2.01-3.5,2.36-3.59,5.35-7.01,9.38-8.51,1.16-.44,2.41-.7,3.64-.55s2.44.77,3.11,1.81c.64.98.75,2.2.76,3.37.07,5.84-1.79,11.69-5.23,16.41-1.21.76-2.07,1.32-3.01,2.41-.93,1.1-1.52,2.58-1.21,3.98.39,1.77,2.07,3.01,2.63,4.74.29.91.26,1.89.47,2.81.21.93.79,1.89,1.73,2.07,1.23.24,2.27-.99,2.58-2.2.38-1.47.15-3.09.78-4.47.6-1.3,1.9-2.22,2.29-3.6.6-2.12-1.26-3.89-.04-5.91,1.4-3.78,3.71-7.16,5.19-10.91,1.47-3.74,2.02-8.17-.05-11.61-1.63-2.7-4.67-4.33-7.79-4.72-3.12-.39-6.29.36-9.16,1.64-5.71,2.53-10.47,7.14-13.16,12.77-1.67,3.5-2.55,7.33-2.89,11.18-.72,8.14.97,16.48,4.82,23.7,2.04,3.82,4.69,7.3,7.78,10.34,5.09.6,8.18-.87,10.78-3.2"/>
  <path class="cls-1" d="M47.29,183.49c-1.68.42-3.37.85-5.04,1.31.53.39,1.04.82,1.52,1.27,2.22,2.08,4.14,4.58,5.1,7.47s.86,6.22-.68,8.83c-.78,1.33-1.9,2.43-3.02,3.49-1.92,1.82-4.11,3.69-6.76,3.83,2.4.66,5.03.19,7.2-1.01,2.18-1.19,3.94-3.07,5.26-5.18.6-.98,1.13-2.01,1.51-3.1,1.56-4.45.58-9.57-2.05-13.48-.86-1.28-1.89-2.42-3.03-3.45"/>
  <path class="cls-1" d="M90.12,152.83c0-.1,0-.2-.02-.31-.03-.36-.06-.73-.12-1.1-.02-.13-.04-.28-.06-.41-.04-.28-.11-.57-.17-.86-.04-.16-.07-.33-.12-.5-.09-.34-.19-.68-.29-1.02-.05-.17-.11-.33-.16-.5-.13-.38-.28-.77-.44-1.17-.02-.04-.03-.08-.04-.12h0c-1.8-4.38-5.35-9.38-11.04-15.11,3.53,6.1,4.75,11.05,4.3,15.11h-.03c-.02.36-.06.71-.13,1.08,0,.04,0,.09-.02.12,0,.03-.02.05-.02.08-.08.39-.18.77-.28,1.14-.03.09-.05.16-.09.25-.1.31-.2.61-.32.91-.05.12-.11.24-.16.36-.11.25-.22.49-.34.73-.08.15-.17.3-.25.45-.11.19-.21.38-.33.56-.12.19-.24.37-.37.55-.09.13-.18.26-.28.39-.17.22-.35.44-.52.67-.05.07-.12.13-.17.2-6.64,7.71-21.7,10.57-33.04,13.52,3.79-2.92,3.94-7.15,3.94-9.48,3.19,0,5.19-.34,9.61-2.12,2.32-.93,4.18-2.19,5.8-4.1.66-.77,1.22-1.78,1.5-3.42.65-3.77.31-7.63-2.39-10.35-2.5-2.52-5.9-3.91-9.3-4.95,0,2.69,0,5.36.02,8.05.81,0,1.62.34,2.17.93.27.28.47.6.63.95.62,1.29.51,2.83-.47,4.42-.83,1.35-5.05,2.19-7.66,1.65-.04-6.25-.05-12.48-.06-18.73.13,0,2.79-.02,2.85-.02,2.16.02,4.06-.67,5.94-1.49,1.88-.82,3.59-2.13,4.59-3.92,1.69-3.05.77-7.28-2.01-9.36-2.45-1.82-8.01-3.2-11.36-3.21v-37.49c-.14-4.52,2.92-18.96,8.9-22.61,1.61-.87,2.62.29,3.94.44,1.6.14,2.62-.87,2.05-2.48-.59-1.32-2.78-2.62-7-.73-11.96,5.54-11.53,18.09-26.55,14.88-4.81-1.02-9.48-.59-13.86,1.32-5.69,2.33-9.34,5.98-11.23,11.38-2.92,8.32.59,16.34,9.05,19.26,3.35,1.17,6.86,1.17,10.07.14,3.35-1.02,5.4-2.92,6.42-5.54.59-1.6.29-3.21-.59-4.96-.87-1.6-2.48-2.78-4.38-3.5-.14.87-.14,1.75-.14,2.33-.14.73-.29,1.32-.44,1.75-.73,2.05-2.19,3.65-4.23,4.38-7.88,3.06-15.75-4.23-12.69-13.28,1.46-4.08,4.23-7,8.32-8.75,4.96-2.19,12.69-2.19,17.36.87-2.33,1.46-4.53,3.79-2.62,7,2.78-3.94,5.69,0,5.98,3.21v34.1c-1.17.74-4.62,1.02-6.8.36-1.09-.34-1.73-1.57-2.03-2.66-.19-.68-.18-1.41-.05-2.12.35-1.96,1.65-3.68,3.38-4.64v-10.98c-1.87.39-3.53,1.41-4.98,2.7-.82.7-.98,1.01-1.75,1.77-.03.03-.04.05-.07.08-1.37,1.59-2.54,3.34-3.49,5.22-1.61,3.19-2.57,6.8-2.17,10.34.32,2.84,1.59,5.61,3.65,7.56.25.24.52.47.79.69h0c-1.97,2.76-2.54,5.11-2.96,6.64-.38,1.36-.49,3.98-.31,5.39.1.79.36,1.57.68,2.29,1.25,2.86,3.5,5.24,6.21,6.79,1.44.83,3.01,1.41,4.62,1.78.02-3.16-.02-6.23-.07-8.98v-1.08c-.42-.39-.77-.84-1.04-1.35-.68-1.28-1.03-2.93-.36-4.22.89-1.7,5.98-1.04,6.86-1.13v-.9c.03,1.47.05,3.11.05,4.87.09,4.5.12,9.82-.04,15.01-8.51.8-9.52,4.38-9.93,8.17-.27,2.45.13,6.38,1.15,8.57.8.59,1.52.94,2.34.98,1.85.16,2.83-1.35,3.11-4.25.02-.47.05-2.8.2-3.24.38-1.1,1.29-2.09,2.61-1.86-.77,8.27-2.41,14.46-5.73,13.39-1.02-.29-1.75-1.02-2.62-2.19-1.17-1.46-3.06,2.92-7.29,6.42-5.25,4.38-10.21,4.08-16.2,10.5-4.23,4.67-7.29,11.53-3.5,21.01,1.89-15.02,28.3-23.49,52.37-28.89.97-.22,1.93-.44,2.89-.68v.04c17.18-4.18,31.28-10.1,32.75-20.53v-.03c.11-.78.14-1.6.11-2.44"/>
  <path class="cls-1" d="M63.08,75.11c-2.77-2.61-5.11-4.86-7.24-7.61-.76,3.21-1.12,6.11-1.07,7.73v3.99c1.24,1.28,2.53,2.61,3.25,3.42.93,1.06,1.88,2.13,2.43,3.42.44,1.02.6,2.15.49,3.26-.06.65-.23,1.29-.56,1.85-.81,1.4-2.53,2.08-4.14,2.04-.5-.02-.99-.1-1.47-.21v8c2.88.76,6.01.54,8.76-.63,2.99-1.28,5.49-3.65,6.96-6.55.44-.85.78-1.75.94-2.69.19-1.12.1-2.27-.12-3.38-.99-5.02-4.52-9.13-8.24-12.63"/>
</svg>