<?xml version="1.0" encoding="UTF-8"?>
<svg id="Ebene_2" data-name="Ebene 2" xmlns="http://www.w3.org/2000/svg" version="1.1" viewBox="0 0 80 80">
  <defs>
    <style>
      .cls-1 {
        fill: #a4895b;
        stroke-width: 0px;
      }
    </style>
  </defs>
  <path class="cls-1" d="M59.08,47.65c-.8-.55-1.92-.66-2.75-.15-.89.54-1.3,1.81-.74,2.71.14-.76.69-1.43,1.62-1.49.44-.03.88.12,1.19.42.82.81.46,2.13-.12,3.08-.44.71-1.07,1.41-1.9,1.48-.64.06-1.27-.27-1.74-.71-.7-.65-1.13-1.54-1.5-2.43-.92-2.19-1.58-4.48-2.53-6.65.51-.42.97-.89,1.38-1.41,1.11-1.44,1.74-3.23,3.2-4.39.37-.29.85-.44,1.31-.36,1.17.2,1.25,1.56.72,2.39-.24.38-.65.71-1.09.67-.52-.06-.89-.89-.23-1.1-1.05-.12-1.5,1.29-.93,2.03.51.67,1.53.79,2.32.46.78-.32,1.37-.99,1.85-1.68.49-.71.92-1.47,1.21-2.29.53-1.5.58-3.12.5-4.7-.41-8.05-4.32-15.86-10.53-20.99-1.33-1.1-3.84-2.2-5.55-2.5l-.48-.08c1.12,0,2.24-.02,2.24-.02,1.44-.01,2.87-.75,3.7-1.94s1.01-2.8.45-4.14c-.56-1.33-1.87-2.33-3.31-2.49-.89-.1-1.84.12-2.51.71-.75.65-1.09,1.78-.64,2.69,0-.64.27-1.3.76-1.72.45-.38,1.09-.54,1.65-.36.48.16.86.53,1.14.95.77,1.13.87,2.83-.12,3.77-.67.63-1.66.78-2.58.81-4.2.16-8.5-1.41-12.54-.23-2.19.64-4.08,2.04-5.79,3.54,1.27-2.67,4.01-4.25,6.67-5.48,1.26-.58,2.56-1.14,3.6-2.06,1.13-1,1.91-2.53,1.5-4.01-.37,1.57-1.58,2.79-2.95,3.62-1.29.78-2.72,1.27-4.11,1.86-2.74,1.17-5.36,2.78-7.27,5.07-.75.89-1.37,1.88-1.94,2.89-.19.34-.37.68-.54,1.02-.75,1.48-1.43,3.07-1.47,4.73-.03,1.58.52,3.11.84,4.67.11.51.19,1.05.07,1.55-.12.51-.49.99-1.01,1.09-.4.08-.84-.14-1.01-.49-.13,1.15.75,2.33,1.9,2.53.25.04.52.05.74.18.55.32.45,1.13.28,1.74.97.12,1.72-.91,1.84-1.88.11-.97-.18-1.94-.12-2.92.07-1.22.67-2.35.89-3.55.21-1.17.06-2.38.29-3.55.22-1.17,1.01-2.38,2.19-2.51-.95,1.02-1.62,2.42-1.38,3.8.12.72.49,1.38.71,2.08.49,1.57.2,3.36-.76,4.69,1.18.19,2.2-.91,2.58-2.04.91-2.67-.32-5.94,1.3-8.25.63-.91,1.62-1.51,2.64-1.92,2.39-.97,5.1-1.02,7.6-.4s4.82,1.9,6.85,3.48c1.62,1.26,3.09,2.73,4.16,4.47,1.77,2.89,2.36,6.48,1.59,9.78-.67,2.9-2.38,5.55-4.73,7.38-.67-.67-1.47-1.25-2.45-1.61-.35-.13-.98-.33-1.79-.39-3.16-.24-6.37,1.52-7.71,4.24-.73,1.47-.82,2.44-1.03,4.31-3.15,1.78-6,4.31-7.14,7.72-1.34,3.98.14,8.73,3.46,11.28-.79,2.57-.87,5.34-.01,7.88.11.32.28.77.51,1.31,1.53,3.61,4.78,5.97,8.7,6.14l1.42-.08c-2.51-.46-6.71-2.42-8.56-6.35-.58-1.23-.77-2.6-.75-3.96.02-1.28.23-2.55.59-3.78.89.44,1.84.77,2.8,1.03,2.5.68,5.2.87,7.7.3.12.1.23.2.34.29.77.61,1.58,1.19,2.23,1.92.94,1.05,1.52,2.46,1.41,3.86-.12,1.41-1,2.76-2.32,3.27-.56.22-1.18.27-1.78.23-.76-.06-1.49-.37-2.08-.86-1.21-1-2.29-2.54-1.31-4.06.2-.3.47-.57.77-.75,1.59-.97,3.12.2,3.47,1.61.17-.84-.44-1.74-1.17-2.27-.99-.72-2.32-1.08-3.54-.01-.58.51-.97,1.24-1.05,2.01-.17,1.58.73,3.09,1.94,4.1.65.55,1.4.99,2.22,1.21,2.23.59,4.72-.68,5.8-2.71s.83-4.63-.37-6.6c-.51-.83-1.16-1.54-1.87-2.22.61-.32,1.18-.69,1.68-1.15,1.39-1.28,2.14-3.14,2.43-5.01.33-2.1.06-4.46-1.44-5.97-.81-.82-1.91-1.31-2.81-2.02-.91-.72-1.66-1.86-1.37-2.98-1.08,1.35-1.74,3.15-.4,4.24-.3-.22-.71-.08-1.08,0-1.73.43-3.51,1.27-5.17,2.4-.69-2.03-.86-4.18-.79-6.35.98-.45,1.98-.84,3.01-1.18,2.1-.7,4.28-1.18,6.36-1.96.85-.32,1.68-.7,2.46-1.16.42.75.8,1.54,1.15,2.34.54,1.23.9,2.54,1.41,3.79s1.2,2.46,2.25,3.31c1.05.84,2.52,1.25,3.78.79,1.04-.39,1.8-1.31,2.29-2.3.42-.87.67-1.86.56-2.82-.1-.97-.58-1.91-1.38-2.47v-.02ZM22.83,22.7c-.85.16-1.59-.57-1.43-1.43.09-.48.48-.86.95-.95.85-.16,1.59.57,1.43,1.43-.09.48-.48.86-.95.95ZM32.09,62.09c-1.96-2.66-2.18-6.6,0-9.28.38-.69,1.05-1.24,1.75-1.69-.51,2.29-1.13,4.15-1.62,5.46,1.38.4,1.42-1.38,1.92-.87.38.39.45.73.66,1.11.11.2.33.61.55,1.02-.86.83-1.64,1.74-2.31,2.69-.35.5-.66,1.03-.95,1.57ZM44.55,55.37c.84-.01,1.74.12,2.36.69.59.53.82,1.36.85,2.15.07,2.24-1.36,4.35-3.28,5.51-.22.14-.45.26-.69.37-.38-.33-.75-.67-1.09-1.03-.97-.99-1.79-2.11-2.55-3.27-.43-.65-.84-1.31-1.21-2,1.7-1.19,3.52-2.4,5.62-2.43h0ZM40.2,64.13c.26.26.53.52.79.78-.99.15-2.02.18-3.02.12-1.06-.07-2.12-.24-3.09-.66-.41-.18-.79-.4-1.15-.66.7-1.46,1.63-2.81,2.78-3.96,1.13,1.68,2.1,2.81,3.69,4.38h0ZM45.39,40.65c-2.5,1.26-5.14,2.32-7.69,3.5.04-.19.09-.38.15-.56.37-1.14,1.12-2.16,2.09-2.86,1.17-.84,4.25-1.35,5.37-.47.1.08.19.17.29.25-.08.05-.15.1-.22.14Z"/>
</svg>