<?xml version="1.0" encoding="UTF-8"?>
<svg id="Ebene_2" data-name="Ebene 2" xmlns="http://www.w3.org/2000/svg" version="1.1" viewBox="0 0 415.1 210">
  <defs>
    <style>
      .cls-1 {
        fill: #a4895b;
        stroke-width: 0px;
      }
    </style>
  </defs>
  <path class="cls-1" d="M345.87,54.82c0,7.21-2.95,13.05-6.58,13.05s-6.58-5.84-6.58-13.05c0-10.56,5.97-20.29,6.58-36.76.78,16.47,6.58,26.2,6.58,36.76"/>
  <path class="cls-1" d="M365.83,26.1c-8.72,12.51-18.77,7.39-18.77,7.39,17.63,32.21-7.77,41.5-7.77,41.5,0,0-25.39-9.29-7.77-41.5,0,0-10.05,5.12-18.76-7.39-8.72-12.51-23.31-33.16-49.27-23.69h.04c1.6-.04,3.25.05,4.91.3,12.25,1.87,20.96,11.32,19.47,21.12-.76,5.01-4.04,9.13-8.69,11.72-.34.19-.68.36-1.03.54.77-.28,1.54-.51,2.3-.72,7.49-1.98,14.69-.51,18.47,4.23.27.34.52.68.75,1.05.24.37.44.75.62,1.14,3.18,6.56-.03,15.56-7.59,21.91,12.62-4.44,25.88-3.36,24.94,17.72,2.46-1.71,18.95-5.78,21.6,17.52,2.65-23.31,19.14-19.23,21.6-17.52-.95-21.08,12.32-22.16,24.94-17.72-7.56-6.36-10.77-15.35-7.59-21.91.19-.39.39-.77.62-1.14.23-.36.49-.72.75-1.05,3.78-4.74,10.98-6.21,18.47-4.23.77.2,1.54.44,2.3.72-.35-.17-.69-.35-1.03-.54-4.65-2.59-7.93-6.72-8.69-11.72-1.49-9.8,7.23-19.26,19.47-21.12,1.66-.25,3.31-.35,4.91-.3h.04c-25.97-9.47-40.55,11.18-49.27,23.69"/>
  <path class="cls-1" d="M104.35,64.81v-6.42c0-1.03-.08-1.74-.24-2.22-.47-1.11-1.11-1.74-2.53-1.74s-2.14.63-2.62,1.74c-.16.47-.24,1.19-.24,2.22v9.66c0,1.03,5.62-1.43,5.62-3.25M98.72,72.18v4.99c0,.63,0,1.59.24,2.14.47,1.11,1.19,1.82,2.62,1.82,6.02-.47-2.46-12.2,7.84-12.2-1.59.4-1.43,9.02-.87,10.37.16.4.4.71.87,1.11l-.16.4c-1.19.08-2.22.24-3.09.56-1.27.47-2.77,1.27-4.59,2.37-1.9-1.11-3.4-1.9-4.59-2.37-.95-.32-1.98-.47-3.17-.56l-.16-.4c.47-.4.79-.71.87-1.11.24-.4.32-1.11.32-2.14v-18.77c0-1.03-.08-1.74-.32-2.22-.08-.32-.4-.72-.87-1.11l.16-.4c1.19,0,2.22-.24,3.17-.56,1.19-.4,2.69-1.19,4.59-2.37,1.82,1.19,3.33,1.98,4.59,2.37.87.32,1.9.56,3.09.56l.16.4c-.47.4-.71.79-.87,1.11-.16.47-.24,1.19-.24,2.22v3.09c0,.63,0,3.4.24,4.04.16.32.4.63.87,1.11l-.16.4c-1.98,0-10.54,2.93-10.54,5.15"/>
  <path class="cls-1" d="M117.4,49.53c.95-.24,2.3.47,3.33,2.22-2.14-1.27-2.53,1.98-2.53,2.85h3.96l.24.4c-.47.31-1.11,1.11-1.19,1.66h-3.01v20.74c0,2.22,1.03,5.46,3.65,2.85,0,1.66-1.43,3.4-3.09,3.4-1.9-.08-3.56-3.01-5.86-3.01v-.4c.56-.4.95-.79,1.11-1.19.15-.4.24-.79.24-2.37v-20.03h-1.59c-.08-.56-.71-1.35-1.11-1.66l.16-.4c1.9-.32,1.66-4.12,5.7-5.06"/>
  <path class="cls-1" d="M134.19,64.81v-6.42c0-1.03-.08-1.74-.24-2.22-.47-1.11-1.11-1.74-2.53-1.74s-2.14.63-2.62,1.74c-.16.47-.24,1.19-.24,2.22v9.66c0,1.03,5.62-1.43,5.62-3.25M128.57,72.18v4.99c0,.63,0,1.59.24,2.14.47,1.11,1.19,1.82,2.62,1.82,6.02-.47-2.46-12.2,7.84-12.2-1.59.4-1.43,9.02-.87,10.37.16.4.4.71.87,1.11l-.16.4c-1.19.08-2.22.24-3.09.56-1.27.47-2.77,1.27-4.59,2.37-1.9-1.11-3.4-1.9-4.59-2.37-.95-.32-1.98-.47-3.17-.56l-.16-.4c.47-.4.79-.71.87-1.11.24-.4.32-1.11.32-2.14v-18.77c0-1.03-.08-1.74-.32-2.22-.08-.32-.4-.72-.87-1.11l.16-.4c1.18,0,2.21-.24,3.17-.56,1.19-.4,2.69-1.19,4.59-2.37,1.82,1.19,3.33,1.98,4.59,2.37.87.32,1.9.56,3.09.56l.16.4c-.47.4-.71.79-.87,1.11-.16.47-.24,1.19-.24,2.22v3.09c0,.63,0,3.4.24,4.04.16.32.4.63.87,1.11l-.16.4c-1.98,0-10.54,2.93-10.54,5.15"/>
  <path class="cls-1" d="M156.52,60.53c.16.4.47.79,1.11,1.19v.4c-2.21,0-4.52,3.09-5.94,2.93-.47,0-.79-.32-1.11-.87,1.74,0,1.74-3.4,1.74-4.67v-1.19c0-.71-.08-2.77-.08-3.01,0-1.03-3.56.47-4.83,1.59-.72.56-.72,1.19-.72,2.14v19.08c0,1.27,0,4.67,1.74,4.67-.31.56-.71.87-1.11.87-1.5.16-3.8-2.93-5.93-2.93v-.4c.56-.4.95-.79,1.11-1.19.16-.47.24-.79.24-2.37v-18.37c0-1.11-.08-1.82-.24-2.22s-.47-.72-.95-1.11l.24-.4c3.01-.08.95-2.93,5.78-2.93-.87.95-.87.87-.87,2.93,0,.87.47.56.95.24,1.11-.71,3.88-1.9,4.59-3.17,2.61,3.01,4.91,2.93,5.06,2.93l.08.4c-.47.24-.79.56-.95.95-.4,1.03-.32,3.72.08,4.52"/>
  <path class="cls-1" d="M165.15,56.81c-.79.63-.79,1.27-.79,2.22v19.09c0,1.27.08,4.67,1.74,4.67-.32.47-.63.87-1.11.87-1.43.08-3.72-3.01-5.86-3.01v-.4c.56-.4.87-.79,1.11-1.19.16-.4.24-.79.24-2.3v-18.44c0-1.03-.08-1.74-.24-2.22-.16-.31-.47-.63-.95-1.11l.16-.4c3.09,0,1.03-2.93,5.86-2.93-.87.95-.87,1.74-.87,3.01,0,1.82,5.3-2.53,5.55-3.01,2.69,2.93,4.91,3.01,5.06,3.01l.08.4c-.79.4-1.03,1.11-1.19,1.9-.08.63,0,1.27,0,1.9v19.24c0,1.27,0,4.67,1.75,4.67-.31.47-.72.87-1.11.87-1.5.08-3.8-3.01-5.94-3.01v-.4c.56-.4.95-.79,1.11-1.19s.24-.79.24-2.3v-21.53c0-.08,0-.24-.16-.24-.47-.32-3.65.95-4.67,1.82"/>
  <path class="cls-1" d="M188.35,67.66c0-.63-.08-1.59-.32-2.22-.4-1.03-1.11-1.74-2.53-1.74s-2.14.71-2.53,1.74c-.16.47-.24,1.19-.24,2.22v9.34c0,1.03.08,1.82.24,2.22.4,1.11,1.11,1.82,2.53,1.82s2.14-.71,2.53-1.82c.16-.4.32-1.19.32-2.22v-9.34ZM178.77,67.66c0-.63,0-1.59-.24-2.22-.16-.32-.47-.71-.95-1.11l.24-.4c1.11,0,2.14-.16,3.09-.56,1.18-.4,2.77-1.19,4.59-2.3,1.03.63,1.98,1.11,2.85,1.59v-4.36c0-.63-.08-1.66-.32-2.22-.4-1.11-1.11-1.82-2.53-1.82s-2.14.72-2.53,1.82c-.24.47-.32,1.35-.16,1.82.24.4.56.87,1.19,1.27v.4c-2.53,0-3.17,3.09-6.34.79,1.5-.4,1.35-3.09.87-4.28-.16-.32-.47-.71-.95-1.11l.24-.4c1.11,0,2.14-.24,3.09-.56,1.18-.47,2.77-1.19,4.59-2.37,1.9,1.19,3.4,1.9,4.59,2.37.95.32,1.98.56,3.17.56l.16.4c-.47.4-.79.79-.95,1.11-.16.4-.24,1.19-.24,2.22v18.69c0,1.03.08,1.82.24,2.22.16.32.47.71.95,1.11l-.16.4c-1.19,0-2.21.24-3.17.56-1.19.47-2.69,1.19-4.59,2.37-1.82-1.19-3.41-1.9-4.59-2.37-.95-.31-1.98-.56-3.09-.56l-.24-.4c.47-.4.79-.79.95-1.11.16-.4.24-1.19.24-2.22v-9.34h0Z"/>
  <path class="cls-1" d="M196.74,58.31c0-1.5,0-2.3-1.11-3.25l.16-.4c3.01-.08.95-2.93,5.78-2.93-.87.95-.87,2.37-.87,4.43v20.9c0,.63,0,1.59.24,2.22.47,1.03,1.11,1.74,2.53,1.74,5.46,0-2.14-12.2,7.92-12.2-1.59.47-1.43,9.02-.87,10.45.08.32.4.63.87,1.11l-.16.4c-1.19,0-2.22.16-3.17.56-1.19.4-2.69,1.19-4.59,2.3-1.82-1.11-3.33-1.9-4.59-2.3-.87-.4-1.9-.56-3.09-.56l-.16-.4c.47-.47.71-.79.87-1.11.16-.47.24-1.19.24-2.22v-18.77.02h0Z"/>
  <path class="cls-1" d="M78.58,12.85c.95-.24,2.3.47,3.33,2.22-2.14-1.27-2.53,1.98-2.53,2.85h3.96l.24.4c-.47.31-1.11,1.11-1.19,1.66h-3.01v20.74c0,2.22,1.03,5.46,3.65,2.85,0,1.66-1.43,3.4-3.09,3.4-1.9-.08-3.56-3.01-5.86-3.01v-.4c.56-.4.95-.79,1.11-1.19.16-.4.24-.79.24-2.37v-20.03h-1.59c-.08-.56-.71-1.35-1.11-1.66l.16-.4c1.9-.32,1.66-4.12,5.7-5.06"/>
  <path class="cls-1" d="M90.7,20.21c-.79.56-.79,1.19-.79,2.14v19.08c0,1.27,0,4.68,1.74,4.68-.31.56-.71.87-1.11.87-1.5.16-3.8-2.93-5.94-2.93v-.4c.56-.4.95-.79,1.11-1.19.16-.47.31-.79.31-2.38V12.05c0-1.03-.16-1.75-.31-2.22-.08-.32-.4-.72-.87-1.11l.16-.4c3.01-.08,1.03-2.93,5.86-2.93-.79.87-.87,2.14-.87,3.8-.08.24-.08,8.15-.08,8.31,0,2.3,5.15-1.66,5.62-2.46,2.46,2.93,4.83,2.93,4.99,2.93l.08.4c-.72.4-1.03,1.11-1.19,1.9v23.28c0,2.93.08,4.75.32,5.46.31.95.95,1.82,1.9,2.69.63.47,1.5,1.03,2.61,1.59v1.03c-1.98-.87-3.72-1.82-5.15-2.93-1.5-1.11-2.53-2.3-3.09-3.56-.32-.71-.47-1.98-.47-3.65l-.08-25.58c0-.16,0-.24-.08-.31-.56-.24-3.64.95-4.67,1.9"/>
  <path class="cls-1" d="M113.66,28.13v-6.42c0-1.03-.08-1.74-.24-2.22-.47-1.11-1.11-1.74-2.53-1.74s-2.14.63-2.62,1.74c-.16.47-.24,1.19-.24,2.22v9.66c0,1.03,5.62-1.43,5.62-3.25M108.04,35.49v4.99c0,.63,0,1.59.24,2.14.47,1.11,1.18,1.82,2.62,1.82,6.02-.47-2.46-12.2,7.84-12.2-1.59.4-1.43,9.02-.87,10.37.16.4.4.71.87,1.11l-.16.4c-1.19.08-2.21.24-3.09.56-1.27.47-2.77,1.27-4.59,2.37-1.9-1.11-3.4-1.9-4.59-2.37-.95-.32-1.98-.47-3.17-.56l-.16-.4c.47-.4.79-.71.87-1.11.24-.4.32-1.11.32-2.14v-18.77c0-1.03-.08-1.74-.32-2.22-.08-.32-.4-.72-.87-1.11l.16-.4c1.19,0,2.22-.24,3.17-.56,1.19-.4,2.69-1.19,4.59-2.37,1.82,1.19,3.33,1.98,4.59,2.37.87.32,1.9.56,3.09.56l.16.4c-.47.4-.72.79-.87,1.11-.16.47-.24,1.19-.24,2.22v3.09c0,.63,0,3.4.24,4.04.16.32.4.63.87,1.11l-.16.4c-1.98,0-10.53,2.93-10.53,5.15"/>
  <path class="cls-1" d="M86.01,93.73c0,3.49-1.43,6.33-3.19,6.33s-3.19-2.84-3.19-6.33c0-5.12,2.9-9.84,3.19-17.84.38,7.99,3.19,12.71,3.19,17.84"/>
  <path class="cls-1" d="M78.51,170.17c-.66-.26-1.59-.26-2.38-.26-4.89-.53-5.69-24.98-5.69-29.48l-.14-67.28c0-3.57,1.45-7.14,4.76-7.94-17.19-3.7-2.12-13.62-.14-9.51.79,1.72.26,3.7,2.78,4.63,5.02,1.85,7.66-8.59-3.17-8.32-9.65.14-11.1,11.24-18.5,13.22,3.44,1.85,3.83,4.49,3.83,7.94v23.39c-1.85-.66-3.97-.79-6.35-.53,4.63,3.04,6.35,8.86,6.35,14.27v14.41c-7.54-17.45-18.9-34.23-19.3-53.4,0-4.09,2.64-17.18,8.06-20.49,1.45-.79,2.38.26,3.57.4,1.45.14,2.38-.79,1.85-2.25-.53-1.19-2.38-2.38-6.21-.66-10.97,5.02-10.58,16.39-24.18,13.48-4.36-.93-8.46-.53-12.56,1.19-5.02,2.12-8.46,5.42-10.18,10.31-2.64,7.54.52,14.81,8.2,17.45,3.04,1.06,6.21,1.06,9.25.14,2.9-.93,4.89-2.64,5.68-5.02.53-1.45.4-2.9-.53-4.49-.79-1.45-2.11-2.51-3.97-3.17,0,.79-.14,1.59-.14,2.12-.14.66-.26,1.19-.4,1.59-.66,1.85-1.98,3.31-3.83,3.97-7.14,2.78-14.27-3.83-11.37-12.03,1.19-3.7,3.71-6.35,7.4-7.93,4.49-1.98,11.5-1.98,15.86.79-2.25,1.33-4.23,3.44-2.52,6.35,2.64-3.57,5.16,0,5.42,2.9v20.76c-1.85-.79-4.09-.93-6.47-.66,5.28,3.44,6.47,10.18,6.47,14.27v3.97c0,1.85.14,5.42.14,9.25v14.67c0,3.57,0,6.87-.14,9.25-.14,11.1-1.06,21.81-12.03,25.91h.4c7.66.66,14.27-6.35,17.31-10.97,2.78,1.72,5.68-.26,5.42-2.51,1.06.26,3.44-.14,4.49-1.19-4.49-.66-5.02-11.77-4.89-20.49,0-8.59,0-24.58.14-31.46,1.98,4.89,14.81,30.53,16.52,40.85.26,1.59.52,3.17-.79,4.09,3.04,0,5.95,1.85,8.46,5.28,1.98,2.9,5.16,10.18,8.86,14.01,1.19,1.19,2.64,2.38,3.83,2.38,2.64,0,2.38-2.64.79-3.17"/>
  <path class="cls-1" d="M85.64,152.07v-36.61c0-3.44.14-5.82,1.59-7.4-8.06,0-4.76,4.76-9.78,4.89l-.26.66c.79.66,1.19,1.19,1.45,1.85s.4,2.52.4,3.7v30.67c0,2.64-.14,3.17-.4,3.97-.26.66-.93,1.33-1.85,1.98v.66c3.57,0,7.4,5.16,9.91,4.89.66,0,1.33-.53,1.85-1.45-2.9,0-2.9-5.68-2.9-7.8"/>
  <path class="cls-1" d="M108.64,150.34c0,1.72-.14,2.91-.4,3.71-.79,1.72-1.98,2.9-4.23,2.9-2.38,0-3.57-1.19-4.36-2.9-.26-.79-.4-1.98-.4-3.71v-31.19c0-1.85.13-3.04.4-3.7.79-1.85,1.98-3.04,4.36-3.04,2.25,0,3.44,1.19,4.23,3.04.26.66.4,1.85.4,3.7v31.19ZM119.35,117.04c-1.19-2.25-2.12-3.7-3.44-4.09-1.33-.4-1.85,0-4.23-.93-2.12-.79-4.63-2.11-7.66-3.97-3.17,1.85-5.68,3.17-7.66,3.97-1.59.53-3.31.79-5.28.93l-.26.66c.79.66,1.32,1.19,1.45,1.85.26.66.53,1.85.53,3.7v31.19c0,1.72-.26,2.91-.53,3.71-.14.52-.66,1.06-1.45,1.85l.26.66c1.98,0,3.71.26,5.28.93,1.98.66,4.49,1.98,7.66,3.83,1.45-.93,2.9-1.72,4.23-2.38,3.04-1.59,5.82,2.25,7.27,5.02.66,1.33.93,2.78.93,4.49h-10.71c-4.23,0-6.74.52-9.91,3.57-1.85,1.72-3.31,3.97-2.78,6.08,1.45-2.52,3.17-3.04,8.46-3.04h13.35c1.98,0,2.64-2.38,3.17-3.97,1.19-4.23,1.98-9.12.52-12.95-.26-.66-.79-1.45-1.45-2.25-1.85-2.52-1.85-1.72-1.85-5.55v-30c0-3.3,2.64-4.23,4.09-3.3"/>
  <path class="cls-1" d="M146.71,164.75c-.4-1.19-.53-4.23-.53-9.12v-38.86c.26-1.33.79-2.52,1.98-3.17l-.14-.66c-.26,0-4.23,0-8.32-4.89-.79,1.33-9.39,7.94-9.39,4.09,0-.26,0-13.48.14-13.88,0-2.78.14-4.89,1.45-6.35-8.06,0-4.76,4.76-9.78,4.89l-.26.66c.79.66,1.33,1.33,1.45,1.85.26.79.52,1.98.52,3.7v46.79c0,2.64-.26,3.17-.52,3.97-.26.66-.93,1.32-1.85,1.98v.66c3.57,0,7.4,5.16,9.91,4.89.66,0,1.32-.53,1.85-1.45-2.9,0-2.9-5.68-2.9-7.8v-31.86c0-1.59,0-2.64,1.33-3.57,1.72-1.59,6.87-3.57,7.8-3.17.14.14.14.26.14.53l.14,42.7c0,2.78.26,4.89.79,6.08.92,2.12,2.64,4.09,5.16,5.95,2.38,1.85,5.28,3.44,8.59,4.89v-1.71c-1.85-.93-3.31-1.85-4.36-2.64-1.59-1.45-2.64-2.9-3.17-4.49"/>
  <path class="cls-1" d="M162.04,112.8c0-1.45.66-6.87,4.23-4.76-1.72-2.9-3.97-4.09-5.55-3.7-6.74,1.59-6.35,7.93-9.51,8.46l-.26.66c.66.53,1.72,1.85,1.85,2.78h2.64v33.45c0,2.64-.14,3.31-.4,3.97s-.93,1.33-1.85,1.98v.66c3.83,0,6.61,4.89,9.78,5.02,2.78,0,5.16-2.91,5.16-5.68-4.36,4.36-6.08-1.06-6.08-4.76v-34.63h5.02c.14-.93,1.19-2.25,1.98-2.78l-.4-.66h-6.62,0Z"/>
  <path class="cls-1" d="M203.94,150.34c0,1.72-.14,2.9-.4,3.7-.79,1.72-1.98,2.9-4.36,2.9-2.25,0-3.44-1.19-4.23-2.9-.27-.79-.4-1.98-.4-3.7v-31.19c0-1.85.13-3.04.4-3.7.79-1.85,1.98-3.04,4.23-3.04,2.38,0,3.57,1.19,4.36,3.04.26.66.4,1.85.4,3.7v31.19ZM210.94,115.45c.14-.66.66-1.19,1.45-1.85l-.26-.66c-1.98-.14-3.7-.4-5.28-.93-1.98-.79-4.49-2.11-7.66-3.97-3.04,1.85-5.55,3.17-7.66,3.97-1.45.53-3.17.79-5.16.93l-.26.66c.79.66,1.19,1.19,1.45,1.85s.4,1.85.4,3.7v31.19c0,1.72-.14,2.9-.4,3.7-.26.53-.66,1.06-1.45,1.85l.26.66c1.98,0,3.71.26,5.16.93,2.12.66,4.63,1.98,7.66,3.83,3.17-1.85,5.68-3.17,7.66-3.83,1.59-.66,3.3-.93,5.28-.93l.26-.66c-.79-.79-1.33-1.33-1.45-1.85-.26-.79-.53-1.98-.53-3.7v-31.19c0-1.85.26-3.04.53-3.7"/>
  <path class="cls-1" d="M219.53,153.65c-.26.79-.93,1.45-1.85,2.12v.66c3.83,0,6.47,4.89,9.65,4.89,2.9.14,5.16-2.78,5.16-5.55-4.23,4.23-5.95-1.06-5.95-4.76,0-13.35-.13-21.42,0-34.64h5.02c.13-.93,1.19-2.25,1.85-2.9l-.26-.66h-6.61v-13.35c0-.4,0-.66.14-.93.52,0,1.98.93,2.64.79,1.98-.4,3.3-2.51,4.09-5.42-1.06,1.06-6.08-.14-7.27-1.98-1.85,1.45-5.42,4.89-7.8,4.89l-.4.66c.79.66,1.33,1.33,1.59,1.85.26.79.4,1.98.4,3.71v9.78h-3.57l-.4.66c.79.66,1.85,1.98,1.98,2.9h1.98v33.45c0,2.64-.14,3.17-.4,3.83"/>
  <path class="cls-1" d="M284.17,106.33c-1.05-9.84,5.58-14.86,11.24-8.47-.61,6.92-3.07,11.31-3.07,16.04,0,3.49,1.43,6.33,3.19,6.33s3.19-2.84,3.19-6.33c0-4.74-2.41-9.14-3.06-16.1,4.9-7.77-10.48-18.18-15.72-4.03-3.57,9.78-.26,17.45,4.23,23.79-1.06.4-1.72,1.19-1.72,2.25,0,.53.26,1.06.53,1.45-1.19.66-2.25,1.72-3.04,3.04,6.74-.14,16.52,5.82,15.07,12.95-2.25,11.5-20.09,14.67-32.79,17.98,3.44-2.64,3.57-6.47,3.57-8.59-.14-10.84-.14-21.54-.14-32.38v-3.17c1.85.66,4.09.93,6.61.53-5.42-3.44-6.47-10.18-6.61-14.14v-26.17c-.14-4.09,2.64-17.19,8.06-20.49,1.45-.79,2.38.26,3.57.4,1.45.14,2.38-.79,1.85-2.25-.52-1.19-2.51-2.38-6.35-.66-10.84,5.02-10.44,16.39-24.06,13.48-4.36-.93-8.59-.53-12.56,1.19-5.16,2.12-8.46,5.42-10.18,10.31-2.64,7.54.53,14.81,8.2,17.45,3.04,1.06,6.21,1.06,9.12.14,3.04-.93,4.89-2.64,5.82-5.02.53-1.45.26-2.9-.53-4.49-.79-1.45-2.25-2.51-3.97-3.17-.14.79-.14,1.59-.14,2.12-.14.66-.26,1.19-.4,1.59-.66,1.85-1.98,3.31-3.83,3.97-7.13,2.78-14.27-3.83-11.5-12.03,1.33-3.7,3.83-6.35,7.53-7.93,4.49-1.98,11.5-1.98,15.73.79-2.12,1.33-4.09,3.44-2.38,6.35,2.52-3.57,5.16,0,5.42,2.91v20.75c-1.85-.79-4.1-.93-6.47-.66,5.28,3.44,6.35,10.18,6.47,14.27v3.97c0,1.72.14,5.16.14,9.25.26,13.48,0,35.16-5.68,33.31-.93-.27-1.59-.93-2.38-1.98-1.06-1.33-2.78,2.64-6.61,5.82-4.76,3.97-9.25,3.7-14.67,9.51-3.71,4.1-6.42,10.07-3.45,18.25-.72,6.47-3,10.7-3,15.25,0,3.49,1.43,6.33,3.19,6.33s3.19-2.84,3.19-6.33c0-4.53-2.2-8.76-2.96-15.21,2.49-13.14,25.92-20.62,47.31-25.42,21.02-4.76,38.07-12.16,30.67-27.89-5.02-10.84-15.33-15.2-16.66-28.82"/>
  <path class="cls-1" d="M327.25,175.07c0-20.23-.14-40.45,0-60.67.14-2.9.26-5.02,1.59-6.35-8.06,0-4.76,4.76-9.78,4.89l-.26.66c.79.66,1.33,1.19,1.45,1.85.27.66.53,1.85.53,3.7v27.49c0,4.76-8.46,9.51-9.12,9.25-.14-.14-.14-.26-.14-.53,0-13.62-.13-27.36,0-40.98,0-2.9.14-5.02,1.45-6.35-8.06,0-4.63,4.76-9.78,4.89l-.26.66c.79.66,1.33,1.19,1.59,1.85s.4,1.85.4,3.7v33.31c-.26,1.33-.79,2.52-1.98,3.31l.14.66c3.7,0,5.95.53,8.33,4.89.53-.66,9.39-7.94,9.39-4.89,0,2.64.26,18.9-.53,20.23-.4.66-.92,1.33-1.85,1.98v.66c3.57,0,7.54,5.16,9.91,5.02.79,0,1.32-.66,1.85-1.59-2.78,0-2.91-5.55-2.91-7.66"/>
  <path class="cls-1" d="M358.98,122.72c-.66-1.33-.79-5.82-.14-7.53.26-.66.79-1.19,1.59-1.59l-.14-.66c-.26,0-4.09.14-8.46-4.89-1.19,2.11-5.82,4.09-7.66,5.28-.79.52-1.59,1.06-1.59-.4,0-3.44,0-3.3,1.45-4.89-8.06,0-4.63,4.76-9.65,4.89l-.4.66c.79.66,1.33,1.19,1.59,1.85s.4,1.85.4,3.7v30.67c0,2.64-.14,3.17-.4,3.97-.26.66-.93,1.33-1.85,1.98v.66c3.57,0,7.4,5.16,9.91,4.89.66,0,1.33-.53,1.85-1.45-2.9,0-2.9-5.68-2.9-7.8v-31.86c0-1.59,0-2.64,1.19-3.57,2.12-1.85,8.06-4.36,8.06-2.64,0,.4.14,3.83.14,5.02v1.98c0,2.11,0,7.8-2.9,7.8.53.93,1.06,1.45,1.85,1.45,2.38.26,6.21-4.89,9.92-4.89v-.66c-1.06-.66-1.59-1.33-1.85-1.98"/>
  <path class="cls-1" d="M381.18,150.22c0,1.72-.26,3.04-.52,3.7-.66,1.85-1.85,3.04-4.23,3.04s-3.57-1.19-4.23-3.04c-.26-.66-.4-1.98-.4-3.7v-15.6c0-1.72.14-2.9.4-3.7.66-1.72,1.85-2.9,4.23-2.9s3.57,1.19,4.23,2.9c.4,1.06.52,2.64.52,3.7v15.6ZM388.06,153.91c-.27-.66-.4-1.98-.4-3.7v-31.19c0-1.72.14-3.04.4-3.71.26-.53.79-1.19,1.59-1.85l-.26-.66c-1.98,0-3.7-.4-5.28-.93-1.98-.79-4.49-1.98-7.66-3.97-3.04,1.98-5.68,3.17-7.66,3.97-1.59.53-3.3.93-5.16.93l-.4.66c.79.66,1.32,1.33,1.59,1.85.79,1.98,1.06,6.47-1.45,7.14,5.28,3.83,6.35-1.33,10.58-1.33v-.66c-1.06-.66-1.59-1.45-1.98-2.12-.26-.79-.14-2.25.26-3.04.66-1.85,1.85-3.04,4.23-3.04s3.57,1.19,4.23,3.04c.4.93.52,2.64.52,3.71v7.27c-1.45-.79-3.04-1.59-4.76-2.64-3.04,1.85-5.68,3.17-7.66,3.83-1.59.66-3.3.93-5.16.93l-.4.66c.79.66,1.32,1.33,1.59,1.85.4,1.06.4,2.64.4,3.7v15.6c0,1.72-.13,3.04-.4,3.7-.27.53-.79,1.19-1.59,1.85l.4.66c1.85,0,3.57.4,5.16.93,1.98.79,4.63,1.98,7.66,3.97,3.17-1.98,5.68-3.17,7.66-3.97,1.59-.53,3.31-.93,5.28-.93l.26-.66c-.79-.66-1.33-1.33-1.59-1.85"/>
</svg>