<?xml version="1.0" encoding="UTF-8"?>
<svg id="Ebene_1" data-name="Ebene 1" xmlns="http://www.w3.org/2000/svg" version="1.1" viewBox="0 0 80 80">
  <defs>
    <style>
      .cls-1 {
        fill: #a4895a;
        stroke-width: 0px;
      }
    </style>
  </defs>
  <path id="Pfad_852" data-name="Pfad 852" class="cls-1" d="M17.59,25.52s.04-.02.07-.02l2.57-.19c-.19-.07-.32-.26-.32-.46-.83-.33-1.54-.92-2-1.68l.74.08c.23.04.47.04.7.01.24-.03.45-.16.59-.36.07-.12.1-.25.17-.37.06-.14.22-.21.36-.17.08-.31-.06-.63-.33-.79-.13-.09-.3-.17-.31-.33s.19-.29.36-.35c-.17-.13-.32-.28-.44-.45-.12-.13-.16-.32-.09-.48.07-.1.2-.14.31-.09l.93.45-.88-.48c-.68-.34-1.21-.93-1.45-1.65-.07-.19-.06-.4.03-.58.16.2.36.38.59.52.09.06.18.1.29.13.18.04.37-.02.5-.15-.04-.16-.03-.33.02-.48-1.43-.86-2.31-2.41-2.31-4.08.67.88,1.51,1.62,2.47,2.16-.15-.35-.17-.75-.05-1.11-.74-.55-1.37-1.25-1.83-2.05-.48-.82-.71-1.76-.68-2.71.28.86.89,1.58,1.69,2,0-.18.04-.36.1-.53.06-.15.2-.26.37-.29.08,0,.17.02.24.05.18.07.36.15.53.24-.15-.18-.27-.38-.36-.6-.06-.21-.08-.43-.07-.65,0-.34.07-.68.22-.99.15-.32.44-.55.79-.63-.33-1.29-.1-2.65.62-3.77.23-.34.49-.67.78-.97,1.21-1.28,2.64-2.33,4.24-3.09.09-.06.21-.08.32-.04-.82.72-1.56,1.52-2.23,2.38-.66.86-1.08,1.88-1.22,2.95-.16,1.95.89,3.8,2.64,4.68-.12-.75.02-1.51.39-2.17.38-.67.93-1.22,1.6-1.6.4-.2.8-.42,1.18-.65.39-.24.65-.65.71-1.1.3.26.52.6.63.98.02.05.03.11.03.16-.02.09-.05.17-.11.23-.07.1-.19.24.03.32.45.04.9.12,1.33.26.92.41,1.68,1.11,2.16,2,.2.37.4.82.81.94-.63.41-1.44.42-2.09.05-.17.4-.46.74-.83.98-.17.13-.37.22-.57.29-.27.07-.56.05-.81-.06.49-.14.82-.59.8-1.1-.03-.52-.32-.99-.78-1.25-.71-.4-1.59-.35-2.25.12-.65.49-1.01,1.27-.97,2.08.05.81.44,1.55,1.06,2.06.37.28.77.54,1.17.77.62.4,1.17.9,1.63,1.48.38.45.66.99.8,1.57.08.43.07.88-.02,1.3-.13.77-.5,1.48-1.08,2.01-.91.79-2.28.95-3.05,1.89-.54.74-.67,1.7-.35,2.56.2.74.81,1.31,1.56,1.45.75-.06,1.46-.34,2.05-.8.84-.45,1.79-.64,2.74-.57.21,0,.41.06.57.18.15-.25.28-.51.4-.78.08-.18.13-.43-.01-.56-.1-.09-.28-.12-.29-.25,0-.07.03-.13.08-.18l.99-1.22-.26-.55s-.03-.09-.03-.13c.02-.06.06-.1.11-.13.37-.23.68-.53.92-.89.16-.23.22-.5.17-.78-.06-.19-.17-.35-.33-.47-.12-.12-.27-.2-.44-.24-.19-.05-.4.04-.5.21-.85.09-1.57.65-1.89,1.44-.14-.35-.21-.73-.2-1.11,0-.31.1-.61.26-.88l.05-.13c.06-.33.09-.66.09-.99.11-.43.4-.8.79-1.02.37-.24.79-.4,1.17-.62.23-.11.42-.31.53-.54.09-.41-.13-.82-.51-.98-.38-.15-.79-.2-1.19-.15.36-.38.87-.59,1.4-.57.32.02.63.15.88.35l.25-.12c.17-.07.36-.04.5.08.13.11.23.26.29.43.01.06.04.12.08.17.08.07.19.12.29.13.59.17.98.73.93,1.34.21.06.37.22.42.43.05.2.06.41.03.62.07-.01.14-.05.19-.1.06.1.13.16.21.16s.14-.06.21-.16c.05.05.12.08.19.1-.03-.21-.02-.42.03-.62.05-.21.21-.37.42-.43-.04-.61.35-1.17.93-1.34.11-.01.21-.06.29-.13.04-.05.06-.11.08-.17.05-.17.15-.32.29-.43.14-.11.33-.14.5-.08l.25.12c.25-.21.55-.33.88-.35.53-.02,1.03.19,1.4.57-.4-.04-.81,0-1.19.15-.39.16-.6.58-.51.98.1.24.29.43.53.54.38.22.8.38,1.17.62.39.22.68.59.79,1.02,0,.33.03.66.09.99l.05.13c.16.26.25.57.26.88,0,.38-.06.76-.2,1.11-.31-.79-1.03-1.34-1.88-1.44-.1-.17-.3-.26-.5-.21-.17.04-.32.12-.44.24-.15.12-.27.29-.33.47-.05.27,0,.55.17.78.24.36.55.66.92.89.05.03.1.07.11.13,0,.05,0,.09-.03.13l-.25.56.99,1.22s.08.11.08.18c-.01.13-.19.16-.29.25-.14.13-.09.37-.01.56.11.27.25.53.4.78.16-.12.37-.19.57-.18.95-.07,1.9.12,2.74.57.59.46,1.3.74,2.05.8.75-.15,1.35-.71,1.55-1.45.32-.86.19-1.82-.35-2.56-.76-.94-2.14-1.1-3.05-1.89-.57-.53-.95-1.24-1.08-2.01-.09-.43-.1-.87-.02-1.3.14-.58.41-1.12.8-1.57.46-.58,1.01-1.08,1.63-1.48.4-.23.8-.49,1.17-.77.62-.51,1.01-1.26,1.06-2.06.04-.81-.32-1.59-.97-2.08-.66-.47-1.54-.52-2.25-.12-.45.26-.75.72-.78,1.24-.01.51.32.96.8,1.1-.26.11-.54.13-.81.06-.21-.06-.4-.16-.57-.29-.36-.24-.65-.58-.83-.98-.65.38-1.46.36-2.09-.05.41-.12.61-.57.81-.94.48-.89,1.24-1.59,2.16-2,.43-.14.88-.22,1.33-.26.21-.08.09-.22.03-.32-.05-.07-.09-.15-.11-.23,0-.05,0-.11.03-.16.12-.38.34-.72.63-.98.06.45.33.86.71,1.1.38.24.78.46,1.18.65.67.37,1.23.93,1.6,1.6.37.66.5,1.42.39,2.17,1.76-.87,2.8-2.72,2.64-4.67-.14-1.07-.56-2.09-1.22-2.95-.66-.86-1.41-1.65-2.22-2.37.11-.04.23-.02.32.04,1.59.75,3.03,1.8,4.24,3.09.29.3.55.62.78.97.72,1.12.94,2.48.62,3.77.35.08.64.31.79.63.15.31.22.65.22.99.02.22,0,.44-.07.65-.08.22-.21.43-.36.61.17-.09.35-.17.53-.24.08-.03.16-.05.24-.05.17.02.31.13.37.29.07.17.1.35.1.53.8-.42,1.41-1.14,1.69-2.01.03.95-.2,1.9-.68,2.72-.46.8-1.09,1.49-1.83,2.04.13.36.11.76-.05,1.11.96-.54,1.81-1.28,2.47-2.16,0,1.67-.88,3.22-2.32,4.08.06.15.07.32.02.48.13.13.32.18.5.15.1-.03.2-.07.29-.13.22-.14.42-.31.59-.52.09.18.1.39.03.58-.25.72-.77,1.31-1.45,1.64l-.87.48.93-.45c.11-.05.24-.01.31.09.07.16.03.35-.09.48-.12.17-.27.32-.44.45.16.06.37.17.36.35,0,.16-.18.24-.31.33-.27.17-.4.49-.33.79.15-.04.3.03.36.17.07.12.1.25.17.37.14.2.35.33.59.36.23.03.47.03.71-.01l.74-.08c-.46.76-1.17,1.35-2,1.68,0,.21-.13.39-.32.46l2.57.19s.04,0,.06.02c.06.04,0,.13-.05.17-.59.37-1.26.59-1.95.64.06.02.07.09.07.14,0,.19-.04.38-.12.55-.33.79-1.23,1.18-2.04.88-.22.41.89-.05,1.31.43.14.19.18.44.08.65-.09.21-.25.39-.45.51-.1.07-.21.12-.33.15-.34.06-.69.02-1.01-.1,1.07.71,2.33,1.1,3.61,1.12.08,0,.17.02.24.07.07.04.1.14.07.22-.02.03-.05.06-.09.08-.52.28-1.11.39-1.69.34-.61-.03-1.21-.13-1.8-.3-.18.24-.42.43-.69.56-.15.07-.31.1-.48.09l.13.07c.08.04.08.15.07.24-.09.48-.44.88-.9,1.04,1.25.94,2.64,1.68,4.13,2.18-.24.17-.54.25-.84.21-.69-.08-1.37-.29-1.98-.62-.38-.18-.77-.37-1.14-.57-.05.32-.28.58-.59.66-.23.08-.47.1-.71.06.17.37.01.81-.36.99-.22.1-.48.09-.69-.03l-.46-.27c1.35,2.32,3.36,4.18,5.77,5.35-.66.08-1.33-.03-1.93-.31-1.82-.72-3.42-1.92-4.61-3.48-.11-.14-.27-.32-.45-.27-.27.07-.21.49-.4.7-.11.12-.3.15-.44.06l-.45-.29.08.12c1.9,2.7,4.55,4.78,7.61,6-.93.05-1.86-.12-2.71-.5-2.22-.99-4.24-2.37-5.96-4.08l-1.1-.21c.1.28-.04.58-.32.69-.08.03-.17.04-.25.03,1.05,1.36,2.24,2.62,3.54,3.74,1.31,1.12,2.81,1.98,4.43,2.55.31.12.64.18.98.18-1.27.44-2.67.37-3.9-.18-1.24-.56-2.38-1.31-3.38-2.22-.78-.65-1.54-1.32-2.28-2.02-.2-.21-.43-.38-.69-.52-.26-.14-.57-.14-.84,0-.14.1-.27.22-.39.34-.29.22-.64.32-1,.3-.35-.02-.7-.09-1.04-.19-.08.17-.19.33-.33.46-.18.16-.38.31-.58.44-.64.43-1.09,1.1-1.25,1.86-.14.77.2,1.56.86,1.98.2.13.44.17.67.12.25-.06.41-.32.35-.57,0,0,0,0,0,0,.14.15.21.35.17.55-.03.18-.09.36-.19.52-.08.16-.19.31-.32.43-.21.15-.46.24-.73.24-.4.06-.81-.04-1.14-.27-.15,1.59.32,3.18,1.33,4.43,1.04,1.25,2.67,1.84,4.27,1.56.24-.04.48-.13.68-.27.24-.18.42-.41.53-.69.23-.54.24-1.15.03-1.7-.15-.54-.66-.9-1.22-.86-.46.1-.79.61-1.25.61-.13-.37-.05-.79.2-1.09.15-.16.32-.29.51-.39.54-.31,1.16-.43,1.77-.34-.28-.23-.41-.6-.34-.96.19-.08.35.09.49.23.66.68,1.7.97,2.18,1.78.18.35.29.73.3,1.12.09,1.04-.18,2.08-.78,2.94-.35.48-1.28.39-.89.78.44-.03.88-.02,1.32.03.6.03,1.19.14,1.76.32.34.12.66.28.97.47.81.51,1.41,1.3,1.69,2.21.27.93.1,1.93-.46,2.71-.24.32-.55.59-.78.92-.42.65-.6,1.43-.51,2.2-.83-.49-1.22-1.48-.95-2.4-.18.09-.13.29-.27.35-.12.05-.25.07-.38.05-.62-.09-1.22-.28-1.78-.56-.55-.27-1.17-.38-1.78-.3.55-.42,1.23-.62,1.92-.56.69.07,1.4.07,2.09-.02.71-.1,1.28-.63,1.43-1.33.02-.23-.01-.46-.09-.68-.12-.36-.32-.68-.58-.95-.69-.63-1.6-.95-2.53-.9-.92.05-1.83.18-2.73.38-.9.2-1.84.18-2.74-.06-1.33-.56-2.4-1.6-3-2.92.06.99.46,1.92,1.13,2.65.45.59.94,1.14,1.43,1.71,1.03,1.23,2.13,2.39,3.31,3.48.42.34.82.71,1.19,1.1,1.19,1.34,1.63,3.19,1.17,4.92-.13.46-.32.91-.43,1.37-.12.51-.15,1.05-.08,1.57-.07,0-.14,0-.2.05-.39.16-.83.12-1.18-.11-.42-.29-.62-.81-.5-1.31.03-.12.07-.22.11-.35-.16.33-.44.59-.78.74-.34.14-.64.36-.88.64-.06.1-.12.21-.16.32-.23-.33-.38-.72-.44-1.12-.02-.12-.02-.23-.02-.35.03-.45.31-.85.71-1.05.29-.13.66-.17.88-.4-.54-.26-.96-.72-1.18-1.27-.05-.32-.07-.64-.04-.97.04-.38-.14-.76-.46-.97.38.13.71.35.98.65.22.31.47.61.73.89.31.27.72.4,1.13.34.41-.06.75-.33.91-.71.1-.32.1-.66-.01-.98-.35-.88-.94-1.65-1.71-2.21-.67-.57-1.36-1.11-2.03-1.69-2.05-1.58-3.62-3.71-4.53-6.14-.04.52-.08,1.05-.13,1.57-.18,1.53-.19,3.08-.03,4.61.17,1.54.84,2.99,1.91,4.11.28.28.61.51.97.66-.32.44-.84.69-1.38.67-.16-.01-.31-.05-.45-.12-.04.87.2,1.73.68,2.45.31.46.71.86,1,1.34.25.47.41.97.49,1.5.16.55.09,1.15-.2,1.64-.45-.22-.86-.53-1.2-.91-.25.56-.23,1.2.06,1.74.29.53.47,1.12.54,1.73-.05.62-.32,1.2-.78,1.63-.43.44-.94.79-1.41,1.2-.49.38-.85.9-1.05,1.49-.2-.59-.56-1.11-1.05-1.49-.46-.41-.98-.76-1.41-1.2-.46-.43-.73-1.01-.78-1.63.06-.61.25-1.19.54-1.73.29-.54.31-1.18.06-1.74-.34.38-.75.68-1.2.91-.29-.5-.36-1.09-.2-1.64.08-.52.24-1.03.49-1.5.28-.48.68-.88,1-1.34.48-.72.72-1.58.68-2.45-.14.07-.3.11-.45.12-.54.02-1.06-.23-1.38-.67.37-.15.7-.37.97-.66,1.07-1.12,1.74-2.57,1.91-4.11.16-1.53.15-3.08-.03-4.61-.04-.52-.08-1.05-.13-1.57-.9,2.43-2.47,4.56-4.53,6.14-.67.57-1.36,1.11-2.03,1.69-.77.56-1.36,1.32-1.71,2.21-.11.32-.12.66-.01.98.16.38.5.65.91.71.41.06.82-.07,1.13-.34.26-.28.5-.58.73-.89.26-.3.6-.52.98-.65-.32.21-.5.58-.46.97.03.32.01.65-.04.97-.22.56-.65,1.01-1.18,1.27.22.23.58.26.88.4.41.2.68.6.71,1.05,0,.12,0,.23-.02.35-.06.4-.21.79-.44,1.12-.04-.11-.1-.22-.16-.32-.24-.28-.54-.5-.88-.64-.34-.14-.62-.4-.78-.74.04.14.09.24.11.35.12.5-.07,1.02-.5,1.31-.35.23-.79.27-1.18.11-.06-.04-.13-.05-.2-.05.07-.52.04-1.06-.08-1.57-.11-.47-.3-.91-.43-1.37-.46-1.73-.03-3.58,1.16-4.92.38-.39.78-.76,1.19-1.1,1.18-1.09,2.29-2.25,3.31-3.48.49-.56.98-1.12,1.43-1.71.67-.73,1.07-1.66,1.13-2.65-.59,1.32-1.67,2.36-3,2.92-.89.24-1.83.26-2.74.06-.9-.2-1.81-.32-2.73-.38-.93-.05-1.84.28-2.53.9-.26.27-.46.59-.58.95-.08.22-.11.45-.09.68.15.7.73,1.23,1.44,1.33.69.09,1.39.09,2.09.02.69-.07,1.38.13,1.92.56-.61-.08-1.23.02-1.78.3-.56.28-1.16.47-1.78.56-.13.01-.26,0-.38-.05-.13-.07-.08-.25-.27-.35.13.45.11.92-.06,1.36-.17.44-.48.8-.89,1.05.09-.77-.09-1.55-.51-2.2-.23-.33-.54-.59-.78-.92-.56-.79-.73-1.79-.46-2.71.28-.92.88-1.7,1.69-2.21.3-.19.63-.35.97-.47.57-.19,1.16-.29,1.76-.32.44-.04.88-.05,1.32-.03.4-.38-.54-.3-.89-.78-.59-.86-.87-1.9-.78-2.94.01-.39.12-.78.3-1.12.48-.82,1.52-1.1,2.18-1.78.13-.14.3-.31.49-.23.08.36-.06.73-.34.96.61-.09,1.23.03,1.77.34.19.1.37.23.51.39.25.3.33.72.2,1.09-.46,0-.79-.5-1.25-.61-.56-.04-1.07.32-1.22.86-.21.55-.2,1.16.04,1.71.11.27.29.51.53.69.21.13.44.23.68.27,1.6.28,3.23-.31,4.27-1.56,1.01-1.24,1.48-2.83,1.33-4.43-.33.23-.74.33-1.14.27-.26,0-.51-.09-.73-.24-.13-.12-.24-.27-.32-.43-.09-.16-.16-.34-.19-.52-.03-.2.03-.41.17-.55-.06.25.09.51.34.57,0,0,0,0,0,0,.23.05.47,0,.67-.12.66-.42,1-1.21.86-1.98-.16-.76-.6-1.42-1.25-1.86-.2-.13-.4-.28-.58-.44-.13-.13-.25-.29-.33-.46-.34.11-.69.17-1.04.19-.36.02-.71-.08-1-.3-.12-.12-.25-.24-.39-.34-.26-.14-.57-.14-.84,0-.26.14-.49.31-.69.52-.74.69-1.5,1.36-2.28,2.02-1.01.91-2.15,1.66-3.38,2.22-1.23.55-2.62.61-3.9.18.33,0,.66-.06.98-.18,1.62-.56,3.13-1.43,4.43-2.55,1.31-1.12,2.49-2.37,3.54-3.74-.29.04-.56-.17-.6-.46-.01-.09,0-.17.03-.25l-1.1.21c-1.73,1.71-3.75,3.09-5.96,4.08-.85.38-1.78.55-2.71.5,3.07-1.23,5.71-3.32,7.61-6.02l.08-.12-.45.29c-.14.08-.33.06-.44-.06-.19-.21-.13-.63-.4-.7-.18-.05-.34.12-.45.27-1.19,1.56-2.79,2.76-4.61,3.48-.6.28-1.27.39-1.93.31,2.41-1.17,4.42-3.03,5.77-5.35l-.45.27c-.35.21-.81.11-1.02-.24-.13-.22-.15-.48-.04-.71-.24.04-.48.02-.71-.06-.31-.08-.54-.34-.59-.66-.37.2-.76.39-1.14.57-.61.33-1.29.54-1.98.62-.3.04-.6-.04-.84-.21,1.49-.5,2.88-1.23,4.13-2.18-.47-.16-.81-.56-.9-1.04-.02-.09-.01-.2.07-.24l.13-.07c-.16,0-.33-.03-.48-.09-.27-.13-.51-.32-.69-.56-.58.17-1.19.27-1.8.3-.58.06-1.17-.06-1.69-.34-.04-.02-.07-.05-.09-.08-.03-.08,0-.17.07-.22.07-.04.16-.06.24-.07,1.29-.02,2.54-.4,3.61-1.1-.32.13-.67.17-1.01.11-.12-.03-.23-.09-.33-.15-.2-.12-.36-.3-.45-.51-.1-.22-.07-.47.08-.66.42-.49,1.53-.03,1.31-.43-.8.3-1.7-.09-2.04-.88-.07-.17-.11-.36-.12-.55,0-.06,0-.13.07-.14-.69-.06-1.36-.28-1.95-.65-.06-.04-.11-.13-.05-.17h0Z"/>
</svg>