<?xml version="1.0" encoding="UTF-8"?>
<svg id="Ebene_1" data-name="Ebene 1" xmlns="http://www.w3.org/2000/svg" version="1.1" viewBox="0 0 80 80">
  <defs>
    <style>
      .cls-1 {
        fill: #a4895a;
        stroke-width: 0px;
      }
    </style>
  </defs>
  <g id="Ebene_2" data-name="Ebene 2">
    <path id="Pfad_855" data-name="Pfad 855" class="cls-1" d="M43.46,42.81c0,3.8-1.55,6.88-3.47,6.88s-3.47-3.08-3.47-6.88c0-5.57,3.15-10.71,3.47-19.4.41,8.69,3.47,13.83,3.47,19.4Z"/>
    <path id="Pfad_856" data-name="Pfad 856" class="cls-1" d="M53.99,27.66c-4.6,6.6-9.9,3.9-9.9,3.9,9.3,16.99-4.1,21.9-4.1,21.9,0,0-13.4-4.9-4.1-21.9,0,0-5.3,2.7-9.9-3.9S13.7,10.16,0,15.16c0,0,.02,0,.02,0,.87-.02,1.74.03,2.59.16,6.46.98,11.06,5.98,10.27,11.15-.48,2.66-2.18,4.95-4.59,6.18-.18.1-.36.19-.55.29.41-.14.81-.27,1.22-.38,3.95-1.05,7.75-.27,9.74,2.23.14.18.28.36.4.55.12.19.23.39.33.6,1.68,3.46-.02,8.21-4,11.56,6.66-2.34,13.66-1.77,13.16,9.35,1.3-.9,9.99-3.05,11.4,9.25h0c1.39-12.3,10.09-10.16,11.39-9.26-.5-11.12,6.5-11.69,13.16-9.35-3.99-3.35-5.69-8.1-4-11.56.1-.21.21-.41.33-.6.12-.19.26-.38.4-.55,2-2.5,5.79-3.28,9.74-2.23.41.11.81.23,1.22.38-.19-.1-.37-.19-.55-.29-2.41-1.23-4.11-3.52-4.59-6.18-.79-5.16,3.81-10.16,10.27-11.14.86-.13,1.73-.18,2.6-.16,0,0,.02,0,.02,0-13.7-5-21.4,5.9-26,12.5h-.01Z"/>
  </g>
</svg>