<?xml version="1.0" encoding="UTF-8"?>
<svg id="Ebene_1" data-name="Ebene 1" xmlns="http://www.w3.org/2000/svg" viewBox="0 0 152.57 140.91">
  <defs>
    <style>
      .cls-1 {
        fill: #a3885a;
        stroke-width: 0px;
      }
    </style>
  </defs>
  <path class="cls-1" d="M69.9,111.63c0-.72-.05-1.18-.15-1.44-.1-.26-.26-.46-.56-.72l.1-.26c.77-.05,1.44-.15,2-.36.82-.31,1.8-.82,2.98-1.54,1.23.72,2.21,1.23,2.98,1.54.62.21,1.28.31,2.05.36l.1.26c-.31.26-.51.46-.56.72-.1.26-.21.72-.21,1.44v12.12c0,.67.1,1.13.21,1.44.05.21.26.41.56.72l-.1.26c-.77,0-1.44.1-2.05.36-.77.26-1.75.77-2.98,1.49-1.18-.72-2.16-1.23-2.98-1.49-.57-.26-1.23-.36-2-.36l-.1-.26c.31-.31.46-.51.56-.72.1-.31.15-.77.15-1.44v-12.12ZM76.12,111.63c0-.72-.05-1.18-.15-1.44-.31-.72-.77-1.18-1.69-1.18-.87,0-1.34.46-1.64,1.18-.1.26-.15.72-.15,1.44v12.12c0,.67.05,1.13.15,1.44.31.67.77,1.13,1.64,1.13.92,0,1.39-.46,1.69-1.13.1-.31.15-.77.15-1.44v-12.12Z"/>
  <path class="cls-1" d="M81.56,111.58c0-.98,0-1.49-.77-2.11l.15-.26c1.95-.05.62-1.9,3.75-1.9-.56.62-.62,1.54-.62,2.88v13.56c0,.41.05,1.03.21,1.44.26.67.72,1.13,1.64,1.13,1.18,0,1.8-1.23,1.8-2.52v-15.56c0-1.34,0-2.26-.56-2.88,3.13,0,1.8,1.85,3.75,1.9l.15.26c-.77.67-.77,1.18-.77,2.16v12.58c0,.67.05,1.18.15,1.44.1.21.31.46.62.72l-.15.26c-1.8,0-3.75,2.16-4.98,3.34-1.18-.72-2.21-1.23-2.98-1.49-.62-.26-1.28-.36-2.05-.36l-.1-.26c.31-.31.51-.51.62-.72.1-.31.15-.77.15-1.44v-12.17Z"/>
  <path class="cls-1" d="M95.74,120.57v3.24c0,.41,0,1.03.15,1.39.31.72.77,1.18,1.69,1.18,3.9-.31-1.59-7.91,5.08-7.91-1.03.26-.92,5.86-.56,6.73.1.26.26.46.56.72l-.1.26c-.77.05-1.44.15-2,.36-.82.31-1.8.82-2.98,1.54-1.23-.72-2.21-1.23-2.98-1.54-.62-.21-1.28-.31-2.05-.36l-.1-.26c.31-.26.51-.46.56-.72.15-.26.21-.72.21-1.39v-12.17c0-.67-.05-1.13-.21-1.44-.05-.21-.26-.46-.56-.72l.1-.26c.77,0,1.44-.15,2.05-.36.77-.26,1.75-.77,2.98-1.54,1.18.77,2.16,1.28,2.98,1.54.56.21,1.23.36,2,.36l.1.26c-.31.26-.46.51-.56.72-.1.31-.15.77-.15,1.44v2c0,.41,0,2.21.15,2.62.1.21.26.41.56.72l-.1.26c-1.28,0-6.83,1.9-6.83,3.34ZM99.38,115.79v-4.16c0-.67-.05-1.13-.15-1.44-.31-.72-.72-1.13-1.64-1.13s-1.39.41-1.69,1.13c-.1.31-.15.77-.15,1.44v6.27c0,.67,3.65-.92,3.65-2.11Z"/>
  <path class="cls-1" d="M108.01,110.6c-.51.41-.51.82-.51,1.44v12.38c0,.82.05,3.03,1.13,3.03-.21.31-.41.56-.72.56-.92.05-2.41-1.95-3.8-1.95v-.26c.36-.26.56-.51.72-.77.1-.26.15-.51.15-1.49v-11.97c0-.67-.05-1.13-.15-1.44-.1-.21-.31-.41-.62-.72l.1-.26c2,0,.67-1.9,3.8-1.9-.56.62-.56,1.13-.56,1.95,0,1.18,3.44-1.64,3.6-1.95,1.75,1.9,3.18,1.95,3.29,1.95l.05.26c-.51.26-.67.72-.77,1.23-.05.41,0,.82,0,1.23v12.48c0,.82,0,3.03,1.13,3.03-.21.31-.46.56-.72.56-.98.05-2.47-1.95-3.85-1.95v-.26c.36-.26.62-.51.72-.77.1-.26.15-.51.15-1.49v-13.97c0-.05,0-.15-.1-.15-.31-.21-2.36.62-3.03,1.18Z"/>
  <g>
    <path class="cls-1" d="M73.17,42.41c.42-.1,1.01.21,1.46.97-.94-.55-1.11.87-1.11,1.25h1.73l.1.17c-.21.14-.49.49-.52.73h-1.32v9.08c0,.97.45,2.39,1.59,1.25,0,.73-.62,1.49-1.35,1.49-.83-.04-1.56-1.32-2.57-1.32v-.17c.24-.17.42-.35.49-.52.07-.17.1-.35.1-1.04v-8.77h-.69c-.03-.24-.31-.59-.49-.73l.07-.17c.83-.14.73-1.8,2.5-2.22Z"/>
    <path class="cls-1" d="M78.47,45.64c-.35.24-.35.52-.35.94v8.36c0,.55,0,2.05.76,2.05-.14.24-.31.38-.49.38-.66.07-1.66-1.28-2.6-1.28v-.17c.24-.17.42-.35.49-.52.07-.21.14-.35.14-1.04v-12.27c0-.45-.07-.76-.14-.97-.03-.14-.17-.31-.38-.49l.07-.17c1.32-.03.45-1.28,2.57-1.28-.35.38-.38.94-.38,1.66-.03.1-.03,3.57-.03,3.64,0,1.01,2.25-.73,2.46-1.07,1.07,1.28,2.11,1.28,2.18,1.28l.03.17c-.31.17-.45.49-.52.83v10.19c0,1.28.03,2.08.14,2.39.14.42.42.8.83,1.18.28.21.66.45,1.14.69v.45c-.87-.38-1.63-.8-2.25-1.28-.66-.49-1.11-1.01-1.35-1.56-.14-.31-.21-.87-.21-1.6l-.03-11.2c0-.07,0-.1-.03-.14-.24-.1-1.6.42-2.05.83Z"/>
    <path class="cls-1" d="M86.07,52.33v2.18c0,.28,0,.69.1.94.21.49.52.8,1.14.8,2.63-.21-1.07-5.34,3.43-5.34-.69.17-.62,3.95-.38,4.54.07.17.17.31.38.49l-.07.17c-.52.03-.97.1-1.35.24-.55.21-1.21.55-2.01,1.04-.83-.49-1.49-.83-2.01-1.04-.42-.14-.87-.21-1.39-.24l-.07-.17c.21-.17.35-.31.38-.49.1-.17.14-.49.14-.94v-8.22c0-.45-.03-.76-.14-.97-.03-.14-.17-.31-.38-.49l.07-.17c.52,0,.97-.1,1.39-.24.52-.17,1.18-.52,2.01-1.04.8.52,1.46.87,2.01,1.04.38.14.83.24,1.35.24l.07.17c-.21.17-.31.35-.38.49-.07.21-.1.52-.1.97v1.35c0,.28,0,1.49.1,1.77.07.14.17.28.38.49l-.07.17c-.87,0-4.61,1.28-4.61,2.25ZM88.53,49.1v-2.81c0-.45-.03-.76-.1-.97-.21-.49-.49-.76-1.11-.76s-.94.28-1.14.76c-.07.21-.1.52-.1.97v4.23c0,.45,2.46-.62,2.46-1.42Z"/>
  </g>
  <path class="cls-1" d="M.69,74.06c.21-.57.46-1.08.67-1.64.41-1.28.62-2.77-.15-4.11.82.26,1.59.92,2.16,1.49.26-.26.56-.56.87-.77.31-.31.67-.51.98-.77.41-.21.77-.41,1.18-.62,1.59-.77,3.34-1.18,5.14-1.23-2.16.62-3.85,2.36-4.98,4.57,1.54-1.54,3.49-2.31,6.06-1.18,2.47,1.08,1.13,5.03-.77,4.06-.92-.51-.56-1.49-.77-2.36-.82-3.34-5.65,1.28-6.06,4.57-.15,1.44-.15,2.93.1,4.31.21,1.03,1.95-.72,1.8.15-.82,5.7,5.91,7.7,9.66,6.42,3.65-1.28,6.42-5.08,4.88-11.61-.1-.31-.15-.62-.26-.87-.46-1.59-1.34-3.18-2.57-4.88-1.08-1.39-2.41-2.88-4.06-4.31-1.59-1.44-3.34-2.83-4.98-4.31-.67-.62-4.78-.62-4.06-1.23.92-.77.92-2,.41-2.67-1.64-2.31-2.47-4.78-1.59-7.7.1-.36.26-.77.41-1.13-.41-.1-.72-.51-.72-.98,0-.21.05-.41.15-.56-1.08-.46-2.16-1.23-3.13-2.21,2.11,1.28,4.88,1.03,7.35-.15.72-.41,1.44-.72,2.41-.98,3.65-.87,8.73-.51,10.79,2.11,1.7,2.21,1.13,5.6,4.78,6.88.31.15-.87.31-1.9.56-3.49.98-5.29,6.16-10.38,3.96-2.52-1.08-1.13-5.08.77-4.06.92.51.56,1.49.77,2.36.15.72.56,1.03,1.08,1.08,4.57.46,6.88-11.35-3.03-11.2-4.93.1-6.32,3.8-5.19,6.73.62,1.59,1.75,3.08,3.18,4.52,1.18,1.23,4.11,2.93,7.09,4.06.77.31-1.75.67-1.13,1.28,3.85,3.54,7.5,8.06,8.27,12.89.51,3.44-.05,6.47-1.54,8.78-2.11,3.29-6.16,5.14-10.38,5.55-3.8.31-7.76-.56-10.32-2.72-3.6-2.98-4.47-7.91-2.98-12.07Z"/>
  <path class="cls-1" d="M27.45,61.63c0-.67-.05-1.13-.15-1.44-.1-.21-.31-.46-.62-.72l.1-.26c2-.05.67-1.9,3.8-1.9-.51.56-.56,1.39-.56,2.47v5.44c.98.36,3.44-1.39,3.6-1.64,1.03,1.03,2.47,1.85,3.29,1.85l.1.26c-.51.31-.72.77-.77,1.28-.1.72-.05,1.8-.05,2.57.05.46.26.92.77,1.23l-.1.26c-.62,0-2.41.72-3.13,1.13.98.21,1.18.98,1.23,1.13,1.13,4.42,2.57,13.61,7.4,15.46.05.05.15.1.21.15.21.36.26.31.67.72-7.5-1.18-8.83-8.58-10.74-15.77-.36-1.28-2.47-.72-2.47.1-.05,2.21,0,4.47,0,6.73,0,.82,0,3.03,1.08,3.03-.15.36-.41.56-.72.56-.92.1-2.41-1.9-3.8-1.9v-.26c.36-.26.56-.51.72-.77.1-.31.15-.51.15-1.54v-18.18ZM33.62,65.64c0-.56-3.34.46-3.6,1.64,0,1.39-.05,2.77-.05,4.16,0,1.13,3.65-.36,3.65-1.34v-4.47Z"/>
  <path class="cls-1" d="M39.88,73.91c0-.41,0-1.03-.15-1.44-.1-.21-.31-.46-.62-.72l.15-.26c.72,0,1.39-.1,2-.36.77-.26,1.8-.77,2.98-1.49.67.41,1.28.72,1.85,1.03v-2.83c0-.41-.05-1.08-.21-1.44-.26-.72-.72-1.18-1.64-1.18s-1.39.46-1.64,1.18c-.15.31-.21.87-.1,1.18.15.26.36.57.77.82v.26c-1.64,0-2.05,2-4.11.51.98-.26.87-2,.56-2.77-.1-.21-.31-.46-.62-.72l.15-.26c.72,0,1.39-.15,2-.36.77-.31,1.8-.77,2.98-1.54,1.23.77,2.21,1.23,2.98,1.54.62.21,1.28.36,2.05.36l.1.26c-.31.26-.51.51-.62.72-.1.26-.15.77-.15,1.44v12.12c0,.67.05,1.18.15,1.44.1.21.31.46.62.72l-.1.26c-.77,0-1.44.15-2.05.36-.77.31-1.75.77-2.98,1.54-1.18-.77-2.21-1.23-2.98-1.54-.62-.21-1.28-.36-2-.36l-.15-.26c.31-.26.51-.51.62-.72.1-.26.15-.77.15-1.44v-6.06ZM46.1,73.91c0-.41-.05-1.03-.21-1.44-.26-.67-.72-1.13-1.64-1.13s-1.39.46-1.64,1.13c-.1.31-.15.77-.15,1.44v6.06c0,.67.05,1.18.15,1.44.26.72.72,1.18,1.64,1.18s1.39-.46,1.64-1.18c.1-.26.21-.77.21-1.44v-6.06Z"/>
  <path class="cls-1" d="M73.48,82.18c-.72-.98-.72-.67-.72-2.16v-11.66c0-1.28,1.03-1.64,1.59-1.28-.46-.87-.82-1.44-1.34-1.59-.51-.15-.72,0-1.64-.36-.82-.31-1.8-.82-2.98-1.54-1.23.72-2.21,1.23-2.98,1.54-.62.21-1.28.31-2.05.36l-.1.26c.31.26.51.46.56.72.1.26.21.72.21,1.44v12.12c0,.67-.1,1.13-.21,1.44-.05.21-.26.41-.56.72l.1.26c.77,0,1.44.1,2.05.36.77.26,1.75.77,2.98,1.49.56-.36,1.13-.67,1.64-.92,1.18-.62,2.26.87,2.82,1.95.26.51.36,1.08.36,1.75h-4.16c-.17,0-.33,0-.49,0-2.31-.09-4.28.53-4.67,1.91-.64-.68-1.18-1.56-2.3-1.85.31-1.39.43-2.87-.03-4.08-.1-.26-.31-.56-.57-.87-.72-.98-.72-.67-.72-2.16v-11.66c0-1.28,1.03-1.64,1.59-1.28-.46-.87-.82-1.44-1.34-1.59-.51-.15-.72,0-1.64-.36-.82-.31-1.8-.82-2.98-1.54-1.23.72-2.21,1.23-2.98,1.54-.62.21-1.28.31-2.05.36l-.1.26c.31.26.51.46.56.72.1.26.21.72.21,1.44v12.12c0,.67-.1,1.13-.21,1.44-.05.21-.26.41-.56.72l.1.26c.77,0,1.44.1,2.05.36.77.26,1.75.77,2.98,1.49.56-.36,1.13-.67,1.64-.92,1.18-.62,2.26.87,2.82,1.95.25.51.36,1.06.36,1.72-.26,0-.52.01-.78.03h-3.38c-1.64,0-2.62.21-3.85,1.39-.56.52-1.02,1.17-1.1,1.81-5.49,4.08-9.11,11.92-9.56,19.68-.92-.31-2.05-.26-3.29.26,1.49.51,2.41,1.85,2.93,3.13.31.82.51,1.64.56,2.16,1.03,6.83,4.93,12.84,12.58,15.2,1.54.46,2.11.82.46,2,3.65,0,5.29-1.44,6.52-3.08,1.34-1.8,2.41-2.31,3.85-3.7.56-.56,1.08-1.18,1.44-1.8.87-1.44,1.18-2.98.56-4.31-.72-1.64-3.44-2.11-3.6-.41-.15,1.08.87,1.39,1.49,2.05.46.41.57.98.41,1.49-1.54,5.6-13.35,5.03-17.46-5.19,1.03.21,2.31-.15,3.49-1.08-2.62-.21-4.16-2.93-4.73-4.21-.21-1.8-.21-3.54-.1-5.19.15-1.59.41-3.13.87-4.57.36-1.39.87-2.72,1.54-3.9.62-1.18,1.28-2.26,2.05-3.29.87-1.18,1.28-1.59,2.47-2.57,1.08-.87,2.31-1.69,3.75-2.21,1.03-.36,2.36-.62,3.7-.26,1.03.26,2.21.67,3.13,1.39,4.06,3.13-.62,7.65-3.9,7.29-1.28-.15-2.31-.92-2.52-2.52-.31,1.39-.36,2.67-.1,3.6-.31.21-.56.56-.56.98,0,.15.05.36.15.46-1.95,1.08-3.8,2.16-4.83,3.29-2.05,2.31-1.59,6.68.31,6.27.56-.1,1.23.41,2.11.41,1.75-.1,3.29-1.34,2.41-1.23-1.28.15-2.88-.21-3.34-2.31-1.18-4.98,13.41-7.91,13.66-12.84.05-.92-.15-1.85-.72-2.83-.49-.92-.74-1.9-.66-2.78.21,0,.44-.01.69-.01h5.19c.77,0,1.03-.92,1.23-1.54.46-1.64.77-3.54.21-5.03-.1-.26-.31-.56-.57-.87ZM70.19,80.02c0,.67-.05,1.13-.15,1.44-.31.67-.77,1.13-1.64,1.13-.92,0-1.39-.46-1.69-1.13-.1-.31-.15-.77-.15-1.44v-12.12c0-.72.05-1.18.15-1.44.31-.72.77-1.18,1.69-1.18.87,0,1.34.46,1.64,1.18.1.26.15.72.15,1.44v12.12ZM57.71,80.02c0,.67-.05,1.13-.15,1.44-.31.67-.77,1.13-1.64,1.13-.92,0-1.39-.46-1.69-1.13-.1-.31-.15-.77-.15-1.44v-12.12c0-.72.05-1.18.15-1.44.31-.72.77-1.18,1.69-1.18.87,0,1.34.46,1.64,1.18.1.26.15.72.15,1.44v12.12Z"/>
  <path class="cls-1" d="M86.16,74.68c-.31.26-.51.51-.56.72-.15.41-.21,2.16-.21,2.62v2c0,.67.05,1.13.21,1.44.05.21.26.41.56.72l-.1.26c-.77,0-1.44.1-2.05.36-.77.26-1.75.77-2.98,1.49-1.18-.72-2.16-1.23-2.98-1.49-.56-.26-1.23-.36-2-.36l-.15-.26c.36-.31.51-.51.62-.72.1-.31.15-3.54.15-4.21,0-1.44-.46-1.95-.87-2.41,6.93-.15,1.03,7.76,5.24,7.76.92,0,1.39-.46,1.64-1.13.15-.31.21-.77.21-1.44v-2.88c0-2.36-3.54-3.7-6.21-3.7v-5.6c0-.67-.05-1.13-.15-1.44-.1-.21-.26-.41-.62-.72l.15-.26c.77,0,1.44-.1,2-.31.82-.31,1.8-.82,2.98-1.54,1.23.72,2.21,1.23,2.98,1.54.62.21,1.28.31,2.05.31l.1.26c-.31.31-.51.51-.56.72-.36.92-.46,5.39.56,5.7-2.11,1.49-2.52-.57-4.11-.57v-.26c.36-.26.62-.51.72-.77.15-.36.15-3.54-.1-4.11-.26-.67-.72-1.13-1.64-1.13s-1.34.46-1.64,1.13c-.15.41-.15,1.03-.15,1.44v3.24c0,1.44,5.55,3.34,6.83,3.34l.1.26Z"/>
  <path class="cls-1" d="M94.48,78.58v-10.68c0-.72-.1-1.18-.21-1.44-.05-.26-.26-.46-.56-.72l.1-.26c1.95-.05.67-1.9,3.8-1.9-.51.51-.56,1.34-.62,2.47-.05,7.86,0,15.72,0,23.58,0,.82.05,2.98,1.13,2.98-.21.36-.41.62-.72.62-.92.05-2.47-1.95-3.85-1.95v-.26c.36-.26.56-.51.72-.77.31-.51.21-6.83.21-7.86,0-1.18-3.44,1.64-3.65,1.9-.92-1.69-1.8-1.9-3.24-1.9l-.05-.26c.46-.31.67-.77.77-1.28v-12.94c0-.72-.05-1.18-.15-1.44-.1-.26-.31-.46-.62-.72l.1-.26c2-.05.67-1.9,3.8-1.9-.51.51-.56,1.34-.56,2.47-.05,5.29,0,10.63,0,15.92,0,.1,0,.15.05.21.26.1,3.54-1.75,3.54-3.6Z"/>
  <path class="cls-1" d="M109.94,74.68c-.31.26-.51.51-.56.72-.15.41-.21,2.16-.21,2.62v2c0,.67.05,1.13.21,1.44.05.21.26.41.56.72l-.1.26c-.77,0-1.44.1-2.05.36-.77.26-1.75.77-2.98,1.49-1.18-.72-2.16-1.23-2.98-1.49-.56-.26-1.23-.36-2-.36l-.15-.26c.36-.31.51-.51.62-.72.1-.31.15-3.54.15-4.21,0-1.44-.46-1.95-.87-2.41,6.93-.15,1.03,7.76,5.24,7.76.92,0,1.39-.46,1.64-1.13.15-.31.21-.77.21-1.44v-2.88c0-2.36-3.54-3.7-6.21-3.7v-5.6c0-.67-.05-1.13-.15-1.44-.1-.21-.26-.41-.62-.72l.15-.26c.77,0,1.44-.1,2-.31.82-.31,1.8-.82,2.98-1.54,1.23.72,2.21,1.23,2.98,1.54.62.21,1.28.31,2.05.31l.1.26c-.31.31-.51.51-.56.72-.36.92-.46,5.39.56,5.7-2.11,1.49-2.52-.57-4.11-.57v-.26c.36-.26.62-.51.72-.77.15-.36.15-3.54-.1-4.11-.26-.67-.72-1.13-1.64-1.13s-1.34.46-1.64,1.13c-.15.41-.15,1.03-.15,1.44v3.24c0,1.44,5.55,3.34,6.83,3.34l.1.26Z"/>
  <path class="cls-1" d="M115.13,62.14c.62-.15,1.49.31,2.16,1.44-1.39-.82-1.64,1.28-1.64,1.85h2.57l.15.26c-.31.21-.72.72-.77,1.08h-1.95v13.46c0,1.44.67,3.54,2.36,1.85,0,1.08-.92,2.21-2,2.21-1.23-.05-2.31-1.95-3.8-1.95v-.26c.36-.26.62-.51.72-.77.1-.26.15-.51.15-1.54v-13h-1.03c-.05-.36-.46-.87-.72-1.08l.1-.26c1.23-.21,1.08-2.67,3.7-3.29Z"/>
  <path class="cls-1" d="M122.37,76.83v3.24c0,.41,0,1.03.15,1.39.31.72.77,1.18,1.69,1.18,3.9-.31-1.59-7.91,5.08-7.91-1.03.26-.92,5.86-.56,6.73.1.26.26.46.56.72l-.1.26c-.77.05-1.44.15-2,.36-.82.31-1.8.82-2.98,1.54-1.23-.72-2.21-1.23-2.98-1.54-.62-.21-1.28-.31-2.05-.36l-.1-.26c.31-.26.51-.46.56-.72.15-.26.21-.72.21-1.39v-12.17c0-.67-.05-1.13-.21-1.44-.05-.21-.26-.46-.56-.72l.1-.26c.77,0,1.44-.15,2.05-.36.77-.26,1.75-.77,2.98-1.54,1.18.77,2.16,1.28,2.98,1.54.56.21,1.23.36,2,.36l.1.26c-.31.26-.46.51-.56.72-.1.31-.15.77-.15,1.44v2c0,.41,0,2.21.15,2.62.1.21.26.41.56.72l-.1.26c-1.28,0-6.83,1.9-6.83,3.34ZM126.02,72.06v-4.16c0-.67-.05-1.13-.15-1.44-.31-.72-.72-1.13-1.64-1.13s-1.39.41-1.69,1.13c-.1.31-.15.77-.15,1.44v6.27c0,.67,3.65-.92,3.65-2.11Z"/>
  <path class="cls-1" d="M140.5,69.28c.1.26.31.51.72.77v.26c-1.44,0-2.93,2-3.85,1.9-.31,0-.51-.21-.72-.56,1.13,0,1.13-2.21,1.13-3.03v-.77c0-.46-.05-1.8-.05-1.95,0-.67-2.31.31-3.13,1.03-.46.36-.46.77-.46,1.39v12.38c0,.82,0,3.03,1.13,3.03-.21.36-.46.56-.72.56-.98.1-2.47-1.9-3.85-1.9v-.26c.36-.26.62-.51.72-.77.1-.31.15-.51.15-1.54v-11.92c0-.72-.05-1.18-.15-1.44-.1-.26-.31-.46-.62-.72l.15-.26c1.95-.05.62-1.9,3.75-1.9-.56.62-.56.56-.56,1.9,0,.56.31.36.62.15.72-.46,2.52-1.23,2.98-2.05,1.7,1.95,3.18,1.9,3.29,1.9l.05.26c-.31.15-.51.36-.62.62-.26.67-.21,2.41.05,2.93Z"/>
  <path class="cls-1" d="M152.57,74.68c-.31.26-.51.51-.56.72-.15.41-.21,2.16-.21,2.62v2c0,.67.05,1.13.21,1.44.05.21.26.41.56.72l-.1.26c-.77,0-1.44.1-2.05.36-.77.26-1.75.77-2.98,1.49-1.18-.72-2.16-1.23-2.98-1.49-.56-.26-1.23-.36-2-.36l-.15-.26c.36-.31.51-.51.62-.72.1-.31.15-3.54.15-4.21,0-1.44-.46-1.95-.87-2.41,6.93-.15,1.03,7.76,5.24,7.76.92,0,1.39-.46,1.64-1.13.15-.31.21-.77.21-1.44v-2.88c0-2.36-3.54-3.7-6.21-3.7v-5.6c0-.67-.05-1.13-.15-1.44-.1-.21-.26-.41-.62-.72l.15-.26c.77,0,1.44-.1,2-.31.82-.31,1.8-.82,2.98-1.54,1.23.72,2.21,1.23,2.98,1.54.62.21,1.28.31,2.05.31l.1.26c-.31.31-.51.51-.56.72-.36.92-.46,5.39.56,5.7-2.11,1.49-2.52-.57-4.11-.57v-.26c.36-.26.62-.51.72-.77.15-.36.15-3.54-.1-4.11-.26-.67-.72-1.13-1.64-1.13s-1.34.46-1.64,1.13c-.15.41-.15,1.03-.15,1.44v3.24c0,1.44,5.55,3.34,6.83,3.34l.1.26Z"/>
  <circle class="cls-1" cx="80.84" cy="3.14" r="2.46"/>
  <path class="cls-1" d="M90.71,98.34h-2.02l-.27.12-1.06.02-1.42.36-1.31-.5h-2.39v-10.48l-1.39.43-1.18-.2v10.25h-8.48c-.71,0-1.28.57-1.28,1.28s.57,1.28,1.28,1.28h8.48v4.22l.87-.02,1.42-.36.27.1v-3.95h8.48c.71,0,1.28-.57,1.28-1.28s-.57-1.28-1.28-1.28Z"/>
  <path class="cls-1" d="M79.66,33.12c-.91.07-1.82.23-2.72.47-1.58.43-3.02,1.1-4.31,1.95,2.06-1.33,4.46-2.17,7.04-2.36v-.06Z"/>
  <path class="cls-1" d="M92.37,38.51h0s.06.07.09.11c-.03-.04-.06-.07-.08-.11Z"/>
  <path class="cls-1" d="M90.58,36.68c-.7-.6-1.46-1.14-2.28-1.62-1.89-1.09-3.96-1.73-6.07-1.92v.07c3.16.3,6.03,1.56,8.33,3.5l.02-.02Z"/>
  <path class="cls-1" d="M87.51,12.41c4.4-2.39,7.4-7.06,7.4-12.41h-.3l-.43.03-1.02.3-.83-.09c-.13,6.26-5.25,11.31-11.54,11.31-3.37,0-6.41-1.46-8.52-3.78l-.56-.19-.65-1.39h0c-1-1.57-1.64-3.39-1.78-5.35l-.17.02-1.02-.3-1.41-.09c.17,5.15,3.12,9.61,7.39,11.93,4.4-.83,8.94-.83,13.43,0Z"/>
  <path class="cls-1" d="M87.51,12.41c-4.49-.84-9.03-.83-13.43,0,2,1.09,4.28,1.71,6.71,1.71s4.72-.62,6.72-1.7Z"/>
  <path class="cls-1" d="M82.17,129.01l-1.03-.44-1.42.44-.07.02v10.6c0,.71.57,1.28,1.28,1.28s1.28-.57,1.28-1.28v-10.6l-.05-.02Z"/>
  <path class="cls-1" d="M125.15,47.2h-7.59c-.21-6.09-1.94-12.06-5.14-17.44-1.39-2.34-3.03-4.49-4.85-6.43l2.36-2.36.84-1.36.64-.11,1.91-1.91c.5-.5.5-1.31,0-1.82s-1.31-.5-1.82,0l-5.75,5.75c-4.43-4.1-9.84-7.05-15.85-8.58-.79-.2-1.58-.37-2.38-.51-2,1.09-4.29,1.7-6.72,1.7s-4.72-.62-6.71-1.71c-3.98.75-7.84,2.16-11.45,4.23l-.32.4-.93.51-1.1.97-.71.08c-1.38.98-2.7,2.05-3.92,3.19l-5.42-5.42c-.5-.5-1.31-.5-1.82,0s-.5,1.31,0,1.82l5.42,5.42c-4.1,4.44-7.06,9.85-8.59,15.87-.65,2.56-1.01,5.14-1.11,7.72h-7.97c-.71,0-1.28.57-1.28,1.28s.57,1.28,1.28,1.28h1.82l.47-.33,1.51.28.05.05h4.11c.06,1.86.28,3.7.62,5.52l.28.23.02,1.29c.2.85.43,1.69.68,2.53l.54-.17,1.06.09,1.04-.14c-.99-3.03-1.57-6.17-1.68-9.34h19.05c-.05-.49-.07-.99-.07-1.49,0-5.34,2.77-10.04,6.95-12.73,1.29-.85,2.74-1.52,4.31-1.95.9-.24,1.81-.4,2.72-.47v.06c.38-.03.76-.05,1.14-.05.48,0,.96.03,1.42.07v-.07c2.11.19,4.18.84,6.07,1.92.82.47,1.58,1.02,2.28,1.62l-.02.02c.66.55,1.26,1.16,1.82,1.82h0s.06.07.08.1c2.17,2.62,3.48,5.98,3.48,9.65,0,.5-.03,1-.07,1.49h19.12c-.09,2.4-.43,4.8-1.03,7.18-.21.83-.46,1.64-.73,2.44l.48.04,1.45-.22.47.24h.28c.19-.61.38-1.23.54-1.86.66-2.59,1.02-5.21,1.11-7.82h7.59c.71,0,1.28-.57,1.28-1.28s-.57-1.28-1.28-1.28ZM63.32,47.2h-8.77l-.51.19-.54-.19h-6.81c.08-1.9.32-3.81.72-5.7l-.1-1.32.63-1.53h.2c1.5-4.98,4.06-9.47,7.5-13.22l11.58,11.58c-2.32,2.87-3.72,6.43-3.9,10.19ZM79.66,30.54c-1.14.08-2.27.27-3.4.57-2.81.76-5.27,2.17-7.27,4.01l-11.52-11.52c1.79-1.67,3.76-3.17,5.92-4.45,2.37-1.41,4.86-2.5,7.42-3.29l.51-.67.49.38c2.56-.71,5.19-1.12,7.85-1.21v16.18ZM93.75,33.91h-.4l-.95.95c-.87-.76-1.81-1.43-2.83-2.02-2.29-1.32-4.79-2.08-7.35-2.28v-6.57l-.44-2.86.44-1.36v-5.37c2.35.1,4.7.43,7.03,1.02,2.54.65,4.95,1.58,7.23,2.74l1.25.11.9,1.09c1.89,1.15,3.66,2.47,5.29,3.97l-9.93,9.93-.26.65ZM111.08,47.2l-.61.27-1.06.02-1.42.36-1.43-.55.17-.1h-8.36c-.06-1.25-.26-2.5-.59-3.73-.69-2.54-1.91-4.84-3.56-6.79l11.54-11.54c1.68,1.79,3.18,3.77,4.46,5.93,2.96,4.98,4.57,10.5,4.78,16.13h-3.91Z"/>
</svg>