<?xml version="1.0" encoding="UTF-8"?>
<svg id="Ebene_1" data-name="Ebene 1" xmlns="http://www.w3.org/2000/svg" viewBox="0 0 79.69 122.64">
  <defs>
    <style>
      .cls-1 {
        fill: #a3885a;
        stroke-width: 0px;
      }
    </style>
  </defs>
  <g>
    <path class="cls-1" d="M78.57,41.08h-6.61c-.18-5.3-1.69-10.5-4.48-15.18-1.21-2.04-2.63-3.91-4.22-5.6l2.06-2.06.73-1.18.55-.1,1.66-1.66c.44-.44.44-1.14,0-1.58s-1.14-.44-1.58,0l-5,5c-3.86-3.57-8.56-6.14-13.8-7.47-8.09-2.06-16.5-.9-23.73,3.23l-.28.35-.81.44-.96.85-.61.07c-1.2.86-2.35,1.78-3.41,2.78l-4.72-4.72c-.44-.44-1.14-.44-1.58,0s-.44,1.14,0,1.58l4.72,4.72c-3.57,3.86-6.15,8.57-7.48,13.81-.57,2.23-.88,4.48-.97,6.72H1.12c-.62,0-1.12.5-1.12,1.12s.5,1.12,1.12,1.12h1.59l.41-.29,1.31.25.05.04h3.58c.05,1.62.24,3.22.54,4.81l.25.2.02,1.12c.74,3.18,1.96,6.26,3.67,9.14,1.15,1.93,2.48,3.71,3.97,5.33l-4.58,4.58c-.44.44-.44,1.14,0,1.58.22.22.5.33.79.33s.57-.11.79-.33l4.57-4.57c2.87,2.71,6.22,4.86,9.92,6.36h.13s.86.33.86.33l1.27.18.46.44c.47.14.94.29,1.42.41,2.27.58,4.56.89,6.85.97v11.41h-7.38c-.62,0-1.12.5-1.12,1.12s.5,1.12,1.12,1.12h7.38v20.66l.1.23.03.92.33,1.24-.46,1.24v9.41c0,.62.5,1.12,1.12,1.12s1.12-.5,1.12-1.12v-33.7h7.38c.62,0,1.12-.5,1.12-1.12s-.5-1.12-1.12-1.12h-1.76l-.23.1-.92.02-1.24.31-1.14-.44h-2.08v-11.39c5.28-.19,10.46-1.7,15.13-4.48,1.94-1.15,3.72-2.49,5.35-3.98l4.86,4.86c.22.22.5.33.79.33s.57-.11.79-.33c.44-.44.44-1.14,0-1.58l-4.85-4.85c3.69-3.9,6.35-8.7,7.71-14.05.57-2.25.89-4.53.97-6.8h6.61c.62,0,1.12-.5,1.12-1.12s-.5-1.12-1.12-1.12ZM10.83,34.96l.55-1.33h.17c1.31-4.33,3.53-8.24,6.53-11.5l10.08,10.08c-2.02,2.5-3.24,5.6-3.4,8.87h-7.63l-.44.17-.47-.17h-5.93c.07-1.66.28-3.31.63-4.96l-.09-1.15ZM27,41.08c.15-2.67,1.13-5.21,2.75-7.28l7.28,7.28h-10.03ZM37.09,43.31l-6.98,6.98c-1.23-1.43-2.16-3.14-2.68-5.07-.17-.63-.29-1.27-.37-1.91h10.03ZM14.45,57.43c-2.59-4.36-3.99-9.19-4.16-14.12h14.53c.08.83.23,1.66.45,2.49.63,2.32,1.77,4.37,3.27,6.07l-10.46,10.46c-1.36-1.49-2.58-3.12-3.63-4.89ZM38.98,71.95c-2.1-.08-4.21-.37-6.3-.9-4.96-1.26-9.41-3.72-13.03-7.14l10.48-10.48c2.47,2.09,5.56,3.38,8.85,3.6v14.92ZM38.98,54.8c-2.69-.22-5.22-1.27-7.26-2.95l7.26-7.26v10.21ZM38.98,39.86l-7.7-7.7c1.48-1.34,3.28-2.36,5.33-2.92.78-.21,1.58-.35,2.37-.41v11.03ZM38.98,26.58c-.99.07-1.98.23-2.96.5-2.44.66-4.59,1.89-6.33,3.49l-10.03-10.03c1.56-1.45,3.27-2.76,5.15-3.87,2.06-1.22,4.23-2.17,6.46-2.86l.45-.59.43.33c2.23-.62,4.52-.98,6.83-1.05v14.08ZM40.82,18.38l.39-1.19v-4.67c2.04.09,4.09.37,6.12.89,2.21.56,4.31,1.37,6.29,2.39l1.09.09.78.95c1.64,1,3.19,2.15,4.61,3.46l-8.64,8.64-.22.57h-.34l-.82.82c-.75-.66-1.58-1.25-2.46-1.75-1.99-1.14-4.17-1.81-6.4-1.99v-5.71l-.39-2.49ZM42.43,43.31h10.52c-.32,2.71-1.48,5.24-3.28,7.24l-7.24-7.24ZM48.03,52.08c-1.33,1.05-2.89,1.85-4.63,2.31-.73.2-1.47.33-2.2.39v-9.53l6.82,6.82ZM41.21,39.19v-10.35c1.84.17,3.63.73,5.28,1.67.71.41,1.37.88,1.99,1.41l-7.27,7.27ZM42.49,41.08l7.56-7.56c1.17,1.42,2.05,3.07,2.54,4.89.24.89.38,1.78.43,2.66h-10.53ZM55.2,67.79c-4.32,2.57-9.11,3.97-13.99,4.16v-6.56l-.31-.53.31-1.78v-6.06c.92-.07,1.85-.23,2.78-.48,2.09-.57,4-1.55,5.64-2.88l8.14,8.14.33.16.14.31,1.88,1.88c-1.49,1.36-3.13,2.59-4.91,3.64ZM68.82,49.56c-1.26,4.95-3.72,9.4-7.13,13.02l-10.44-10.44c.75-.82,1.42-1.73,1.99-2.72,1.09-1.91,1.75-3.98,1.96-6.11h14.52c-.08,2.09-.37,4.18-.9,6.25ZM66.32,41.08l-.53.23-.92.02-1.24.31-1.25-.48.15-.09h-7.28c-.05-1.09-.22-2.17-.51-3.25-.6-2.21-1.66-4.21-3.1-5.91l10.04-10.04c1.46,1.56,2.76,3.28,3.88,5.16,2.58,4.33,3.98,9.14,4.16,14.04h-3.41Z"/>
    <path class="cls-1" d="M51.99,0l-.37.02-.89.26-.73-.08c-.11,5.45-4.57,9.85-10.04,9.85-2.94,0-5.58-1.27-7.41-3.29l-.48-.17-.57-1.21h0c-.87-1.37-1.43-2.95-1.55-4.66l-.15.02-.89-.26-1.23-.08c.22,6.58,5.64,11.87,12.28,11.87s12.29-5.51,12.29-12.29h-.26Z"/>
  </g>
  <circle class="cls-1" cx="40.01" cy="2.74" r="2.14"/>
</svg>