<?xml version="1.0" encoding="UTF-8"?>
<svg id="Ebene_1" data-name="Ebene 1" xmlns="http://www.w3.org/2000/svg" version="1.1" viewBox="0 0 1215 1010">
  <defs>
    <style>
      .cls-1 {
        fill: #a3885a;
        stroke-width: 0px;
      }

      .cls-2 {
        opacity: .35;
      }
    </style>
  </defs>
  <g class="cls-2">
    <path id="Pfad_452" data-name="Pfad 452" class="cls-1" d="M211.81,324.88c0,.82-.67,1.49-1.49,1.49s-1.49-.67-1.5-1.49c0-.83.67-1.5,1.49-1.5s1.49.67,1.49,1.5"/>
    <path id="Pfad_453" data-name="Pfad 453" class="cls-1" d="M293.58,235.77c0,.82-.67,1.49-1.49,1.49s-1.5-.67-1.5-1.49.67-1.5,1.5-1.5,1.49.67,1.49,1.49h0"/>
    <path id="Pfad_454" data-name="Pfad 454" class="cls-1" d="M369.75,323.38c0,.82-.67,1.49-1.49,1.49s-1.49-.67-1.49-1.49.67-1.5,1.49-1.5,1.49.67,1.49,1.5"/>
    <path id="Pfad_455" data-name="Pfad 455" class="cls-1" d="M257.82,117.55c0,.82-.67,1.49-1.49,1.49s-1.5-.67-1.5-1.49.67-1.5,1.5-1.5,1.49.67,1.49,1.49h0"/>
    <path id="Pfad_456" data-name="Pfad 456" class="cls-1" d="M421.03,150.61c0,.82-.67,1.49-1.49,1.49s-1.49-.67-1.49-1.49.67-1.5,1.49-1.5,1.49.67,1.49,1.49h0"/>
    <path id="Pfad_457" data-name="Pfad 457" class="cls-1" d="M513.33,79.02c0,.82-.67,1.49-1.49,1.49s-1.49-.67-1.49-1.49.67-1.5,1.49-1.5,1.49.67,1.49,1.49h0"/>
    <path id="Pfad_458" data-name="Pfad 458" class="cls-1" d="M708.52,155.65c0,.82-.67,1.49-1.49,1.49s-1.5-.67-1.5-1.49.67-1.5,1.5-1.5,1.49.67,1.49,1.5"/>
    <path id="Pfad_459" data-name="Pfad 459" class="cls-1" d="M744.04,52.65c0,.82-.67,1.49-1.49,1.49s-1.49-.67-1.49-1.49.67-1.5,1.49-1.5,1.49.67,1.49,1.5"/>
    <path id="Pfad_460" data-name="Pfad 460" class="cls-1" d="M338.42,571.78c0,.36-.29.65-.65.65s-.65-.29-.66-.65c0-.36.29-.65.65-.65s.65.29.65.65"/>
    <path id="Pfad_461" data-name="Pfad 461" class="cls-1" d="M349.4,436.54c0,.36-.29.65-.65.66h0c-.36,0-.65-.29-.66-.65,0-.36.29-.65.65-.65s.65.29.65.65"/>
    <path id="Pfad_462" data-name="Pfad 462" class="cls-1" d="M452.71,464.4c0,.36-.29.65-.65.65s-.65-.29-.66-.65c0-.36.29-.65.65-.65s.65.29.65.65"/>
    <path id="Pfad_463" data-name="Pfad 463" class="cls-1" d="M120.27,401.75c0,.36-.29.65-.65.66h0c-.36,0-.65-.29-.66-.65,0-.36.29-.65.65-.65s.65.29.65.65"/>
    <path id="Pfad_464" data-name="Pfad 464" class="cls-1" d="M311.35,510.15c0,.36-.29.65-.65.65s-.65-.29-.66-.65c0-.36.29-.65.65-.65s.65.29.65.65"/>
    <path id="Pfad_465" data-name="Pfad 465" class="cls-1" d="M302.79,326.37c0,.36-.29.65-.65.65s-.65-.29-.66-.65c0-.36.29-.65.66-.65s.65.29.65.65"/>
    <path id="Pfad_466" data-name="Pfad 466" class="cls-1" d="M949.19,437.53c0,.36-.29.65-.65.65s-.65-.29-.66-.65c0-.36.29-.65.66-.65s.65.29.65.65"/>
    <path id="Pfad_467" data-name="Pfad 467" class="cls-1" d="M813.42,291.89c0,.36-.29.65-.65.66h0c-.36,0-.65-.29-.66-.65,0-.36.29-.65.65-.65s.65.29.65.65"/>
    <path id="Pfad_468" data-name="Pfad 468" class="cls-1" d="M773.52,250.3c0,.36-.29.65-.65.65s-.65-.29-.66-.65c0-.36.29-.65.66-.65s.65.29.65.65"/>
    <path id="Pfad_469" data-name="Pfad 469" class="cls-1" d="M835.9,238.8c0,.36-.29.65-.65.65s-.65-.29-.65-.65.29-.65.65-.65.65.29.65.65"/>
    <path id="Pfad_470" data-name="Pfad 470" class="cls-1" d="M836.56,168.79c0,.36-.29.65-.65.65s-.65-.29-.66-.65c0-.36.29-.65.65-.65s.65.29.65.65"/>
    <path id="Pfad_471" data-name="Pfad 471" class="cls-1" d="M855.01,29.67c0,.36-.29.65-.65.65s-.65-.29-.66-.65c0-.36.29-.65.65-.65s.65.29.65.65"/>
    <path id="Pfad_472" data-name="Pfad 472" class="cls-1" d="M801.72,905.04c0,.36-.29.65-.65.65s-.65-.29-.66-.65c0-.36.29-.65.65-.66.36,0,.65.29.65.66"/>
    <path id="Pfad_473" data-name="Pfad 473" class="cls-1" d="M722.38,983.36c0,.36-.29.65-.65.65s-.65-.29-.66-.65c0-.36.29-.65.65-.66.36,0,.65.29.65.66"/>
    <path id="Pfad_474" data-name="Pfad 474" class="cls-1" d="M626.33,960.69c0,.36-.29.65-.65.65s-.65-.29-.66-.65c0-.36.29-.66.65-.66s.65.29.65.65h0"/>
    <path id="Pfad_475" data-name="Pfad 475" class="cls-1" d="M768.56,960.03c0,.36-.29.65-.65.65s-.65-.29-.66-.65c0-.36.29-.65.65-.66.36,0,.65.29.65.66"/>
    <path id="Pfad_476" data-name="Pfad 476" class="cls-1" d="M743.91,899.96c0,.36-.29.65-.65.65s-.65-.29-.66-.65c0-.36.29-.65.65-.66.36,0,.65.29.65.66"/>
    <path id="Pfad_477" data-name="Pfad 477" class="cls-1" d="M255.49,866.97c0,.36-.29.65-.65.65s-.65-.29-.66-.65c0-.36.29-.65.66-.65s.65.29.65.65"/>
    <path id="Pfad_478" data-name="Pfad 478" class="cls-1" d="M285.47,897.26c0,.36-.29.65-.65.65s-.65-.29-.66-.65c0-.36.29-.65.66-.66.36,0,.65.3.65.66"/>
    <path id="Pfad_479" data-name="Pfad 479" class="cls-1" d="M151.13,897.26c0,.36-.29.65-.65.65s-.66-.29-.66-.65h0c0-.36.29-.66.65-.66s.65.3.65.66"/>
    <path id="Pfad_480" data-name="Pfad 480" class="cls-1" d="M363.17,846.54c0,.36-.29.65-.65.65s-.65-.29-.66-.65c0-.36.29-.65.66-.65s.65.29.65.65"/>
    <path id="Pfad_481" data-name="Pfad 481" class="cls-1" d="M372.15,725.2c0,.36-.29.65-.65.65s-.65-.29-.65-.65.29-.65.65-.65.65.29.65.65"/>
    <path id="Pfad_482" data-name="Pfad 482" class="cls-1" d="M403.96,711.64c0,.36-.29.65-.65.65s-.65-.29-.66-.65c0-.36.29-.65.65-.65s.65.29.65.65"/>
    <path id="Pfad_483" data-name="Pfad 483" class="cls-1" d="M311.35,662.96c0,.36-.29.65-.65.66-.36,0-.65-.29-.66-.66,0-.36.29-.65.65-.65s.65.29.65.65"/>
    <path id="Pfad_484" data-name="Pfad 484" class="cls-1" d="M317.92,627.3c0,.36-.29.65-.65.66-.36,0-.65-.29-.66-.66,0-.36.29-.65.65-.65s.65.29.65.65"/>
    <path id="Pfad_485" data-name="Pfad 485" class="cls-1" d="M707.68,396.56c0,.36-.29.65-.65.66-.36,0-.65-.29-.66-.66,0-.36.29-.65.65-.65s.65.29.65.65"/>
    <path id="Pfad_486" data-name="Pfad 486" class="cls-1" d="M726.45,324.88c0,.36-.29.65-.65.65s-.65-.29-.66-.65c0-.36.29-.65.65-.65s.65.29.65.65"/>
    <path id="Pfad_487" data-name="Pfad 487" class="cls-1" d="M693.9,250.96c0,.36-.29.65-.65.65s-.65-.29-.66-.65c0-.36.29-.65.65-.66.36,0,.65.29.65.66"/>
    <path id="Pfad_488" data-name="Pfad 488" class="cls-1" d="M750.18,215.06c0,.36-.29.65-.65.66-.36,0-.65-.29-.66-.66,0-.36.29-.65.66-.65s.65.29.65.65"/>
    <path id="Pfad_489" data-name="Pfad 489" class="cls-1" d="M532.23,18.37c0,.36-.29.65-.65.66-.36,0-.65-.29-.66-.66,0-.36.29-.65.66-.65s.65.29.65.65"/>
    <path id="Pfad_490" data-name="Pfad 490" class="cls-1" d="M684.75,184.33c0,.36-.29.65-.65.65s-.65-.29-.66-.65c0-.36.29-.65.66-.65s.65.29.65.65"/>
    <path id="Pfad_491" data-name="Pfad 491" class="cls-1" d="M682.39,129.63c0,.36-.29.65-.65.66-.36,0-.65-.29-.66-.66,0-.36.29-.65.66-.65s.65.29.65.65"/>
    <path id="Pfad_492" data-name="Pfad 492" class="cls-1" d="M651.3,160.78c0,.36-.29.65-.65.66-.36,0-.65-.29-.66-.66,0-.36.29-.65.65-.65s.65.29.65.65"/>
    <path id="Pfad_493" data-name="Pfad 493" class="cls-1" d="M463.92,2.87c0,.36-.29.65-.65.66-.36,0-.65-.29-.65-.66s.29-.65.65-.65.65.29.65.65"/>
    <path id="Pfad_494" data-name="Pfad 494" class="cls-1" d="M453.36,221.6c0,.36-.29.65-.65.66-.36,0-.65-.29-.66-.66,0-.36.29-.65.65-.65s.65.29.65.65"/>
    <path id="Pfad_495" data-name="Pfad 495" class="cls-1" d="M458.57,191.24c0,.36-.29.65-.65.66-.36,0-.65-.29-.66-.66,0-.36.29-.65.65-.65s.65.29.65.65"/>
    <path id="Pfad_496" data-name="Pfad 496" class="cls-1" d="M494.27,228.92c0,.36-.29.65-.65.66-.36,0-.65-.29-.66-.66,0-.36.29-.65.65-.65s.65.29.65.65"/>
    <path id="Pfad_497" data-name="Pfad 497" class="cls-1" d="M491.29,188.25c0,.36-.29.65-.65.66-.36,0-.65-.29-.66-.66,0-.36.29-.65.66-.66.36,0,.65.29.65.66"/>
    <path id="Pfad_498" data-name="Pfad 498" class="cls-1" d="M465.29,270.29c0,.36-.29.65-.65.66-.36,0-.65-.29-.66-.66,0-.36.29-.65.65-.65s.65.29.65.65"/>
    <path id="Pfad_499" data-name="Pfad 499" class="cls-1" d="M404.29,217.91c0,.18-.15.33-.33.33s-.33-.15-.33-.33.15-.33.33-.33.33.15.33.33"/>
    <path id="Pfad_500" data-name="Pfad 500" class="cls-1" d="M451.73,154.16c0,.18-.15.33-.33.33s-.33-.15-.33-.33.15-.33.33-.33.33.15.33.33"/>
    <path id="Pfad_501" data-name="Pfad 501" class="cls-1" d="M453.69,176.8c0,.18-.15.33-.33.33s-.33-.15-.33-.33.15-.33.33-.33.33.15.33.33"/>
    <path id="Pfad_502" data-name="Pfad 502" class="cls-1" d="M98.59,362.22c0,.18-.15.33-.33.33s-.33-.15-.33-.33.15-.33.33-.33.33.15.33.33"/>
    <path id="Pfad_503" data-name="Pfad 503" class="cls-1" d="M629.05,57.84c0,.18-.15.33-.33.33s-.33-.15-.33-.33.15-.33.33-.33.33.15.33.33"/>
    <path id="Pfad_504" data-name="Pfad 504" class="cls-1" d="M657.86,69.52c0,.18-.15.33-.33.33s-.33-.15-.33-.33.15-.33.33-.33.33.15.33.33"/>
    <path id="Pfad_505" data-name="Pfad 505" class="cls-1" d="M543.9,1.56c0,.18-.15.33-.33.33s-.33-.15-.33-.33.15-.33.33-.33.33.15.33.33"/>
    <path id="Pfad_506" data-name="Pfad 506" class="cls-1" d="M479.22,40.72c0,.18-.15.33-.33.33s-.33-.15-.33-.33.15-.33.33-.33.33.15.33.33"/>
    <path id="Pfad_507" data-name="Pfad 507" class="cls-1" d="M504.75,13.03c0,.18-.15.33-.33.33s-.33-.15-.33-.33.15-.33.33-.33.33.15.33.33"/>
    <path id="Pfad_508" data-name="Pfad 508" class="cls-1" d="M757.82,29.67c0,.18-.15.33-.33.33s-.33-.15-.33-.33.15-.33.33-.33.33.15.33.33"/>
    <path id="Pfad_509" data-name="Pfad 509" class="cls-1" d="M768.23,54.14c0,.18-.15.33-.33.33s-.33-.15-.33-.33.15-.33.33-.33.33.15.33.33"/>
    <path id="Pfad_510" data-name="Pfad 510" class="cls-1" d="M697.27,80.52c0,.18-.15.33-.33.33s-.33-.15-.33-.33.15-.33.33-.33.33.15.33.33"/>
    <path id="Pfad_511" data-name="Pfad 511" class="cls-1" d="M570.46,263.44c0,.18-.15.33-.33.33s-.33-.15-.33-.33.15-.33.33-.33.33.15.33.33"/>
    <path id="Pfad_512" data-name="Pfad 512" class="cls-1" d="M572.76,229.58c0,.18-.15.33-.33.33s-.33-.15-.33-.33.15-.33.33-.33.33.15.33.33"/>
    <path id="Pfad_513" data-name="Pfad 513" class="cls-1" d="M518.05,263.44c0,.18-.15.33-.33.33s-.33-.15-.33-.33.15-.33.33-.33.33.15.33.33"/>
    <path id="Pfad_514" data-name="Pfad 514" class="cls-1" d="M404.61,348.59c0,.18-.15.33-.33.33s-.33-.15-.33-.33.15-.33.33-.33.33.15.33.33"/>
    <path id="Pfad_515" data-name="Pfad 515" class="cls-1" d="M384.54,361.89c0,.18-.15.33-.33.33s-.33-.15-.33-.33.15-.33.33-.33.33.15.33.33"/>
    <path id="Pfad_516" data-name="Pfad 516" class="cls-1" d="M375.59,395.91c0,.18-.15.33-.33.33s-.33-.15-.33-.33.15-.33.33-.33.33.15.33.33"/>
    <path id="Pfad_517" data-name="Pfad 517" class="cls-1" d="M317.42,390.86c0,.18-.15.33-.33.33s-.33-.15-.33-.33.15-.33.33-.33.33.15.33.33"/>
    <path id="Pfad_518" data-name="Pfad 518" class="cls-1" d="M396.94,316.89c0,.18-.15.33-.33.33s-.33-.15-.33-.33.15-.33.33-.33.33.15.33.33"/>
    <path id="Pfad_519" data-name="Pfad 519" class="cls-1" d="M396.94,437.2c0,.18-.15.33-.33.33s-.33-.15-.33-.33.15-.33.33-.33.33.15.33.33"/>
    <path id="Pfad_520" data-name="Pfad 520" class="cls-1" d="M445.03,419.65c0,.18-.15.33-.33.33s-.33-.15-.33-.33.15-.33.33-.33.33.15.33.33"/>
    <path id="Pfad_521" data-name="Pfad 521" class="cls-1" d="M465.62,369.79c0,.18-.15.33-.33.33s-.33-.15-.33-.33.15-.33.33-.33.33.15.33.33"/>
    <path id="Pfad_522" data-name="Pfad 522" class="cls-1" d="M612.35,528.08c0,.18-.15.33-.33.33s-.33-.15-.33-.33.15-.33.33-.33.33.15.33.33"/>
    <path id="Pfad_523" data-name="Pfad 523" class="cls-1" d="M306.23,706.22c0,.18-.15.33-.33.33s-.33-.15-.33-.33.15-.33.33-.33.33.15.33.33"/>
    <path id="Pfad_524" data-name="Pfad 524" class="cls-1" d="M337.44,687.7c0,.18-.15.33-.33.33s-.33-.15-.33-.33.15-.33.33-.33.33.15.33.33"/>
    <path id="Pfad_525" data-name="Pfad 525" class="cls-1" d="M273.18,646.94c0,.18-.15.33-.33.33s-.33-.15-.33-.33.15-.33.33-.33.33.15.33.33"/>
    <path id="Pfad_526" data-name="Pfad 526" class="cls-1" d="M318.25,592.29c0,.18-.15.33-.33.33s-.33-.15-.33-.33.15-.33.33-.33.33.15.33.33"/>
    <path id="Pfad_527" data-name="Pfad 527" class="cls-1" d="M370.02,634.69c0,.18-.15.33-.33.33s-.33-.15-.33-.33.15-.33.33-.33.33.15.33.33"/>
    <path id="Pfad_528" data-name="Pfad 528" class="cls-1" d="M555.86,736.74c0,.18-.15.33-.33.33s-.33-.15-.33-.33.15-.33.33-.33.33.15.33.33"/>
    <path id="Pfad_529" data-name="Pfad 529" class="cls-1" d="M575.57,681.83c0,.18-.15.33-.33.33s-.33-.15-.33-.33.15-.33.33-.33.33.15.33.33"/>
    <path id="Pfad_530" data-name="Pfad 530" class="cls-1" d="M638.41,692.16c0,.18-.15.33-.33.33s-.33-.15-.33-.33.15-.33.33-.33.33.15.33.33"/>
    <path id="Pfad_531" data-name="Pfad 531" class="cls-1" d="M612.02,720.07c0,.18-.15.33-.33.33s-.33-.15-.33-.33.15-.33.33-.33.33.15.33.33"/>
    <path id="Pfad_532" data-name="Pfad 532" class="cls-1" d="M614.33,681.17c0,.18-.15.33-.33.33s-.33-.15-.33-.33.15-.33.33-.33.33.15.33.33"/>
    <path id="Pfad_533" data-name="Pfad 533" class="cls-1" d="M589.42,781.63c0,.18-.15.33-.33.33s-.33-.15-.33-.33.15-.33.33-.33.33.15.33.33"/>
    <path id="Pfad_534" data-name="Pfad 534" class="cls-1" d="M638.41,746.97c0,.18-.15.33-.33.33s-.33-.15-.33-.33.15-.33.33-.33.33.15.33.33"/>
    <path id="Pfad_535" data-name="Pfad 535" class="cls-1" d="M562.09,872.95c0,.18-.15.33-.33.33s-.33-.15-.33-.33.15-.33.33-.33.33.15.33.33"/>
    <path id="Pfad_536" data-name="Pfad 536" class="cls-1" d="M480.5,927.19c0,.18-.15.33-.33.33s-.33-.15-.33-.33.15-.33.33-.33.33.15.33.33"/>
    <path id="Pfad_537" data-name="Pfad 537" class="cls-1" d="M620.73,990.83c0,.18-.15.33-.33.33s-.33-.15-.33-.33.15-.33.33-.33.33.15.33.33"/>
    <path id="Pfad_538" data-name="Pfad 538" class="cls-1" d="M636.45,905.04c0,.18-.15.33-.33.33s-.33-.15-.33-.33.15-.33.33-.33.33.15.33.33"/>
    <path id="Pfad_539" data-name="Pfad 539" class="cls-1" d="M676.54,938.78c0,.18-.15.33-.33.33s-.33-.15-.33-.33.15-.33.33-.33.33.15.33.33"/>
    <path id="Pfad_540" data-name="Pfad 540" class="cls-1" d="M728.08,868.68c0,.18-.15.33-.33.33s-.33-.15-.33-.33.15-.33.33-.33.33.15.33.33"/>
    <path id="Pfad_541" data-name="Pfad 541" class="cls-1" d="M686.39,845.89c0,.18-.15.33-.33.33s-.33-.15-.33-.33.15-.33.33-.33.33.15.33.33"/>
    <path id="Pfad_542" data-name="Pfad 542" class="cls-1" d="M611.04,833.51c0,.18-.15.33-.33.33s-.33-.15-.33-.33.15-.33.33-.33.33.15.33.33"/>
    <path id="Pfad_543" data-name="Pfad 543" class="cls-1" d="M631.23,819.34c0,.18-.15.33-.33.33s-.33-.15-.33-.33.15-.33.33-.33.33.15.33.33"/>
    <path id="Pfad_544" data-name="Pfad 544" class="cls-1" d="M676.21,746.64c0,.18-.15.33-.33.33s-.33-.15-.33-.33.15-.33.33-.33.33.15.33.33"/>
    <path id="Pfad_545" data-name="Pfad 545" class="cls-1" d="M730.4,637.53c0,.18-.15.33-.33.33s-.33-.15-.33-.33.15-.33.33-.33.33.15.33.33"/>
    <path id="Pfad_546" data-name="Pfad 546" class="cls-1" d="M705.86,449.99c0,.18-.15.33-.33.33s-.33-.15-.33-.33.15-.33.33-.33.33.15.33.33"/>
    <path id="Pfad_547" data-name="Pfad 547" class="cls-1" d="M726.78,423.5c0,.18-.15.33-.33.33s-.33-.15-.33-.33.15-.33.33-.33.33.15.33.33"/>
    <path id="Pfad_548" data-name="Pfad 548" class="cls-1" d="M614,293.01c0,.18-.15.33-.33.33s-.33-.15-.33-.33.15-.33.33-.33.33.15.33.33"/>
    <path id="Pfad_549" data-name="Pfad 549" class="cls-1" d="M757.82,289.55c0,.18-.15.33-.33.33s-.33-.15-.33-.33.15-.33.33-.33.33.15.33.33"/>
    <path id="Pfad_550" data-name="Pfad 550" class="cls-1" d="M727.11,128.97c0,.18-.15.33-.33.33s-.33-.15-.33-.33.15-.33.33-.33.33.15.33.33"/>
    <path id="Pfad_551" data-name="Pfad 551" class="cls-1" d="M905.8,57.51c0,.18-.15.33-.33.33s-.33-.15-.33-.33.15-.33.33-.33.33.15.33.33"/>
    <path id="Pfad_552" data-name="Pfad 552" class="cls-1" d="M1028.82,124.12c0,.18-.15.33-.33.33s-.33-.15-.33-.33.15-.33.33-.33.33.15.33.33"/>
    <path id="Pfad_553" data-name="Pfad 553" class="cls-1" d="M1068,165.26c0,.18-.15.33-.33.33s-.33-.15-.33-.33.15-.33.33-.33.33.15.33.33"/>
    <path id="Pfad_554" data-name="Pfad 554" class="cls-1" d="M915.12,313c0,.18-.15.33-.33.33s-.33-.15-.33-.33.15-.33.33-.33.33.15.33.33"/>
    <path id="Pfad_555" data-name="Pfad 555" class="cls-1" d="M941.6,283.25c0,.18-.15.33-.33.33s-.33-.15-.33-.33.15-.33.33-.33.33.15.33.33"/>
    <path id="Pfad_556" data-name="Pfad 556" class="cls-1" d="M979.75,301.19c0,.18-.15.33-.33.33s-.33-.15-.33-.33.15-.33.33-.33.33.15.33.33"/>
    <path id="Pfad_557" data-name="Pfad 557" class="cls-1" d="M963.24,355.05c0,.18-.15.33-.33.33s-.33-.15-.33-.33.15-.33.33-.33.33.15.33.33"/>
    <path id="Pfad_558" data-name="Pfad 558" class="cls-1" d="M928.22,389.7c0,.18-.15.33-.33.33s-.33-.15-.33-.33.15-.33.33-.33.33.15.33.33"/>
    <path id="Pfad_559" data-name="Pfad 559" class="cls-1" d="M1120.16,317.62c0,.18-.15.33-.33.33s-.33-.15-.33-.33.15-.33.33-.33.33.15.33.33"/>
    <path id="Pfad_560" data-name="Pfad 560" class="cls-1" d="M1117.17,256.3c0,.18-.15.33-.33.33s-.33-.15-.33-.33.15-.33.33-.33.33.15.33.33"/>
    <path id="Pfad_561" data-name="Pfad 561" class="cls-1" d="M843.76,325.65c0,.18-.15.33-.33.33s-.33-.15-.33-.33.15-.33.33-.33.33.15.33.33"/>
    <path id="Pfad_562" data-name="Pfad 562" class="cls-1" d="M905.47,282.92c0,.18-.15.33-.33.33s-.33-.15-.33-.33.15-.33.33-.33.33.15.33.33"/>
    <path id="Pfad_563" data-name="Pfad 563" class="cls-1" d="M859.63,373.22c0,.18-.15.33-.33.33s-.33-.15-.33-.33.15-.33.33-.33.33.15.33.33"/>
    <path id="Pfad_564" data-name="Pfad 564" class="cls-1" d="M914.47,363.06c0,.18-.15.33-.33.33s-.33-.15-.33-.33.15-.33.33-.33.33.15.33.33"/>
    <path id="Pfad_565" data-name="Pfad 565" class="cls-1" d="M1205.16,312.67c0,.18-.15.33-.33.33s-.33-.15-.33-.33.15-.33.33-.33.33.15.33.33"/>
    <path id="Pfad_566" data-name="Pfad 566" class="cls-1" d="M1161.46,373.55c0,.18-.15.33-.33.33s-.33-.15-.33-.33.15-.33.33-.33.33.15.33.33"/>
    <path id="Pfad_567" data-name="Pfad 567" class="cls-1" d="M1088.19,355.38c0,.18-.15.33-.33.33s-.33-.15-.33-.33.15-.33.33-.33.33.15.33.33"/>
    <path id="Pfad_568" data-name="Pfad 568" class="cls-1" d="M1083.55,390.03c0,.18-.15.33-.33.33s-.33-.15-.33-.33.15-.33.33-.33.33.15.33.33"/>
    <path id="Pfad_569" data-name="Pfad 569" class="cls-1" d="M1037.71,381.64c0,.18-.15.33-.33.33s-.33-.15-.33-.33.15-.33.33-.33.33.15.33.33"/>
    <path id="Pfad_570" data-name="Pfad 570" class="cls-1" d="M996.64,415.62c0,.18-.15.33-.33.33s-.33-.15-.33-.33.15-.33.33-.33.33.15.33.33"/>
    <path id="Pfad_571" data-name="Pfad 571" class="cls-1" d="M1014.87,392.69c0,.18-.15.33-.33.33s-.33-.15-.33-.33.15-.33.33-.33.33.15.33.33"/>
    <path id="Pfad_572" data-name="Pfad 572" class="cls-1" d="M1038.37,464.4c0,.18-.15.33-.33.33s-.33-.15-.33-.33.15-.33.33-.33.33.15.33.33"/>
    <path id="Pfad_573" data-name="Pfad 573" class="cls-1" d="M1054.06,442.95c0,.18-.15.33-.33.33s-.33-.15-.33-.33.15-.33.33-.33.33.15.33.33"/>
    <path id="Pfad_574" data-name="Pfad 574" class="cls-1" d="M1172.68,415.62c0,.18-.15.33-.33.33s-.33-.15-.33-.33.15-.33.33-.33.33.15.33.33"/>
    <path id="Pfad_575" data-name="Pfad 575" class="cls-1" d="M1165.5,619.56c0,.18-.15.33-.33.33s-.33-.15-.33-.33.15-.33.33-.33.33.15.33.33"/>
    <path id="Pfad_576" data-name="Pfad 576" class="cls-1" d="M1103.55,599.72c0,.18-.15.33-.33.33s-.33-.15-.33-.33.15-.33.33-.33.33.15.33.33"/>
    <path id="Pfad_577" data-name="Pfad 577" class="cls-1" d="M1072.42,637.2c0,.18-.15.33-.33.33s-.33-.15-.33-.33.15-.33.33-.33.33.15.33.33"/>
    <path id="Pfad_578" data-name="Pfad 578" class="cls-1" d="M1039.03,592.94c0,.18-.15.33-.33.33s-.33-.15-.33-.33.15-.33.33-.33.33.15.33.33"/>
    <path id="Pfad_579" data-name="Pfad 579" class="cls-1" d="M1020.53,649.07c0,.18-.15.33-.33.33s-.33-.15-.33-.33.15-.33.33-.33.33.15.33.33"/>
    <path id="Pfad_580" data-name="Pfad 580" class="cls-1" d="M986.06,672.96c0,.18-.15.33-.33.33s-.33-.15-.33-.33.15-.33.33-.33.33.15.33.33"/>
    <path id="Pfad_581" data-name="Pfad 581" class="cls-1" d="M966.84,618.9c0,.18-.15.33-.33.33s-.33-.15-.33-.33.15-.33.33-.33.33.15.33.33"/>
    <path id="Pfad_582" data-name="Pfad 582" class="cls-1" d="M910.38,678.63c0,.18-.15.33-.33.33s-.33-.15-.33-.33.15-.33.33-.33.33.15.33.33"/>
    <path id="Pfad_583" data-name="Pfad 583" class="cls-1" d="M1086.88,671.65c0,.18-.15.33-.33.33s-.33-.15-.33-.33.15-.33.33-.33.33.15.33.33"/>
    <path id="Pfad_584" data-name="Pfad 584" class="cls-1" d="M1045.08,723.42c0,.18-.15.33-.33.33s-.33-.15-.33-.33.15-.33.33-.33.33.15.33.33"/>
    <path id="Pfad_585" data-name="Pfad 585" class="cls-1" d="M1037.39,678.3c0,.18-.15.33-.33.33s-.33-.15-.33-.33.15-.33.33-.33.33.15.33.33"/>
    <path id="Pfad_586" data-name="Pfad 586" class="cls-1" d="M986.06,592.29c0,.18-.15.33-.33.33s-.33-.15-.33-.33.15-.33.33-.33.33.15.33.33"/>
    <path id="Pfad_587" data-name="Pfad 587" class="cls-1" d="M1214,794.3c0,.18-.15.33-.33.33s-.33-.15-.33-.33.15-.33.33-.33.33.15.33.33"/>
    <path id="Pfad_588" data-name="Pfad 588" class="cls-1" d="M1147.87,813.29c0,.18-.15.33-.33.33s-.33-.15-.33-.33.15-.33.33-.33.33.15.33.33"/>
    <path id="Pfad_589" data-name="Pfad 589" class="cls-1" d="M1156.03,873.61c0,.18-.15.33-.33.33s-.33-.15-.33-.33.15-.33.33-.33.33.15.33.33"/>
    <path id="Pfad_590" data-name="Pfad 590" class="cls-1" d="M1120.2,907.93c0,.18-.15.33-.33.33s-.33-.15-.33-.33.15-.33.33-.33.33.15.33.33"/>
    <path id="Pfad_591" data-name="Pfad 591" class="cls-1" d="M1156.36,924.76c0,.18-.15.33-.33.33s-.33-.15-.33-.33.15-.33.33-.33.33.15.33.33"/>
    <path id="Pfad_592" data-name="Pfad 592" class="cls-1" d="M839.19,1008.44c0,.18-.15.33-.33.33s-.33-.15-.33-.33.15-.33.33-.33.33.15.33.33"/>
    <path id="Pfad_593" data-name="Pfad 593" class="cls-1" d="M879.77,933.66c0,.18-.15.33-.33.33s-.33-.15-.33-.33.15-.33.33-.33.33.15.33.33"/>
    <path id="Pfad_594" data-name="Pfad 594" class="cls-1" d="M975.03,984.01c0,.18-.15.33-.33.33s-.33-.15-.33-.33.15-.33.33-.33.33.15.33.33"/>
    <path id="Pfad_595" data-name="Pfad 595" class="cls-1" d="M1178.82,697.39c0,.18-.15.33-.33.33s-.33-.15-.33-.33.15-.33.33-.33.33.15.33.33"/>
    <path id="Pfad_596" data-name="Pfad 596" class="cls-1" d="M1194.29,678.3c0,.18-.15.33-.33.33s-.33-.15-.33-.33.15-.33.33-.33.33.15.33.33"/>
    <path id="Pfad_597" data-name="Pfad 597" class="cls-1" d="M708.85,102.11c0,.18-.15.33-.33.33s-.33-.15-.33-.33.15-.33.33-.33.33.15.33.33"/>
    <path id="Pfad_598" data-name="Pfad 598" class="cls-1" d="M478.89,76.87c0,.36-.29.65-.65.66-.36,0-.65-.29-.66-.66,0-.36.29-.65.65-.65s.65.29.65.65"/>
    <path id="Pfad_599" data-name="Pfad 599" class="cls-1" d="M403.96,95.69c0,.36-.29.65-.65.65s-.65-.29-.66-.65c0-.36.29-.65.65-.66.36,0,.65.29.65.66"/>
    <path id="Pfad_600" data-name="Pfad 600" class="cls-1" d="M392.42,31.62c0,.36-.29.65-.65.66-.36,0-.65-.29-.66-.66,0-.36.29-.65.66-.66.36,0,.65.3.65.66"/>
    <path id="Pfad_601" data-name="Pfad 601" class="cls-1" d="M804.78,130.28c0,.36-.29.65-.65.66-.36,0-.65-.29-.66-.66,0-.36.29-.65.66-.65s.65.29.65.65"/>
    <path id="Pfad_602" data-name="Pfad 602" class="cls-1" d="M854.35,288.9c0,.36-.29.65-.65.66-.36,0-.65-.29-.66-.66,0-.36.29-.65.65-.66.36,0,.65.29.65.66"/>
    <path id="Pfad_603" data-name="Pfad 603" class="cls-1" d="M816.41,363.72c0,.36-.29.65-.65.65s-.65-.29-.66-.65c0-.36.29-.65.65-.65s.65.29.65.65"/>
    <path id="Pfad_604" data-name="Pfad 604" class="cls-1" d="M636.77,335.27c0,.36-.29.65-.65.66-.36,0-.65-.29-.66-.66,0-.36.29-.65.65-.65s.65.29.65.65"/>
    <path id="Pfad_605" data-name="Pfad 605" class="cls-1" d="M765.7,639.87c0,.36-.29.65-.65.65s-.65-.29-.66-.65c0-.36.29-.65.65-.66.36,0,.65.29.65.66"/>
    <path id="Pfad_606" data-name="Pfad 606" class="cls-1" d="M775.47,592.94c0,.36-.29.65-.65.66-.36,0-.65-.29-.66-.66,0-.36.29-.65.66-.65s.65.29.65.65"/>
    <path id="Pfad_607" data-name="Pfad 607" class="cls-1" d="M781.69,539.62c0,.36-.29.65-.65.65s-.65-.29-.66-.65c0-.36.29-.65.65-.66.36,0,.65.29.65.66"/>
    <path id="Pfad_608" data-name="Pfad 608" class="cls-1" d="M855.01,596.64c0,.36-.29.65-.65.66-.36,0-.65-.29-.66-.66,0-.36.29-.65.65-.66.36,0,.65.29.65.66"/>
    <path id="Pfad_609" data-name="Pfad 609" class="cls-1" d="M854.35,672.31c0,.36-.29.65-.65.66-.36,0-.65-.29-.66-.66,0-.36.29-.65.65-.65s.65.29.65.65"/>
    <path id="Pfad_610" data-name="Pfad 610" class="cls-1" d="M954.2,600.56c0,.36-.29.65-.65.66-.36,0-.65-.29-.66-.66,0-.36.29-.65.65-.65s.65.29.65.65"/>
    <path id="Pfad_611" data-name="Pfad 611" class="cls-1" d="M1015.85,531.79c0,.36-.29.65-.65.66-.36,0-.65-.29-.66-.66,0-.36.29-.65.65-.65s.65.29.65.65"/>
    <path id="Pfad_612" data-name="Pfad 612" class="cls-1" d="M1012.2,347.1c0,.36-.29.65-.65.65s-.65-.29-.66-.65c0-.36.29-.65.65-.66.36,0,.65.29.65.66"/>
    <path id="Pfad_613" data-name="Pfad 613" class="cls-1" d="M1091.48,227.37c0,.36-.29.65-.65.66-.36,0-.65-.29-.66-.66,0-.36.29-.65.65-.65s.65.29.65.65"/>
    <path id="Pfad_614" data-name="Pfad 614" class="cls-1" d="M927.89,76.22c0,.36-.29.65-.65.66-.36,0-.65-.29-.66-.66,0-.36.29-.65.66-.65s.65.29.65.65"/>
    <path id="Pfad_615" data-name="Pfad 615" class="cls-1" d="M922.16,110.24c0,.36-.29.65-.65.65s-.65-.29-.66-.65c0-.36.29-.65.66-.65s.65.29.65.65"/>
    <path id="Pfad_616" data-name="Pfad 616" class="cls-1" d="M952.71,62.14c0,.36-.29.65-.65.65s-.65-.29-.66-.65c0-.36.29-.65.65-.66.36,0,.65.29.65.66"/>
    <path id="Pfad_617" data-name="Pfad 617" class="cls-1" d="M935.91,168.14c0,.36-.29.65-.65.65s-.65-.29-.66-.65c0-.36.29-.65.66-.66.36,0,.65.3.65.66"/>
    <path id="Pfad_618" data-name="Pfad 618" class="cls-1" d="M914.79,206.54c0,.36-.29.65-.65.66-.36,0-.65-.29-.66-.66,0-.36.29-.65.66-.65s.65.29.65.65"/>
    <path id="Pfad_619" data-name="Pfad 619" class="cls-1" d="M879.6,230.45c0,.36-.29.65-.65.66-.36,0-.65-.29-.66-.66,0-.36.29-.65.66-.65s.65.29.65.65"/>
    <path id="Pfad_620" data-name="Pfad 620" class="cls-1" d="M966.51,237.3c0,.36-.29.65-.65.66-.36,0-.65-.29-.66-.66,0-.36.29-.65.65-.65s.65.29.65.65"/>
    <path id="Pfad_621" data-name="Pfad 621" class="cls-1" d="M1011.55,157.92c0,.36-.29.65-.65.66-.36,0-.65-.29-.66-.66,0-.36.29-.65.65-.65s.65.29.65.65"/>
    <path id="Pfad_622" data-name="Pfad 622" class="cls-1" d="M1046.56,141.29c0,.36-.29.65-.65.65s-.65-.29-.66-.65c0-.36.29-.65.65-.66.36,0,.65.29.65.66"/>
    <path id="Pfad_623" data-name="Pfad 623" class="cls-1" d="M1162.77,149.24c0,.36-.29.65-.65.66-.36,0-.65-.29-.66-.66,0-.36.29-.65.65-.65s.65.29.65.65"/>
    <path id="Pfad_624" data-name="Pfad 624" class="cls-1" d="M1148.19,219.86c0,.36-.29.65-.65.66-.36,0-.65-.29-.66-.66,0-.36.29-.65.66-.66.36,0,.65.29.65.66"/>
    <path id="Pfad_625" data-name="Pfad 625" class="cls-1" d="M1172.33,316.97c0,.36-.29.65-.65.66-.36,0-.65-.29-.66-.66,0-.36.29-.65.65-.65s.65.29.65.65"/>
    <path id="Pfad_626" data-name="Pfad 626" class="cls-1" d="M1125.61,350.09c0,.36-.29.65-.65.65s-.65-.29-.65-.65.29-.65.65-.66c.36,0,.65.29.65.66"/>
    <path id="Pfad_627" data-name="Pfad 627" class="cls-1" d="M1079.29,606.96c0,.36-.29.65-.65.66-.36,0-.65-.29-.65-.66s.29-.65.65-.65.65.29.65.65"/>
    <path id="Pfad_628" data-name="Pfad 628" class="cls-1" d="M1109.02,558.27c0,.36-.29.65-.65.65s-.65-.29-.66-.65c0-.36.29-.65.66-.66.36,0,.65.3.65.66"/>
    <path id="Pfad_629" data-name="Pfad 629" class="cls-1" d="M1059.39,667.12c0,.36-.29.65-.65.65s-.65-.29-.66-.65c0-.36.29-.65.65-.66.36,0,.65.29.65.66"/>
    <path id="Pfad_630" data-name="Pfad 630" class="cls-1" d="M1037.06,629.5c0,.36-.29.65-.65.66-.36,0-.65-.29-.65-.66s.29-.65.65-.65.65.29.65.65"/>
    <path id="Pfad_631" data-name="Pfad 631" class="cls-1" d="M1128.98,586.66c0,.36-.29.65-.65.66-.36,0-.65-.29-.66-.66,0-.36.29-.65.65-.65s.65.29.65.65"/>
    <path id="Pfad_632" data-name="Pfad 632" class="cls-1" d="M1182.32,419.65c0,.36-.29.65-.65.66-.36,0-.65-.29-.66-.66,0-.36.29-.65.65-.65s.65.29.65.65"/>
    <path id="Pfad_633" data-name="Pfad 633" class="cls-1" d="M987.37,495.66c0,.36-.29.65-.65.65s-.65-.29-.66-.65c0-.36.29-.65.65-.66.36,0,.65.29.65.66"/>
    <path id="Pfad_634" data-name="Pfad 634" class="cls-1" d="M963.89,724.08c0,.36-.29.65-.65.66-.36,0-.65-.29-.66-.66,0-.36.29-.65.66-.65s.65.29.65.65"/>
    <path id="Pfad_635" data-name="Pfad 635" class="cls-1" d="M1029.15,694.35c0,.36-.29.65-.65.66-.36,0-.65-.29-.66-.66,0-.36.29-.65.65-.65s.65.29.65.65"/>
    <path id="Pfad_636" data-name="Pfad 636" class="cls-1" d="M1021.84,764.12c0,.36-.29.65-.65.65s-.65-.29-.66-.65c0-.36.29-.65.66-.66.36,0,.65.29.65.66"/>
    <path id="Pfad_637" data-name="Pfad 637" class="cls-1" d="M1078.64,740.76c0,.36-.29.65-.65.65s-.65-.29-.66-.65c0-.36.29-.65.66-.65s.65.29.65.65"/>
    <path id="Pfad_638" data-name="Pfad 638" class="cls-1" d="M1147.54,726.97c0,.36-.29.65-.65.66-.36,0-.65-.29-.66-.66,0-.36.29-.65.65-.65s.65.29.65.65"/>
    <path id="Pfad_639" data-name="Pfad 639" class="cls-1" d="M1161.46,697.98c0,.36-.29.65-.65.65s-.65-.29-.66-.65c0-.36.29-.65.65-.65s.65.29.65.65"/>
    <path id="Pfad_640" data-name="Pfad 640" class="cls-1" d="M1180.12,773.52c0,.36-.29.65-.65.66-.36,0-.65-.29-.66-.66,0-.36.29-.65.65-.65s.65.29.65.65"/>
    <path id="Pfad_641" data-name="Pfad 641" class="cls-1" d="M1205.16,726.32c0,.36-.29.65-.65.65s-.65-.29-.66-.65c0-.36.29-.65.66-.66.36,0,.65.29.65.66"/>
    <path id="Pfad_642" data-name="Pfad 642" class="cls-1" d="M1205.16,630.15c0,.36-.29.65-.65.65s-.65-.29-.66-.65c0-.36.29-.65.65-.66.36,0,.65.29.65.66"/>
    <path id="Pfad_643" data-name="Pfad 643" class="cls-1" d="M1016.5,871.63c0,.36-.29.65-.65.66-.36,0-.65-.29-.66-.66,0-.36.29-.65.65-.65s.65.29.65.65"/>
    <path id="Pfad_644" data-name="Pfad 644" class="cls-1" d="M1039.36,833.18c0,.36-.29.65-.65.66-.36,0-.65-.29-.65-.66s.29-.65.65-.65.65.29.65.65"/>
    <path id="Pfad_645" data-name="Pfad 645" class="cls-1" d="M890.57,813.95c0,.36-.29.65-.65.65s-.65-.29-.66-.65c0-.36.29-.65.66-.66.36,0,.65.3.65.66"/>
    <path id="Pfad_646" data-name="Pfad 646" class="cls-1" d="M923.43,841.02c0,.36-.29.65-.65.66-.36,0-.65-.29-.66-.66,0-.36.29-.65.65-.65s.65.29.65.65"/>
    <path id="Pfad_647" data-name="Pfad 647" class="cls-1" d="M901.05,840.36c0,.36-.29.65-.65.66-.36,0-.65-.29-.66-.65,0-.36.29-.65.65-.66.36,0,.65.29.65.66"/>
    <path id="Pfad_648" data-name="Pfad 648" class="cls-1" d="M929.53,885.33c0,.36-.29.65-.65.66-.36,0-.65-.29-.66-.66,0-.36.29-.65.66-.66.36,0,.65.29.65.66"/>
    <path id="Pfad_649" data-name="Pfad 649" class="cls-1" d="M1178.48,893.34c0,.36-.29.65-.65.66-.36,0-.65-.29-.66-.66,0-.36.29-.65.65-.65s.65.29.65.65"/>
    <path id="Pfad_650" data-name="Pfad 650" class="cls-1" d="M1182.32,860.13c0,.36-.29.65-.65.66-.36,0-.65-.29-.66-.66,0-.36.29-.65.65-.66.36,0,.65.29.65.66"/>
    <path id="Pfad_651" data-name="Pfad 651" class="cls-1" d="M1029.8,1001.05c0,.36-.29.65-.65.66-.36,0-.65-.29-.66-.66,0-.36.29-.65.65-.65s.65.29.65.65"/>
    <path id="Pfad_652" data-name="Pfad 652" class="cls-1" d="M1037.06,970.33c0,.36-.29.65-.65.66-.36,0-.65-.29-.66-.66,0-.36.29-.65.65-.65s.65.29.65.65"/>
    <path id="Pfad_653" data-name="Pfad 653" class="cls-1" d="M1155.7,1004.75c0,.36-.29.65-.65.66-.36,0-.65-.29-.66-.66,0-.36.29-.65.65-.66.36,0,.65.29.65.66"/>
    <path id="Pfad_654" data-name="Pfad 654" class="cls-1" d="M892.72,980.5c0,.36-.29.65-.65.66-.36,0-.65-.29-.66-.66,0-.36.29-.65.65-.65s.65.29.65.65"/>
    <path id="Pfad_655" data-name="Pfad 655" class="cls-1" d="M983.39,859.47c0,.36-.29.65-.65.66-.36,0-.65-.29-.66-.66,0-.36.29-.65.65-.65s.65.29.65.65"/>
    <path id="Pfad_656" data-name="Pfad 656" class="cls-1" d="M1029.8,820c0,.36-.29.65-.65.66-.36,0-.65-.29-.66-.66,0-.36.29-.65.65-.65s.65.29.65.65"/>
    <path id="Pfad_657" data-name="Pfad 657" class="cls-1" d="M1135.06,885.98c0,.36-.29.65-.65.65s-.65-.29-.65-.65.29-.65.65-.66c.36,0,.65.29.65.66"/>
    <path id="Pfad_658" data-name="Pfad 658" class="cls-1" d="M1090.17,795.02c0,.36-.29.65-.65.66-.36,0-.65-.29-.66-.66,0-.36.29-.65.66-.65s.65.29.65.65"/>
    <path id="Pfad_659" data-name="Pfad 659" class="cls-1" d="M928.87,562.67c0,.36-.29.65-.65.66-.36,0-.65-.29-.66-.66,0-.36.29-.65.65-.65s.65.29.65.65"/>
    <path id="Pfad_660" data-name="Pfad 660" class="cls-1" d="M1087.86,290.39c0,.36-.29.65-.65.66-.36,0-.65-.29-.66-.66,0-.36.29-.65.66-.65s.65.29.65.65"/>
    <path id="Pfad_661" data-name="Pfad 661" class="cls-1" d="M1028.49,267.21c0,.36-.29.65-.65.65s-.65-.29-.66-.65c0-.36.29-.65.65-.66.36,0,.65.29.65.66"/>
    <path id="Pfad_662" data-name="Pfad 662" class="cls-1" d="M1058.08,196.37c0,.36-.29.65-.65.65s-.65-.29-.66-.65c0-.36.29-.65.65-.66.36,0,.65.29.65.66"/>
    <path id="Pfad_663" data-name="Pfad 663" class="cls-1" d="M1058.74,241c0,.36-.29.65-.65.66-.36,0-.65-.29-.66-.66,0-.36.29-.65.65-.65s.65.29.65.65"/>
    <path id="Pfad_664" data-name="Pfad 664" class="cls-1" d="M853.7,465.05c0,.36-.29.65-.65.66-.36,0-.65-.29-.66-.66,0-.36.29-.65.65-.65s.65.29.65.65"/>
    <path id="Pfad_665" data-name="Pfad 665" class="cls-1" d="M825.74,484.59c0,.36-.29.65-.65.66-.36,0-.65-.29-.66-.66,0-.36.29-.65.65-.65s.65.29.65.65"/>
    <path id="Pfad_666" data-name="Pfad 666" class="cls-1" d="M855.01,804.42c0,.36-.29.65-.65.66-.36,0-.65-.29-.66-.66,0-.36.29-.65.65-.65s.65.29.65.65"/>
    <path id="Pfad_667" data-name="Pfad 667" class="cls-1" d="M855.01,765.61c0,.36-.29.65-.65.66-.36,0-.65-.29-.66-.66,0-.36.29-.65.65-.66.36,0,.65.29.65.66"/>
    <path id="Pfad_668" data-name="Pfad 668" class="cls-1" d="M792.47,753.41c0,.36-.29.65-.65.66-.36,0-.65-.29-.66-.66,0-.36.29-.65.65-.65s.65.29.65.65"/>
    <path id="Pfad_669" data-name="Pfad 669" class="cls-1" d="M789.41,860.78c0,.36-.29.65-.65.65s-.65-.29-.66-.65c0-.36.29-.65.65-.66.36,0,.65.29.65.66"/>
    <path id="Pfad_670" data-name="Pfad 670" class="cls-1" d="M847.61,872.29c0,.36-.29.65-.65.66-.36,0-.65-.29-.66-.65,0-.36.29-.65.65-.66.36,0,.65.29.65.66"/>
    <path id="Pfad_671" data-name="Pfad 671" class="cls-1" d="M848.27,920.37c0,.36-.29.65-.65.66-.36,0-.65-.29-.66-.66,0-.36.29-.65.65-.65s.65.29.65.65"/>
    <path id="Pfad_672" data-name="Pfad 672" class="cls-1" d="M826.4,943.37c0,.36-.29.65-.65.65s-.65-.29-.66-.65c0-.36.29-.65.66-.66.36,0,.65.3.65.66"/>
    <path id="Pfad_673" data-name="Pfad 673" class="cls-1" d="M769.21,924.1c0,.36-.29.65-.65.65s-.65-.29-.66-.65c0-.36.29-.65.66-.65s.65.29.65.65"/>
    <path id="Pfad_674" data-name="Pfad 674" class="cls-1" d="M563.07,950.92c0,.36-.29.65-.65.66-.36,0-.65-.29-.66-.66,0-.36.29-.65.66-.65s.65.29.65.65"/>
    <path id="Pfad_675" data-name="Pfad 675" class="cls-1" d="M584.75,908.59c0,.36-.29.65-.65.66-.36,0-.65-.29-.66-.66,0-.36.29-.65.65-.65s.65.29.65.65"/>
    <path id="Pfad_676" data-name="Pfad 676" class="cls-1" d="M518.38,926.53c0,.36-.29.65-.65.65s-.65-.29-.66-.65c0-.36.29-.65.66-.66.36,0,.65.3.65.66"/>
    <path id="Pfad_677" data-name="Pfad 677" class="cls-1" d="M512.17,872.29c0,.36-.29.65-.65.66-.36,0-.65-.29-.66-.65,0-.36.29-.65.65-.66.36,0,.65.29.65.66"/>
    <path id="Pfad_678" data-name="Pfad 678" class="cls-1" d="M417.99,882.27c0,.36-.29.65-.65.66-.36,0-.65-.29-.66-.66,0-.36.29-.65.66-.65s.65.29.65.65"/>
    <path id="Pfad_679" data-name="Pfad 679" class="cls-1" d="M456.63,847.2c0,.36-.29.65-.65.66-.36,0-.65-.29-.66-.66,0-.36.29-.65.65-.65s.65.29.65.65"/>
    <path id="Pfad_680" data-name="Pfad 680" class="cls-1" d="M457.28,868.03c0,.36-.29.65-.65.66-.36,0-.65-.29-.66-.66,0-.36.29-.65.65-.65s.65.29.65.65"/>
    <path id="Pfad_681" data-name="Pfad 681" class="cls-1" d="M501.11,819.34c0,.36-.29.65-.65.65s-.65-.29-.66-.65c0-.36.29-.65.65-.65s.65.29.65.65"/>
    <path id="Pfad_682" data-name="Pfad 682" class="cls-1" d="M269.65,746.31c0,.36-.29.65-.65.65s-.65-.29-.65-.65.29-.65.65-.65.65.29.65.65"/>
    <path id="Pfad_683" data-name="Pfad 683" class="cls-1" d="M249.15,777.07c0,.36-.29.65-.65.65s-.65-.29-.66-.65c0-.36.29-.65.65-.66.36,0,.65.29.65.66"/>
    <path id="Pfad_684" data-name="Pfad 684" class="cls-1" d="M302.14,794.29c0,.36-.29.65-.65.66-.36,0-.65-.29-.66-.66,0-.36.29-.65.66-.65s.65.29.65.65"/>
    <path id="Pfad_685" data-name="Pfad 685" class="cls-1" d="M518.38,963.68c0,.36-.29.65-.65.66-.36,0-.65-.29-.66-.66,0-.36.29-.65.66-.65s.65.29.65.65"/>
    <path id="Pfad_686" data-name="Pfad 686" class="cls-1" d="M549.92,922.33c0,.36-.29.65-.65.66-.36,0-.65-.29-.66-.66,0-.36.29-.65.66-.66.36,0,.65.3.65.66"/>
    <path id="Pfad_687" data-name="Pfad 687" class="cls-1" d="M490.64,1006.71c0,.36-.29.65-.65.66-.36,0-.65-.29-.66-.66,0-.36.29-.65.66-.65s.65.29.65.65"/>
    <path id="Pfad_688" data-name="Pfad 688" class="cls-1" d="M582.78,986.91c0,.36-.29.65-.65.65s-.65-.29-.66-.65c0-.36.29-.65.65-.66.36,0,.65.29.65.66"/>
    <path id="Pfad_689" data-name="Pfad 689" class="cls-1" d="M612.02,939.44c0,.36-.29.65-.65.66-.36,0-.65-.29-.66-.66,0-.36.29-.65.66-.65s.65.29.65.65"/>
    <path id="Pfad_690" data-name="Pfad 690" class="cls-1" d="M639.06,942.06c0,.36-.29.65-.65.66-.36,0-.65-.29-.66-.65,0-.36.29-.65.66-.66.36,0,.65.29.65.66"/>
    <path id="Pfad_691" data-name="Pfad 691" class="cls-1" d="M712.5,600.56c0,.36-.29.65-.65.66-.36,0-.65-.29-.66-.66,0-.36.29-.65.66-.65s.65.29.65.65"/>
    <path id="Pfad_692" data-name="Pfad 692" class="cls-1" d="M806.87,696.73c0,.36-.29.65-.65.66-.36,0-.65-.29-.66-.66,0-.36.29-.65.65-.65s.65.29.65.65"/>
    <path id="Pfad_693" data-name="Pfad 693" class="cls-1" d="M798.24,483.93c0,.36-.29.65-.65.65s-.65-.29-.66-.65c0-.36.29-.65.65-.66.36,0,.65.29.65.66"/>
    <path id="Pfad_694" data-name="Pfad 694" class="cls-1" d="M853.05,502.17c0,.36-.29.65-.65.65s-.65-.29-.66-.65c0-.36.29-.65.65-.66.36,0,.65.29.65.66"/>
    <path id="Pfad_695" data-name="Pfad 695" class="cls-1" d="M833.29,723.42c0,.36-.29.65-.65.66-.36,0-.65-.29-.66-.65,0-.36.29-.65.65-.66.36,0,.65.29.65.66"/>
    <path id="Pfad_696" data-name="Pfad 696" class="cls-1" d="M764.69,748.28c0,.36-.29.65-.65.66-.36,0-.65-.29-.66-.66,0-.36.29-.65.65-.65s.65.29.65.65"/>
    <path id="Pfad_697" data-name="Pfad 697" class="cls-1" d="M572.43,619.56c0,.36-.29.65-.65.65s-.65-.29-.65-.65.29-.65.65-.66c.36,0,.65.29.65.66"/>
    <path id="Pfad_698" data-name="Pfad 698" class="cls-1" d="M555.54,600.56c0,.36-.29.65-.65.66-.36,0-.65-.29-.66-.66,0-.36.29-.65.65-.65s.65.29.65.65"/>
    <path id="Pfad_699" data-name="Pfad 699" class="cls-1" d="M571.77,523.83c0,.36-.29.65-.65.65s-.65-.29-.66-.65c0-.36.29-.65.65-.66.36,0,.65.29.65.66"/>
    <path id="Pfad_700" data-name="Pfad 700" class="cls-1" d="M638.08,571.13c0,.36-.29.65-.65.66-.36,0-.65-.29-.66-.66,0-.36.29-.65.66-.66.36,0,.65.29.65.66"/>
    <path id="Pfad_701" data-name="Pfad 701" class="cls-1" d="M599.22,623.85c0,.36-.29.65-.65.66-.36,0-.65-.29-.66-.66,0-.36.29-.65.65-.66.36,0,.65.29.65.66"/>
    <path id="Pfad_702" data-name="Pfad 702" class="cls-1" d="M124.99,582.02c0,.36-.29.65-.65.65s-.66-.29-.66-.65h0c0-.36.29-.66.66-.66h0c.36,0,.65.3.65.66"/>
    <path id="Pfad_703" data-name="Pfad 703" class="cls-1" d="M91.23,657.11c0,.36-.29.65-.65.65s-.65-.29-.66-.65c0-.36.29-.65.65-.65s.65.29.65.65"/>
    <path id="Pfad_704" data-name="Pfad 704" class="cls-1" d="M591.92,367.17c0,.36-.29.65-.65.66h0c-.36,0-.65-.29-.66-.65,0-.36.29-.65.66-.65s.65.29.65.65"/>
    <path id="Pfad_705" data-name="Pfad 705" class="cls-1" d="M525.8,34.72c0,.36-.29.65-.65.65s-.65-.29-.66-.65c0-.36.29-.65.65-.65s.65.29.65.65"/>
    <path id="Pfad_706" data-name="Pfad 706" class="cls-1" d="M657.53,32.38c0,.36-.29.65-.65.65s-.65-.29-.66-.65c0-.36.29-.65.65-.65s.65.29.65.65"/>
    <path id="Pfad_707" data-name="Pfad 707" class="cls-1" d="M637.43,105.23c0,.36-.29.65-.65.65s-.65-.29-.66-.65c0-.36.29-.65.66-.65s.65.29.65.65"/>
    <path id="Pfad_708" data-name="Pfad 708" class="cls-1" d="M833.94,104.46c0,.36-.29.65-.65.65s-.65-.29-.66-.65c0-.36.29-.65.66-.65s.65.29.65.65"/>
    <path id="Pfad_709" data-name="Pfad 709" class="cls-1" d="M613.66,449.99c0,.36-.29.65-.65.65s-.65-.29-.66-.65c0-.36.29-.65.65-.65s.65.29.65.65"/>
    <path id="Pfad_710" data-name="Pfad 710" class="cls-1" d="M591.91,558.93c0,.36-.29.65-.65.65s-.65-.29-.66-.65c0-.36.29-.65.65-.65s.65.29.65.65"/>
    <path id="Pfad_711" data-name="Pfad 711" class="cls-1" d="M425.9,620.21c0,.36-.29.65-.65.65s-.65-.29-.66-.65c0-.36.29-.65.65-.65s.65.29.65.65"/>
    <path id="Pfad_712" data-name="Pfad 712" class="cls-1" d="M599.87,502.82c0,.36-.29.65-.65.65s-.65-.29-.66-.65c0-.36.29-.65.66-.65s.65.29.65.65"/>
    <path id="Pfad_713" data-name="Pfad 713" class="cls-1" d="M353.39,752.76c0,.36-.29.65-.65.65s-.65-.29-.66-.65c0-.36.29-.66.66-.65.36,0,.65.29.65.65h0"/>
    <path id="Pfad_714" data-name="Pfad 714" class="cls-1" d="M104.13,180.24c0,.36-.29.65-.65.65s-.65-.29-.66-.65c0-.36.29-.65.65-.65s.65.29.65.65"/>
    <path id="Pfad_715" data-name="Pfad 715" class="cls-1" d="M186.48,234.28c0,.36-.29.65-.65.65s-.66-.29-.66-.65h0c0-.36.29-.65.66-.65h0c.36,0,.65.29.65.65"/>
    <path id="Pfad_716" data-name="Pfad 716" class="cls-1" d="M187.14,199.18c0,.36-.29.65-.65.66h0c-.36,0-.65-.29-.66-.65,0-.36.29-.65.65-.65s.65.29.65.65"/>
    <path id="Pfad_717" data-name="Pfad 717" class="cls-1" d="M190.18,101.09c0,.36-.29.65-.65.65s-.65-.29-.66-.65c0-.36.29-.65.66-.65s.65.29.65.65"/>
    <path id="Pfad_718" data-name="Pfad 718" class="cls-1" d="M527.23,152.1c0,.36-.29.65-.65.65s-.65-.29-.66-.65c0-.36.29-.65.65-.65s.65.29.65.65"/>
    <path id="Pfad_719" data-name="Pfad 719" class="cls-1" d="M540.67,115.24c0,.36-.29.65-.65.65s-.65-.29-.66-.65c0-.36.29-.65.65-.65s.65.29.65.65"/>
    <path id="Pfad_720" data-name="Pfad 720" class="cls-1" d="M505.73,119.04c0,.36-.29.65-.65.65s-.65-.29-.66-.65c0-.36.29-.65.66-.65s.65.29.65.65"/>
    <path id="Pfad_721" data-name="Pfad 721" class="cls-1" d="M542.45,60.83c0,.36-.29.65-.65.65s-.65-.29-.66-.65c0-.36.29-.65.65-.65s.65.29.65.65"/>
    <path id="Pfad_722" data-name="Pfad 722" class="cls-1" d="M184.9,671.65c0,.36-.43.65-.98.65s-.97-.29-.97-.65.44-.65.97-.65.98.29.98.65"/>
    <path id="Pfad_723" data-name="Pfad 723" class="cls-1" d="M436.99,248.81c0,.82-.67,1.49-1.49,1.49s-1.5-.67-1.5-1.49.67-1.5,1.5-1.5,1.49.67,1.49,1.5"/>
    <path id="Pfad_724" data-name="Pfad 724" class="cls-1" d="M493.62,302.69c0,.82-.67,1.49-1.49,1.49s-1.5-.67-1.5-1.49.67-1.5,1.5-1.5,1.49.67,1.49,1.49h0"/>
    <path id="Pfad_725" data-name="Pfad 725" class="cls-1" d="M467.62,513.84c0,.82-.67,1.49-1.49,1.49s-1.49-.67-1.49-1.49.67-1.5,1.49-1.5,1.49.67,1.49,1.5"/>
    <path id="Pfad_726" data-name="Pfad 726" class="cls-1" d="M211.81,738.23c0,.82-.67,1.49-1.49,1.49s-1.49-.67-1.5-1.49c0-.83.67-1.5,1.49-1.5s1.49.67,1.49,1.5"/>
    <path id="Pfad_727" data-name="Pfad 727" class="cls-1" d="M297.52,839.3c0,.82-.67,1.49-1.49,1.49s-1.49-.67-1.49-1.49.67-1.5,1.49-1.5,1.49.67,1.49,1.5"/>
    <path id="Pfad_728" data-name="Pfad 728" class="cls-1" d="M825.09,630.99c0,.82-.67,1.49-1.49,1.49s-1.49-.67-1.49-1.49.67-1.5,1.49-1.5,1.49.67,1.49,1.5"/>
    <path id="Pfad_729" data-name="Pfad 729" class="cls-1" d="M791.74,383.14c0,.82-.67,1.49-1.49,1.49s-1.49-.67-1.5-1.49c0-.83.67-1.5,1.49-1.5s1.49.67,1.49,1.5"/>
    <path id="Pfad_730" data-name="Pfad 730" class="cls-1" d="M707.53,290.39c0,.82-.67,1.49-1.49,1.49s-1.5-.67-1.5-1.49.67-1.5,1.5-1.5,1.49.67,1.49,1.5"/>
    <path id="Pfad_731" data-name="Pfad 731" class="cls-1" d="M728.6,214.29c0,.82-.67,1.49-1.49,1.49s-1.5-.67-1.5-1.49.67-1.5,1.5-1.5,1.49.67,1.49,1.5"/>
    <path id="Pfad_732" data-name="Pfad 732" class="cls-1" d="M982.74,192.74c0,.82-.67,1.49-1.49,1.49s-1.5-.67-1.5-1.49.67-1.5,1.5-1.5,1.49.67,1.49,1.49h0"/>
    <path id="Pfad_733" data-name="Pfad 733" class="cls-1" d="M888.42,391.2c0,.82-.67,1.49-1.49,1.49s-1.49-.67-1.5-1.49c0-.83.67-1.5,1.49-1.5s1.49.67,1.49,1.5"/>
    <path id="Pfad_734" data-name="Pfad 734" class="cls-1" d="M889.91,336.42c0,.82-.67,1.49-1.49,1.49s-1.5-.67-1.5-1.49.67-1.5,1.5-1.5,1.49.67,1.49,1.49h0"/>
    <path id="Pfad_735" data-name="Pfad 735" class="cls-1" d="M944.26,510.15c0,.82-.67,1.49-1.49,1.49s-1.5-.67-1.5-1.49.67-1.5,1.5-1.5,1.49.67,1.49,1.5h0"/>
    <path id="Pfad_736" data-name="Pfad 736" class="cls-1" d="M886.92,469.63c0,.82-.67,1.49-1.49,1.49s-1.5-.67-1.5-1.49.67-1.5,1.5-1.5h0c.83,0,1.49.67,1.49,1.5"/>
    <path id="Pfad_737" data-name="Pfad 737" class="cls-1" d="M891.41,564.17c0,.82-.67,1.49-1.49,1.49s-1.5-.67-1.5-1.49.67-1.5,1.5-1.5h0c.83,0,1.49.67,1.49,1.5"/>
    <path id="Pfad_738" data-name="Pfad 738" class="cls-1" d="M1134.4,523.18c0,.82-.67,1.49-1.49,1.49s-1.49-.67-1.49-1.49.67-1.5,1.49-1.5,1.49.67,1.49,1.5"/>
    <path id="Pfad_739" data-name="Pfad 739" class="cls-1" d="M1184.66,348.59c0,.82-.67,1.49-1.49,1.49s-1.5-.67-1.5-1.49.67-1.5,1.5-1.5,1.49.67,1.49,1.5"/>
    <path id="Pfad_740" data-name="Pfad 740" class="cls-1" d="M955.04,93.54c0,.82-.67,1.49-1.49,1.49s-1.49-.67-1.5-1.49c0-.83.67-1.5,1.49-1.5s1.49.67,1.49,1.5"/>
    <path id="Pfad_741" data-name="Pfad 741" class="cls-1" d="M1135.9,161.44c0,.82-.67,1.49-1.49,1.49s-1.49-.67-1.5-1.49c0-.83.67-1.5,1.49-1.5s1.49.67,1.49,1.5"/>
    <path id="Pfad_742" data-name="Pfad 742" class="cls-1" d="M1119.83,423.17c0,.82-.67,1.49-1.49,1.49s-1.5-.67-1.5-1.49.67-1.5,1.5-1.5,1.49.67,1.49,1.49h0"/>
    <path id="Pfad_743" data-name="Pfad 743" class="cls-1" d="M985.73,643.3c0,.82-.67,1.49-1.49,1.49s-1.5-.67-1.5-1.49.67-1.5,1.5-1.5,1.49.67,1.49,1.5"/>
    <path id="Pfad_744" data-name="Pfad 744" class="cls-1" d="M942.77,707.72c0,.82-.67,1.49-1.49,1.49s-1.5-.67-1.5-1.49.67-1.5,1.5-1.5h0c.83,0,1.49.67,1.49,1.5"/>
    <path id="Pfad_745" data-name="Pfad 745" class="cls-1" d="M924.27,639.21c0,.82-.67,1.49-1.49,1.49s-1.5-.67-1.5-1.49.67-1.5,1.5-1.5,1.49.67,1.49,1.49h0"/>
    <path id="Pfad_746" data-name="Pfad 746" class="cls-1" d="M925.77,772.75c0,.82-.67,1.49-1.49,1.49s-1.5-.67-1.5-1.49.67-1.5,1.5-1.5,1.49.67,1.49,1.5"/>
    <path id="Pfad_747" data-name="Pfad 747" class="cls-1" d="M1001.95,796.51c0,.82-.67,1.49-1.49,1.49s-1.49-.67-1.49-1.49.67-1.5,1.49-1.5,1.49.67,1.49,1.5"/>
    <path id="Pfad_748" data-name="Pfad 748" class="cls-1" d="M1173.84,601.22c0,.82-.67,1.49-1.49,1.49s-1.5-.67-1.5-1.49.67-1.5,1.5-1.5,1.49.67,1.49,1.49h0"/>
    <path id="Pfad_749" data-name="Pfad 749" class="cls-1" d="M1129.82,765.61c0,.82-.67,1.49-1.49,1.49s-1.49-.67-1.5-1.49c0-.83.67-1.5,1.49-1.5s1.49.67,1.49,1.49h0"/>
    <path id="Pfad_750" data-name="Pfad 750" class="cls-1" d="M629.89,205.05c0,.82-.67,1.49-1.49,1.49s-1.49-.67-1.49-1.49.67-1.5,1.49-1.5,1.49.67,1.49,1.5"/>
    <path id="Pfad_751" data-name="Pfad 751" class="cls-1" d="M637.61,130.94c0,.82-.67,1.49-1.49,1.49s-1.5-.67-1.5-1.49.67-1.5,1.5-1.5,1.49.67,1.49,1.5"/>
    <path id="Pfad_752" data-name="Pfad 752" class="cls-1" d="M827.11,76.22c0,.82-.67,1.49-1.49,1.49s-1.5-.67-1.5-1.49.67-1.5,1.5-1.5,1.49.67,1.49,1.49h0"/>
    <path id="Pfad_753" data-name="Pfad 753" class="cls-1" d="M853.23,128.98c0,.82-.67,1.49-1.49,1.49s-1.5-.67-1.5-1.49.67-1.5,1.5-1.5h0c.83,0,1.49.67,1.49,1.5"/>
    <path id="Pfad_754" data-name="Pfad 754" class="cls-1" d="M111.56,707.72c0,.82-.67,1.49-1.49,1.49s-1.5-.67-1.5-1.49.67-1.5,1.5-1.5h0c.83,0,1.49.67,1.49,1.5"/>
    <path id="Pfad_755" data-name="Pfad 755" class="cls-1" d="M688.02,528.08c0,1.08-.88,1.96-1.96,1.96s-1.96-.88-1.96-1.96.88-1.96,1.96-1.96,1.96.88,1.96,1.96"/>
    <path id="Pfad_756" data-name="Pfad 756" class="cls-1" d="M375.26,528.08c0,1.08-.88,1.96-1.96,1.96s-1.96-.88-1.96-1.96.88-1.96,1.96-1.96,1.96.88,1.96,1.96h0"/>
    <path id="Pfad_757" data-name="Pfad 757" class="cls-1" d="M722.38,365.21c0,1.08-.88,1.96-1.96,1.96s-1.96-.88-1.96-1.96.88-1.96,1.96-1.96,1.96.88,1.96,1.96"/>
    <path id="Pfad_758" data-name="Pfad 758" class="cls-1" d="M727.75,817.39c0,1.08-.88,1.96-1.96,1.96s-1.96-.88-1.96-1.96.88-1.96,1.96-1.96,1.96.88,1.96,1.96h0"/>
    <path id="Pfad_759" data-name="Pfad 759" class="cls-1" d="M545.53,895.3c0,1.08-.88,1.96-1.96,1.96s-1.96-.88-1.96-1.96.88-1.96,1.96-1.96,1.96.88,1.96,1.96h0"/>
    <path id="Pfad_760" data-name="Pfad 760" class="cls-1" d="M547.49,988.87c0,1.08-.88,1.96-1.96,1.96s-1.96-.88-1.96-1.96.88-1.96,1.96-1.96,1.96.88,1.96,1.96"/>
    <path id="Pfad_761" data-name="Pfad 761" class="cls-1" d="M509.65,650.71c0,1.08-.88,1.96-1.96,1.96s-1.96-.88-1.96-1.96.88-1.96,1.96-1.96,1.96.88,1.96,1.96h0"/>
    <path id="Pfad_762" data-name="Pfad 762" class="cls-1" d="M586.05,711.17c0,1.08-.88,1.96-1.96,1.96s-1.96-.88-1.96-1.96.88-1.96,1.96-1.96,1.96.88,1.96,1.96"/>
    <path id="Pfad_763" data-name="Pfad 763" class="cls-1" d="M126.29,539.62c0,1.08-.88,1.96-1.95,1.96s-1.96-.88-1.96-1.96h0c0-1.08.88-1.96,1.96-1.96h0c1.08,0,1.96.88,1.95,1.96"/>
    <path id="Pfad_764" data-name="Pfad 764" class="cls-1" d="M262.94,367.83c0,1.08-.88,1.96-1.96,1.96s-1.96-.88-1.96-1.96.88-1.96,1.96-1.96,1.96.88,1.96,1.96"/>
    <path id="Pfad_765" data-name="Pfad 765" class="cls-1" d="M219.46,174.46c0,.82-.67,1.49-1.49,1.49s-1.49-.67-1.49-1.49.67-1.5,1.49-1.5,1.49.67,1.49,1.49h0"/>
    <path id="Pfad_766" data-name="Pfad 766" class="cls-1" d="M724.48,789.81c0,.82-.67,1.49-1.49,1.49s-1.49-.67-1.49-1.49.67-1.5,1.49-1.5,1.49.67,1.49,1.49h0"/>
    <path id="Pfad_767" data-name="Pfad 767" class="cls-1" d="M363.53,270.29c0,.98-.8,1.77-1.78,1.77s-1.77-.79-1.78-1.77c0-.98.79-1.78,1.77-1.78h0c.98,0,1.77.79,1.78,1.77h0"/>
    <path id="Pfad_768" data-name="Pfad 768" class="cls-1" d="M328.9,153.88c0,.98-.79,1.77-1.77,1.77s-1.78-.79-1.78-1.77.8-1.78,1.78-1.78h0c.98,0,1.77.79,1.78,1.77h0"/>
    <path id="Pfad_769" data-name="Pfad 769" class="cls-1" d="M543.57,301.19c0,.98-.79,1.77-1.77,1.78-.98,0-1.78-.79-1.78-1.78s.8-1.78,1.78-1.78h0c.98,0,1.77.79,1.78,1.77h0"/>
    <path id="Pfad_770" data-name="Pfad 770" class="cls-1" d="M515.07,510.15c0,.98-.8,1.77-1.77,1.77s-1.77-.79-1.78-1.77c0-.98.79-1.78,1.77-1.78h0c.98,0,1.77.79,1.78,1.77h0"/>
    <path id="Pfad_771" data-name="Pfad 771" class="cls-1" d="M769.68,467.86c0,.98-.79,1.77-1.77,1.77s-1.78-.79-1.78-1.77.8-1.78,1.78-1.78h0c.98,0,1.77.79,1.78,1.77h0"/>
    <path id="Pfad_772" data-name="Pfad 772" class="cls-1" d="M660.43,775.3c0,.98-.8,1.77-1.77,1.77s-1.77-.79-1.78-1.77c0-.98.79-1.78,1.78-1.78h0c.98,0,1.77.79,1.78,1.77h0"/>
    <path id="Pfad_773" data-name="Pfad 773" class="cls-1" d="M549.27,798.29c0,.98-.79,1.77-1.77,1.78-.98,0-1.78-.79-1.78-1.78s.8-1.78,1.78-1.78h0c.98,0,1.77.79,1.77,1.77h0"/>
    <path id="Pfad_774" data-name="Pfad 774" class="cls-1" d="M730.08,725.2c0,.98-.8,1.77-1.77,1.77s-1.77-.79-1.78-1.77c0-.98.79-1.78,1.77-1.78h0c.98,0,1.77.79,1.78,1.77h0"/>
    <path id="Pfad_775" data-name="Pfad 775" class="cls-1" d="M443.67,806.61c0,.98-.8,1.77-1.77,1.77s-1.77-.79-1.78-1.77c0-.98.79-1.78,1.78-1.78h0c.98,0,1.77.79,1.78,1.77h0"/>
    <path id="Pfad_776" data-name="Pfad 776" class="cls-1" d="M446.53,906.81c0,.98-.79,1.77-1.77,1.77s-1.78-.79-1.78-1.77.8-1.78,1.78-1.78h0c.98,0,1.77.79,1.78,1.77h0"/>
    <path id="Pfad_777" data-name="Pfad 777" class="cls-1" d="M189.52,432.85c0,2.04-1.66,3.7-3.7,3.7h0c-2.04,0-3.7-1.66-3.7-3.7s1.66-3.7,3.7-3.7,3.7,1.66,3.7,3.7"/>
    <path id="Pfad_778" data-name="Pfad 778" class="cls-1" d="M128.03,304.83c0,2.04-1.66,3.7-3.7,3.7h0c-2.04,0-3.7-1.66-3.7-3.7s1.66-3.7,3.7-3.7,3.7,1.66,3.7,3.7"/>
    <path id="Pfad_779" data-name="Pfad 779" class="cls-1" d="M147.36,149.11c0,2.04-1.66,3.7-3.7,3.7h0c-2.04,0-3.7-1.65-3.7-3.69h0c0-2.05,1.65-3.71,3.69-3.71h0c2.04,0,3.7,1.66,3.7,3.7"/>
    <path id="Pfad_780" data-name="Pfad 780" class="cls-1" d="M424.72,383.14c0,2.04-1.66,3.69-3.7,3.69s-3.7-1.65-3.7-3.69,1.66-3.7,3.7-3.7,3.7,1.66,3.7,3.7"/>
    <path id="Pfad_781" data-name="Pfad 781" class="cls-1" d="M1057.43,408.1c0,2.04-1.66,3.7-3.7,3.7h0c-2.04,0-3.7-1.66-3.7-3.7s1.66-3.7,3.7-3.7,3.7,1.66,3.7,3.7"/>
    <path id="Pfad_782" data-name="Pfad 782" class="cls-1" d="M1183.16,737.07c0,2.04-1.66,3.7-3.7,3.7h0c-2.04,0-3.7-1.66-3.7-3.7s1.66-3.7,3.7-3.7,3.7,1.66,3.7,3.7"/>
    <path id="Pfad_783" data-name="Pfad 783" class="cls-1" d="M952.23,861.44c0,2.04-1.66,3.7-3.7,3.7h0c-2.04,0-3.7-1.65-3.7-3.69h0c0-2.05,1.65-3.7,3.69-3.71h0c2.04,0,3.7,1.65,3.7,3.69"/>
    <path id="Pfad_784" data-name="Pfad 784" class="cls-1" d="M965.95,1004.75c0,2.04-1.66,3.7-3.7,3.7h0c-2.04,0-3.7-1.66-3.7-3.7s1.66-3.7,3.7-3.7,3.7,1.66,3.7,3.7"/>
    <path id="Pfad_785" data-name="Pfad 785" class="cls-1" d="M554.88,184.33c0,2.04-1.66,3.7-3.7,3.7h0c-2.04,0-3.7-1.66-3.7-3.7s1.66-3.7,3.7-3.7,3.7,1.66,3.7,3.7"/>
    <path id="Pfad_786" data-name="Pfad 786" class="cls-1" d="M696.94,47.46c0,2.04-1.66,3.7-3.7,3.7h0c-2.04,0-3.7-1.66-3.7-3.7s1.66-3.7,3.7-3.7,3.7,1.66,3.7,3.7"/>
    <path id="Pfad_787" data-name="Pfad 787" class="cls-1" d="M654.34,237.3c0,2.04-1.66,3.7-3.7,3.7h0c-2.04,0-3.7-1.66-3.7-3.7s1.66-3.7,3.7-3.7,3.7,1.66,3.7,3.7"/>
    <path id="Pfad_788" data-name="Pfad 788" class="cls-1" d="M598.56,54.14c0,2.04-1.66,3.7-3.7,3.7h0c-2.04,0-3.7-1.66-3.7-3.7s1.66-3.7,3.7-3.7,3.7,1.66,3.7,3.7"/>
    <path id="Pfad_789" data-name="Pfad 789" class="cls-1" d="M428.94,43.76c0,2.04-1.66,3.7-3.7,3.7h0c-2.04,0-3.7-1.66-3.69-3.7,0-2.04,1.65-3.7,3.69-3.7s3.7,1.66,3.7,3.7"/>
    <path id="Pfad_790" data-name="Pfad 790" class="cls-1" d="M750.23,506.52c0,2.04-1.66,3.7-3.7,3.7h0c-2.04,0-3.7-1.66-3.7-3.7s1.66-3.7,3.7-3.7,3.7,1.66,3.7,3.7"/>
    <path id="Pfad_791" data-name="Pfad 791" class="cls-1" d="M151.52,805.99c0,.18-.15.33-.33.33s-.33-.15-.33-.33.15-.33.33-.33.33.15.33.33"/>
    <path id="Pfad_792" data-name="Pfad 792" class="cls-1" d="M190.7,847.13c0,.18-.15.33-.33.33s-.33-.15-.33-.33.15-.33.33-.33.33.15.33.33"/>
    <path id="Pfad_793" data-name="Pfad 793" class="cls-1" d="M64.3,965.11c0,.18-.15.33-.33.33s-.33-.15-.33-.33.15-.33.33-.33.33.15.33.33"/>
    <path id="Pfad_794" data-name="Pfad 794" class="cls-1" d="M239.88,938.17c0,.18-.15.33-.33.33s-.33-.15-.33-.33.15-.33.33-.33.33.15.33.33"/>
    <path id="Pfad_795" data-name="Pfad 795" class="cls-1" d="M28.17,964.79c0,.18-.15.33-.33.33s-.33-.15-.33-.33.15-.33.33-.33.33.15.33.33"/>
    <path id="Pfad_796" data-name="Pfad 796" class="cls-1" d="M214.19,909.24c0,.36-.29.65-.65.66-.36,0-.65-.29-.66-.66,0-.36.29-.65.65-.65s.65.29.65.65"/>
    <path id="Pfad_797" data-name="Pfad 797" class="cls-1" d="M50.59,758.09c0,.36-.29.65-.65.66-.36,0-.65-.29-.66-.66,0-.36.29-.65.66-.65s.65.29.65.65"/>
    <path id="Pfad_798" data-name="Pfad 798" class="cls-1" d="M44.87,792.11c0,.36-.29.65-.65.65s-.65-.29-.66-.65c0-.36.29-.65.66-.65s.65.29.65.65"/>
    <path id="Pfad_799" data-name="Pfad 799" class="cls-1" d="M58.61,850.01c0,.36-.29.65-.65.65s-.65-.29-.66-.65c0-.36.29-.65.66-.66.36,0,.65.3.65.66"/>
    <path id="Pfad_800" data-name="Pfad 800" class="cls-1" d="M37.5,888.41c0,.36-.29.65-.65.66-.36,0-.65-.29-.66-.66,0-.36.29-.65.66-.65s.65.29.65.65"/>
    <path id="Pfad_801" data-name="Pfad 801" class="cls-1" d="M2.31,912.32c0,.36-.29.65-.65.66-.36,0-.65-.29-.66-.66,0-.36.29-.65.66-.65s.65.29.65.65"/>
    <path id="Pfad_802" data-name="Pfad 802" class="cls-1" d="M89.22,919.17c0,.36-.29.65-.65.66-.36,0-.65-.29-.66-.66,0-.36.29-.65.65-.65s.65.29.65.65"/>
    <path id="Pfad_803" data-name="Pfad 803" class="cls-1" d="M134.25,839.79c0,.36-.29.65-.65.66-.36,0-.65-.29-.66-.66,0-.36.29-.65.65-.65s.65.29.65.65"/>
    <path id="Pfad_804" data-name="Pfad 804" class="cls-1" d="M169.26,823.16c0,.36-.29.65-.65.65s-.65-.29-.66-.65c0-.36.29-.65.65-.66.36,0,.65.29.65.66"/>
    <path id="Pfad_805" data-name="Pfad 805" class="cls-1" d="M285.47,831.11c0,.36-.29.65-.65.66-.36,0-.65-.29-.66-.66,0-.36.29-.65.65-.65s.65.29.65.65"/>
    <path id="Pfad_806" data-name="Pfad 806" class="cls-1" d="M270.9,901.73c0,.36-.29.65-.65.66-.36,0-.65-.29-.66-.66,0-.36.29-.65.66-.66.36,0,.65.29.65.66"/>
    <path id="Pfad_807" data-name="Pfad 807" class="cls-1" d="M151.2,949.08c0,.36-.29.65-.65.65s-.65-.29-.66-.65c0-.36.29-.65.65-.66.36,0,.65.29.65.66"/>
    <path id="Pfad_808" data-name="Pfad 808" class="cls-1" d="M180.79,878.24c0,.36-.29.65-.65.65s-.65-.29-.66-.65c0-.36.29-.65.65-.66.36,0,.65.29.65.66"/>
    <path id="Pfad_809" data-name="Pfad 809" class="cls-1" d="M181.44,922.87c0,.36-.29.65-.65.66-.36,0-.65-.29-.66-.66,0-.36.29-.65.65-.65s.65.29.65.65"/>
    <path id="Pfad_810" data-name="Pfad 810" class="cls-1" d="M105.45,874.61c0,.82-.67,1.49-1.49,1.49s-1.5-.67-1.5-1.49.67-1.5,1.5-1.5,1.49.67,1.49,1.49h0"/>
    <path id="Pfad_811" data-name="Pfad 811" class="cls-1" d="M77.75,775.41c0,.82-.67,1.49-1.49,1.49s-1.49-.67-1.5-1.49c0-.83.67-1.5,1.49-1.5s1.49.67,1.49,1.5"/>
    <path id="Pfad_812" data-name="Pfad 812" class="cls-1" d="M258.6,843.31c0,.82-.67,1.49-1.49,1.49s-1.49-.67-1.5-1.49c0-.83.67-1.5,1.49-1.5s1.49.67,1.49,1.5"/>
    <path id="Pfad_813" data-name="Pfad 813" class="cls-1" d="M349.04,891.41c0,2.04-1.66,3.69-3.7,3.69s-3.7-1.65-3.7-3.69,1.66-3.7,3.7-3.7,3.7,1.66,3.7,3.7"/>
    <path id="Pfad_826" data-name="Pfad 826" class="cls-1" d="M324.85,453.39c-4.7.45-5.06.95-5.33,8.44,0,.01-.01.03-.03.03s-.02-.01-.02-.03c-.28-7.5-.63-7.99-5.33-8.44-.01,0-.02-.01-.02-.03s.01-.02.02-.02c4.7-.45,5.06-.95,5.33-8.44,0-.01.01-.02.02-.02s.03.01.03.02c.28,7.5.63,7.99,5.33,8.44.01,0,.03.01.03.02s-.01.03-.03.03"/>
    <path id="Pfad_827" data-name="Pfad 827" class="cls-1" d="M337.27,472.52c-3.05.29-3.29.61-3.47,5.49,0,0-.01.01-.02.01,0,0-.01,0-.01-.01-.18-4.87-.41-5.2-3.47-5.49,0,0-.02,0-.02-.02s0-.02.02-.02c3.05-.29,3.29-.61,3.47-5.49,0,0,.01-.01.02-.01,0,0,.01,0,.01.01.18,4.87.41,5.2,3.47,5.49,0,0,.02,0,.02.02s0,.02-.02.02"/>
    <path id="Pfad_828" data-name="Pfad 828" class="cls-1" d="M669.94,201.48c-4.7.45-5.06.95-5.33,8.44,0,0-.01.03-.03.03s-.02,0-.02-.03c-.28-7.5-.63-7.99-5.33-8.44-.01,0-.02,0-.02-.03s.01-.02.02-.02c4.7-.45,5.06-.95,5.33-8.44,0,0,.01-.02.02-.02s.03,0,.03.02c.28,7.5.63,7.99,5.33,8.44.01,0,.03,0,.03.02s-.01.03-.03.03"/>
    <path id="Pfad_829" data-name="Pfad 829" class="cls-1" d="M394.78,245.2c-3.05.29-3.29.61-3.47,5.49,0,0-.01,0-.02,0,0,0-.01,0-.01,0-.18-4.87-.41-5.2-3.47-5.49,0,0-.02,0-.02-.02s0-.02.02-.02c3.05-.29,3.29-.61,3.47-5.49,0,0,.01,0,.02,0,0,0,.01,0,.01,0,.18,4.87.41,5.2,3.47,5.49,0,0,.02,0,.02.02s0,.02-.02.02"/>
  </g>
</svg>