<?xml version="1.0" encoding="UTF-8"?>
<svg id="Ebene_1" data-name="Ebene 1" xmlns="http://www.w3.org/2000/svg" version="1.1" viewBox="0 0 59 59">
  <defs>
    <style>
      .cls-1 {
        fill: #4a3c27;
      }

      .cls-1, .cls-2 {
        stroke-width: 0px;
      }

      .cls-2 {
        fill: #051017;
      }
    </style>
  </defs>
  <path class="cls-2" d="M0,0v59h59V0H0ZM29.5,58c-15.74,0-28.5-12.76-28.5-28.5S13.76,1,29.5,1s28.5,12.76,28.5,28.5-12.76,28.5-28.5,28.5Z"/>
  <path class="cls-1" d="M0,0v59h59V0H0ZM50,53.5c0-.6.17-1.16.43-1.65l4.72,4.72c-.49.27-1.05.43-1.65.43-1.93,0-3.5-1.57-3.5-3.5ZM56.57,55.15l-4.72-4.72c.49-.27,1.05-.43,1.65-.43,1.93,0,3.5,1.57,3.5,3.5,0,.6-.17,1.16-.43,1.65ZM29.5,57c-15.16,0-27.5-12.34-27.5-27.5S14.34,2,29.5,2s27.5,12.34,27.5,27.5-12.34,27.5-27.5,27.5ZM2.53,55.33c-.33-.53-.53-1.16-.53-1.83,0-1.93,1.57-3.5,3.5-3.5.84,0,1.6.31,2.2.8l-5.17,4.53ZM4.04,56.67l4.79-4.19c.1.33.17.66.17,1.02,0,1.93-1.57,3.5-3.5,3.5-.52,0-1.01-.12-1.46-.33ZM9,5.5c0,.59-.16,1.15-.43,1.64L3.86,2.43c.49-.26,1.04-.43,1.64-.43,1.93,0,3.5,1.57,3.5,3.5ZM2.44,3.83l4.73,4.73c-.5.27-1.06.44-1.67.44-1.93,0-3.5-1.57-3.5-3.5,0-.61.17-1.17.44-1.67ZM50,5.5c0-1.93,1.57-3.5,3.5-3.5.6,0,1.16.17,1.65.43l-4.72,4.72c-.27-.49-.43-1.05-.43-1.65ZM56.57,3.85c.27.49.43,1.05.43,1.65,0,1.93-1.57,3.5-3.5,3.5-.6,0-1.16-.17-1.65-.43l4.72-4.72ZM49.26,2c-.79.95-1.26,2.17-1.26,3.5,0,.39.04.77.12,1.14-2.38-1.94-5.06-3.51-7.96-4.64h9.1ZM10.88,6.64c.08-.37.12-.75.12-1.14,0-1.33-.47-2.55-1.26-3.5h9.1c-2.9,1.13-5.59,2.7-7.96,4.64ZM2,9.74c.95.79,2.17,1.26,3.5,1.26.39,0,.77-.04,1.14-.12-1.94,2.38-3.51,5.06-4.64,7.96v-9.1ZM6.64,48.12c-.37-.08-.75-.12-1.14-.12-1.33,0-2.55.47-3.5,1.26v-9.1c1.13,2.9,2.7,5.59,4.64,7.96ZM9.74,57c.79-.95,1.26-2.17,1.26-3.5,0-.39-.04-.77-.12-1.14,2.38,1.94,5.06,3.51,7.96,4.64h-9.1ZM48.12,52.36c-.08.37-.12.75-.12,1.14,0,1.33.47,2.55,1.26,3.5h-9.1c2.9-1.13,5.59-2.7,7.96-4.64ZM57,49.26c-.95-.79-2.17-1.26-3.5-1.26-.39,0-.77.04-1.14.12,1.94-2.38,3.51-5.06,4.64-7.96v9.1ZM52.36,10.88c.37.08.75.12,1.14.12,1.33,0,2.55-.47,3.5-1.26v9.1c-1.13-2.9-2.7-5.59-4.64-7.96Z"/>
</svg>