<?xml version="1.0" encoding="UTF-8"?>
<svg id="Ebene_1" data-name="Ebene 1" xmlns="http://www.w3.org/2000/svg" version="1.1" viewBox="0 0 93 93">
  <defs>
    <style>
     .cls-1 {
        fill:rgb(164, 90, 90);
      }

      .cls-1, .cls-2 {
        stroke-width: 0px;
      }

      .cls-2 {
         fill:rgb(60, 22, 22);
      }
    </style>
  </defs>
  <path class="cls-2" d="M0,0v6.9c47.5,0,86.1,38.5,86.1,86.1h6.9V0H0Z"/>
  <path class="cls-1" d="M85,93h2V6H0v2c46.9,0,85,38.1,85,85ZM85,74.4c-3.2-14.6-10.1-27.8-19.6-38.7,2.1.9,4.3,1.3,6.6,1.2,4.1-.2,8-1.9,10.8-4.9.9-.9,1.6-1.9,2.2-3v45.4h0ZM85,21.5c0,3.4-1.3,6.7-3.6,9.2-2.5,2.6-5.8,4.2-9.4,4.3-3.2,0-6.2-.9-8.7-2.8l18.5-19.4c1.9,2.2,3.1,5.1,3.2,8.3v.5h0ZM85,8v5.9c-1.4-2.5-3.4-4.5-5.9-5.9,0,0,5.9,0,5.9,0ZM71.6,8c3.3,0,6.4,1.2,8.8,3.3l-18.6,19.5c-2.3-2.4-3.6-5.5-3.8-8.9,0-3.6,1.2-7,3.6-9.7,2.4-2.6,5.7-4.1,9.3-4.3h.7ZM63.8,8c-1.3.8-2.6,1.7-3.7,2.9-2.7,2.9-4.2,6.6-4.2,10.5v.6c0,1.9.5,3.8,1.2,5.5-10.8-9.5-24.1-16.4-38.7-19.5h45.4Z"/>
</svg>