<?xml version="1.0" encoding="UTF-8"?>
<svg id="Ebene_1" data-name="Ebene 1" xmlns="http://www.w3.org/2000/svg" version="1.1" viewBox="0 0 93 93">
  <defs>
    <style>
      .cls-1 {
        fill: #a4895a;
      }

      .cls-1, .cls-2 {
        stroke-width: 0px;
      }

      .cls-2 {
        fill: #4a3c27;
      }
    </style>
  </defs>
  <path class="cls-2" d="M0,93h6.9C6.9,45.5,45.5,6.9,93,6.9V0H0v93Z"/>
  <path class="cls-1" d="M93,8v-2H6v87h2C8,46.1,46.1,8,93,8ZM74.4,8c-14.6,3.2-27.8,10.1-38.7,19.6.9-2.1,1.3-4.3,1.2-6.6-.2-4.1-1.9-8-4.9-10.8-.9-.9-1.9-1.6-3-2.2h45.4ZM21.5,8c3.4,0,6.7,1.3,9.2,3.6,2.6,2.5,4.2,5.8,4.3,9.4,0,3.2-.9,6.2-2.8,8.7L12.7,11.3c2.2-1.9,5.1-3.1,8.3-3.2h.5ZM8,8h5.9c-2.5,1.4-4.5,3.4-5.9,5.9,0,0,0-5.9,0-5.9ZM8,21.4c0-3.3,1.2-6.4,3.3-8.8l19.5,18.6c-2.4,2.3-5.5,3.6-8.9,3.8-3.6,0-7-1.2-9.7-3.6-2.6-2.4-4.1-5.7-4.3-9.3v-.6h.1ZM8,29.2c.8,1.3,1.7,2.6,2.9,3.7,2.9,2.7,6.6,4.2,10.5,4.2h.6c1.9,0,3.8-.5,5.5-1.2-9.5,10.8-16.4,24.1-19.5,38.7V29.2Z"/>
</svg>