<?xml version="1.0" encoding="UTF-8"?>
<svg id="Ebene_1" data-name="Ebene 1" xmlns="http://www.w3.org/2000/svg" version="1.1" viewBox="0 0 93 93">
  <defs>
    <style>
      .cls-1 {
        fill: #0c2831;
      }

      .cls-1, .cls-2 {
        stroke-width: 0px;
      }

      .cls-2 {
        fill: #367689;
      }
    </style>
  </defs>
  <path class="cls-1" d="M93,93v-6.9C45.5,86.1,6.9,47.6,6.9,0H0v93h93Z"/>
  <path class="cls-2" d="M8,0h-2v87h87v-2C46.1,85,8,46.9,8,0ZM8,18.6c3.2,14.6,10.1,27.9,19.6,38.7-2.1-.9-4.3-1.3-6.6-1.2-4.1.2-8,1.9-10.8,4.9-.9.9-1.6,1.9-2.2,3,0,0,0-45.4,0-45.4ZM8,71.5c0-3.4,1.3-6.7,3.6-9.2,2.5-2.6,5.8-4.2,9.4-4.3,3.2-.1,6.2.9,8.7,2.8l-18.5,19.4c-1.9-2.2-3.1-5.1-3.2-8.3v-.5h0ZM8,85v-5.9c1.4,2.5,3.4,4.5,5.9,5.9h-5.9ZM21.5,85c-3.3,0-6.4-1.2-8.8-3.3l18.6-19.5c2.3,2.4,3.6,5.5,3.8,8.8.1,3.6-1.2,7-3.6,9.7-2.4,2.6-5.7,4.1-9.3,4.3h-.6,0ZM29.2,85c1.4-.8,2.6-1.7,3.7-2.9,2.7-2.9,4.2-6.6,4.2-10.6v-.6c0-1.9-.5-3.8-1.2-5.5,10.9,9.5,24.1,16.3,38.7,19.5H29.2Z"/>
</svg>