<?xml version="1.0" encoding="UTF-8"?>
<svg id="Ebene_1" data-name="Ebene 1" xmlns="http://www.w3.org/2000/svg" version="1.1" viewBox="0 0 93 93">
  <defs>
    <style>
      .cls-1 {
        fill:rgb(227, 227, 227);
      }

      .cls-1, .cls-2 {
        stroke-width: 0px;
      }

      .cls-2 {
        fill:rgb(111, 111, 111);
      }
    </style>
  </defs>
  <path class="cls-2" d="M93,0h-6.9c0,47.5-38.5,86.1-86.1,86.1v6.9h93V0Z"/>
  <path class="cls-1" d="M0,85v2h87V0h-2c0,46.9-38.1,85-85,85ZM18.6,85c14.6-3.2,27.9-10.1,38.7-19.6-.9,2.1-1.3,4.3-1.2,6.6.2,4.1,1.9,8,4.9,10.8.9.9,1.9,1.6,3,2.2,0,0-45.4,0-45.4,0ZM71.5,85c-3.4,0-6.7-1.3-9.2-3.6-2.6-2.5-4.2-5.8-4.3-9.4-.1-3.2.9-6.2,2.8-8.7l19.4,18.5c-2.2,1.9-5.1,3.1-8.3,3.2h-.5ZM85,85h-5.9c2.5-1.4,4.5-3.4,5.9-5.9v5.9ZM85,71.5c0,3.3-1.2,6.4-3.3,8.8l-19.5-18.6c2.4-2.3,5.5-3.6,8.8-3.8,3.6-.1,7,1.2,9.7,3.6,2.6,2.4,4.1,5.7,4.3,9.3v.6h0ZM85,63.8c-.8-1.4-1.7-2.6-2.9-3.7-2.9-2.7-6.6-4.2-10.6-4.2h-.6c-1.9,0-3.8.5-5.5,1.2,9.5-10.9,16.3-24.1,19.5-38.7v45.3Z"/>
</svg>