<?xml version="1.0" encoding="UTF-8"?>
<svg id="Ebene_1" data-name="Ebene 1" xmlns="http://www.w3.org/2000/svg" version="1.1" viewBox="0 0 57 57">
  <defs>
    <style>
      .cls-1 {
        fill: #4a3c27;
      }

      .cls-1, .cls-2 {
        stroke-width: 0px;
      }

      .cls-2 {
        fill: none;
      }
    </style>
  </defs>
  <g id="Differenzmenge_157" data-name="Differenzmenge 157">
    <path class="cls-2" d="M49.87,57H7.06c-.18-3.78-3.28-6.76-7.06-6.8V6.8c3.78-.04,6.88-3.02,7.06-6.8h42.81c.17,3.81,3.32,6.81,7.13,6.8v43.4c-3.81,0-6.95,2.99-7.13,6.8h0Z"/>
    <path class="cls-1" d="M48.56,55.5c.74-3.42,3.49-6.07,6.94-6.67V8.17c-3.45-.6-6.2-3.25-6.94-6.67H8.37c-.74,3.39-3.46,6.03-6.87,6.66v40.68c3.41.63,6.14,3.27,6.87,6.66h40.19M49.87,57H7.06c-.18-3.78-3.28-6.76-7.06-6.8V6.8C3.78,6.77,6.89,3.78,7.06,0h42.81c.18,3.81,3.31,6.8,7.13,6.8v43.39c-3.82,0-6.95,2.99-7.13,6.8h0Z"/>
  </g>
</svg>