<?xml version="1.0" encoding="UTF-8"?>
<svg id="Ebene_1" data-name="Ebene 1" xmlns="http://www.w3.org/2000/svg" viewBox="0 0 87 87">
  <defs>
    <style>
      .cls-1 {
        fill: #a4895a;
        stroke-width: 0px;
      }
    </style>
  </defs>
  <path class="cls-1" d="M87,2V0H0v87h2C2,40.13,40.13,2,87,2ZM68.44,2c-14.6,3.19-27.85,10.05-38.71,19.57.88-2.06,1.32-4.3,1.24-6.6-.15-4.14-1.89-7.97-4.92-10.79-.92-.86-1.93-1.58-3-2.18h45.4ZM15.49,2.01c3.42,0,6.67,1.28,9.19,3.62,2.64,2.46,4.16,5.79,4.28,9.4.11,3.19-.88,6.24-2.81,8.73L6.72,5.26c2.24-1.92,5.11-3.13,8.28-3.24.16,0,.32,0,.48,0ZM2,2h5.92c-2.48,1.39-4.53,3.45-5.92,5.91V2ZM2,15.45c.01-3.34,1.25-6.41,3.31-8.78l19.5,18.57c-2.4,2.3-5.51,3.64-8.85,3.75-3.6.12-7.04-1.16-9.67-3.62-2.61-2.43-4.13-5.73-4.28-9.3v-.63ZM2,23.16c.77,1.35,1.74,2.6,2.91,3.69,2.89,2.7,6.62,4.16,10.55,4.16.18,0,.37,0,.56,0,1.93-.07,3.79-.5,5.52-1.23C12.03,40.62,5.18,53.85,2,68.44V23.16Z"/>
</svg>