<?xml version="1.0" encoding="UTF-8"?>
<svg id="Ebene_1" data-name="Ebene 1" xmlns="http://www.w3.org/2000/svg" viewBox="0 0 87 87">
  <defs>
    <style>
      .cls-1 {
        fill:rgb(255, 255, 255);
        stroke-width: 0px;
      }
    </style>
  </defs>
  <path class="cls-1" d="M2,0H0v87h87v-2C40.13,85,2,46.87,2,0ZM2,18.56c3.19,14.6,10.05,27.85,19.57,38.71-2.06-.88-4.3-1.32-6.6-1.24-4.14.15-7.97,1.89-10.79,4.92-.86.92-1.58,1.93-2.18,3V18.56ZM2.01,71.51c0-3.42,1.28-6.67,3.62-9.19,2.46-2.64,5.79-4.16,9.4-4.28,3.19-.11,6.24.88,8.73,2.81l-18.5,19.43c-1.92-2.24-3.13-5.11-3.24-8.28,0-.16,0-.32,0-.48ZM2,85v-5.92c1.39,2.48,3.45,4.53,5.91,5.92H2ZM15.45,85c-3.34-.01-6.41-1.25-8.78-3.31l18.57-19.5c2.3,2.4,3.64,5.51,3.75,8.85.12,3.6-1.16,7.04-3.62,9.67-2.43,2.61-5.73,4.13-9.3,4.28h-.63ZM23.16,85c1.35-.77,2.6-1.74,3.69-2.91,2.7-2.89,4.16-6.62,4.16-10.55,0-.18,0-.37,0-.56-.07-1.93-.5-3.79-1.23-5.52,10.86,9.5,24.09,16.35,38.67,19.54H23.16Z"/>
</svg>